<svg width="32" height="32" viewBox="0 0 32 32" fill="none" xmlns="http://www.w3.org/2000/svg">
<path d="M22 7.5L27 12M27 12V6M27 12H21" stroke="#1C1C1C" stroke-width="1.5" stroke-linecap="round" stroke-linejoin="round"/>
<mask id="mask0_95_2908" style="mask-type:alpha" maskUnits="userSpaceOnUse" x="3" y="4" width="24" height="24">
<circle cx="15" cy="16" r="11" stroke="black" stroke-width="1.5"/>
</mask>
<g mask="url(#mask0_95_2908)">
<path d="M21 10L24 6C24 5.33333 23.9 4 23.5 4C23.1 4 21.6667 2.66667 21 2C19.8333 2 17.2 2.1 16 2.5C14.5 3 10 3 8.5 3C7.3 3 4.66667 3.66667 3.5 4L1 9C0.5 10 0.5 12 0.5 13C0.5 14 3 21 3 21.5C3 21.9 5.33333 26.6667 6.5 29L19.5 28L23 26L21 24.5L19 17L21 10Z" fill="#1C1C1C"/>
</g>
</svg>
