<svg width="32" height="32" viewBox="0 0 32 32" fill="none" xmlns="http://www.w3.org/2000/svg">
<path fill-rule="evenodd" clip-rule="evenodd" d="M12 4C7.58172 4 4 7.58172 4 12V20C4 24.4183 7.58172 28 12 28H20C24.4183 28 28 24.4183 28 20V12C28 7.58172 24.4183 4 20 4H12ZM21.6839 12.2705C22.0869 12.6482 22.1073 13.281 21.7295 13.6839L16.1045 19.6839C15.9155 19.8856 15.6514 20 15.375 20C15.0986 20 14.8345 19.8856 14.6455 19.6839L11.2705 16.0839C10.8927 15.681 10.9131 15.0482 11.3161 14.6705C11.719 14.2927 12.3518 14.3132 12.7295 14.7161L15.375 17.5379L20.2705 12.3161C20.6482 11.9131 21.281 11.8927 21.6839 12.2705Z" fill="#1C1C1C" fill-opacity="0.1"/>
</svg>
