<svg width="54" height="20" viewBox="0 0 54 20" fill="none" xmlns="http://www.w3.org/2000/svg">
<path d="M10.4999 1.25003L17.7318 5.42541L15.4926 6.7182L15.4236 6.67843C15.4935 6.46941 15.4217 6.26558 15.2818 6.10461L14.984 5.76216L14.6415 5.4644C14.3177 5.18287 13.8532 5.25706 13.722 5.69591L10.4999 3.83569L7.12093 5.78655C6.90959 5.60555 6.6823 5.46363 6.57915 5.41163C6.61822 5.62291 6.65799 5.82659 6.68005 6.0411L5.50726 6.7182L3.26805 5.42541L10.4999 1.25003ZM17.9999 5.88976V14.2405L10.7681 18.4158V15.8302L15.7607 12.9476V7.18262L17.9999 5.88976ZM10.2319 18.4158L2.99994 14.2405V5.88976L5.23914 7.18262V9.87958C5.00721 9.95047 4.77303 10.0415 4.54068 10.1527C4.78491 10.2507 5.01958 10.3602 5.23914 10.4878V12.9476L6.1968 13.5006C6.16532 13.8657 6.14895 14.2346 6.13468 14.6114C6.67555 14.6081 7.34759 14.5905 7.84658 14.453L10.2319 15.8302V18.4158ZM6.59243 14.1537C6.63571 13.2904 6.65033 12.9124 7.04632 12.3788C7.42945 12.7918 7.85825 13.1202 8.34283 13.3306C8.44921 13.3767 8.55797 13.4171 8.66912 13.4513C7.95233 14.0916 7.60868 14.1028 6.59243 14.1537ZM10.4712 8.37347C10.3445 8.4568 10.2259 8.55411 10.1202 8.66161C9.94934 8.83557 9.81458 9.03413 9.73828 9.23971L10.2084 8.78485C10.3054 8.69105 10.4123 8.50043 10.4712 8.37347ZM11.5631 7.35792C11.3759 7.38807 11.2206 7.43268 11.083 7.48868C11.2314 7.53245 11.3645 7.57264 11.562 7.6318C11.5624 7.54046 11.5627 7.44919 11.5631 7.35792ZM12.632 6.85451L12.7684 6.91219L12.8749 6.8075C12.7261 6.73724 12.5692 6.67506 12.4046 6.62152L12.632 6.85451ZM12.1092 6.537C11.8502 6.4725 11.5742 6.42816 11.2819 6.4061C11.4582 6.26881 11.8443 6.19588 12.1137 6.13412C11.6753 5.95672 10.9097 5.93297 10.2829 6.13293C10.2481 6.23874 10.1787 6.4047 10.0942 6.48086C9.98279 6.58133 9.87901 6.67014 9.78697 6.75593C10.4966 6.44123 11.257 6.41875 12.0021 6.6256L12.1092 6.537ZM7.18684 6.5018C7.27206 7.05672 7.04646 7.95001 7.00346 8.06376C6.96039 8.17744 6.90362 8.3082 6.71651 8.77599C6.52934 9.24379 6.5443 10.1435 6.67014 10.4271C6.36507 10.2125 5.9891 10.091 5.63064 10.2206C6.23361 10.5282 6.5755 11.2108 6.97591 11.7347C7.89556 12.9382 9.02886 13.5006 10.4837 13.0957C11.2026 12.8957 12.2476 11.5007 11.6315 10.9638C10.5648 11.5659 9.41733 10.7949 9.37222 9.62088C9.33941 8.76574 10.2706 7.89767 11.1744 7.78658C10.8056 7.67613 10.6796 7.61887 10.2057 7.69433C10.632 7.38174 10.9534 7.13457 11.6823 7.06213C11.7271 6.97838 11.7994 6.9209 11.8711 6.86167C10.9588 6.62539 9.62551 6.65623 8.46846 8.18861C8.81302 7.42839 9.06167 7.12192 9.92271 6.28266C10.1499 6.06126 10.1045 5.73666 10.0761 5.51218C9.83383 5.91006 9.39077 6.12661 8.78688 6.39339C8.32892 6.59567 7.91368 6.93067 7.60791 7.35378C7.53125 7.02601 7.45509 6.73092 7.18684 6.5018ZM11.5483 12.7689C11.6572 12.7239 11.7649 12.6761 11.872 12.6251C11.5664 13.1216 10.828 13.6751 9.49356 13.8501C10.9201 14.2257 12.2828 14.0124 13.1411 13.1223C13.0723 13.2431 13.0007 13.3715 12.922 13.4858C13.9748 12.8775 15.3451 11.0892 14.3633 9.3659C14.5291 9.5008 14.6679 9.66472 14.7854 9.88808C14.7932 9.06877 14.5445 8.3252 14.0711 7.73635L13.7938 8.01865L14.3066 8.51919L13.924 8.98179C13.7366 9.20838 13.6137 9.2088 13.3816 9.20957L13.0572 9.21084C13.0511 9.31932 13.0051 9.42014 12.925 9.49377L12.92 9.73098C12.9151 9.95757 12.7854 10.1802 12.5601 10.248L12.5602 10.2484C12.2887 10.3292 12.0668 10.4941 11.8726 10.6947C12.0091 10.8151 12.0964 10.9621 12.1425 11.1273C12.2169 11.395 12.1718 11.6955 12.0496 11.9902C11.9327 12.2718 11.7509 12.5418 11.5483 12.7689ZM9.73737 9.67891L10.4247 9.01404C10.5647 8.8785 10.769 8.54013 10.8437 8.28909C10.8596 8.23562 10.9278 8.18833 11.0222 8.1863L11.4779 8.17653L11.5029 8.0977C11.5167 8.05442 11.5352 8.04809 11.574 8.04788L11.8674 8.04648C11.8824 8.04641 11.8939 8.03334 11.894 8.01908L11.8966 7.3738C11.8971 7.24754 11.8948 7.18276 11.9945 7.10028L12.2013 6.92933L12.7221 7.46289L14.0532 6.15534L14.1365 5.82976C14.169 5.70258 14.2588 5.70687 14.3575 5.79266L14.6763 6.06984L14.9535 6.38868C15.0392 6.48739 15.0436 6.57719 14.9164 6.60972L14.5908 6.69298L13.2832 8.02406L13.8168 8.54484L13.6458 8.75161C13.5634 8.85138 13.4986 8.84906 13.3724 8.84956L12.7271 8.85216C12.7128 8.85216 12.6998 8.86382 12.6997 8.87878L12.6983 9.17219C12.6981 9.21098 12.6918 9.22945 12.6485 9.24323L12.5696 9.26838L12.5599 9.72395C12.5578 9.81838 12.5105 9.8866 12.4571 9.90248C12.206 9.97717 11.8677 10.1815 11.7321 10.3215L11.3709 10.695C10.9577 10.9 10.5401 10.874 10.1697 10.5401C9.95686 10.3482 9.80453 10.0791 9.75212 9.78276C9.74573 9.74678 9.74081 9.71214 9.73737 9.67891Z" fill="#1C1C1C"/>
<path d="M34.207 14.665C34.7266 14.6468 35.1914 14.624 35.6016 14.5967C35.5104 14.5055 35.4193 14.4144 35.3281 14.3232L35.793 13.9131C36.2122 14.2686 36.5951 14.6423 36.9414 15.0342L36.4355 15.458C36.3353 15.3395 36.2305 15.2256 36.1211 15.1162C35.5286 15.1618 34.681 15.2301 33.5781 15.3213L33.3047 14.7197C33.5872 14.4645 33.888 14.1136 34.207 13.667H32.8262V15.1025C32.8262 15.5856 33.0449 15.8271 33.4824 15.8271H36.5723C37.0371 15.8271 37.2878 15.6221 37.3242 15.2119C37.3516 15.0387 37.3835 14.5374 37.4199 13.708C37.6934 13.8265 37.985 13.9495 38.2949 14.0771C38.2311 14.8063 38.1719 15.3076 38.1172 15.5811C38.0078 16.2738 37.502 16.6201 36.5996 16.6201H33.1953C32.3932 16.6201 31.9922 16.1644 31.9922 15.2529V13.9268C31.2266 15.2575 29.6725 16.2464 27.3301 16.8936C27.2298 16.7021 27.043 16.4105 26.7695 16.0186C28.9753 15.5081 30.4336 14.7243 31.1445 13.667H28.916V14.0771H28.0957V9.75684H31.1445C31.3086 9.44694 31.4681 9.13249 31.623 8.81348L32.4707 9.18262C32.334 9.38314 32.2018 9.57454 32.0742 9.75684H36.5586V13.667H35.0137C34.7311 14.0316 34.4622 14.3643 34.207 14.665ZM31.2266 3.75488L32.0605 3.31738C32.2793 3.62728 32.5846 4.08301 32.9766 4.68457H38.1582V5.47754H26.9199V10.5908C26.8743 13.234 26.3776 15.2666 25.4297 16.6885C25.2201 16.3968 24.974 16.0732 24.6914 15.7178C25.5482 14.3415 25.9766 12.6143 25.9766 10.5361V4.68457H31.8418C31.6048 4.3291 31.3997 4.01921 31.2266 3.75488ZM38.0078 8.66309C37.8164 8.85449 37.625 9.09147 37.4336 9.37402C36.6042 8.96387 35.9251 8.42155 35.3965 7.74707V9.37402H34.6309V7.74707C34.1204 8.36686 33.5234 8.87728 32.8398 9.27832C32.6576 9.05957 32.4525 8.85905 32.2246 8.67676C33.0267 8.33952 33.7103 7.87923 34.2754 7.2959H32.6621V6.6123H34.6309V5.7373H35.3965V6.6123H37.5703V7.2959H35.7109C36.3034 7.91569 37.069 8.37142 38.0078 8.66309ZM27.0293 8.88184C27.9225 8.47168 28.6471 7.94303 29.2031 7.2959H27.3574V6.6123H29.4766V5.7373H30.2422V6.6123H32.1562V7.2959H30.2422V7.87012L30.5566 7.52832C31.0397 7.84733 31.4499 8.13444 31.7871 8.38965L31.3496 8.90918C30.9212 8.55371 30.5521 8.28483 30.2422 8.10254V9.37402H29.4766V7.91113C28.9115 8.5765 28.2917 9.10514 27.6172 9.49707C27.4258 9.27832 27.2298 9.07324 27.0293 8.88184ZM35.7383 12.9561V12.0537H32.5938C32.5482 12.391 32.4844 12.6917 32.4023 12.9561H35.7383ZM35.7383 10.4678H32.7168C32.7077 10.7868 32.694 11.0876 32.6758 11.3701H35.7383V10.4678ZM28.916 11.3701H31.8145C31.8418 11.0876 31.86 10.7868 31.8691 10.4678H28.916V11.3701ZM31.7324 12.0537H28.916V12.9561H31.4863C31.5866 12.6826 31.6686 12.3818 31.7324 12.0537ZM38.8418 15.54H40.5098V12.2178H50.5449V15.54H52.1719V16.415H38.8418V15.54ZM46.5664 3.37207L46.3066 3.65918C47.8105 5.27246 49.8112 6.44368 52.3086 7.17285C52.0352 7.55566 51.8118 7.90202 51.6387 8.21191C50.4629 7.75618 49.4147 7.24577 48.4941 6.68066V7.36426H42.5879V6.69434C41.64 7.26855 40.5417 7.84733 39.293 8.43066C39.1289 8.15723 38.9284 7.84733 38.6914 7.50098C41.5352 6.37988 43.6771 5.00358 45.1172 3.37207H46.5664ZM41.1523 8.34863H49.9023V11.5752H48.9453V11.1104H42.1094V11.5752H41.1523V8.34863ZM48.9453 9.16895H42.1094V10.29H48.9453V9.16895ZM45.5957 4.34277C44.9395 5.06283 44.028 5.78743 42.8613 6.5166H48.2344C47.1953 5.86035 46.3158 5.13574 45.5957 4.34277ZM44.502 15.54H46.5391V13.0654H44.502V15.54ZM49.5332 13.0654H47.4961V15.54H49.5332V13.0654ZM41.5215 15.54H43.5449V13.0654H41.5215V15.54Z" fill="#1C1C1C"/>
</svg>
