<svg width="32" height="32" viewBox="0 0 32 32" fill="none" xmlns="http://www.w3.org/2000/svg">
<g clip-path="url(#clip0_149_12977)">
<path d="M15.344 8.84159C15.3696 8.84799 15.3968 8.85279 15.4224 8.85919C15.4448 8.87679 15.472 8.88319 15.5008 8.88479C15.5328 8.89439 15.5648 8.90399 15.5968 8.91359C15.6112 8.93599 15.632 8.94239 15.6576 8.93279C15.6832 8.94239 15.7072 8.95519 15.736 8.95199C15.8 8.98399 15.8656 9.00959 15.9392 9.00799C15.9712 9.01439 16.0016 9.02239 16.0336 9.02879C16.0416 9.03839 16.0528 9.04159 16.0656 9.03839C16.0752 9.03999 16.0864 9.04319 16.096 9.04479C16.1216 9.05279 16.1424 9.07999 16.1744 9.07199C16.184 9.07359 16.1952 9.07519 16.2048 9.07839C16.2112 9.09759 16.2256 9.08959 16.2368 9.08639C16.2464 9.08799 16.2576 9.08959 16.2672 9.09119C16.312 9.11199 16.3552 9.14079 16.408 9.13439C16.424 9.13919 16.44 9.14239 16.456 9.14719C16.4848 9.17919 16.5264 9.17439 16.5632 9.18399L16.704 9.23359C16.7568 9.26559 16.816 9.27999 16.8768 9.29119C16.9216 9.31359 16.968 9.33119 17.0176 9.34079C17.0256 9.35039 17.0352 9.35519 17.048 9.35359C17.1856 9.40959 17.328 9.45599 17.4704 9.49759C17.4784 9.50879 17.488 9.51199 17.5024 9.51039C17.5312 9.52639 17.5616 9.54079 17.5968 9.54399C17.6048 9.55359 17.6144 9.55839 17.6272 9.55679C17.6384 9.56159 17.6496 9.56479 17.6608 9.56959C17.6848 9.59839 17.7168 9.60479 17.752 9.60639C17.768 9.61279 17.7824 9.61919 17.7984 9.62559C17.816 9.64479 17.8352 9.65599 17.8608 9.65279C17.8768 9.65919 17.8912 9.66559 17.9072 9.67039C17.9232 9.68959 17.944 9.70239 17.9696 9.69759L18.0176 9.71359C18.0256 9.72479 18.0352 9.72959 18.048 9.72799C18.0816 9.75039 18.1184 9.76799 18.1584 9.77599C18.1664 9.78719 18.176 9.79199 18.1888 9.79039C18.4832 9.93119 18.7824 10.0672 19.072 10.216C19.6448 10.5104 20.2128 10.8144 20.7216 11.216C20.7968 11.2752 20.8672 11.3392 20.9408 11.4016C20.9424 11.4288 20.9568 11.4432 20.9856 11.4432L21.7568 12.2144C21.7552 12.2336 21.7648 12.2416 21.784 12.2416C22.0192 12.5088 22.2432 12.784 22.4304 13.0864C22.6608 13.4576 22.8736 13.8368 23.0368 14.2416C23.048 14.2672 23.056 14.2944 23.0656 14.3216C23.0624 14.3328 23.0656 14.3376 23.0768 14.3392C23.0768 14.344 23.0768 14.3488 23.0816 14.352C23.0784 14.3648 23.072 14.3792 23.0928 14.384C23.0992 14.4048 23.1056 14.4256 23.112 14.4464C23.1088 14.4576 23.112 14.4624 23.1232 14.464C23.1232 14.4688 23.1232 14.4736 23.128 14.4784C23.1248 14.4912 23.1184 14.5056 23.1392 14.5104C23.1504 14.5472 23.1632 14.5824 23.1744 14.6192C23.1712 14.6304 23.1744 14.6352 23.1856 14.6368C23.1856 14.6416 23.1856 14.6464 23.1904 14.6512C23.1856 14.6816 23.2016 14.7056 23.2176 14.7296C23.24 14.7968 23.2624 14.8656 23.2832 14.9328C23.28 14.944 23.2832 14.9488 23.2944 14.952C23.2944 14.9616 23.2976 14.9696 23.2992 14.9792C23.296 14.992 23.2912 15.0064 23.3104 15.0112C23.3168 15.0368 23.3232 15.0624 23.3312 15.0896C23.3264 15.1008 23.3312 15.1056 23.3424 15.1072C23.3424 15.1168 23.3456 15.1264 23.3472 15.136C23.344 15.1488 23.3392 15.1632 23.3584 15.168C23.4096 15.344 23.4496 15.5232 23.4832 15.704C23.4928 15.7584 23.4736 15.8176 23.5056 15.8704C23.496 15.896 23.5024 15.9152 23.5248 15.9312L23.5392 15.9952C23.5488 16.0624 23.5392 16.1328 23.5648 16.1984C23.5648 16.2192 23.5648 16.24 23.5648 16.2608C23.536 16.2896 23.5536 16.3232 23.5536 16.3552C23.5536 16.3712 23.552 16.3856 23.5504 16.4016C23.5232 16.4624 23.4912 16.5232 23.4752 16.5888C23.4016 16.72 23.3056 16.8272 23.1744 16.904C23.1632 16.9008 23.1568 16.904 23.1552 16.9152H23.1488L23.144 16.9184C23.1312 16.9152 23.1184 16.9136 23.112 16.928C23.04 16.9312 22.9808 16.976 22.9104 16.9824C22.8976 16.9792 22.8848 16.9744 22.8784 16.992C22.848 16.9968 22.8176 17 22.7856 17.0048C22.6976 17.0048 22.6096 16.9936 22.5248 17.0272C22.4608 17.0272 22.3968 17.0272 22.3328 17.0272C22.32 17.0256 22.3072 17.0208 22.3008 17.0384C22.2864 17.0416 22.2704 17.0448 22.256 17.048C22.2224 17.048 22.1904 17.0544 22.1632 17.0752C22.1264 17.08 22.096 17.0944 22.0688 17.1216C22.0512 17.1248 22.04 17.1344 22.0336 17.1504C22.0192 17.1552 22.0096 17.1648 22.0048 17.1792C21.9888 17.1856 21.9776 17.1968 21.9744 17.2144C21.9248 17.2624 21.8928 17.3232 21.8656 17.3856C21.832 17.4272 21.8096 17.4768 21.7936 17.5264L21.7712 17.5728C21.752 17.5776 21.7552 17.5904 21.7584 17.6048C21.7536 17.6304 21.7472 17.6576 21.7424 17.6832C21.736 17.6928 21.7216 17.6992 21.7264 17.7136C21.7152 17.8176 21.7264 17.9216 21.7264 18.0256C21.7184 18.0448 21.7296 18.0592 21.7424 18.072C21.7424 18.0928 21.7424 18.1136 21.7424 18.1344C21.7408 18.1472 21.7344 18.16 21.7536 18.1664C21.7584 18.1824 21.7632 18.1968 21.768 18.2128C21.7696 18.2224 21.7728 18.2336 21.7744 18.2432C21.7744 18.2544 21.7744 18.264 21.7744 18.2752C21.7728 18.2928 21.7616 18.312 21.7856 18.3216C21.7856 18.3312 21.7888 18.3424 21.7904 18.352C21.8048 18.3936 21.8192 18.4352 21.832 18.4768C21.84 18.4928 21.8464 18.5072 21.8544 18.5232C21.8576 18.5424 21.8624 18.56 21.88 18.5712C21.9104 18.6464 21.9776 18.672 22.0464 18.6976C22.0608 18.7136 22.08 18.7168 22.0992 18.72C22.1344 18.728 22.1712 18.7376 22.2064 18.7456C22.2128 18.7616 22.2256 18.7584 22.2384 18.7552C22.2432 18.7552 22.2496 18.7552 22.2544 18.7552C22.28 18.7568 22.3072 18.76 22.3328 18.7616C22.3488 18.7648 22.3632 18.7696 22.3792 18.7728C22.3888 18.7984 22.4096 18.7872 22.4256 18.784C22.5088 18.792 22.5808 18.8304 22.6544 18.8688C22.6624 18.8832 22.6752 18.8928 22.6912 18.8976C22.7808 18.9808 22.8672 19.064 22.9168 19.1792C22.92 19.1888 22.9248 19.2 22.928 19.2096C22.92 19.288 22.9344 19.3632 22.9392 19.44C22.9536 19.68 22.8656 19.8912 22.7488 20.0944C22.56 20.4208 22.36 20.7392 22.128 21.0352C22.104 21.0512 22.088 21.072 22.0752 21.0976C22.0576 21.1104 22.0432 21.1248 22.0352 21.1456C22.0144 21.1568 22.0016 21.1728 21.992 21.1936C21.9696 21.2096 21.952 21.2288 21.9408 21.2528C21.9008 21.2864 21.8656 21.3232 21.8368 21.3664C21.6848 21.5168 21.5328 21.6672 21.3808 21.8192C21.3568 21.8304 21.3408 21.848 21.3264 21.8704L21.3232 21.8736C21.3008 21.888 21.2816 21.9024 21.2688 21.9264C21.2224 21.9584 21.184 21.9968 21.1472 22.04C21.1152 22.0592 21.088 22.0832 21.0656 22.1152C21.0352 22.1312 21.0112 22.1536 20.9904 22.1808C20.9632 22.1936 20.9408 22.2144 20.9232 22.24C20.8672 22.2768 20.8176 22.3216 20.7712 22.3696C20.744 22.3824 20.72 22.4016 20.7024 22.4272C20.6944 22.4336 20.6848 22.4416 20.6768 22.448C20.6496 22.4608 20.6256 22.48 20.608 22.5056C20.6 22.512 20.5904 22.52 20.5824 22.5264C20.5552 22.5392 20.5312 22.5584 20.5136 22.584C20.3408 22.712 20.1728 22.8464 19.9952 22.968C19.5872 23.2448 19.1376 23.44 18.6784 23.6176C18.6672 23.6224 18.656 23.6304 18.6448 23.6368C18.616 23.6288 18.5968 23.6464 18.5792 23.664C18.4288 23.712 18.2784 23.76 18.128 23.808C18.1152 23.8064 18.1008 23.8016 18.096 23.8208C18.0544 23.832 18.0128 23.8448 17.9712 23.856C17.9408 23.8528 17.9168 23.8688 17.8928 23.8832C17.784 23.912 17.6752 23.9408 17.5648 23.9696C17.552 23.9664 17.5408 23.9696 17.5328 23.9792C17.5168 23.9792 17.5024 23.9824 17.4864 23.9824C17.4736 23.9792 17.4608 23.9744 17.4544 23.992C17.4448 23.9936 17.4336 23.9952 17.424 23.9968C17.3984 23.984 17.384 24.0144 17.3616 24.0112C17.3568 24.0112 17.3504 24.0112 17.3456 24.0112C17.3216 24.0016 17.3056 24.0272 17.2832 24.0272C17.2784 24.0272 17.272 24.0272 17.2672 24.0272C17.2544 24.0256 17.2416 24.0208 17.2352 24.0384C17.2256 24.04 17.2144 24.0416 17.2048 24.0432C17.1872 24.0416 17.1696 24.032 17.1568 24.0528C17.1472 24.0544 17.136 24.056 17.1264 24.0576C17.1088 24.056 17.0912 24.0464 17.0784 24.0672C17.0624 24.0688 17.048 24.072 17.032 24.0736C17.0064 24.0608 16.992 24.088 16.9696 24.088H16.9536C16.9408 24.0848 16.928 24.0816 16.9216 24.0976C16.88 24.1056 16.8384 24.112 16.7984 24.12C16.768 24.1072 16.7472 24.1312 16.72 24.1344C16.7152 24.1344 16.7088 24.1344 16.704 24.1344C16.6912 24.1328 16.6784 24.128 16.672 24.1456C16.656 24.1472 16.6416 24.1488 16.6256 24.1504C16.608 24.1472 16.5904 24.1392 16.5776 24.16C16.5616 24.1616 16.5472 24.1648 16.5312 24.1664C16.5136 24.1632 16.496 24.1552 16.4832 24.176C16.4672 24.1776 16.4528 24.1808 16.4368 24.1824C16.4192 24.1792 16.4016 24.1712 16.3888 24.192C16.3728 24.1936 16.3584 24.1968 16.3424 24.1984C16.3088 24.1856 16.2816 24.2144 16.248 24.2144H16.232C16.1984 24.2016 16.1712 24.232 16.1376 24.2304C16.1328 24.2304 16.1264 24.2304 16.1216 24.2304C16.104 24.2304 16.0848 24.2192 16.0736 24.2416C15.9744 24.248 15.8784 24.2832 15.7776 24.2768C15.7552 24.2768 15.7312 24.2624 15.7136 24.288C15.688 24.288 15.6624 24.2912 15.6368 24.2928C15.6192 24.2928 15.6 24.2816 15.5888 24.304C15.3984 24.3424 15.2048 24.3584 15.0112 24.3712C14.9888 24.3712 14.9648 24.3568 14.9472 24.3824C14.9216 24.3824 14.896 24.3856 14.8704 24.3872C14.8528 24.3872 14.8352 24.376 14.8224 24.3968C14.5872 24.432 14.3488 24.4464 14.112 24.4656C13.9008 24.4832 13.6912 24.4864 13.48 24.504C13.4272 24.496 13.376 24.4992 13.3232 24.5104C13.0576 24.5104 12.792 24.5104 12.5264 24.5104C12.4688 24.4992 12.4112 24.4976 12.3536 24.5056C12.2704 24.4944 12.1872 24.4944 12.104 24.4976C12.0208 24.4864 11.9376 24.4816 11.8544 24.4912C11.6944 24.4864 11.5328 24.48 11.3728 24.4768C11.0288 24.472 10.6832 24.4672 10.3392 24.464C10.2976 24.4528 10.256 24.4512 10.2144 24.4592C10.1424 24.448 10.0688 24.4464 9.99682 24.4512C9.99202 24.4512 9.98562 24.4512 9.98082 24.4512L9.63682 24.4192C9.62082 24.4192 9.60482 24.4192 9.59042 24.4192C9.32642 24.3808 9.06082 24.344 8.79682 24.3072C8.77922 24.304 8.76802 24.2832 8.74722 24.2928C8.73762 24.2848 8.72802 24.2816 8.71522 24.2864C8.59842 24.2672 8.48322 24.2496 8.36642 24.2304C8.34242 24.2272 8.31842 24.2192 8.29442 24.2144C8.28482 24.2048 8.27522 24.2032 8.26242 24.2064C8.00802 24.1664 7.76002 24.1008 7.51042 24.0368C7.49602 24.0336 7.48002 24.032 7.46562 24.0288C7.45602 24.0256 7.44482 24.0224 7.43522 24.0192C7.38882 24.0064 7.34082 23.9952 7.29442 23.9824L7.26402 23.9728C7.01122 23.9088 6.76642 23.816 6.51842 23.7392C6.37762 23.696 6.23522 23.6496 6.09442 23.6064C6.06562 23.5696 6.02722 23.5552 5.98242 23.5488C5.97762 23.5456 5.97282 23.544 5.96802 23.544C5.96002 23.52 5.94242 23.5152 5.92002 23.5136C5.75202 23.4288 5.71362 23.256 5.65922 23.1008C5.61442 22.9712 5.61922 22.832 5.62242 22.6944C5.62722 22.5184 5.67362 22.3504 5.71522 22.1824C5.81762 21.7744 5.96802 21.3904 6.20642 21.04C6.33602 20.8496 6.50402 20.7088 6.71202 20.6144C6.92642 20.5152 7.13602 20.4064 7.35362 20.3136C7.52482 20.24 7.70402 20.1872 7.87842 20.1232C8.02722 20.0688 8.17442 20.0128 8.32322 19.9552C8.42722 19.9152 8.53122 19.8752 8.63202 19.832C8.96162 19.688 9.24002 19.472 9.49442 19.2224C9.99682 18.7296 10.5264 18.2704 11.1136 17.88C11.184 17.8336 11.2608 17.7904 11.3136 17.72C11.3568 17.7072 11.392 17.6832 11.4208 17.64C11.3584 17.6368 11.312 17.6576 11.2672 17.688L11.2 17.7184C11.1872 17.7184 11.1728 17.7136 11.168 17.7328C11.152 17.7392 11.1376 17.7456 11.1216 17.752C11.0912 17.7472 11.0688 17.7664 11.0464 17.7824C11.0352 17.7888 11.024 17.7936 11.0112 17.8C10.992 17.7904 10.9808 17.8032 10.968 17.8144C10.9568 17.8208 10.9456 17.8256 10.9344 17.832C10.8928 17.8272 10.8672 17.856 10.84 17.8784C10.8144 17.8896 10.7872 17.8992 10.7616 17.9104C10.7504 17.9072 10.7456 17.9136 10.744 17.9232C10.7392 17.9232 10.7344 17.9232 10.7296 17.9264C10.6768 17.9344 10.6304 17.9584 10.592 17.9968C10.5744 18.0048 10.5584 18.0128 10.5408 18.0192C10.5296 18.016 10.5264 18.0224 10.5248 18.032C10.52 18.032 10.5152 18.0352 10.5104 18.0368C10.4992 18.032 10.4944 18.0368 10.4944 18.048L10.416 18.0928C10.392 18.0928 10.3792 18.1088 10.3696 18.1264L10.3088 18.16C10.2976 18.1568 10.2944 18.1648 10.2928 18.1744L10.2784 18.1792C10.2672 18.1744 10.2624 18.1792 10.2624 18.1904C10.2464 18.2016 10.224 18.2 10.216 18.2208C10.1936 18.2208 10.176 18.2304 10.1696 18.2528C10.1648 18.2528 10.16 18.2544 10.1552 18.2576C10.144 18.2528 10.1392 18.2576 10.1392 18.2688C10.1072 18.2896 10.0768 18.3104 10.0448 18.3296C10.0208 18.3296 10.008 18.3424 10 18.3632C9.96802 18.376 9.94082 18.3952 9.92002 18.4224C9.90082 18.4272 9.88482 18.4384 9.87682 18.456C9.82882 18.4848 9.78562 18.52 9.74882 18.5616C9.72962 18.5664 9.71522 18.5776 9.70722 18.5968C9.68002 18.6096 9.65762 18.6288 9.64002 18.6544C9.62082 18.6592 9.60642 18.672 9.59842 18.6896C9.50562 18.7728 9.41122 18.8544 9.32162 18.9408C9.07842 19.1728 8.79522 19.3472 8.50082 19.504C8.48962 19.5008 8.48642 19.5072 8.48482 19.5168C8.48002 19.5168 8.47522 19.5184 8.47042 19.52C8.45922 19.5152 8.45602 19.5232 8.45442 19.5312C8.44962 19.5312 8.44482 19.5328 8.44002 19.5344C8.42882 19.5296 8.42562 19.5376 8.42242 19.5456C8.39362 19.552 8.36802 19.5632 8.34562 19.5808C8.33282 19.5792 8.32162 19.584 8.31522 19.5952C8.27362 19.6112 8.23202 19.6272 8.18882 19.6432C8.17762 19.6384 8.17442 19.6464 8.17122 19.6544C8.16642 19.6544 8.16162 19.6544 8.15682 19.6576C8.13762 19.648 8.12642 19.6608 8.11362 19.672C8.10242 19.6784 8.09122 19.6832 8.07842 19.6896C8.05122 19.6848 8.03202 19.6992 8.01442 19.7168C7.99202 19.7136 7.97122 19.7184 7.95362 19.736C7.93442 19.7264 7.92322 19.7392 7.91042 19.7504C7.89922 19.7568 7.88802 19.7616 7.87682 19.768C7.84162 19.768 7.80802 19.7744 7.78402 19.8032C7.74242 19.8176 7.69922 19.832 7.65762 19.848C7.63042 19.856 7.60002 19.8496 7.57762 19.872C7.56802 19.8736 7.55682 19.8768 7.54722 19.8784C7.53602 19.8736 7.53122 19.88 7.52962 19.8896C7.50402 19.896 7.47842 19.9024 7.45282 19.9104C7.41602 19.9008 7.38722 19.92 7.35842 19.936C7.34882 19.9376 7.33762 19.9408 7.32802 19.9424C7.31042 19.9392 7.29282 19.928 7.28002 19.952C7.27042 19.9536 7.25922 19.9552 7.24962 19.9568C7.23202 19.9552 7.21442 19.9456 7.20162 19.9664C7.19202 19.968 7.18082 19.9696 7.17122 19.9712C7.14882 19.9712 7.12482 19.9568 7.10722 19.9824C7.09762 19.9824 7.08642 19.9856 7.07682 19.9872C7.04962 19.9872 7.02082 19.9728 6.99682 19.9968L6.90402 20.0096C6.84642 20.0096 6.78882 20.0096 6.73122 20.0096C6.56962 19.9744 6.51202 19.8752 6.56162 19.7184C6.59202 19.6208 6.62402 19.5248 6.66562 19.4304C6.74882 19.2416 6.79682 19.04 6.86082 18.8448C6.92962 18.6352 6.98402 18.424 7.00002 18.2016C7.00962 18.0768 7.02402 17.9504 7.05922 17.8272C7.06882 17.8192 7.07202 17.808 7.06722 17.7952C7.07042 17.7792 7.07202 17.7648 7.07522 17.7488C7.08482 17.7408 7.08802 17.7296 7.08322 17.7168C7.11042 17.5104 7.15042 17.3056 7.20002 17.104C7.21922 17.0272 7.26082 16.96 7.30722 16.896C7.33762 16.856 7.37922 16.832 7.43362 16.84C7.44802 16.872 7.47362 16.8544 7.49602 16.8528C7.52002 16.8608 7.54402 16.8688 7.56802 16.8768C7.59202 16.896 7.61442 16.9152 7.63842 16.9344C7.71042 17.0368 7.74402 17.1648 7.84482 17.248C7.84962 17.2832 7.87042 17.3024 7.90402 17.3072C8.07522 17.4688 8.27042 17.5872 8.49922 17.6464C8.58402 17.6688 8.66242 17.6624 8.72802 17.5936C8.80002 17.52 8.90402 17.4704 8.88802 17.3376C8.88002 17.2672 8.84482 17.216 8.80962 17.1632C8.62722 16.8944 8.44162 16.6272 8.25922 16.36C8.17442 16.2368 8.09282 16.1104 8.03842 15.9696C8.04162 15.9568 8.03842 15.9456 8.02722 15.9376C7.96962 15.736 7.95522 15.528 7.92322 15.3216C7.88802 15.0912 7.86402 14.8576 7.93282 14.6272C7.94082 14.6 7.95362 14.576 7.96802 14.5536C8.04482 14.4848 8.12962 14.4912 8.21602 14.5328C8.23682 14.56 8.26082 14.584 8.27682 14.6128C8.45122 14.9568 8.71522 15.2208 9.01602 15.4528C9.07682 15.5008 9.13922 15.5472 9.20162 15.5936C9.22082 15.6304 9.24962 15.6544 9.29922 15.6544C9.28802 15.6256 9.27362 15.6048 9.25122 15.5936C9.24162 15.5728 9.23522 15.5504 9.22242 15.5312C8.96802 15.1936 8.81442 14.8016 8.64642 14.4192C8.55522 14.2096 8.48642 13.9904 8.40962 13.7744C8.33442 13.5584 8.27682 13.3392 8.22082 13.1184C8.18562 12.984 8.18402 12.8432 8.17122 12.704C8.17442 12.656 8.18562 12.6048 8.15362 12.5616C8.15842 12.488 8.13922 12.4176 8.12642 12.3456C8.13282 12.3344 8.12962 12.3232 8.12162 12.3136L8.10882 12.1728C8.10882 12.104 8.10882 12.0368 8.10882 11.968C8.12962 11.8592 8.10882 11.7472 8.13602 11.64C8.14402 11.6304 8.14562 11.6208 8.14082 11.608C8.16162 11.5264 8.15362 11.4384 8.18242 11.3584C8.18562 11.3488 8.18882 11.3376 8.19202 11.328C8.23042 11.2448 8.23842 11.1552 8.24642 11.064C8.26882 11.0544 8.26882 11.0352 8.26882 11.0144L8.28962 10.936C8.30722 10.9136 8.31202 10.8848 8.31682 10.8576C8.46082 10.4944 8.64002 10.1472 8.76482 9.77759C8.83042 9.58079 8.88962 9.38239 8.94882 9.18399C8.96482 9.13279 8.99202 9.08479 8.99202 9.02879C8.99522 9.01919 8.99842 9.00799 9.00162 8.99839C9.03842 8.89919 9.03842 8.79199 9.05922 8.68959C9.08642 8.56639 9.07682 8.44319 9.08482 8.31999C9.08802 8.27679 9.07842 8.23679 9.05922 8.20159C9.00482 8.10079 9.05922 8.02719 9.14402 7.98559C9.22882 7.94399 9.32322 7.93919 9.41442 7.93439C9.46722 7.93119 9.52162 7.95359 9.57122 7.91999C9.60322 7.91999 9.63362 7.91999 9.66562 7.91839C9.70242 7.91679 9.74242 7.93439 9.77442 7.90399C9.77922 7.90399 9.78562 7.90399 9.79042 7.90399C9.88162 7.91039 9.97442 7.90399 10.0672 7.91999C10.1696 7.93599 10.272 7.95359 10.3744 7.96319C10.4768 7.97279 10.576 8.02079 10.6816 7.99519C10.7232 8.00319 10.7632 8.01439 10.8064 8.00959C10.8176 8.00959 10.8272 8.00959 10.8384 8.01119C11.0368 8.03679 11.2368 8.01919 11.4368 8.01759C11.4736 8.01759 11.504 8.04479 11.5408 8.03359C11.552 8.05759 11.5712 8.04639 11.5888 8.04479C11.6096 8.04639 11.6288 8.04799 11.6496 8.05119C11.6624 8.07039 11.6816 8.06239 11.6976 8.06079C11.7072 8.06079 11.7184 8.06399 11.728 8.06559C11.7472 8.08959 11.7696 8.07679 11.792 8.07359C11.8016 8.07519 11.8128 8.07839 11.8224 8.07999C11.9088 8.10559 11.9968 8.12959 12.088 8.12159C12.0976 8.12319 12.1088 8.12639 12.1184 8.12799C12.136 8.15199 12.16 8.13919 12.1824 8.13759C12.192 8.13759 12.2032 8.14079 12.2128 8.14239C12.2304 8.16799 12.2544 8.15519 12.2752 8.15359C12.2848 8.15359 12.296 8.15679 12.3056 8.15679C12.328 8.18399 12.3568 8.17119 12.384 8.16639C12.3984 8.16959 12.4144 8.17279 12.4288 8.17599C12.4416 8.19519 12.4608 8.18719 12.4768 8.18559C12.4816 8.18559 12.488 8.18559 12.4928 8.18559C12.5184 8.19359 12.5424 8.21119 12.5712 8.20159C12.576 8.20479 12.5808 8.20479 12.5856 8.20639C12.6032 8.23039 12.6272 8.21759 12.6496 8.21599C12.6656 8.21759 12.68 8.22079 12.696 8.22239C12.7136 8.24639 12.7376 8.23359 12.76 8.23199C12.7696 8.23199 12.7808 8.23519 12.7904 8.23679C12.8128 8.26239 12.8416 8.24959 12.8688 8.24799C12.8784 8.24799 12.8896 8.25119 12.8992 8.25279C12.9168 8.27839 12.9408 8.26559 12.9616 8.26399C12.9712 8.26399 12.9824 8.26719 12.992 8.26879C13.0096 8.29599 13.0336 8.28159 13.0544 8.27999C13.0704 8.28159 13.0848 8.28319 13.1008 8.28479C13.1184 8.31039 13.1424 8.29759 13.1648 8.29599L13.2272 8.30079C13.2368 8.31199 13.2464 8.31199 13.2592 8.30879L13.2896 8.31679C13.3072 8.34239 13.3312 8.32959 13.352 8.32799C13.3616 8.32959 13.3728 8.33119 13.3824 8.33279C13.3952 8.35359 13.4128 8.34399 13.4304 8.34239C13.44 8.34399 13.4512 8.34559 13.4608 8.34719C13.4736 8.36959 13.4912 8.35999 13.5088 8.35679L13.5392 8.36319C13.5744 8.37919 13.6096 8.39359 13.6496 8.38879C13.6592 8.39039 13.6704 8.39199 13.68 8.39359C13.6912 8.41599 13.7104 8.40639 13.728 8.40479C13.7392 8.40479 13.7488 8.40479 13.76 8.40639C13.768 8.41599 13.7792 8.41919 13.792 8.41599C13.8016 8.41919 13.8128 8.42239 13.8224 8.42559C13.8336 8.44799 13.8528 8.43839 13.8704 8.43679C13.88 8.43679 13.8912 8.43679 13.9008 8.43839C13.9088 8.44799 13.92 8.45119 13.9328 8.44799C13.9424 8.45119 13.9536 8.45439 13.9632 8.45759C13.9696 8.47519 13.9824 8.47039 13.9952 8.46719L14.0256 8.47199C14.0368 8.49599 14.056 8.48319 14.0736 8.48159C14.0832 8.48159 14.0944 8.48479 14.104 8.48639C14.1536 8.51039 14.2048 8.53119 14.2608 8.52959C14.2816 8.53279 14.304 8.53759 14.3248 8.54079C14.36 8.57119 14.4032 8.57759 14.448 8.57439C14.4736 8.58239 14.4992 8.58879 14.5248 8.59679C14.5312 8.61599 14.544 8.60799 14.5568 8.60479C14.5664 8.60639 14.5776 8.60799 14.5872 8.60959C14.5952 8.61919 14.6064 8.62399 14.6192 8.61919C14.6448 8.62719 14.6704 8.63519 14.696 8.64319C14.7024 8.66239 14.7168 8.65439 14.728 8.65119C14.7376 8.65279 14.7488 8.65439 14.7584 8.65599C14.8032 8.67839 14.8464 8.70559 14.8992 8.69759C14.9152 8.70239 14.9312 8.70559 14.9488 8.71039C14.9632 8.73279 14.984 8.73919 15.0096 8.72959C15.0464 8.74239 15.0816 8.75359 15.1184 8.76639C15.1232 8.78559 15.1376 8.78079 15.1504 8.77919C15.1552 8.78239 15.16 8.78399 15.1648 8.78399C15.1712 8.80159 15.184 8.79839 15.1968 8.79519C15.2288 8.80319 15.2608 8.81279 15.2928 8.82079C15.304 8.83519 15.3152 8.85119 15.3376 8.84159H15.344ZM19.2864 20.8192C19.2864 20.8192 19.2832 20.816 19.2832 20.8144L19.2864 20.8176C19.3024 20.8096 19.3168 20.7968 19.3232 20.7792C19.328 20.776 19.3328 20.7744 19.336 20.7712C19.8368 20.248 20.248 19.6704 20.4352 18.9568C20.4624 18.8544 20.4944 18.7536 20.5136 18.6496C20.536 18.5296 20.5376 18.4048 20.5664 18.288C20.6368 17.992 20.6672 17.6912 20.6864 17.3888C20.7024 17.1424 20.696 16.8944 20.6976 16.648C20.6976 16.6192 20.6912 16.592 20.688 16.5632C20.6944 16.5312 20.6912 16.5008 20.6832 16.4688C20.696 16.4384 20.6688 16.416 20.6672 16.3872C20.6592 16.2112 20.624 16.0368 20.5952 15.864C20.5328 15.4864 20.432 15.1184 20.3024 14.76C20.2064 14.4944 20.1152 14.2256 19.9392 13.9952C19.8288 13.8496 19.7216 13.7008 19.6384 13.5392C19.5296 13.3312 19.3856 13.152 19.2176 12.992C18.5696 12.368 17.8496 11.8416 17.056 11.416C16.7584 11.256 16.472 11.072 16.1552 10.952C15.8192 10.8256 15.4896 10.6768 15.1296 10.6192C14.9504 10.5904 14.7744 10.5328 14.592 10.5104C14.5136 10.5008 14.4336 10.5008 14.3552 10.4928C14.2256 10.48 14.096 10.4432 13.9648 10.456H13.8992C13.9248 10.4768 13.944 10.4912 13.9632 10.5056C14.1776 10.728 14.264 11.0112 14.344 11.2976C14.3392 11.3088 14.3456 11.3136 14.3552 11.3152C14.384 11.4384 14.4032 11.5616 14.4048 11.688C14.4048 11.7664 14.4048 11.8448 14.4048 11.9232L14.4 12.0944C14.3824 12.0992 14.3856 12.1136 14.3888 12.1264C14.3776 12.2496 14.3584 12.368 14.328 12.488C14.2512 12.7872 14.1424 13.072 13.9664 13.3264C13.8832 13.4464 13.7888 13.5568 13.6992 13.6704C13.632 13.7072 13.5792 13.76 13.5408 13.8272C13.32 14.0288 13.0752 14.1888 12.7776 14.2528C12.7648 14.2512 12.7504 14.2464 12.7456 14.2656C12.6832 14.28 12.624 14.3008 12.5584 14.3008C12.5456 14.2992 12.5312 14.2944 12.5264 14.312C12.2704 14.3392 12.0192 14.3152 11.7776 14.2208C11.4704 14.1008 11.2112 13.9168 11.0016 13.6624C10.8768 13.5104 10.7904 13.336 10.7008 13.1616C10.64 13.0416 10.5808 12.9216 10.5808 12.7824C10.5808 12.7376 10.5792 12.6944 10.5808 12.6496C10.592 12.1376 10.8288 11.76 11.2704 11.5088C11.32 11.48 11.3744 11.4624 11.4336 11.4672C11.4864 11.4672 11.5376 11.4672 11.5904 11.4672C11.856 11.4816 12.128 11.6224 12.1648 11.9216C12.184 12.0832 12.1648 12.24 12.1152 12.3952C12.1072 12.4016 12.1008 12.4096 12.0928 12.416C12.1024 12.416 12.112 12.4176 12.1216 12.4192C12.2432 12.4256 12.3616 12.4272 12.4576 12.3264C12.7664 12.0064 12.7888 11.6224 12.7008 11.2192C12.656 11.0112 12.4912 10.9072 12.3056 10.8464C12.064 10.7664 11.816 10.7184 11.56 10.7216C11.5472 10.7184 11.5344 10.7136 11.528 10.7312C11.1264 10.7824 10.776 10.936 10.4992 11.2368C10.4576 11.2464 10.4336 11.2736 10.424 11.3136C10.1408 11.584 9.96162 11.9056 9.95362 12.3056C9.95042 12.4912 9.96802 12.6768 10.0032 12.8592C9.99842 12.872 9.99523 12.8848 10.0128 12.8912C10.0336 12.9744 10.0336 13.0608 10.0528 13.144C10.1232 13.4496 10.2928 13.6992 10.4832 13.9392C10.6128 14.104 10.744 14.2688 10.9072 14.4048C10.9072 14.4272 10.9184 14.4368 10.9392 14.4336C10.9872 14.4816 11.0368 14.528 11.0848 14.576C11.0816 14.5872 11.0848 14.5904 11.0944 14.5856C11.2768 14.7344 11.4592 14.8864 11.672 14.9952C11.9936 15.1616 12.3424 15.2432 12.6992 15.2752C12.9808 15.3008 13.2656 15.2864 13.5472 15.264C13.6096 15.264 13.6736 15.264 13.736 15.264C13.808 15.2688 13.8816 15.2736 13.9536 15.28C13.976 15.3072 14.0064 15.2896 14.032 15.2912C14.0736 15.2928 14.1152 15.2944 14.1552 15.296C14.168 15.3168 14.1856 15.3072 14.2032 15.3056C14.2656 15.312 14.328 15.3184 14.3904 15.3264C14.4032 15.3488 14.4208 15.3392 14.4384 15.336C14.4864 15.344 14.5344 15.3472 14.5824 15.3584C15.0832 15.48 15.5696 15.6416 16.0176 15.9024C16.024 15.9264 16.0416 15.9328 16.0624 15.9344C16.072 15.9536 16.088 15.9648 16.1104 15.9664C16.1424 15.9904 16.176 16.0128 16.2064 16.0384C16.7216 16.4816 17.0992 17.0256 17.3664 17.648C17.3728 17.664 17.3744 17.6832 17.3776 17.7008C17.3744 17.712 17.3792 17.7168 17.3904 17.7184C17.5392 18.0784 17.6032 18.4528 17.5616 18.8416C17.5392 18.8528 17.5488 18.872 17.552 18.8896C17.552 18.9152 17.5504 18.9424 17.5488 18.968L17.5424 19C17.5264 19.056 17.5056 19.112 17.5184 19.1712C17.5168 19.1808 17.5168 19.1888 17.5296 19.184C17.6336 19.176 17.704 19.1104 17.768 19.0384C17.9376 18.8432 18.048 18.6144 18.1408 18.3776C18.1824 18.272 18.2352 18.168 18.2176 18.048C18.24 18.0368 18.2368 18.0176 18.2336 17.9984C18.2368 17.9712 18.2416 17.9424 18.2432 17.9152C18.2576 17.7824 18.2304 17.6496 18.2336 17.5168C18.2368 17.4224 18.2448 17.328 18.2304 17.2352C18.2304 17.2032 18.2432 17.168 18.2144 17.1408C18.2176 16.9968 18.184 16.856 18.1696 16.7152C18.1408 16.448 18.0736 16.1904 17.9808 15.9408C17.7216 15.24 17.3952 14.5744 16.9328 13.9824C16.7648 13.768 16.5888 13.5568 16.3632 13.4C15.856 13.0464 15.312 12.7648 14.7072 12.6128C14.6464 12.5984 14.616 12.5616 14.608 12.504C14.6032 12.4656 14.6 12.4256 14.6016 12.3872C14.6064 12.216 14.6112 12.0464 14.6192 11.8752C14.6256 11.7072 14.6288 11.5392 14.5904 11.3744C14.5712 11.2944 14.5856 11.2096 14.5472 11.1312C14.5072 11.0512 14.5216 11.0224 14.6064 10.9824H14.6384C14.7888 10.9776 14.9296 11.0272 15.0736 11.0512C15.08 11.0672 15.0944 11.064 15.1056 11.0608C15.1392 11.064 15.1728 11.0656 15.2048 11.0736C15.4192 11.1248 15.6336 11.1728 15.8416 11.2432C15.8512 11.2592 15.864 11.272 15.8864 11.2656C15.8912 11.2688 15.896 11.2704 15.9008 11.2704C15.944 11.2992 15.992 11.3168 16.0432 11.328C16.048 11.3312 16.0528 11.3328 16.0576 11.3328C16.064 11.3488 16.0768 11.3472 16.0896 11.344L16.1088 11.3504C16.1296 11.3824 16.16 11.3952 16.1984 11.3936C16.2432 11.4208 16.2912 11.4464 16.3424 11.4608C16.456 11.5424 16.5872 11.5904 16.7136 11.6448C16.7168 11.6624 16.7312 11.6592 16.7424 11.6592C16.7392 11.7056 16.7872 11.68 16.8016 11.7024C16.808 11.7024 16.816 11.7056 16.8224 11.7056C16.832 11.7328 16.8608 11.736 16.88 11.7488C16.8944 11.7536 16.9104 11.7584 16.9232 11.7664C17.2336 11.96 17.5536 12.1408 17.84 12.3712C18.0688 12.5552 18.288 12.7504 18.5104 12.9408C18.5344 13 18.5792 13.04 18.6352 13.0672C19.008 13.4768 19.3008 13.9408 19.5632 14.4256C19.552 14.4496 19.568 14.456 19.5872 14.4608C19.5904 14.4736 19.5936 14.4848 19.6 14.4976C19.7232 14.7872 19.848 15.0752 19.9248 15.3824C20 15.6784 20.0592 15.9776 20.1072 16.28C20.1424 16.496 20.1824 16.7104 20.1712 16.9312C20.1664 17.0288 20.144 17.1248 20.152 17.224C20.1456 17.2336 20.144 17.2448 20.1504 17.2544C20.144 17.4048 20.1392 17.5552 20.1328 17.7072C20.1136 17.712 20.1184 17.7264 20.1216 17.7392C20.1216 17.7616 20.1216 17.7856 20.1184 17.808C20.0944 17.9744 20.0448 18.136 20.0096 18.2992C20 18.3008 19.9936 18.3056 19.9968 18.3168C19.984 18.4336 19.9488 18.5456 19.9216 18.6592C19.8384 19.0016 19.6912 19.3216 19.5648 19.648C19.3584 20.1776 19.0816 20.6656 18.704 21.0944C18.6448 21.1632 18.584 21.2304 18.5232 21.2992C18.5024 21.312 18.4864 21.328 18.4768 21.3488C18.4336 21.384 18.3968 21.4272 18.3632 21.472C18.3536 21.48 18.3424 21.4864 18.336 21.4976C18.328 21.512 18.2928 21.5152 18.3152 21.5424C18.3152 21.5424 18.3152 21.544 18.3152 21.5456C18.3392 21.5344 18.3616 21.5216 18.3856 21.5104C18.6704 21.3344 18.928 21.1232 19.1904 20.9168C19.2112 20.9008 19.2256 20.88 19.2448 20.8608C19.2624 20.8544 19.2752 20.84 19.2832 20.824L19.2864 20.8192ZM13.312 18.0448C13.3328 18.0448 13.3584 18.0608 13.3744 18.0336C13.5584 18.0128 13.7344 18.056 13.9136 18.0928C14.2208 18.1536 14.4992 18.2704 14.7424 18.4672C15.0384 18.7072 15.2576 19.0064 15.4464 19.3344C15.6176 19.6336 15.7168 19.9504 15.6864 20.2992C15.6672 20.304 15.672 20.3184 15.6752 20.3312C15.6752 20.3648 15.6784 20.4 15.672 20.432C15.5888 20.8432 15.4512 21.2304 15.1632 21.5472C14.936 21.7968 14.648 21.9504 14.336 22.064C14.2736 22.0864 14.2064 22.1024 14.1408 22.1104C13.8352 22.1456 13.5344 22.1184 13.2416 22.0176C12.9408 21.9136 12.712 21.7232 12.5552 21.448C12.4176 21.2064 12.4224 20.7984 12.6448 20.5776C12.68 20.5424 12.7088 20.5024 12.7376 20.4624C12.824 20.3456 12.9328 20.2544 13.0752 20.2256C13.2544 20.1904 13.4336 20.1456 13.6224 20.1616C13.6176 20.144 13.616 20.128 13.608 20.1152C13.3568 19.7168 12.9696 19.656 12.592 19.8432C12.4336 19.9216 12.3008 20.0448 12.232 20.224C12.1776 20.3632 12.1504 20.5088 12.1088 20.6512C12.0704 20.7872 12.0688 20.92 12.1088 21.0544C12.2512 21.5328 12.456 21.968 12.872 22.2768C13.0608 22.416 13.2576 22.528 13.4816 22.6C13.7184 22.6752 13.9536 22.7584 14.2064 22.7648C14.2512 22.7648 14.296 22.7696 14.3392 22.7616C14.68 22.6928 15.0144 22.6048 15.28 22.36C15.3024 22.3392 15.3296 22.3216 15.3536 22.3024C15.8224 21.9456 16.1424 21.4992 16.2384 20.904C16.2704 20.7008 16.3088 20.4976 16.3248 20.2944C16.3408 20.0928 16.3168 19.8912 16.272 19.6944C16.1968 19.3712 16.024 19.0944 15.8208 18.8448C15.3104 18.216 14.6544 17.816 13.8656 17.6272C13.6608 17.5776 13.4528 17.5712 13.2448 17.552C13.1456 17.5424 13.0464 17.544 12.9456 17.5776C12.8448 17.6096 12.7552 17.6608 12.6624 17.7072C12.2544 17.9088 11.8816 18.1632 11.5536 18.4784C11.4416 18.5856 11.3504 18.7136 11.2464 18.8288C11.0896 19.0032 10.9456 19.1888 10.832 19.3952C10.5568 19.9008 10.2512 20.3872 9.90402 20.8464C9.71522 21.096 9.50242 21.32 9.25922 21.5152C9.05122 21.6832 8.82402 21.8272 8.62242 22.0048C8.55842 22.0608 8.56002 22.0624 8.63842 22.0976C9.28482 22.3824 9.96323 22.5552 10.6528 22.6928C10.8368 22.7296 11.0224 22.768 11.2096 22.7856C11.2608 22.7904 11.2784 22.7776 11.2544 22.7264C11.2256 22.6624 11.2016 22.5968 11.1728 22.5328C11.0704 22.2992 10.968 22.0672 10.912 21.816C10.8528 21.5536 10.7616 21.2992 10.7488 21.0256C10.7312 20.656 10.7728 20.296 10.8912 19.944C11.1248 19.2576 11.5056 18.6992 12.1792 18.3728C12.5392 18.1984 12.9088 18.064 13.312 18.0464V18.0448Z" fill="black"/>
<path d="M7.66554 15.9344C7.68474 15.9776 7.70394 16.0192 7.72154 16.0624C7.73914 16.1408 7.74394 16.2192 7.71834 16.296C7.69274 16.312 7.67034 16.3328 7.65434 16.3584C7.64954 16.3584 7.64474 16.3584 7.63994 16.3616C7.59834 16.368 7.55674 16.3728 7.51514 16.3792C7.39834 16.3216 7.27194 16.3552 7.15034 16.344C7.08954 16.3392 7.02874 16.344 6.96794 16.3296C6.92634 16.32 6.88474 16.3152 6.84314 16.3232C6.78074 16.312 6.71834 16.3104 6.65594 16.3136C6.63994 16.3136 6.62394 16.3136 6.60954 16.3136C6.42394 16.28 6.23514 16.2688 6.04794 16.2512C6.03194 16.2512 6.01594 16.2512 6.00154 16.2512C5.94874 16.2592 5.89914 16.224 5.84634 16.2368C5.83514 16.2368 5.82554 16.2368 5.81434 16.2368C5.77274 16.232 5.73114 16.2256 5.68954 16.2208C5.67354 16.2208 5.65754 16.2208 5.64314 16.2208C5.60474 16.2272 5.57274 16.1952 5.53434 16.2064H5.48794C5.44474 16.2112 5.40794 16.1744 5.36314 16.1904C5.35834 16.1904 5.35194 16.1904 5.34714 16.1904C5.30554 16.1856 5.26394 16.1808 5.22234 16.1744C5.21114 16.1744 5.20154 16.1744 5.19034 16.1744C5.12314 16.1648 5.05434 16.1536 4.98714 16.144C4.97594 16.144 4.96634 16.144 4.95514 16.144C4.90074 16.1168 4.83834 16.1344 4.78394 16.112C4.77274 16.112 4.76314 16.112 4.75194 16.112C4.59674 16.08 4.44154 16.048 4.28474 16.0144C4.27194 15.9872 4.24474 15.9824 4.22074 15.9712C4.12954 15.8864 4.08314 15.7872 4.05914 15.6608C4.02554 15.488 4.00794 15.3152 3.99194 15.1408C3.99194 15.0512 3.99514 14.9632 3.99514 14.8736C4.00314 14.7232 4.03674 14.576 4.08474 14.4336C4.13274 14.2928 4.19194 14.1536 4.28154 14.032C4.33754 13.9568 4.41594 13.9248 4.51034 13.92C4.66874 13.9104 4.82234 13.9472 4.97434 13.976C5.11834 14.0032 5.26234 14.0256 5.40634 14.0496C5.41274 14.0672 5.42554 14.0624 5.43834 14.0592C5.44314 14.0592 5.44954 14.0592 5.45434 14.0592C5.47994 14.064 5.50714 14.0704 5.53274 14.0752C5.55354 14.0752 5.57434 14.0784 5.59514 14.08C5.60634 14.104 5.62554 14.0912 5.64314 14.0912L5.70554 14.0944C5.71674 14.1184 5.73594 14.1056 5.75354 14.1056C5.77434 14.1056 5.79514 14.1072 5.81594 14.1088C5.83194 14.136 5.85754 14.12 5.87834 14.1216C5.88314 14.1216 5.88954 14.1216 5.89434 14.1216C5.93114 14.1216 5.96474 14.152 6.00314 14.1392C6.02874 14.1392 6.05434 14.1424 6.07994 14.144C6.09114 14.168 6.11034 14.1552 6.12794 14.1552L6.20474 14.16C6.21594 14.1824 6.23514 14.1712 6.25274 14.1712C6.25754 14.1712 6.26394 14.1712 6.26874 14.1712C6.30074 14.168 6.32794 14.2 6.36314 14.1872C6.38874 14.1872 6.41434 14.1904 6.43994 14.192C6.45754 14.2176 6.48154 14.2032 6.50234 14.2032C6.52794 14.2048 6.55354 14.2064 6.57914 14.208C6.59034 14.2304 6.60954 14.2192 6.62714 14.2192C6.66394 14.2192 6.69914 14.2224 6.73594 14.224C6.75834 14.2496 6.78874 14.2336 6.81434 14.2352C6.85594 14.2352 6.89754 14.2384 6.93914 14.2384C6.97274 14.2672 7.01274 14.248 7.04954 14.2496C7.07034 14.2496 7.09114 14.2496 7.11194 14.2512C7.14554 14.28 7.18394 14.264 7.22074 14.264C7.23674 14.264 7.25274 14.2656 7.26714 14.2672C7.27514 14.2768 7.28634 14.2816 7.29914 14.2784C7.35194 14.304 7.39994 14.336 7.42714 14.3936C7.42714 14.4112 7.41594 14.4288 7.43674 14.4416C7.43994 14.4624 7.44314 14.4816 7.44634 14.5024C7.44154 14.5712 7.42554 14.6384 7.45594 14.7056C7.45754 14.8256 7.45914 14.9456 7.46074 15.0656C7.45274 15.0928 7.45754 15.1168 7.48474 15.1312C7.46394 15.1472 7.46714 15.1696 7.47194 15.1904C7.46074 15.216 7.48954 15.2304 7.48794 15.2528C7.48794 15.2576 7.48794 15.264 7.48794 15.2688C7.48634 15.2816 7.48154 15.296 7.49914 15.3008C7.49914 15.3104 7.50234 15.3216 7.50394 15.3312C7.50234 15.3488 7.49114 15.368 7.51514 15.3792C7.52634 15.4416 7.53914 15.504 7.55034 15.5664C7.54874 15.5792 7.54394 15.592 7.55994 15.5984C7.56794 15.64 7.57594 15.68 7.58234 15.7216C7.57914 15.7344 7.57434 15.7488 7.59354 15.7536C7.60474 15.7904 7.61754 15.8272 7.62874 15.8624C7.62554 15.8736 7.62874 15.8784 7.63994 15.88C7.63994 15.8848 7.63994 15.8896 7.64474 15.8928C7.63514 15.9152 7.64954 15.9264 7.66394 15.9376L7.66554 15.9344Z" fill="black"/>
<path d="M23.296 17.3792C23.5072 17.4176 23.72 17.4544 23.9296 17.4976C24.2528 17.5632 24.5792 17.6208 24.904 17.6848C25.1904 17.7408 25.48 17.7872 25.768 17.8432C26.608 18.0064 27.4464 18.1728 28.2864 18.3376C28.6304 18.4048 28.9744 18.4688 29.3184 18.5344C29.4752 18.5648 29.632 18.5968 29.7888 18.6272C29.8304 18.6352 29.8688 18.648 29.9024 18.6752C29.9168 18.7104 29.9216 18.7472 29.9216 18.784C29.872 18.9024 29.8512 18.9184 29.7232 18.9168C28.1744 18.8928 26.6272 18.872 25.0784 18.8192C24.9248 18.8144 24.7712 18.8192 24.6176 18.8176C24.6096 18.8128 24.6096 18.792 24.592 18.8032C24.2096 18.7872 23.8288 18.7648 23.4464 18.7552C23.2496 18.7504 23.056 18.7088 22.8592 18.72C22.8544 18.7024 22.8416 18.6992 22.824 18.704C22.7344 18.6832 22.6432 18.672 22.5536 18.6624C22.3328 18.6368 22.1776 18.5216 22.08 18.3328C21.9984 18.176 21.9808 18 21.9824 17.824C21.9824 17.7872 21.9952 17.7472 22.0128 17.7136C22.1184 17.512 22.2128 17.296 22.472 17.2464C22.5968 17.2224 22.72 17.2304 22.84 17.272C22.9776 17.32 23.1136 17.3728 23.2608 17.3744C23.272 17.376 23.2816 17.3776 23.2928 17.3792H23.296Z" fill="black"/>
<path d="M3.9056 15.392C3.9056 15.4176 3.9088 15.4432 3.9104 15.4688C3.9104 15.4912 3.896 15.5152 3.9216 15.5328C3.9216 15.5632 3.9248 15.5952 3.9264 15.6256C3.9264 15.6432 3.9152 15.6608 3.936 15.6736C3.9376 15.7568 3.9392 15.84 3.9408 15.9232C3.9328 15.9456 3.904 15.9568 3.9072 15.9856C3.9024 15.9904 3.896 15.9952 3.8912 16C3.8704 16.0064 3.8416 15.9888 3.8304 16.0208C3.7328 16.0144 3.6352 16.0048 3.5376 16.0016C3.5056 16.0016 3.488 15.9776 3.4608 15.9696C3.2144 15.9104 2.976 15.8272 2.7456 15.7248C2.6592 15.6864 2.584 15.6256 2.5088 15.5664C2.3632 15.4512 2.2528 15.3088 2.1552 15.1536C1.9952 14.9008 2.0288 14.6592 2.1968 14.4304C2.3392 14.2352 2.5152 14.072 2.7344 13.9648C2.744 13.96 2.7552 13.9552 2.7648 13.9504C2.7808 13.944 2.7968 13.9376 2.8128 13.9328C2.832 13.9296 2.8528 13.9296 2.864 13.9088C2.8976 13.9152 2.9216 13.8848 2.9536 13.8848C2.968 13.88 2.9824 13.8768 2.9984 13.872C3.072 13.856 3.1456 13.8416 3.2208 13.8256C3.2336 13.8272 3.2464 13.832 3.2528 13.8144C3.304 13.7984 3.3552 13.7904 3.408 13.7936C3.4352 13.792 3.464 13.808 3.4864 13.7808C3.5328 13.7776 3.5792 13.7728 3.6256 13.7696L3.9072 13.7744C3.9408 13.7792 3.9744 13.7824 4.0064 13.7872C4.1216 13.8048 4.1952 13.9104 4.112 14.0384C3.9808 14.2416 3.9152 14.464 3.888 14.7008C3.8704 14.7088 3.8752 14.72 3.88 14.7328C3.8576 14.8992 3.8752 15.0656 3.8784 15.232C3.8752 15.2448 3.8704 15.2592 3.8896 15.264C3.8896 15.2896 3.8928 15.3152 3.8944 15.3408C3.8944 15.3584 3.8832 15.3776 3.9056 15.3888V15.392Z" fill="black"/>
<path d="M10.688 7.9952C10.5824 8.0208 10.4832 7.9728 10.3808 7.9632C10.2784 7.9536 10.176 7.936 10.0736 7.92C9.98075 7.9056 9.88955 7.9104 9.79675 7.904C9.80475 7.8656 9.83515 7.8768 9.85915 7.8752C10.0064 7.8656 10.152 7.8864 10.2976 7.9088C10.4144 7.928 10.5296 7.9488 10.6464 7.968C10.6656 7.9712 10.6832 7.9696 10.688 7.9936V7.9952Z" fill="#F4F4F4"/>
<path d="M3.90721 13.776L3.62561 13.7712C3.72001 13.7408 3.81441 13.7312 3.90721 13.776Z" fill="#F4F4F4"/>
<path d="M22.52 17.032C22.6048 16.9984 22.6928 17.0112 22.7808 17.0096C22.744 17.0528 22.6944 17.024 22.6512 17.0288C22.608 17.0336 22.5632 17.0304 22.52 17.0304V17.032Z" fill="#F4F4F4"/>
<path d="M3.99357 14.8752C3.99357 14.9648 3.99037 15.0528 3.99037 15.1424C3.95837 15.0528 3.95197 14.9648 3.99357 14.8752Z" fill="#F4F4F4"/>
<path d="M8.21919 14.5328C8.13279 14.4896 8.04959 14.4848 7.97119 14.5536C7.97439 14.4864 8.03199 14.48 8.07679 14.472C8.13279 14.4624 8.19039 14.4672 8.21919 14.5328Z" fill="#F4F4F4"/>
<path d="M12.0945 8.1216C12.0017 8.1296 11.9153 8.1056 11.8289 8.08C11.8689 8.0384 11.9137 8.0768 11.9505 8.0832C11.9985 8.0928 12.0577 8.0704 12.0961 8.1216H12.0945Z" fill="#F4F4F4"/>
<path d="M11.8593 24.496C11.9425 24.4864 12.0257 24.4928 12.1089 24.5024C12.0257 24.52 11.9409 24.5296 11.8593 24.496Z" fill="#F4F4F4"/>
<path d="M7.71838 16.296C7.74398 16.2176 7.73918 16.1408 7.72158 16.0624C7.78718 16.1248 7.78558 16.2432 7.71838 16.296Z" fill="#F4F4F4"/>
<path d="M7.45438 14.7024C7.42398 14.6352 7.43998 14.568 7.44478 14.4992C7.48958 14.5648 7.47358 14.6336 7.45438 14.7024Z" fill="#F4F4F4"/>
<path d="M8.11364 11.968C8.11364 12.0368 8.11364 12.104 8.11364 12.1728C8.08484 12.104 8.08484 12.0368 8.11364 11.968Z" fill="#F4F4F4"/>
<path d="M23.5616 16.2032C23.536 16.1376 23.5456 16.0672 23.536 16C23.5728 16.064 23.5952 16.1296 23.5616 16.2032Z" fill="#F4F4F4"/>
<path d="M11.2704 17.6896C11.3152 17.6592 11.3616 17.6384 11.424 17.6416C11.3952 17.6848 11.36 17.7072 11.3168 17.7216C11.3008 17.712 11.2864 17.7008 11.2704 17.6912V17.6896Z" fill="#F4F4F4"/>
<path d="M15.9376 9.00958C15.864 9.01118 15.7984 8.98398 15.7344 8.95358C15.808 8.94878 15.8768 8.96478 15.9376 9.00958Z" fill="#F4F4F4"/>
<path d="M23.472 16.5936C23.488 16.528 23.5184 16.4672 23.5472 16.4064C23.5536 16.4816 23.5328 16.5456 23.472 16.5936Z" fill="#F4F4F4"/>
<path d="M6.73438 20.0096C6.79198 20.0096 6.84957 20.0096 6.90717 20.0096C6.84957 20.0448 6.79198 20.0432 6.73438 20.0096Z" fill="#F4F4F4"/>
<path d="M12.36 24.5104C12.4176 24.5024 12.4752 24.504 12.5328 24.5152C12.4752 24.536 12.4176 24.5456 12.36 24.5104Z" fill="#F4F4F4"/>
<path d="M13.328 24.5168C13.3792 24.5056 13.432 24.5024 13.4848 24.5104C13.4336 24.5472 13.3808 24.536 13.328 24.5168Z" fill="#F4F4F4"/>
<path d="M9.57916 7.9216C9.52956 7.9552 9.47516 7.9328 9.42236 7.936C9.47036 7.8816 9.52476 7.9056 9.57916 7.9216Z" fill="#F4F4F4"/>
<path d="M21.832 21.376C21.8608 21.3328 21.896 21.296 21.936 21.2624C21.9264 21.3232 21.9056 21.3728 21.832 21.376Z" fill="#F4F4F4"/>
<path d="M7.51685 16.3792C7.55845 16.3728 7.60005 16.368 7.64165 16.3616C7.59045 16.4256 7.55205 16.4304 7.51685 16.3792Z" fill="#F4F4F4"/>
<path d="M16.8752 9.2928C16.8144 9.2832 16.7552 9.2672 16.7024 9.2352C16.7696 9.2256 16.8256 9.2464 16.8752 9.2928Z" fill="#F4F4F4"/>
<path d="M14.2656 8.52799C14.2096 8.52799 14.1584 8.50879 14.1088 8.48479C14.1664 8.47839 14.2224 8.48159 14.2656 8.52799Z" fill="#F4F4F4"/>
<path d="M8.15837 12.5616C8.18877 12.6064 8.17917 12.656 8.17597 12.704C8.14077 12.6592 8.16477 12.608 8.15837 12.5616Z" fill="#F4F4F4"/>
<path d="M21.7872 17.5312C21.8032 17.48 21.8256 17.432 21.8592 17.3904C21.8528 17.4464 21.8352 17.4976 21.7872 17.5312Z" fill="#F4F4F4"/>
<path d="M6.84485 16.3248C6.88645 16.3168 6.92805 16.3216 6.96965 16.3312C6.92645 16.3584 6.88485 16.3584 6.84485 16.3248Z" fill="#F4F4F4"/>
<path d="M10.2192 24.464C10.2608 24.456 10.3024 24.4576 10.344 24.4688C10.3008 24.4896 10.2592 24.4976 10.2192 24.464Z" fill="#F4F4F4"/>
<path d="M14.9072 8.69922C14.8544 8.70722 14.8112 8.67842 14.7664 8.65762C14.8208 8.64802 14.8672 8.66242 14.9072 8.69922Z" fill="#F4F4F4"/>
<path d="M10.5984 17.9952C10.6368 17.9568 10.6816 17.9344 10.736 17.9248C10.704 17.9744 10.656 17.9936 10.5984 17.9952Z" fill="#F4F4F4"/>
<path d="M16.4064 9.13761C16.3536 9.14401 16.3104 9.11681 16.2656 9.09441C16.32 9.08481 16.3664 9.09761 16.4064 9.13761Z" fill="#F4F4F4"/>
<path d="M7.21915 14.2624C7.18235 14.2624 7.14395 14.28 7.11035 14.2496C7.15035 14.2224 7.18875 14.2096 7.21915 14.2624Z" fill="#F4F4F4"/>
<path d="M9.25443 15.592C9.27843 15.6048 9.29123 15.624 9.30243 15.6528C9.25123 15.6528 9.22403 15.6288 9.20483 15.592H9.25443Z" fill="#F4F4F4"/>
<path d="M7.04802 14.248C7.01122 14.2464 6.97282 14.264 6.93762 14.2368C6.97762 14.2128 7.01602 14.2 7.04802 14.248Z" fill="#F4F4F4"/>
<path d="M5.9856 23.5504C6.0288 23.5568 6.0688 23.5712 6.0976 23.608C6.0544 23.6 6.0032 23.608 5.9856 23.5504Z" fill="#F4F4F4"/>
<path d="M21.8272 18.4848C21.8128 18.4432 21.7984 18.4016 21.7856 18.36C21.8272 18.392 21.8432 18.4336 21.8272 18.4848Z" fill="#F4F4F4"/>
<path d="M9.7808 7.90557C9.7472 7.93597 9.7088 7.91837 9.672 7.91997C9.7024 7.87197 9.7408 7.88637 9.7808 7.90557Z" fill="#F4F4F4"/>
<path d="M21.0592 22.1232C21.08 22.0928 21.1088 22.0672 21.1408 22.048C21.1456 22.1072 21.112 22.1248 21.0592 22.1232Z" fill="#F4F4F4"/>
<path d="M14.4528 8.57438C14.408 8.57598 14.3648 8.57118 14.3296 8.54078C14.376 8.52958 14.4192 8.53598 14.4528 8.57438Z" fill="#F4F4F4"/>
<path d="M29.9233 18.7808C29.9233 18.744 29.9169 18.7072 29.9041 18.672C29.9585 18.7104 29.9649 18.7392 29.9233 18.7808Z" fill="#F4F4F4"/>
<path d="M13.6561 8.38882C13.6161 8.39362 13.5809 8.37922 13.5457 8.36322C13.5921 8.33282 13.6257 8.35042 13.6561 8.38882Z" fill="#F4F4F4"/>
<path d="M10.8448 17.8768C10.8736 17.8544 10.8976 17.8256 10.9392 17.8304C10.9184 17.8672 10.8912 17.8928 10.8448 17.8768Z" fill="#F4F4F4"/>
<path d="M23.5504 16.36C23.5504 16.328 23.5328 16.2944 23.5616 16.2656C23.5808 16.2992 23.5984 16.3344 23.5504 16.36Z" fill="#F4F4F4"/>
<path d="M16.2496 24.2208C16.2816 24.2208 16.3088 24.192 16.344 24.2048C16.3232 24.2768 16.2848 24.232 16.2496 24.2208Z" fill="#F4F4F4"/>
<path d="M22.1567 17.08C22.1855 17.0608 22.2175 17.0544 22.2495 17.0528C22.2255 17.088 22.1919 17.088 22.1567 17.08Z" fill="#F4F4F4"/>
<path d="M6.00162 14.1376C5.96162 14.152 5.92962 14.12 5.89282 14.12C5.93282 14.104 5.97282 14.088 6.00162 14.1376Z" fill="#F4F4F4"/>
<path d="M7.35999 19.9344C7.39039 19.9184 7.41759 19.8992 7.45439 19.9088C7.43039 19.9472 7.39839 19.9536 7.35999 19.9344Z" fill="#F4F4F4"/>
<path d="M16.5633 9.18558C16.5265 9.17758 16.4849 9.18078 16.4561 9.14878C16.4993 9.13758 16.5393 9.13918 16.5633 9.18558Z" fill="#F4F4F4"/>
<path d="M3.48636 13.7824C3.46396 13.8096 3.43516 13.7936 3.40796 13.7952C3.42716 13.7504 3.45596 13.7584 3.48636 13.7824Z" fill="#F4F4F4"/>
<path d="M7 19.9968C7.024 19.9728 7.0528 19.9856 7.08 19.9872C7.0592 20.032 7.0304 20.0208 7 19.9968Z" fill="#F4F4F4"/>
<path d="M12.392 8.16797C12.3648 8.17117 12.336 8.18557 12.3136 8.15837C12.3424 8.13597 12.3712 8.12797 12.392 8.16797Z" fill="#F4F4F4"/>
<path d="M12.8752 8.24798C12.848 8.24798 12.8192 8.26238 12.7968 8.23678C12.8272 8.21278 12.856 8.20478 12.8752 8.24798Z" fill="#F4F4F4"/>
<path d="M7.90881 17.3072C7.87361 17.3024 7.85441 17.2832 7.84961 17.248C7.88321 17.2544 7.90241 17.2752 7.90881 17.3072Z" fill="#F4F4F4"/>
<path d="M6.81278 14.232C6.78558 14.232 6.75677 14.2464 6.73438 14.2208C6.76477 14.1952 6.79358 14.1872 6.81278 14.232Z" fill="#F4F4F4"/>
<path d="M16.7184 24.1424C16.744 24.1376 16.7664 24.1136 16.7968 24.128C16.7824 24.1904 16.7504 24.168 16.7184 24.1424Z" fill="#F4F4F4"/>
<path d="M20.9167 22.248C20.9343 22.2224 20.9567 22.2032 20.9839 22.1888C20.9903 22.2416 20.9631 22.256 20.9167 22.248Z" fill="#F4F4F4"/>
<path d="M20.6976 22.4352C20.7152 22.4096 20.7376 22.3904 20.7664 22.3776C20.7728 22.4304 20.744 22.4448 20.6976 22.4352Z" fill="#F4F4F4"/>
<path d="M20.5104 22.592C20.528 22.5664 20.5504 22.5472 20.5792 22.5344C20.584 22.5872 20.5568 22.6 20.5104 22.592Z" fill="#F4F4F4"/>
<path d="M20.6049 22.5136C20.6225 22.488 20.6449 22.4688 20.6737 22.456C20.6785 22.5088 20.6513 22.5216 20.6049 22.5136Z" fill="#F4F4F4"/>
<path d="M16.1728 9.0752C16.1408 9.0832 16.1216 9.056 16.0944 9.048C16.1312 9.0288 16.1552 9.04 16.1728 9.0752Z" fill="#F4F4F4"/>
<path d="M23.2176 14.7344C23.2032 14.7104 23.1856 14.6864 23.1904 14.656C23.2256 14.6736 23.2384 14.6976 23.2176 14.7344Z" fill="#F4F4F4"/>
<path d="M17.8896 23.888C17.9136 23.8736 17.9376 23.8576 17.968 23.8608C17.9504 23.896 17.9248 23.9072 17.8896 23.888Z" fill="#F4F4F4"/>
<path d="M17.7504 9.60802C17.7152 9.60642 17.6832 9.60002 17.6592 9.57122C17.696 9.56642 17.7328 9.56482 17.7504 9.60802Z" fill="#F4F4F4"/>
<path d="M15.5008 8.8848C15.4736 8.8816 15.4464 8.8768 15.4224 8.8592C15.4576 8.8416 15.4816 8.8528 15.5008 8.8848Z" fill="#F4F4F4"/>
<path d="M8.32318 10.8592C8.31838 10.8864 8.31358 10.9136 8.29598 10.9376C8.27838 10.9024 8.28958 10.8768 8.32318 10.8592Z" fill="#F4F4F4"/>
<path d="M16.1407 24.2368C16.1727 24.2368 16.1999 24.208 16.2351 24.2208C16.2111 24.272 16.1759 24.2496 16.1407 24.2368Z" fill="#F4F4F4"/>
<path d="M7.64157 16.936C7.61757 16.9168 7.59517 16.8976 7.57117 16.8784C7.61757 16.8704 7.64317 16.888 7.64157 16.936Z" fill="#F4F4F4"/>
<path d="M7.78406 19.8048C7.80806 19.776 7.84166 19.7712 7.87686 19.7696C7.85606 19.808 7.82246 19.8128 7.78406 19.8048Z" fill="#F4F4F4"/>
<path d="M7.57764 19.872C7.60004 19.8512 7.63044 19.856 7.65764 19.848C7.63844 19.88 7.61444 19.896 7.57764 19.872Z" fill="#F4F4F4"/>
<path d="M7.65601 16.3584C7.67201 16.3328 7.69441 16.312 7.72001 16.296C7.72481 16.3424 7.70241 16.3632 7.65601 16.3584Z" fill="#F4F4F4"/>
<path d="M6.36003 14.1856C6.32483 14.1984 6.29922 14.1664 6.26562 14.1696C6.30082 14.1568 6.33603 14.136 6.36003 14.1856Z" fill="#F4F4F4"/>
<path d="M12.9696 8.26239C12.9472 8.26239 12.9232 8.27679 12.9072 8.25119C12.9328 8.22719 12.9552 8.22239 12.9696 8.26239Z" fill="#F4F4F4"/>
<path d="M14.952 24.3872C14.9696 24.3616 14.9936 24.376 15.016 24.376C15.0016 24.4176 14.9792 24.4112 14.952 24.3872Z" fill="#F4F4F4"/>
<path d="M12.1888 8.13762C12.1664 8.13762 12.144 8.15202 12.1248 8.12802C12.1504 8.10242 12.1728 8.09602 12.1888 8.13762Z" fill="#F4F4F4"/>
<path d="M11.7968 8.07202C11.7744 8.07682 11.752 8.08962 11.7328 8.06402C11.7568 8.04002 11.7792 8.03362 11.7968 8.07202Z" fill="#F4F4F4"/>
<path d="M7.50075 16.8528C7.47835 16.856 7.45435 16.8736 7.43835 16.84C7.46395 16.8208 7.48635 16.816 7.50075 16.8528Z" fill="#F4F4F4"/>
<path d="M11.0511 17.7824C11.0735 17.7664 11.0959 17.7488 11.1263 17.752C11.1135 17.7904 11.0879 17.8016 11.0511 17.7824Z" fill="#F4F4F4"/>
<path d="M12.2816 8.15362C12.2592 8.15362 12.2352 8.16962 12.2192 8.14242C12.2448 8.11842 12.2672 8.11362 12.2816 8.15362Z" fill="#F4F4F4"/>
<path d="M7.48477 15.128C7.45757 15.1136 7.45277 15.0896 7.46077 15.0624C7.50077 15.072 7.48317 15.104 7.48477 15.128Z" fill="#F4F4F4"/>
<path d="M22.328 18.7696C22.3024 18.768 22.2752 18.7648 22.2496 18.7632C22.2768 18.7456 22.304 18.7376 22.328 18.7696Z" fill="#F4F4F4"/>
<path d="M13.0624 8.27838C13.04 8.27998 13.016 8.29438 13 8.26718C13.0256 8.24318 13.048 8.23838 13.0624 8.27838Z" fill="#F4F4F4"/>
<path d="M4.2192 15.9712C4.2432 15.9824 4.2704 15.9872 4.2832 16.0144C4.2512 16.0144 4.216 16.0224 4.2192 15.9712Z" fill="#F4F4F4"/>
<path d="M7.10876 19.9824C7.12636 19.9584 7.15036 19.9696 7.17276 19.9712C7.15836 20.0128 7.13596 20.0064 7.10876 19.9824Z" fill="#F4F4F4"/>
<path d="M22.0704 21.1056C22.0832 21.08 22.0992 21.0592 22.1232 21.0432C22.1264 21.0816 22.1168 21.1088 22.0704 21.1056Z" fill="#F4F4F4"/>
<path d="M5.87685 14.1232C5.85445 14.1232 5.83045 14.1376 5.81445 14.1104C5.84165 14.088 5.86405 14.0832 5.87685 14.1232Z" fill="#F4F4F4"/>
<path d="M6.50075 14.2016C6.47835 14.2016 6.45435 14.216 6.43835 14.1904C6.46395 14.1664 6.48795 14.1616 6.50075 14.2016Z" fill="#F4F4F4"/>
<path d="M13.1728 8.29437C13.1504 8.29437 13.1264 8.30877 13.1088 8.28317C13.1344 8.25917 13.1568 8.25437 13.1728 8.29437Z" fill="#F4F4F4"/>
<path d="M21.3199 21.8784C21.3343 21.8576 21.3503 21.8384 21.3743 21.8272C21.3727 21.8608 21.3711 21.8976 21.3199 21.8784Z" fill="#F4F4F4"/>
<path d="M21.2625 21.936C21.2737 21.912 21.2945 21.896 21.3169 21.8832C21.3361 21.9376 21.2977 21.936 21.2625 21.936Z" fill="#F4F4F4"/>
<path d="M17.968 9.70081C17.9408 9.70561 17.9216 9.69281 17.9056 9.67361C17.9424 9.64641 17.9568 9.67041 17.968 9.70081Z" fill="#F4F4F4"/>
<path d="M12.5793 8.20158C12.5505 8.21118 12.5265 8.19358 12.5009 8.18558C12.5313 8.16638 12.5617 8.15518 12.5793 8.20158Z" fill="#F4F4F4"/>
<path d="M3.83044 16.0208C3.84164 15.9872 3.87044 16.0064 3.89124 16C3.88324 16.0432 3.85924 16.0384 3.83044 16.0208Z" fill="#F4F4F4"/>
<path d="M17.8592 9.6544C17.8336 9.656 17.8128 9.6448 17.7968 9.6272C17.8352 9.5984 17.848 9.624 17.8592 9.6544Z" fill="#F4F4F4"/>
<path d="M12.656 8.21601C12.6336 8.21761 12.6112 8.23041 12.592 8.20641C12.6176 8.18241 12.64 8.17601 12.656 8.21601Z" fill="#F4F4F4"/>
<path d="M12.7664 8.23198C12.744 8.23358 12.7216 8.24638 12.7024 8.22238C12.728 8.19678 12.7504 8.19038 12.7664 8.23198Z" fill="#F4F4F4"/>
<path d="M3.90725 15.984C3.90245 15.9552 3.93285 15.944 3.94085 15.9216C3.96165 15.96 3.94085 15.976 3.90725 15.984Z" fill="#F4F4F4"/>
<path d="M15.7184 24.2944C15.736 24.2688 15.76 24.2848 15.7824 24.2832C15.768 24.3264 15.7456 24.3184 15.7184 24.2944Z" fill="#F4F4F4"/>
<path d="M3.92161 15.5312C3.89601 15.5136 3.91041 15.4896 3.91041 15.4672C3.95201 15.4816 3.94561 15.504 3.92161 15.5312Z" fill="#F4F4F4"/>
<path d="M13.36 8.32641C13.3376 8.32641 13.3136 8.34081 13.2976 8.31521C13.3232 8.29121 13.3472 8.28641 13.36 8.32641Z" fill="#F4F4F4"/>
<path d="M20.984 11.448C20.9552 11.448 20.9424 11.4336 20.9392 11.4064C20.9648 11.4096 20.9808 11.4224 20.984 11.448Z" fill="#F4F4F4"/>
<path d="M5.53275 14.0752C5.50715 14.0704 5.47995 14.064 5.45435 14.0592C5.48475 14.0416 5.51515 14.0304 5.53275 14.0752Z" fill="#F4F4F4"/>
<path d="M5.64163 14.0912C5.62403 14.0912 5.60483 14.104 5.59363 14.08C5.61763 14.0528 5.63203 14.0592 5.64163 14.0912Z" fill="#F4F4F4"/>
<path d="M13.8751 8.43523C13.8575 8.43523 13.8383 8.44643 13.8271 8.42403C13.8495 8.39683 13.8655 8.40163 13.8751 8.43523Z" fill="#F4F4F4"/>
<path d="M13.7344 8.40477C13.7168 8.40477 13.6976 8.41597 13.6864 8.39357C13.7088 8.36637 13.7248 8.37117 13.7344 8.40477Z" fill="#F4F4F4"/>
<path d="M9.59364 24.424C9.60964 24.424 9.62564 24.424 9.64004 24.424C9.63844 24.4368 9.63524 24.448 9.61924 24.4496C9.60004 24.4512 9.59524 24.4384 9.59204 24.4224L9.59364 24.424Z" fill="#F4F4F4"/>
<path d="M14.8271 24.4032C14.8399 24.3808 14.8575 24.392 14.8751 24.3936C14.8655 24.4272 14.8495 24.432 14.8271 24.4032Z" fill="#F4F4F4"/>
<path d="M15.016 8.73119C14.9904 8.73919 14.9712 8.73439 14.9552 8.71199C14.9792 8.70399 15.0048 8.69439 15.016 8.73119Z" fill="#F4F4F4"/>
<path d="M15.5936 24.3088C15.6048 24.2864 15.624 24.2976 15.6416 24.2976C15.632 24.3312 15.616 24.336 15.5936 24.3088Z" fill="#F4F4F4"/>
<path d="M16.0768 24.2464C16.088 24.224 16.1072 24.2352 16.1248 24.2352C16.1152 24.2688 16.0992 24.2736 16.0768 24.2464Z" fill="#F4F4F4"/>
<path d="M7.48794 15.2496C7.48794 15.2272 7.46074 15.2128 7.47194 15.1872C7.51194 15.1984 7.50554 15.2224 7.48794 15.2496Z" fill="#F4F4F4"/>
<path d="M16.3888 24.2C16.4016 24.1792 16.4192 24.1888 16.4368 24.1904C16.4272 24.224 16.4112 24.2272 16.3888 24.2Z" fill="#F4F4F4"/>
<path d="M16.4832 24.184C16.496 24.1632 16.5136 24.1712 16.5312 24.1744C16.5216 24.208 16.5056 24.2112 16.4832 24.184Z" fill="#F4F4F4"/>
<path d="M16.5776 24.168C16.5904 24.1472 16.608 24.1568 16.6256 24.1584C16.616 24.192 16.6 24.1952 16.5776 24.168Z" fill="#F4F4F4"/>
<path d="M15.656 8.93438C15.6304 8.94238 15.6112 8.93758 15.5952 8.91518C15.6192 8.90718 15.6448 8.89758 15.656 8.93438Z" fill="#F4F4F4"/>
<path d="M7.5152 15.376C7.4912 15.3648 7.5024 15.3456 7.504 15.328C7.5376 15.3376 7.5408 15.352 7.5152 15.376Z" fill="#F4F4F4"/>
<path d="M3.9056 15.392C3.8832 15.3808 3.8944 15.3616 3.8944 15.344C3.928 15.3536 3.9328 15.368 3.9056 15.392Z" fill="#F4F4F4"/>
<path d="M16.968 24.096C16.9904 24.096 17.0064 24.0688 17.0304 24.0816C17.0176 24.1216 16.9936 24.1136 16.968 24.096Z" fill="#F4F4F4"/>
<path d="M17.0768 24.0752C17.0896 24.0528 17.1072 24.064 17.1248 24.0656C17.1152 24.0992 17.0992 24.104 17.0768 24.0752Z" fill="#F4F4F4"/>
<path d="M17.1552 24.0592C17.168 24.0368 17.1856 24.0464 17.2032 24.0496C17.1936 24.0832 17.1776 24.088 17.1552 24.0592Z" fill="#F4F4F4"/>
<path d="M3.93436 15.6736C3.91356 15.6608 3.92476 15.6416 3.92476 15.6256C3.95836 15.6352 3.96316 15.6512 3.93436 15.6736Z" fill="#F4F4F4"/>
<path d="M17.2816 24.0336C17.304 24.0336 17.32 24.008 17.344 24.0176C17.3328 24.0592 17.3088 24.0512 17.2816 24.0336Z" fill="#F4F4F4"/>
<path d="M17.36 24.0176C17.3824 24.0192 17.3984 23.9904 17.4224 24.0032C17.4096 24.0432 17.3856 24.0368 17.36 24.0176Z" fill="#F4F4F4"/>
<path d="M23.5216 15.936C23.4992 15.92 23.4928 15.9008 23.5024 15.8752C23.5392 15.8864 23.5296 15.912 23.5216 15.936Z" fill="#F4F4F4"/>
<path d="M14.0784 8.48002C14.0608 8.48162 14.0432 8.49442 14.0304 8.47042C14.0528 8.44482 14.0688 8.44642 14.0784 8.48002Z" fill="#F4F4F4"/>
<path d="M7.4352 14.4384C7.4144 14.4256 7.424 14.408 7.4256 14.3904C7.4592 14.4 7.464 14.416 7.4352 14.4384Z" fill="#F4F4F4"/>
<path d="M18.576 23.6704C18.5936 23.6528 18.6129 23.6352 18.6417 23.6432C18.6305 23.68 18.6016 23.6704 18.576 23.6704Z" fill="#F4F4F4"/>
<path d="M13.5152 8.3568C13.4976 8.3584 13.48 8.36799 13.4672 8.34719C13.4896 8.31999 13.5056 8.3248 13.5152 8.3568Z" fill="#F4F4F4"/>
<path d="M21.9872 21.2032C21.9968 21.1824 22.0096 21.1648 22.0304 21.1552C22.0336 21.1872 22.0224 21.2064 21.9872 21.2032Z" fill="#F4F4F4"/>
<path d="M21.7361 18.0768C21.7233 18.064 21.7137 18.0496 21.7201 18.0304C21.7505 18.0368 21.7585 18.0528 21.7361 18.0768Z" fill="#F4F4F4"/>
<path d="M13.4384 8.34241C13.4208 8.34401 13.4032 8.35361 13.3904 8.33281C13.4128 8.30401 13.4288 8.30881 13.4384 8.34241Z" fill="#F4F4F4"/>
<path d="M12.4848 8.1856C12.4672 8.1856 12.4496 8.1952 12.4368 8.176C12.4592 8.1472 12.4752 8.1504 12.4848 8.1856Z" fill="#F4F4F4"/>
<path d="M11.704 8.0608C11.6864 8.0608 11.6688 8.0704 11.656 8.0512C11.6784 8.0224 11.6944 8.0272 11.704 8.0608Z" fill="#F4F4F4"/>
<path d="M7.20325 19.9664C7.21445 19.944 7.23365 19.9536 7.25125 19.9568C7.24165 19.9904 7.22565 19.9952 7.20325 19.9664Z" fill="#F4F4F4"/>
<path d="M7.28162 19.9504C7.29442 19.928 7.31202 19.9392 7.32962 19.9408C7.32002 19.9744 7.30242 19.976 7.28162 19.9504Z" fill="#F4F4F4"/>
<path d="M8.0144 19.7184C8.032 19.6992 8.0512 19.6848 8.0784 19.6912C8.0704 19.7312 8.0384 19.7168 8.0144 19.7184Z" fill="#F4F4F4"/>
<path d="M5.48475 16.2048H5.53115C5.52955 16.2176 5.52635 16.2304 5.51035 16.232C5.49115 16.2336 5.48635 16.2208 5.48315 16.2048H5.48475Z" fill="#F4F4F4"/>
<path d="M5.6416 16.2208C5.6576 16.2208 5.6736 16.2208 5.688 16.2208C5.6864 16.2336 5.6832 16.2448 5.6688 16.2464C5.6496 16.248 5.6448 16.2352 5.6416 16.2208Z" fill="#F4F4F4"/>
<path d="M21.7808 18.328C21.7552 18.3184 21.7664 18.2976 21.7696 18.2816C21.8016 18.2896 21.8064 18.3056 21.7808 18.328Z" fill="#F4F4F4"/>
<path d="M6.00001 16.2528C6.01601 16.2528 6.03201 16.2528 6.04641 16.2528C6.04481 16.2656 6.04161 16.2768 6.02561 16.2784C6.00641 16.28 6.00161 16.2672 5.99841 16.2512L6.00001 16.2528Z" fill="#F4F4F4"/>
<path d="M6.62564 14.216C6.60804 14.216 6.59044 14.2272 6.57764 14.2048C6.60004 14.176 6.61604 14.1824 6.62564 14.216Z" fill="#F4F4F4"/>
<path d="M5.75039 14.1072C5.73279 14.1072 5.71359 14.12 5.70239 14.096C5.72639 14.0688 5.74079 14.0752 5.75039 14.1072Z" fill="#F4F4F4"/>
<path d="M6.25125 14.1696C6.23365 14.1696 6.21605 14.1808 6.20325 14.1584C6.22565 14.1296 6.24165 14.136 6.25125 14.1696Z" fill="#F4F4F4"/>
<path d="M6.60963 16.3152C6.62563 16.3152 6.64163 16.3152 6.65603 16.3152C6.65443 16.328 6.65123 16.3392 6.63523 16.3408C6.61603 16.3424 6.61123 16.3296 6.60803 16.3136L6.60963 16.3152Z" fill="#F4F4F4"/>
<path d="M6.12637 14.1536C6.10877 14.1536 6.08957 14.1648 6.07837 14.1424C6.10237 14.1152 6.11677 14.1216 6.12637 14.1536Z" fill="#F4F4F4"/>
<path d="M22.4208 18.7936C22.4032 18.7952 22.384 18.808 22.3744 18.7824C22.3968 18.7584 22.4128 18.7616 22.4208 18.7936Z" fill="#F4F4F4"/>
<path d="M11.5937 8.04479C11.5761 8.04479 11.5569 8.05599 11.5457 8.03359C11.5697 8.00639 11.5841 8.01119 11.5937 8.04479Z" fill="#F4F4F4"/>
<path d="M22.0928 18.7264C22.0736 18.7248 22.0544 18.7216 22.04 18.704C22.0608 18.7024 22.0848 18.696 22.0928 18.7264Z" fill="#F4F4F4"/>
<path d="M2.86565 13.9088C2.85445 13.9296 2.83365 13.9296 2.81445 13.9328C2.82085 13.9008 2.84485 13.9072 2.86565 13.9088Z" fill="#F4F4F4"/>
<path d="M9.59839 18.688C9.60639 18.6704 9.62079 18.6576 9.63999 18.6528C9.64319 18.6832 9.62239 18.688 9.59839 18.688Z" fill="#F4F4F4"/>
<path d="M9.70715 18.5952C9.71515 18.576 9.72955 18.5648 9.74875 18.56C9.75035 18.5904 9.72955 18.5952 9.70715 18.5952Z" fill="#F4F4F4"/>
<path d="M21.8736 18.5792C21.856 18.568 21.8512 18.5504 21.848 18.5312C21.8768 18.536 21.8752 18.5584 21.8736 18.5792Z" fill="#F4F4F4"/>
<path d="M9.87842 18.4544C9.88802 18.4352 9.90242 18.424 9.92162 18.4208C9.92162 18.4528 9.90242 18.456 9.87842 18.4544Z" fill="#F4F4F4"/>
<path d="M10.0016 18.36C10.0096 18.3392 10.0224 18.3248 10.0464 18.3264C10.0464 18.3584 10.0256 18.36 10.0016 18.36Z" fill="#F4F4F4"/>
<path d="M10.3744 18.1248C10.384 18.1056 10.3968 18.0912 10.4208 18.0912C10.4208 18.1248 10.3984 18.1264 10.3744 18.1248Z" fill="#F4F4F4"/>
<path d="M5.92163 23.5168C5.94403 23.5168 5.96323 23.5216 5.96963 23.5472C5.94723 23.5472 5.92483 23.5488 5.92163 23.5168Z" fill="#F4F4F4"/>
<path d="M10.1711 18.2496C10.1775 18.2256 10.1951 18.2176 10.2175 18.2176C10.2175 18.2512 10.1935 18.2512 10.1711 18.2496Z" fill="#F4F4F4"/>
<path d="M8.27362 11.016C8.27362 11.0352 8.27362 11.056 8.25122 11.0656C8.25122 11.0448 8.24482 11.0224 8.27362 11.016Z" fill="#F4F4F4"/>
<path d="M21.768 18.2496C21.7664 18.24 21.7632 18.2288 21.7616 18.2192C21.7792 18.2256 21.7872 18.2352 21.768 18.2496Z" fill="#F4F4F4"/>
<path d="M7.5936 15.7504C7.5744 15.7456 7.5776 15.7328 7.5824 15.7184C7.6032 15.7232 7.6176 15.7296 7.5936 15.7504Z" fill="#F4F4F4"/>
<path d="M23.296 17.3792C23.2848 17.3776 23.2752 17.376 23.264 17.3744C23.2784 17.3552 23.288 17.3616 23.296 17.3792Z" fill="#F4F4F4"/>
<path d="M21.752 17.6096C21.7488 17.5968 21.744 17.5824 21.7648 17.5776C21.7888 17.5984 21.7728 17.6048 21.752 17.6096Z" fill="#F4F4F4"/>
<path d="M14.6256 8.61919C14.6128 8.62239 14.6032 8.61919 14.5936 8.60959C14.6128 8.58719 14.6208 8.59839 14.6256 8.61919Z" fill="#F4F4F4"/>
<path d="M21.72 17.7184C21.7152 17.7024 21.7296 17.6976 21.736 17.688C21.7568 17.712 21.7392 17.7152 21.72 17.7184Z" fill="#F4F4F4"/>
<path d="M14.7344 8.65122C14.7216 8.65442 14.7088 8.66242 14.7024 8.64322C14.72 8.61762 14.7296 8.62722 14.7344 8.65122Z" fill="#F4F4F4"/>
<path d="M7.08799 17.7184C7.09119 17.7312 7.08799 17.7408 7.07999 17.7504C7.05759 17.7328 7.06719 17.7248 7.08799 17.7184Z" fill="#F4F4F4"/>
<path d="M11.1711 17.7328C11.1759 17.7136 11.1903 17.7184 11.2031 17.7184C11.1999 17.7392 11.1951 17.7568 11.1711 17.7328Z" fill="#F4F4F4"/>
<path d="M21.7824 12.2464C21.7648 12.2464 21.7536 12.2384 21.7552 12.2192C21.7728 12.2192 21.7808 12.2304 21.7824 12.2464Z" fill="#F4F4F4"/>
<path d="M7.072 17.7968C7.0752 17.8096 7.072 17.8192 7.064 17.8288C7.0416 17.8112 7.0512 17.8032 7.072 17.7968Z" fill="#F4F4F4"/>
<path d="M10.9728 17.8144C10.9856 17.8032 10.9968 17.7904 11.016 17.8C11.0096 17.8272 10.9936 17.8304 10.9728 17.8144Z" fill="#F4F4F4"/>
<path d="M23.3104 15.016C23.2912 15.0112 23.296 14.9968 23.2992 14.984C23.32 14.9888 23.336 14.9952 23.3104 15.016Z" fill="#F4F4F4"/>
<path d="M15.1568 8.77918C15.144 8.78078 15.1296 8.78558 15.1248 8.76638C15.1472 8.74078 15.152 8.75838 15.1568 8.77918Z" fill="#F4F4F4"/>
<path d="M21.9664 17.2176C21.9712 17.2 21.9808 17.1888 21.9968 17.1824C21.9984 17.2048 21.9888 17.2176 21.9664 17.2176Z" fill="#F4F4F4"/>
<path d="M8.71838 24.2896C8.73118 24.2848 8.74078 24.288 8.75038 24.296C8.73438 24.3168 8.72638 24.3104 8.71838 24.2896Z" fill="#F4F4F4"/>
<path d="M22.0272 17.1552C22.0336 17.1392 22.0464 17.1296 22.0624 17.1264C22.0608 17.1488 22.048 17.1568 22.0272 17.1552Z" fill="#F4F4F4"/>
<path d="M3.25283 13.816C3.24643 13.8336 3.23363 13.8288 3.22083 13.8272C3.22563 13.8048 3.23203 13.7904 3.25283 13.816Z" fill="#F4F4F4"/>
<path d="M21.7471 18.1728C21.7295 18.1664 21.7343 18.1536 21.7359 18.1408C21.7583 18.1456 21.7727 18.152 21.7471 18.1728Z" fill="#F4F4F4"/>
<path d="M23.3568 15.1728C23.3376 15.168 23.3424 15.1536 23.3456 15.1408C23.368 15.1456 23.3824 15.152 23.3568 15.1728Z" fill="#F4F4F4"/>
<path d="M15.2031 8.7952C15.1903 8.7984 15.1775 8.8016 15.1711 8.784C15.1919 8.7584 15.1983 8.7728 15.2031 8.7952Z" fill="#F4F4F4"/>
<path d="M22.9248 19.2176C22.9216 19.208 22.9168 19.1968 22.9136 19.1872C22.9328 19.192 22.944 19.1984 22.9248 19.2176Z" fill="#F4F4F4"/>
<path d="M3.88005 14.7344C3.87525 14.7216 3.87045 14.7088 3.88805 14.7024C3.91365 14.72 3.90405 14.7296 3.88005 14.7344Z" fill="#F4F4F4"/>
<path d="M15.344 8.8416C15.3216 8.8512 15.3104 8.8352 15.2992 8.8208C15.3216 8.8128 15.3376 8.8144 15.344 8.8416Z" fill="#F4F4F4"/>
<path d="M22.296 17.0448C22.3024 17.0272 22.3152 17.032 22.328 17.0336C22.3232 17.056 22.3168 17.0704 22.296 17.0448Z" fill="#F4F4F4"/>
<path d="M8.26562 24.2096C8.27842 24.2064 8.28803 24.2096 8.29763 24.2176C8.28163 24.24 8.27202 24.2304 8.26562 24.2096Z" fill="#F4F4F4"/>
<path d="M2.99841 13.872C2.98401 13.8768 2.96961 13.88 2.95361 13.8848C2.96161 13.8592 2.97761 13.8576 2.99841 13.872Z" fill="#F4F4F4"/>
<path d="M13.7968 8.416C13.784 8.4192 13.7744 8.416 13.7648 8.4064C13.7824 8.384 13.7904 8.3952 13.7968 8.416Z" fill="#F4F4F4"/>
<path d="M22.8737 16.9968C22.8801 16.9792 22.8929 16.984 22.9057 16.9872C22.9009 17.0096 22.8929 17.0224 22.8737 16.9968Z" fill="#F4F4F4"/>
<path d="M23.1072 16.9328C23.1136 16.9168 23.1264 16.92 23.1392 16.9232C23.1344 16.9456 23.1264 16.9616 23.1072 16.9328Z" fill="#F4F4F4"/>
<path d="M3.88956 15.2672C3.87196 15.2608 3.87516 15.248 3.87836 15.2352C3.90076 15.24 3.91516 15.2464 3.88956 15.2672Z" fill="#F4F4F4"/>
<path d="M8.14398 11.6096C8.15038 11.6208 8.14718 11.632 8.13918 11.6416C8.11998 11.6288 8.12478 11.6176 8.14398 11.6096Z" fill="#F4F4F4"/>
<path d="M22.8271 18.7008C22.8431 18.696 22.8559 18.6992 22.8623 18.7168C22.8479 18.7168 22.8351 18.7168 22.8271 18.7008Z" fill="#F4F4F4"/>
<path d="M13.2656 8.30558C13.2528 8.30878 13.2432 8.30878 13.2336 8.29758C13.2496 8.27358 13.2592 8.28318 13.2656 8.30558Z" fill="#F4F4F4"/>
<path d="M22.2337 18.7632C22.2209 18.7648 22.2081 18.7696 22.2017 18.7536C22.2225 18.7264 22.2289 18.7408 22.2337 18.7632Z" fill="#F4F4F4"/>
<path d="M2.76636 13.9504C2.75676 13.9552 2.74556 13.96 2.73596 13.9648C2.73916 13.9456 2.74556 13.9312 2.76636 13.9504Z" fill="#F4F4F4"/>
<path d="M5.43837 14.0608C5.42557 14.0624 5.41277 14.0672 5.40637 14.0512C5.42717 14.024 5.43357 14.0384 5.43837 14.0608Z" fill="#F4F4F4"/>
<path d="M24.5936 18.8C24.6112 18.7888 24.6096 18.8096 24.6192 18.8144C24.608 18.8144 24.5984 18.8112 24.5936 18.8Z" fill="#F4F4F4"/>
<path d="M14.5632 8.60477C14.5504 8.60797 14.5377 8.61597 14.5312 8.59677C14.5489 8.57277 14.5584 8.58237 14.5632 8.60477Z" fill="#F4F4F4"/>
<path d="M22.6865 18.9056C22.6705 18.9024 22.6577 18.8928 22.6497 18.8768C22.6721 18.8736 22.6849 18.8816 22.6865 18.9056Z" fill="#F4F4F4"/>
<path d="M8.19679 11.328C8.19359 11.3376 8.19039 11.3488 8.18719 11.3584C8.16639 11.3408 8.17759 11.3328 8.19679 11.328Z" fill="#F4F4F4"/>
<path d="M8.03205 15.9376C8.04325 15.9456 8.04645 15.9568 8.04325 15.9696C8.02245 15.9648 8.00965 15.9584 8.03205 15.9376Z" fill="#F4F4F4"/>
<path d="M5.81274 16.2368C5.82394 16.2368 5.83354 16.2368 5.84474 16.2368C5.84474 16.2464 5.84154 16.2592 5.82874 16.2592C5.81594 16.2592 5.81434 16.2464 5.81274 16.2368Z" fill="#F4F4F4"/>
<path d="M23.1392 14.5168C23.12 14.512 23.1264 14.4976 23.128 14.4848C23.1504 14.4896 23.1632 14.496 23.1392 14.5168Z" fill="#F4F4F4"/>
<path d="M7.49917 15.2976C7.47997 15.2928 7.48477 15.2784 7.48797 15.2656C7.50877 15.2704 7.52477 15.2768 7.49917 15.2976Z" fill="#F4F4F4"/>
<path d="M8.3136 19.5952C8.3216 19.584 8.3312 19.5792 8.344 19.5808C8.3408 19.6 8.3344 19.616 8.3136 19.5952Z" fill="#F4F4F4"/>
<path d="M16.6704 24.1536C16.6768 24.136 16.6896 24.1408 16.7024 24.1424C16.6976 24.1648 16.6912 24.1792 16.6704 24.1536Z" fill="#F4F4F4"/>
<path d="M8.11365 19.6736C8.12645 19.6624 8.13765 19.6496 8.15685 19.6592C8.15045 19.6864 8.13445 19.6896 8.11365 19.6736Z" fill="#F4F4F4"/>
<path d="M16.92 24.1056C16.9264 24.0896 16.9408 24.0928 16.952 24.096C16.9472 24.1184 16.9392 24.1328 16.92 24.1056Z" fill="#F4F4F4"/>
<path d="M7.9104 19.752C7.9232 19.7408 7.9344 19.728 7.9536 19.7376C7.9472 19.7648 7.9312 19.768 7.9104 19.752Z" fill="#F4F4F4"/>
<path d="M7.55999 15.5952C7.54399 15.5888 7.54879 15.5744 7.55039 15.5632C7.57279 15.568 7.58719 15.576 7.55999 15.5952Z" fill="#F4F4F4"/>
<path d="M5.18884 16.1744H5.22084C5.22084 16.1856 5.21764 16.1968 5.20484 16.1968C5.19204 16.1968 5.19044 16.184 5.18884 16.1744Z" fill="#F4F4F4"/>
<path d="M4.95361 16.144C4.96481 16.144 4.97441 16.144 4.98561 16.144C4.98561 16.1536 4.98241 16.1664 4.96961 16.1664C4.95681 16.1664 4.95521 16.1536 4.95361 16.144Z" fill="#F4F4F4"/>
<path d="M4.75037 16.112C4.76157 16.112 4.77117 16.112 4.78237 16.112C4.78237 16.1216 4.78077 16.1344 4.76637 16.1344C4.75357 16.1344 4.75197 16.1232 4.75037 16.112Z" fill="#F4F4F4"/>
<path d="M10.8447 8.01121C10.8335 8.01121 10.8239 8.01121 10.8127 8.00961C10.8127 7.99841 10.8175 7.98881 10.8303 7.99041C10.8431 7.99041 10.8447 8.00161 10.8447 8.01281V8.01121Z" fill="#F4F4F4"/>
<path d="M7.29763 14.2752C7.28483 14.2784 7.27522 14.2752 7.26562 14.264C7.28482 14.2416 7.29283 14.2544 7.29763 14.2752Z" fill="#F4F4F4"/>
<path d="M13.9376 8.44642C13.9248 8.44962 13.9152 8.44642 13.9056 8.43682C13.9232 8.41442 13.9312 8.42402 13.9376 8.44642Z" fill="#F4F4F4"/>
<path d="M14 8.46557C13.9872 8.46877 13.9744 8.47357 13.968 8.45597C13.9872 8.43037 13.9952 8.44317 14 8.46557Z" fill="#F4F4F4"/>
<path d="M18.1873 9.79359C18.1745 9.79519 18.1633 9.79039 18.1569 9.77919C18.1793 9.75839 18.1841 9.77439 18.1873 9.79359Z" fill="#F4F4F4"/>
<path d="M18.0464 9.73121C18.0336 9.73281 18.024 9.72801 18.016 9.71681C18.0384 9.69601 18.0432 9.71041 18.0464 9.73121Z" fill="#F4F4F4"/>
<path d="M17.6256 9.55843C17.6128 9.56163 17.6032 9.55523 17.5952 9.54563C17.616 9.52483 17.6224 9.53763 17.6256 9.55843Z" fill="#F4F4F4"/>
<path d="M17.5007 9.51202C17.4879 9.51522 17.4768 9.51042 17.4688 9.49922C17.4896 9.47682 17.4959 9.49122 17.5007 9.51202Z" fill="#F4F4F4"/>
<path d="M17.0464 9.35518C17.0336 9.35838 17.024 9.35358 17.016 9.34238C17.0368 9.32158 17.0432 9.33438 17.0464 9.35518Z" fill="#F4F4F4"/>
<path d="M16.2352 9.08798C16.2224 9.09118 16.2096 9.09918 16.2032 9.07998C16.2208 9.05598 16.2304 9.06398 16.2352 9.08798Z" fill="#F4F4F4"/>
<path d="M16.0624 9.04161C16.0496 9.04481 16.04 9.04162 16.0304 9.03202C16.048 9.00962 16.0576 9.02081 16.0624 9.04161Z" fill="#F4F4F4"/>
<path d="M9.00966 9C9.00646 9.0096 9.00326 9.0208 9.00006 9.0304C8.97926 9.0128 8.99046 9.0048 9.00966 9Z" fill="#F4F4F4"/>
<path d="M23.0928 14.3904C23.072 14.3856 23.0784 14.3712 23.0816 14.3584C23.1024 14.3632 23.1168 14.3696 23.0928 14.3904Z" fill="#F4F4F4"/>
<path d="M18.0928 23.8256C18.0976 23.8064 18.112 23.8112 18.1248 23.8128C18.12 23.8336 18.1152 23.8496 18.0928 23.8256Z" fill="#F4F4F4"/>
<path d="M7.66563 15.9344C7.64963 15.9232 7.63523 15.912 7.64643 15.8896C7.67363 15.896 7.67523 15.912 7.66563 15.9344Z" fill="#F4F4F4"/>
<path d="M7.26562 23.9744L7.29602 23.984C7.27842 24.0048 7.27042 23.9936 7.26562 23.9744Z" fill="#F4F4F4"/>
<path d="M17.5312 23.984C17.5393 23.9744 17.5504 23.9712 17.5632 23.9744C17.5584 23.9952 17.5505 24.0064 17.5312 23.984Z" fill="#F4F4F4"/>
<path d="M17.4528 23.9968C17.4592 23.9792 17.472 23.984 17.4848 23.9872C17.48 24.0096 17.472 24.0224 17.4528 23.9968Z" fill="#F4F4F4"/>
<path d="M17.2336 24.0432C17.24 24.0256 17.2528 24.0304 17.2656 24.032C17.2608 24.0544 17.2544 24.0688 17.2336 24.0432Z" fill="#F4F4F4"/>
<path d="M7.43835 24.0224C7.44795 24.0256 7.45915 24.0288 7.46875 24.032C7.45115 24.0528 7.44315 24.0416 7.43835 24.0224Z" fill="#F4F4F4"/>
<path d="M8.12483 12.3136C8.13283 12.3232 8.13603 12.3344 8.12963 12.3456C8.11043 12.3376 8.10403 12.328 8.12483 12.3136Z" fill="#F4F4F4"/>
<path d="M5.34399 16.1904C5.34399 16.1904 5.35519 16.1904 5.35999 16.1904C5.35679 16.1968 5.35519 16.2032 5.35199 16.2096L5.34399 16.1904Z" fill="#F4F4F4"/>
<path d="M9.98401 24.456C9.98401 24.456 9.99521 24.456 10 24.456L9.99201 24.4752C9.99201 24.4752 9.98721 24.4624 9.98401 24.456Z" fill="#F4F4F4"/>
<path d="M7.63999 15.8768C7.63039 15.8752 7.62559 15.8704 7.62879 15.8592C7.63199 15.8656 7.63679 15.8704 7.63999 15.8768Z" fill="#F4F4F4"/>
<path d="M23.1232 14.4704C23.1136 14.4704 23.1072 14.464 23.112 14.4528C23.1152 14.4592 23.12 14.464 23.1232 14.4704Z" fill="#F4F4F4"/>
<path d="M8.17114 19.656C8.17274 19.6464 8.17594 19.64 8.18874 19.6448C8.18234 19.648 8.17754 19.6528 8.17114 19.656Z" fill="#F4F4F4"/>
<path d="M8.42078 19.5456C8.42238 19.536 8.42558 19.5296 8.43838 19.5344C8.43198 19.5376 8.42718 19.5424 8.42078 19.5456Z" fill="#F4F4F4"/>
<path d="M8.45276 19.5312C8.45436 19.5216 8.45756 19.5152 8.46876 19.52C8.46396 19.5232 8.45756 19.528 8.45276 19.5312Z" fill="#F4F4F4"/>
<path d="M23.152 16.92C23.1552 16.9088 23.16 16.9056 23.1712 16.9088L23.152 16.92Z" fill="#F4F4F4"/>
<path d="M10.1407 18.2656C10.1407 18.2544 10.1455 18.2496 10.1567 18.2544C10.1519 18.2576 10.1455 18.2624 10.1407 18.2656Z" fill="#F4F4F4"/>
<path d="M10.2656 18.1872C10.2656 18.176 10.2704 18.1712 10.2816 18.176C10.2768 18.1792 10.2704 18.184 10.2656 18.1872Z" fill="#F4F4F4"/>
<path d="M10.296 18.1712C10.296 18.1616 10.3008 18.1552 10.312 18.1568L10.296 18.1712Z" fill="#F4F4F4"/>
<path d="M10.4991 18.0464C10.4991 18.0352 10.5039 18.0304 10.5151 18.0352C10.5103 18.0384 10.5039 18.0432 10.4991 18.0464Z" fill="#F4F4F4"/>
<path d="M10.5312 18.0304C10.5312 18.0208 10.536 18.0144 10.5472 18.0176C10.5424 18.0224 10.5361 18.0256 10.5312 18.0304Z" fill="#F4F4F4"/>
<path d="M23.3424 15.112C23.3328 15.1104 23.328 15.104 23.3312 15.0944L23.3424 15.112Z" fill="#F4F4F4"/>
<path d="M10.7488 17.9216C10.7504 17.912 10.7536 17.9056 10.7664 17.9088C10.76 17.9136 10.7552 17.9168 10.7488 17.9216Z" fill="#F4F4F4"/>
<path d="M23.2944 14.9568C23.2848 14.9536 23.28 14.9488 23.2832 14.9376C23.2864 14.944 23.2912 14.9504 23.2944 14.9568Z" fill="#F4F4F4"/>
<path d="M7.52954 19.8896C7.53114 19.88 7.53594 19.8736 7.54714 19.8784C7.54074 19.8816 7.53594 19.8864 7.52954 19.8896Z" fill="#F4F4F4"/>
<path d="M23.0768 14.3456C23.0672 14.3456 23.0608 14.3392 23.0656 14.328C23.0688 14.3344 23.0736 14.3392 23.0768 14.3456Z" fill="#F4F4F4"/>
<path d="M23.1856 14.6432C23.176 14.6416 23.1696 14.6368 23.1744 14.6256L23.1856 14.6432Z" fill="#F4F4F4"/>
<path d="M8.48315 19.5152C8.48315 19.5056 8.48795 19.4992 8.49915 19.5024C8.49435 19.5072 8.48795 19.5104 8.48315 19.5152Z" fill="#F4F4F4"/>
<path d="M16.3472 11.4592C16.3712 11.4512 16.392 11.4544 16.4144 11.4656C16.5056 11.512 16.5984 11.5568 16.6896 11.6032C16.7072 11.6112 16.72 11.6224 16.7184 11.6432C16.592 11.5888 16.4608 11.5392 16.3472 11.4592Z" fill="#F4F4F4"/>
<path d="M14.4095 11.688C14.4527 11.7328 14.4527 11.8768 14.4095 11.9232C14.4095 11.8448 14.4095 11.7664 14.4095 11.688Z" fill="#F4F4F4"/>
<path d="M13.7023 13.6704C13.6703 13.7424 13.6175 13.7968 13.5439 13.8272C13.5823 13.76 13.6335 13.7072 13.7023 13.6704Z" fill="#F4F4F4"/>
<path d="M13.5472 15.2672C13.6096 15.24 13.6736 15.24 13.736 15.2672C13.6736 15.2672 13.6096 15.2672 13.5472 15.2672Z" fill="#F4F4F4"/>
<path d="M18.5153 12.9376C18.5761 12.9616 18.6177 13.0016 18.6401 13.064C18.5841 13.0368 18.5393 12.9968 18.5153 12.9376Z" fill="#F4F4F4"/>
<path d="M11.4384 11.4672C11.4816 11.4256 11.552 11.4256 11.5952 11.4672C11.5424 11.4672 11.4912 11.4672 11.4384 11.4672Z" fill="#F4F4F4"/>
<path d="M15.9056 11.2688C15.968 11.2528 16.0144 11.2736 16.048 11.3264C15.9984 11.3136 15.9488 11.2976 15.9056 11.2688Z" fill="#F4F4F4"/>
<path d="M18.3697 21.4656C18.3873 21.4736 18.3905 21.488 18.3905 21.504C18.3665 21.5152 18.3441 21.528 18.3201 21.5392C18.3201 21.5392 18.3217 21.536 18.3201 21.536C18.2977 21.5088 18.3313 21.504 18.3409 21.4912C18.3473 21.4816 18.3585 21.4736 18.3681 21.4656H18.3697Z" fill="#F4F4F4"/>
<path d="M10.5009 11.2368C10.4897 11.2768 10.4657 11.3024 10.4257 11.3136C10.4369 11.2736 10.4609 11.2464 10.5009 11.2368Z" fill="#F4F4F4"/>
<path d="M20.6896 16.5632C20.6592 16.5328 20.6656 16.5024 20.6848 16.4688C20.6928 16.4992 20.6944 16.5312 20.6896 16.5632Z" fill="#F4F4F4"/>
<path d="M18.2336 17.2336C18.2048 17.2064 18.2224 17.1712 18.2176 17.1392C18.2464 17.168 18.2336 17.2016 18.2336 17.2336Z" fill="#F4F4F4"/>
<path d="M13.952 15.2832C13.9824 15.2592 14.0112 15.2496 14.0304 15.2944C14.0032 15.2928 13.9744 15.3088 13.952 15.2832Z" fill="#F4F4F4"/>
<path d="M16.1136 11.3488C16.1504 11.3488 16.1888 11.344 16.2032 11.392C16.1648 11.3952 16.1344 11.3808 16.1136 11.3488Z" fill="#F4F4F4"/>
<path d="M13.312 18.0432C13.3264 18.0032 13.3488 18.0096 13.3744 18.032C13.3568 18.0592 13.3328 18.0432 13.312 18.0432Z" fill="#F4F4F4"/>
<path d="M13.9697 10.456C13.9697 10.472 13.9697 10.488 13.9681 10.5056C13.9489 10.4912 13.9313 10.4768 13.9041 10.456H13.9697Z" fill="#F4F4F4"/>
<path d="M18.5296 21.2928C18.5312 21.3264 18.5152 21.3424 18.4832 21.3424C18.4928 21.32 18.5088 21.304 18.5296 21.2928Z" fill="#F4F4F4"/>
<path d="M16.7472 11.6576C16.7776 11.6576 16.808 11.656 16.8064 11.7008C16.792 11.6784 16.744 11.7056 16.7472 11.6576Z" fill="#F4F4F4"/>
<path d="M14.1552 15.2992C14.1776 15.2704 14.1936 15.2752 14.2032 15.3088C14.1856 15.3088 14.168 15.32 14.1552 15.2992Z" fill="#F4F4F4"/>
<path d="M14.3904 15.3296C14.4112 15.304 14.4288 15.3056 14.4384 15.3392C14.4208 15.3424 14.4032 15.352 14.3904 15.3296Z" fill="#F4F4F4"/>
<path d="M16.8271 11.704C16.8575 11.704 16.8863 11.704 16.8847 11.7472C16.8639 11.7344 16.8367 11.7312 16.8271 11.704Z" fill="#F4F4F4"/>
<path d="M17.5616 18.8432C17.5872 18.8656 17.5856 18.8816 17.552 18.8912C17.5488 18.8736 17.5392 18.856 17.5616 18.8432Z" fill="#F4F4F4"/>
<path d="M16.0624 15.9376C16.0864 15.936 16.1088 15.9376 16.1104 15.9696C16.088 15.9696 16.072 15.9584 16.0624 15.9376Z" fill="#F4F4F4"/>
<path d="M19.2865 20.8176C19.2769 20.7824 19.2993 20.7808 19.3233 20.7792C19.3169 20.7968 19.3025 20.8096 19.2865 20.8176Z" fill="#F4F4F4"/>
<path d="M19.248 20.856C19.248 20.832 19.2512 20.808 19.2864 20.8192C19.2784 20.8352 19.2656 20.8496 19.248 20.856Z" fill="#F4F4F4"/>
<path d="M16.016 15.9056C16.04 15.9056 16.0608 15.9056 16.0608 15.9376C16.0384 15.9376 16.0208 15.928 16.016 15.9056Z" fill="#F4F4F4"/>
<path d="M18.2192 18.048C18.2192 18.0304 18.2128 18.0096 18.2352 17.9984C18.2384 18.0176 18.2416 18.0368 18.2192 18.048Z" fill="#F4F4F4"/>
<path d="M20.1392 17.7024C20.1648 17.7232 20.1488 17.7296 20.128 17.7344C20.1264 17.7216 20.1216 17.7072 20.1392 17.7024Z" fill="#F4F4F4"/>
<path d="M14.4047 12.0928C14.4303 12.1136 14.4143 12.12 14.3935 12.1248C14.3919 12.112 14.3871 12.0976 14.4047 12.0928Z" fill="#F4F4F4"/>
<path d="M10.0048 12.8592C10.0272 12.864 10.04 12.8736 10.0144 12.8912C9.99676 12.8848 9.99996 12.872 10.0048 12.8592Z" fill="#F4F4F4"/>
<path d="M20.1568 17.2192C20.1728 17.2304 20.1696 17.24 20.1552 17.2496C20.1488 17.2384 20.1504 17.2288 20.1568 17.2192Z" fill="#F4F4F4"/>
<path d="M17.5488 18.9696C17.568 18.984 17.5616 18.9936 17.5424 19.0016L17.5488 18.9696Z" fill="#F4F4F4"/>
<path d="M16.0608 11.3312C16.0832 11.304 16.0896 11.32 16.0928 11.3424C16.08 11.3456 16.0672 11.3472 16.0608 11.3312Z" fill="#F4F4F4"/>
<path d="M19.568 14.4224C19.5888 14.4256 19.5936 14.4384 19.592 14.4576C19.5728 14.4528 19.5584 14.4464 19.568 14.4224Z" fill="#F4F4F4"/>
<path d="M15.8464 11.2416C15.8688 11.2336 15.8864 11.2368 15.8912 11.264C15.8688 11.2704 15.8576 11.2576 15.8464 11.2416Z" fill="#F4F4F4"/>
<path d="M15.0768 11.0512C15.096 11.024 15.104 11.0384 15.1088 11.0608C15.096 11.064 15.0832 11.0672 15.0768 11.0512Z" fill="#F4F4F4"/>
<path d="M15.6864 20.296C15.712 20.3168 15.6976 20.3232 15.6752 20.328C15.672 20.3152 15.6672 20.3008 15.6864 20.296Z" fill="#F4F4F4"/>
<path d="M12.7824 14.2528C12.7776 14.2736 12.7728 14.2896 12.7504 14.2656C12.7552 14.2464 12.7696 14.2512 12.7824 14.2528Z" fill="#F4F4F4"/>
<path d="M12.5632 14.2992C12.5584 14.3216 12.5521 14.336 12.5312 14.3104C12.5377 14.2928 12.5504 14.2976 12.5632 14.2992Z" fill="#F4F4F4"/>
<path d="M14.6096 10.9808C14.6096 10.9712 14.6128 10.9584 14.624 10.9584C14.6368 10.9584 14.64 10.968 14.64 10.9792H14.608L14.6096 10.9808Z" fill="#F4F4F4"/>
<path d="M11.5632 10.7216C11.5584 10.744 11.5505 10.7584 11.5312 10.7312C11.5377 10.7136 11.5504 10.7184 11.5632 10.7216Z" fill="#F4F4F4"/>
<path d="M10.9073 14.4064C10.9265 14.4064 10.9377 14.416 10.9393 14.4352C10.9169 14.4368 10.9057 14.4288 10.9073 14.4064Z" fill="#F4F4F4"/>
<path d="M12.1183 12.3952C12.1183 12.3952 12.1231 12.4112 12.1247 12.4192C12.1151 12.4192 12.1055 12.4176 12.0959 12.416C12.1039 12.4096 12.1103 12.4016 12.1183 12.3952Z" fill="#F4F4F4"/>
<path d="M14.3472 11.2976C14.3472 11.2976 14.3552 11.3088 14.3584 11.3152C14.3488 11.3136 14.3424 11.3088 14.3472 11.2976Z" fill="#F4F4F4"/>
<path d="M20.0144 18.2944C20.0144 18.2944 20.0064 18.3056 20.0016 18.312C19.9984 18.3008 20.0048 18.296 20.0144 18.2944Z" fill="#F4F4F4"/>
<path d="M11.0848 14.5792C11.0848 14.5792 11.0928 14.5824 11.0944 14.5888C11.0832 14.5936 11.0816 14.5904 11.0848 14.5792Z" fill="#F4F4F4"/>
<path d="M17.3775 17.7024C17.3775 17.7024 17.3855 17.7136 17.3903 17.72C17.3807 17.72 17.3743 17.7136 17.3775 17.7024Z" fill="#F4F4F4"/>
<path d="M17.5184 19.1712C17.5184 19.1712 17.5264 19.1808 17.5296 19.184C17.5152 19.1888 17.5152 19.1808 17.5184 19.1712Z" fill="#F4F4F4"/>
<path d="M18.0752 16.9856C18.0768 17.0224 18.08 17.0576 18.0816 17.0944C18.0816 17.1264 18.064 17.16 18.0912 17.1888C18.1008 17.3248 18.1136 17.4608 18.096 17.5984C18.0832 17.6976 18.0752 17.7168 17.9776 17.7232C17.8608 17.7296 17.744 17.7312 17.6272 17.7376C17.5584 17.7408 17.5408 17.6848 17.52 17.6432C17.3776 17.3488 17.232 17.056 17.0704 16.7712C17.0192 16.68 16.968 16.5904 16.8976 16.512C16.8832 16.496 16.8704 16.48 16.8624 16.4608C16.8064 16.352 16.8464 16.2864 16.968 16.2832C17.1808 16.2768 17.3936 16.2848 17.6048 16.2992C17.6608 16.3024 17.7168 16.312 17.7744 16.3168C17.8368 16.3216 17.8832 16.3504 17.912 16.4032C17.9264 16.4304 17.9456 16.456 17.9552 16.4848C18.0112 16.6368 18.0416 16.7936 18.064 16.9536C18.0608 16.9664 18.056 16.9792 18.0736 16.9856H18.0752Z" fill="black"/>
<path d="M18.0928 17.1872C18.0656 17.1584 18.0816 17.1248 18.0832 17.0928C18.1296 17.12 18.1152 17.1536 18.0928 17.1872Z" fill="#F4F4F4"/>
<path d="M18.0752 16.9856C18.0576 16.9792 18.0624 16.9664 18.0656 16.9536C18.088 16.9584 18.1024 16.9664 18.0752 16.9856Z" fill="#F4F4F4"/>
</g>
<defs>
<clipPath id="clip0_149_12977">
<rect width="32" height="32" fill="white"/>
</clipPath>
</defs>
</svg>
