<svg width="32" height="32" viewBox="0 0 32 32" fill="none" xmlns="http://www.w3.org/2000/svg">
<g clip-path="url(#clip0_149_12979)">
<path d="M21.5775 16.4976C21.5263 16.504 21.4735 16.5104 21.4223 16.5168C21.4175 16.5216 21.4111 16.5248 21.4063 16.5296C21.3423 16.52 21.2831 16.5504 21.2191 16.5488C21.2143 16.5536 21.2079 16.5568 21.2031 16.5616C21.0575 16.5696 20.9151 16.6048 20.7711 16.624C20.7183 16.6304 20.6639 16.6272 20.6095 16.6288C20.5855 16.6032 20.5711 16.608 20.5615 16.6416L20.3119 16.6448C20.2863 16.6224 20.2623 16.616 20.2495 16.656C20.1983 16.656 20.1471 16.6576 20.0943 16.6592C20.0879 16.664 20.0831 16.6672 20.0767 16.672C20.0303 16.672 19.9839 16.6736 19.9375 16.6752C19.9311 16.68 19.9263 16.6832 19.9199 16.688C19.8415 16.6944 19.7631 16.7008 19.6863 16.7072C19.6655 16.6832 19.6591 16.6992 19.6543 16.72C19.5871 16.72 19.5199 16.7232 19.4511 16.7232C19.4287 16.6976 19.4127 16.7024 19.4031 16.7344C19.3615 16.7344 19.3199 16.736 19.2783 16.7376C19.2575 16.7136 19.2511 16.728 19.2463 16.7504C19.1791 16.7504 19.1119 16.7536 19.0431 16.7536C19.0079 16.7344 18.9743 16.7152 18.9487 16.7648C18.8767 16.7648 18.8031 16.768 18.7311 16.768C18.7103 16.7424 18.7039 16.7584 18.6991 16.7792C18.6367 16.7792 18.5743 16.7824 18.5119 16.784C18.4911 16.7584 18.4847 16.7744 18.4799 16.7952C18.2847 16.8032 18.0879 16.8048 17.8927 16.8176C17.7087 16.8288 17.5231 16.8128 17.3407 16.8416C17.3327 16.808 17.3167 16.8048 17.2927 16.8304C17.2351 16.8288 17.1791 16.8256 17.1215 16.824C17.1183 16.8064 17.1135 16.7904 17.0911 16.8096C17.0799 16.8096 17.0687 16.808 17.0591 16.8064C17.0351 16.7632 16.9935 16.752 16.9487 16.7504C16.9423 16.7488 16.9375 16.7456 16.9311 16.744C16.9343 16.7216 16.9279 16.7056 16.9023 16.704C16.7087 16.5472 16.5871 16.3296 16.4319 16.1408C16.3039 15.9856 16.1807 15.8304 16.1071 15.64C16.1023 15.6352 16.0991 15.6304 16.0943 15.6256C16.0783 15.5888 16.0447 15.5584 16.0527 15.512C16.0655 15.496 16.0559 15.488 16.0415 15.4832C16.0383 15.4768 16.0335 15.472 16.0303 15.4656C16.0271 15.4608 16.0223 15.456 16.0191 15.4512C15.9999 15.4336 16.0063 15.4096 15.9999 15.3872C15.9951 15.3824 15.9919 15.3776 15.9871 15.3728C15.9791 15.3568 15.9647 15.344 15.9679 15.3248C15.9679 15.3056 15.9711 15.2848 15.9423 15.28C15.9343 15.2592 15.9279 15.2384 15.9199 15.2176C15.9423 15.1952 15.9263 15.1904 15.9071 15.1872C15.8383 15.0512 15.7695 14.9152 15.7023 14.7792C15.6991 14.7744 15.6943 14.7696 15.6911 14.7664C15.6799 14.7344 15.6671 14.7024 15.6559 14.6704C15.6511 14.6656 15.6479 14.6608 15.6431 14.656C15.6095 14.5392 15.5407 14.4368 15.4911 14.3264C15.4447 14.2256 15.3935 14.128 15.3439 14.0288C15.3407 14.024 15.3359 14.0192 15.3327 14.016C15.3135 13.9984 15.3199 13.9728 15.3135 13.952C15.3103 13.9472 15.3055 13.9424 15.3023 13.9376C15.3023 13.9312 15.3007 13.9264 15.2991 13.92C15.2959 13.8976 15.3087 13.8688 15.2735 13.8592C15.2511 13.752 15.2143 13.648 15.1727 13.5456C15.1695 13.5408 15.1647 13.536 15.1615 13.5312C15.1423 13.5136 15.1519 13.488 15.1423 13.4672C15.1391 13.4624 15.1343 13.4576 15.1311 13.4528C15.1119 13.4352 15.1199 13.4096 15.1119 13.3888C15.1087 13.384 15.1039 13.3792 15.1007 13.376C15.0991 13.3648 15.0975 13.3552 15.0959 13.344C15.0927 13.3392 15.0879 13.3344 15.0847 13.3296C15.0847 13.3184 15.0815 13.3088 15.0799 13.2976C15.0767 13.2928 15.0719 13.288 15.0687 13.2816C15.0575 13.2048 15.0255 13.136 15.0015 13.0624C14.9983 13.0576 14.9951 13.0528 14.9903 13.048C14.9903 13.0368 14.9871 13.0256 14.9855 13.016C14.9823 12.992 14.9967 12.9616 14.9567 12.9536C14.9567 12.9488 14.9551 12.9424 14.9535 12.9376C14.9775 12.9152 14.9743 12.8992 14.9423 12.8912C14.9423 12.88 14.9391 12.8704 14.9375 12.8592C14.9343 12.8352 14.9487 12.8048 14.9087 12.7968C14.9087 12.7808 14.9071 12.7648 14.9055 12.7504C14.9007 12.7456 14.8975 12.7408 14.8927 12.736C14.8927 12.7312 14.8927 12.7248 14.8927 12.72C14.9119 12.696 14.9071 12.68 14.8751 12.6736C14.8751 12.6576 14.8735 12.6416 14.8719 12.6256C14.8671 12.6208 14.8639 12.616 14.8591 12.6112V12.5952C14.8751 12.568 14.8831 12.544 14.8431 12.5344C14.8431 12.5296 14.8431 12.5232 14.8447 12.5184C14.8623 12.4944 14.8591 12.4784 14.8271 12.472C14.8303 12.4592 14.8319 12.448 14.8351 12.4352C14.8431 12.4112 14.8383 12.3952 14.8111 12.3936L14.8079 12.3472C14.8079 12.3472 14.7999 12.3376 14.7951 12.3312C14.7887 12.2896 14.7823 12.248 14.7759 12.2064C14.7711 12.2016 14.7679 12.1952 14.7631 12.1904C14.7631 12.1744 14.7615 12.1584 14.7599 12.1424C14.7551 12.1376 14.7519 12.1328 14.7471 12.128C14.7471 12.1232 14.7471 12.1168 14.7487 12.112C14.7663 12.088 14.7615 12.072 14.7311 12.0656C14.7311 12.0496 14.7295 12.0336 14.7279 12.0176C14.7247 12.0128 14.7215 12.008 14.7183 12.0032C14.7167 11.992 14.7151 11.9808 14.7119 11.968C14.7119 11.9632 14.7071 11.9584 14.7023 11.9552C14.6991 11.9392 14.6975 11.9232 14.6943 11.9088C14.6911 11.904 14.6863 11.8976 14.6831 11.8928C14.6831 11.8816 14.6799 11.872 14.6783 11.8608C14.6735 11.856 14.6703 11.8512 14.6655 11.8464C14.6655 11.8416 14.6655 11.8352 14.6655 11.8304C14.6831 11.808 14.6815 11.792 14.6527 11.784C14.6511 11.768 14.6479 11.7536 14.6463 11.7376C14.6399 11.7104 14.6639 11.6736 14.6207 11.6592C14.6191 11.6432 14.6159 11.6288 14.6143 11.6128C14.6111 11.608 14.6079 11.6032 14.6047 11.5968C14.6031 11.5808 14.6015 11.5648 14.5983 11.5488C14.5935 11.544 14.5903 11.5392 14.5855 11.5328C14.5887 11.4672 14.5663 11.408 14.5503 11.3456C14.5439 11.3184 14.5695 11.2816 14.5247 11.2672C14.5247 11.2384 14.4879 11.2176 14.5119 11.1856C14.5247 11.1616 14.5071 11.16 14.4911 11.1584L14.4991 11.1216C14.5071 11.0976 14.5023 11.0832 14.4751 11.08C14.4751 11.064 14.4735 11.048 14.4719 11.0336C14.4959 11.0112 14.4783 11.0064 14.4591 11.0032C14.4607 10.9376 14.4415 10.8768 14.4255 10.816C14.4223 10.8112 14.4191 10.8064 14.4159 10.8016L14.4095 10.7536C14.4095 10.7536 14.4031 10.744 14.3999 10.7392V10.7056C14.4159 10.6848 14.3999 10.68 14.3839 10.6768C14.3823 10.6608 14.3791 10.6464 14.3775 10.6304C14.3743 10.6256 14.3711 10.6208 14.3679 10.6144C14.3663 10.5984 14.3631 10.5824 14.3615 10.5664C14.3567 10.5616 14.3535 10.5568 14.3487 10.5504C14.3567 10.496 14.3151 10.4496 14.3295 10.3952C14.3247 10.3904 14.3215 10.384 14.3167 10.3792C14.3167 10.3584 14.3151 10.3376 14.3135 10.3168C14.3087 10.312 14.3055 10.3056 14.3007 10.3008C14.2895 10.176 14.2671 10.0528 14.2559 9.92801C14.2495 9.85441 14.2271 9.78241 14.2351 9.70881L14.2223 9.69281C14.2223 9.67201 14.2223 9.65121 14.2223 9.62881C14.2447 9.60641 14.2271 9.60161 14.2079 9.59841C14.2079 9.57281 14.2079 9.54561 14.2079 9.52001C14.2239 9.50721 14.2191 9.49601 14.2031 9.48801C14.2031 9.31681 14.1951 9.14401 14.2255 8.97441C14.2463 8.97121 14.2623 8.96481 14.2383 8.94401C14.2383 8.92321 14.2399 8.90241 14.2415 8.88161C14.2463 8.87681 14.2495 8.87041 14.2543 8.86561C14.2671 8.79841 14.2911 8.73281 14.2895 8.66241C14.2943 8.65761 14.2975 8.65281 14.3023 8.64801C14.3023 8.60481 14.3279 8.56641 14.3199 8.52161C14.3247 8.51681 14.3279 8.51201 14.3327 8.50721C14.3359 8.49601 14.3375 8.48641 14.3407 8.47521C14.3583 8.47201 14.3631 8.46081 14.3631 8.44481L14.3663 8.42881C14.3663 8.42881 14.3743 8.42081 14.3791 8.41601C14.4719 8.27681 14.6031 8.17281 14.7103 8.04641C14.7343 8.05441 14.7503 8.04961 14.7551 8.02081C14.7759 8.00001 14.7967 7.97921 14.8191 7.96001C14.8399 7.96001 14.8623 7.96001 14.8655 7.93121C14.8671 7.91041 14.8895 7.92321 14.8975 7.91361C14.9023 7.90881 14.9071 7.90241 14.9119 7.89761C14.9471 7.88321 14.9631 7.84001 15.0047 7.83521C15.0095 7.83201 15.0159 7.82881 15.0207 7.82401C15.0303 7.81761 15.0399 7.81121 15.0511 7.80321C15.0559 7.80001 15.0623 7.79681 15.0671 7.79361C15.0719 7.79201 15.0783 7.79041 15.0831 7.78881C15.0879 7.78401 15.0927 7.77761 15.0991 7.77281C15.1023 7.75201 15.1231 7.76801 15.1311 7.75841C15.1359 7.75521 15.1407 7.75041 15.1455 7.74721C15.1551 7.74081 15.1663 7.73441 15.1759 7.72641C15.1967 7.72641 15.2191 7.72961 15.2239 7.70081C15.2287 7.69921 15.2351 7.69761 15.2399 7.69601C15.2447 7.69281 15.2495 7.68801 15.2559 7.68481C15.4479 7.58881 15.6351 7.48161 15.8335 7.40001C15.8511 7.40001 15.8719 7.40481 15.8799 7.38081C16.0687 7.29121 16.2655 7.22561 16.4655 7.16641C16.5055 7.15521 16.5455 7.14561 16.5855 7.13441C16.6015 7.13441 16.6191 7.13601 16.6303 7.11841C16.7919 7.07841 16.9551 7.03681 17.1167 6.99681C17.1375 7.01601 17.1423 7.00161 17.1471 6.98401C17.2991 6.95521 17.4495 6.92801 17.6015 6.89921C17.8079 6.85921 18.0175 6.83201 18.2255 6.80641C18.4847 6.77441 18.7455 6.74401 19.0047 6.71201C19.2143 6.68801 19.4255 6.67841 19.6351 6.66241C19.8831 6.64481 20.1327 6.62561 20.3807 6.59841C20.4447 6.59201 20.5087 6.58881 20.5727 6.58561C20.8815 6.57441 21.1919 6.57761 21.4991 6.55041C21.8767 6.51681 22.2543 6.52321 22.6319 6.50401C22.8591 6.49281 23.0847 6.45761 23.3087 6.40641C23.4383 6.37761 23.5807 6.40641 23.7071 6.46401C23.7455 6.48161 23.7551 6.52641 23.7583 6.56961C23.7727 6.72641 23.7503 6.88161 23.7567 7.03841C23.7391 7.09281 23.7167 7.14561 23.7695 7.19521C23.7695 7.22721 23.7695 7.25761 23.7695 7.28961C23.7247 7.31521 23.7247 7.34241 23.7695 7.36801C23.7855 7.49761 23.8047 7.62721 23.8175 7.75681C23.8415 7.97601 23.8575 8.19521 23.9023 8.41121C23.9135 8.46881 23.9199 8.52801 23.9279 8.58721C23.9055 8.60641 23.9199 8.61441 23.9391 8.61761C24.0431 9.00481 24.1135 9.40001 24.1567 9.79681C24.1871 10.0768 24.2303 10.3536 24.2607 10.6336C24.2911 10.9024 24.3487 11.168 24.3903 11.4352C24.4223 11.6464 24.4479 11.8592 24.4767 12.072C24.5039 12.2752 24.5359 12.4768 24.5519 12.68C24.5647 12.8464 24.5791 13.0144 24.5887 13.1808C24.6015 13.3904 24.6303 13.5984 24.6143 13.808C24.5983 14.0144 24.6111 14.2208 24.5871 14.4272C24.5503 14.7456 24.5055 15.064 24.4047 15.3696C24.3359 15.5776 24.1695 15.7024 23.9727 15.7856C23.8207 15.8512 23.6639 15.9072 23.5103 15.9712C23.2767 16.0672 23.0415 16.1568 22.7967 16.2176C22.6207 16.2608 22.4479 16.3104 22.2703 16.3504C22.2655 16.3552 22.2591 16.3584 22.2543 16.3632C22.2479 16.3632 22.2431 16.3616 22.2367 16.36C22.2127 16.344 22.1967 16.3488 22.1903 16.3792C22.1487 16.3856 22.1039 16.3744 22.0655 16.3984C22.0607 16.4032 22.0543 16.4064 22.0495 16.4112C22.0063 16.4096 21.9679 16.4384 21.9247 16.4304C21.9199 16.4352 21.9135 16.4384 21.9087 16.4432C21.8927 16.4432 21.8767 16.4448 21.8623 16.4464C21.8399 16.4224 21.8351 16.44 21.8319 16.4592L21.7855 16.4624C21.7631 16.4384 21.7583 16.4544 21.7535 16.4752L21.6767 16.4784C21.6767 16.4784 21.6655 16.4864 21.6607 16.4912C21.6351 16.4912 21.6095 16.4928 21.5839 16.4944C21.5791 16.4992 21.5727 16.5024 21.5679 16.5072L21.5775 16.4976Z" fill="black"/>
<path d="M10.5937 27.4368C10.4113 27.4496 10.2305 27.44 10.0481 27.44C10.0385 27.4224 10.0273 27.4208 10.0161 27.4368C9.9105 27.4464 9.8081 27.4192 9.7041 27.4176C9.6945 27.3792 9.6705 27.3856 9.6449 27.3968C9.6241 27.4048 9.6017 27.4064 9.5793 27.4016C9.5761 27.3728 9.5601 27.368 9.5361 27.3808C9.5201 27.3824 9.5025 27.384 9.4865 27.3872C9.4865 27.3776 9.4833 27.3648 9.4705 27.3648C9.4577 27.3648 9.4561 27.376 9.4545 27.3872C9.2641 27.3408 9.0721 27.2992 8.8817 27.248C8.7857 27.2208 8.6961 27.1744 8.6033 27.136C8.5745 27.1248 8.5473 27.1088 8.5153 27.1072L8.5009 27.0944C8.4385 27.0624 8.3761 27.0304 8.3137 26.9984C8.3089 26.9936 8.3041 26.9904 8.2977 26.9856C8.2785 26.9264 8.1969 26.888 8.1409 26.9104C7.9345 26.8128 7.7601 26.6688 7.5825 26.5296C7.4545 26.4272 7.3297 26.3216 7.2033 26.2176C7.1985 26.2144 7.1953 26.2096 7.1905 26.2064C7.0193 26.0624 6.8593 25.904 6.7089 25.7408C6.5313 25.5488 6.3601 25.3456 6.2401 25.1088C6.2337 25.0976 6.2257 25.088 6.2193 25.0768C6.2161 25.0736 6.2113 25.0688 6.2081 25.0656C6.1633 24.9344 6.0865 24.816 6.0561 24.6784C6.0497 24.6512 6.0401 24.624 6.0305 24.5968C6.0273 24.5712 6.0417 24.5392 5.9985 24.5344C6.0129 24.5056 5.9761 24.4832 5.9873 24.4544C6.0081 24.4288 5.9825 24.4144 5.9729 24.3952C5.9633 24.3792 5.9457 24.368 5.9537 24.3456C5.9793 24.3232 5.9489 24.3072 5.9457 24.288C5.9169 24.2496 5.9073 24.2048 5.9057 24.1584C5.9281 24.136 5.9105 24.1312 5.8913 24.128C5.8913 24.1232 5.8913 24.1168 5.8929 24.112C5.9121 24.0848 5.9041 24.0688 5.8705 24.0672C5.8673 24.0304 5.8641 23.9936 5.8593 23.9552C5.8785 23.9312 5.8593 23.928 5.8433 23.9248C5.8321 23.8576 5.8209 23.7888 5.8097 23.7216C5.8321 23.6992 5.8145 23.6944 5.7953 23.6912C5.8017 23.616 5.7617 23.5488 5.7553 23.4752C5.7505 23.416 5.7249 23.36 5.7345 23.2992C5.7521 23.2704 5.7297 23.272 5.7137 23.2704C5.7105 23.2176 5.7089 23.1648 5.7057 23.1104C5.7185 23.072 5.6865 23.0864 5.6705 23.0816C5.7041 23.0176 5.6769 22.952 5.6673 22.8912C5.6321 22.6416 5.6257 22.3904 5.6177 22.1392C5.6129 21.9936 5.6113 21.848 5.6129 21.704C5.6145 21.5296 5.6177 21.352 5.6145 21.1776C5.6113 21.0112 5.6193 20.8432 5.6401 20.68C5.6641 20.4928 5.6529 20.304 5.6721 20.1184C5.6849 19.9936 5.6577 19.856 5.7553 19.7456C5.7937 19.7024 5.8289 19.6608 5.8785 19.6336C5.9921 19.5712 6.1105 19.5232 6.2353 19.488C6.3073 19.4672 6.3729 19.424 6.4401 19.3904C6.5025 19.36 6.5761 19.3472 6.6385 19.3104C6.7729 19.2288 6.8785 19.1104 7.0001 19.0112C7.1297 18.904 7.2593 18.7968 7.3937 18.696C7.4833 18.6288 7.5841 18.5744 7.6721 18.504C7.7393 18.4496 7.8065 18.4512 7.8817 18.4688C8.0129 18.5008 8.0897 18.6064 8.1649 18.7008C8.2897 18.8608 8.4353 19.0016 8.5729 19.1504C8.8673 19.4672 9.1409 19.8016 9.4465 20.1072C9.7825 20.4432 10.1201 20.7792 10.4737 21.0992C10.7505 21.3504 11.0113 21.6224 11.2657 21.896C11.6033 22.2608 11.9857 22.5728 12.3601 22.896C12.3729 22.9072 12.3873 22.9152 12.4017 22.9248C12.4065 22.9296 12.4097 22.936 12.4145 22.9408C12.4417 22.9616 12.4689 22.9824 12.4961 23.0032C12.5009 23.008 12.5041 23.0144 12.5089 23.0192C12.7601 23.2192 13.0049 23.4304 13.2769 23.6048C13.2801 23.6096 13.2833 23.6112 13.2881 23.6128C13.3377 23.6496 13.3873 23.6864 13.4369 23.7216C13.5553 23.8096 13.6785 23.8928 13.7937 23.984C14.0849 24.2144 14.4193 24.3696 14.7377 24.5552C14.7729 24.576 14.8113 24.5952 14.8417 24.624C14.8865 24.664 14.9473 24.6944 14.9313 24.7744C14.9137 24.8688 14.8673 24.9232 14.7681 24.9424C14.5521 24.984 14.3377 25.0352 14.1217 25.08C14.0961 25.0848 14.0705 25.08 14.0433 25.08C14.0385 25.0848 14.0321 25.088 14.0273 25.0928C13.7393 25.1008 13.4673 25.1872 13.1889 25.2448C12.9073 25.3024 12.6257 25.3648 12.3409 25.408C12.3265 25.4096 12.3089 25.4016 12.3009 25.4224C12.3009 25.4256 12.3025 25.4336 12.3057 25.4352C12.3185 25.4416 12.3297 25.4368 12.3393 25.4256C12.4513 25.4432 12.5617 25.472 12.6753 25.4576C12.7105 25.4528 12.7329 25.4928 12.7585 25.4848C12.8353 25.464 12.9041 25.5168 12.9793 25.5008C12.9889 25.5168 13.0001 25.5184 13.0113 25.5008C13.1041 25.5216 13.1969 25.5296 13.2913 25.5312C13.3009 25.5472 13.3121 25.5488 13.3233 25.5312C13.4161 25.5408 13.5105 25.552 13.6033 25.5616C13.6097 25.5616 13.6145 25.5616 13.6209 25.5616C13.7185 25.576 13.8161 25.5936 13.9169 25.592C13.9265 25.6096 13.9377 25.6096 13.9489 25.592C14.1361 25.616 14.3233 25.6208 14.5105 25.6272C14.5361 25.7088 14.5921 25.656 14.6369 25.6544C14.7297 25.7184 14.6769 25.8128 14.6769 25.8912C14.6769 25.9392 14.6577 26 14.5921 26.0144C14.5425 26.0112 14.5009 26.0176 14.4977 26.08C14.3617 26.176 14.2129 26.248 14.0657 26.3248C13.7137 26.5104 13.3345 26.6368 12.9761 26.8064C12.4577 27.0528 11.9137 27.2064 11.3601 27.3312C11.1169 27.3856 10.8737 27.44 10.6209 27.4352C10.6161 27.4272 10.6145 27.4128 10.6081 27.4128C10.5921 27.4096 10.5921 27.424 10.5889 27.4352L10.5937 27.4368ZM12.5041 25.2736C12.5041 25.2736 12.4961 25.2672 12.4913 25.2672C12.4881 25.2672 12.4833 25.2704 12.4801 25.2736C12.4833 25.2752 12.4881 25.28 12.4913 25.28C12.4945 25.28 12.4993 25.2768 12.5041 25.2736ZM12.5809 25.2544C12.5809 25.2544 12.5761 25.2544 12.5745 25.256C12.5745 25.256 12.5745 25.2592 12.5745 25.2624C12.5761 25.2624 12.5793 25.2624 12.5809 25.2608C12.5809 25.2608 12.5809 25.2576 12.5809 25.2544Z" fill="black"/>
<path d="M4.97119 19.592C5.14399 19.5936 5.28959 19.6128 5.38399 19.76C5.39999 19.784 5.40639 19.8032 5.40479 19.8272C5.38879 19.9744 5.35199 20.1184 5.32159 20.2624C5.29439 20.3952 5.24639 20.528 5.23839 20.664C5.23199 20.7712 5.18079 20.8656 5.18239 20.9728C5.18239 20.9936 5.17439 21.0096 5.19359 21.0256C5.19839 21.0304 5.20639 21.0432 5.20479 21.0448C5.16959 21.0816 5.19039 21.1392 5.17439 21.168C5.11679 21.2736 5.12959 21.3888 5.11519 21.4976C5.07999 21.7696 5.06399 22.0432 5.05919 22.3168C5.05439 22.608 5.06559 22.8976 5.09119 23.1872C5.10559 23.3376 5.11839 23.4896 5.14559 23.6384C5.16159 23.728 5.17919 23.8192 5.19199 23.9072C5.21119 24.0384 5.23839 24.1664 5.26559 24.2944C5.30239 24.464 5.38079 24.6176 5.44639 24.776C5.50879 24.928 5.57119 25.08 5.64479 25.2272C5.87839 25.6944 6.19679 26.104 6.52959 26.504C6.75199 26.7712 7.00959 26.9936 7.29759 27.1824C7.59519 27.3792 7.90879 27.5456 8.23679 27.688C8.59679 27.8448 8.96479 27.9696 9.34559 28.0624C9.41599 28.08 9.48799 28.088 9.56159 28.088C9.74879 28.0912 9.93439 28.096 10.1216 28.1088C10.3776 28.1248 10.632 28.096 10.8864 28.0704C11.0336 28.0544 11.1808 28.0368 11.328 28.0112C11.5136 27.9792 11.7008 27.9568 11.8832 27.9168C12.088 27.872 12.296 27.8384 12.4976 27.7776C12.76 27.6992 13.0224 27.624 13.2768 27.5248C13.4048 27.4752 13.5296 27.4208 13.6624 27.3856C13.7888 27.3504 13.8416 27.3776 13.8736 27.4992C13.9312 27.7184 13.8432 27.9776 13.6608 28.1168C13.3728 28.336 13.0736 28.5344 12.7568 28.7104C12.432 28.8912 12.072 28.9728 11.7184 29.0736C11.4976 29.136 11.2688 29.1504 11.0416 29.1696C10.8336 29.1856 10.624 29.1904 10.4144 29.2032C10.04 29.224 9.66559 29.2176 9.29279 29.2128C9.04799 29.208 8.80479 29.16 8.55839 29.1456C8.33119 29.1328 8.11199 29.0912 7.89439 29.0288C7.62399 28.952 7.36159 28.8544 7.10239 28.7456C6.87199 28.648 6.63999 28.5488 6.42399 28.4256C6.08959 28.232 5.74559 28.0512 5.44479 27.8032C5.34239 27.7184 5.25439 27.6176 5.14719 27.5392C4.91359 27.368 4.75359 27.1328 4.57919 26.9088C4.53279 26.848 4.51199 26.7664 4.47839 26.6976C4.37439 26.488 4.30079 26.2656 4.20959 26.0512C4.13439 25.8752 4.11999 25.6848 4.07359 25.5024C4.02719 25.3232 4.03519 25.1392 3.98879 24.9632C3.97119 24.8944 3.97599 24.8208 3.97279 24.7488C3.96479 24.5552 3.94879 24.3632 3.94079 24.1696C3.92959 23.904 3.94239 23.6368 3.94559 23.3696C3.94719 23.2336 3.95039 23.0992 3.95199 22.9632C3.95199 22.7856 3.96639 22.6096 3.98239 22.432C3.98879 22.3568 3.99199 22.2784 3.99839 22.2032C4.00959 22.0608 4.03039 21.92 4.04319 21.7792C4.05919 21.6064 4.10079 21.4384 4.12479 21.2672C4.13759 21.1776 4.17119 21.0896 4.18879 21C4.22559 20.8096 4.27999 20.624 4.35199 20.4432C4.38559 20.3584 4.43039 20.28 4.47199 20.2C4.56159 20.024 4.65919 19.8528 4.77759 19.6928C4.83039 19.6208 4.88479 19.5616 4.96799 19.5904L4.97119 19.592Z" fill="#010101"/>
<path d="M9.68628 17.016C9.66548 17.0128 9.64948 17.0016 9.64148 16.9824C9.64148 16.96 9.64148 16.9376 9.60948 16.9376C9.58868 16.928 9.59348 16.8928 9.56468 16.8912C9.55348 16.872 9.53428 16.8752 9.51508 16.8752C9.32308 16.7296 9.15668 16.5584 9.04308 16.344C8.97908 16.2256 8.94868 16.0912 8.95828 15.952C8.99028 15.9456 8.99188 15.9296 8.97588 15.9056C8.97588 15.9008 8.97588 15.8944 8.97428 15.8896C8.99028 15.8864 9.00948 15.8848 8.99348 15.8608C8.97268 15.8288 9.01108 15.808 9.00948 15.7808C9.03668 15.776 9.03348 15.7536 9.03508 15.7344C9.12468 15.5616 9.25268 15.4224 9.42708 15.3392C9.50388 15.3024 9.60148 15.3104 9.68468 15.3392C9.90388 15.4192 10.1215 15.5056 10.3359 15.6032C10.5743 15.712 10.7871 15.8592 11.0063 15.9968C11.2895 16.1728 11.5599 16.3728 11.8591 16.5184C12.3887 16.776 12.9311 17.0048 13.5071 17.144C13.7903 17.2128 14.0767 17.272 14.3631 17.3264C14.6031 17.3728 14.8463 17.4096 15.0879 17.4512C15.1055 17.4544 15.1247 17.4512 15.1423 17.4512C15.1583 17.4752 15.1839 17.4656 15.2063 17.4688H15.2991C15.3151 17.4928 15.3407 17.4832 15.3631 17.4848C15.7279 17.4912 16.0927 17.488 16.4559 17.504C16.8111 17.5184 17.1663 17.512 17.5231 17.5168C17.6319 17.5168 17.7391 17.536 17.8495 17.5328C18.0767 17.5232 18.3023 17.4928 18.5279 17.4736C18.6655 17.4608 18.7983 17.4192 18.9343 17.4128C19.0783 17.4048 19.2223 17.3952 19.3631 17.3712C19.4927 17.3472 19.6287 17.376 19.7567 17.32C19.7823 17.3088 19.8351 17.3248 19.8735 17.3152C19.9919 17.2816 20.1151 17.2848 20.2351 17.2624C20.3263 17.2448 20.4255 17.2336 20.5215 17.2288C20.5951 17.2256 20.6751 17.2176 20.7519 17.1936C20.8271 17.1696 20.9119 17.1744 20.9919 17.1632C21.1647 17.1408 21.3359 17.1184 21.5087 17.096C21.5903 17.0864 21.6719 17.0752 21.7535 17.0704C21.9455 17.0592 22.1295 17 22.3231 16.9984C22.4287 16.9984 22.5359 16.9952 22.6415 16.984C22.7359 16.9744 22.7967 17.032 22.8591 17.0768C22.9071 17.112 22.8863 17.1824 22.8719 17.2368C22.8415 17.3504 22.7663 17.44 22.6895 17.5232C22.3279 17.9216 21.9055 18.2384 21.4207 18.472C21.3071 18.5264 21.1839 18.5456 21.0639 18.5792C20.7071 18.68 20.3423 18.624 19.9807 18.6432C19.8639 18.6496 19.7487 18.68 19.6319 18.6864C19.5391 18.6912 19.4479 18.7008 19.3551 18.7024C18.8351 18.712 18.3135 18.7104 17.7935 18.7248C17.4463 18.7344 17.0975 18.7568 16.7503 18.7536C16.5727 18.752 16.3967 18.736 16.2207 18.7216C16.0991 18.712 15.9743 18.6992 15.8511 18.7008C15.8383 18.6592 15.8143 18.6672 15.7887 18.688C15.4863 18.6656 15.1839 18.6816 14.8831 18.6704C14.8719 18.6304 14.8479 18.6368 14.8223 18.6544C14.7967 18.6544 14.7695 18.6544 14.7439 18.6544C14.7311 18.6128 14.7071 18.6208 14.6815 18.6416C14.6607 18.6416 14.6399 18.64 14.6191 18.6384C14.6159 18.6096 14.5999 18.6048 14.5759 18.616C14.5599 18.6176 14.5423 18.6208 14.5263 18.6224C14.5151 18.5824 14.4911 18.5904 14.4639 18.6048C14.4591 18.6048 14.4527 18.6064 14.4479 18.608C14.4479 18.5984 14.4447 18.5856 14.4319 18.5856C14.4191 18.5856 14.4175 18.5968 14.4159 18.6064C14.3999 18.6016 14.3839 18.5968 14.3695 18.592C14.3471 18.5504 14.3135 18.552 14.2751 18.5648C14.2591 18.5648 14.2447 18.5632 14.2287 18.5616C14.2095 18.5168 14.1711 18.528 14.1359 18.5296C14.1247 18.5296 14.1135 18.5296 14.1039 18.5296C14.0799 18.488 14.0367 18.496 13.9983 18.4928C13.8735 18.4624 13.7503 18.432 13.6255 18.4016C13.5983 18.3952 13.5695 18.3936 13.5423 18.3888C13.5375 18.368 13.5295 18.3552 13.5103 18.3792C13.4943 18.3792 13.4799 18.3776 13.4639 18.376C13.4559 18.344 13.4415 18.3392 13.4175 18.3632C13.4127 18.3632 13.4063 18.3632 13.4015 18.3616C13.3903 18.3216 13.3663 18.3296 13.3391 18.344C13.3343 18.344 13.3279 18.344 13.3231 18.3456C13.3183 18.3168 13.3039 18.3104 13.2783 18.3264L13.2287 18.3296C13.2255 18.3104 13.2207 18.2928 13.1983 18.3152C13.1775 18.3152 13.1567 18.3152 13.1343 18.3152C13.1263 18.2768 13.1007 18.2848 13.0751 18.2928C13.0591 18.3008 13.0431 18.304 13.0239 18.2992C13.0175 18.2608 12.9903 18.2704 12.9663 18.2736C12.9535 18.2768 12.9423 18.28 12.9295 18.2832C12.9247 18.2496 12.9007 18.256 12.8783 18.256C12.8015 18.2432 12.7247 18.2304 12.6495 18.2176C12.6479 18.208 12.6447 18.1968 12.6335 18.1984C12.6207 18.1984 12.6207 18.2112 12.6191 18.2208C12.5615 18.2048 12.5039 18.1904 12.4479 18.1744C12.4319 18.1328 12.3935 18.1376 12.3583 18.1344C12.1903 18.0848 12.0223 18.0368 11.8527 17.9872C11.8479 17.9536 11.8223 17.96 11.7999 17.9616C11.7311 17.9552 11.6735 17.9104 11.6031 17.9056C11.5951 17.8704 11.5647 17.8848 11.5439 17.88L11.5247 17.8688C11.5167 17.8496 11.5023 17.8496 11.4847 17.8528C11.4159 17.8528 11.3615 17.7904 11.2895 17.8C11.2863 17.784 11.2847 17.7648 11.2607 17.7808C11.2495 17.7808 11.2383 17.7808 11.2271 17.7792C11.2239 17.7744 11.2207 17.7712 11.2159 17.7696C11.2047 17.768 11.1935 17.7664 11.1807 17.7632C11.1759 17.76 11.1727 17.7568 11.1679 17.7536C10.8671 17.672 10.5951 17.5232 10.3231 17.376C10.3199 17.3456 10.2975 17.3472 10.2751 17.3472C10.0927 17.232 9.90388 17.128 9.71188 17.0304C9.70708 17.0272 9.70068 17.024 9.69588 17.0192L9.68628 17.016ZM15.0847 18.5616C15.0847 18.5616 15.0927 18.5568 15.0975 18.5552C15.0943 18.5536 15.0895 18.5488 15.0863 18.5488C15.0831 18.5488 15.0783 18.552 15.0735 18.5536C15.0767 18.5568 15.0815 18.5584 15.0847 18.5616Z" fill="black"/>
<path d="M25.8768 7.6736C25.8848 7.6176 25.9168 7.5712 25.9488 7.528C26.0464 7.3984 26.144 7.2672 26.264 7.1568C26.2864 7.1568 26.3088 7.1568 26.3104 7.1264C26.384 7.08 26.456 7.0336 26.5296 6.9856C26.5488 7.008 26.5552 6.9936 26.56 6.9744C26.8256 6.8672 27.088 6.7536 27.3728 6.704C27.3776 6.704 27.384 6.704 27.3888 6.704C27.4256 6.696 27.4576 6.6688 27.4976 6.6736C27.5024 6.6688 27.5072 6.6656 27.512 6.6608C27.5536 6.6544 27.5952 6.648 27.6384 6.6432C27.6592 6.6432 27.6816 6.6448 27.6848 6.6144C27.8048 6.5936 27.92 6.552 28.0464 6.5616C28.12 6.568 28.1808 6.5952 28.24 6.632C28.2816 6.6576 28.2816 6.7072 28.2768 6.752C28.2672 6.8432 28.2528 6.9344 28.2432 7.0272C28.2272 7.1952 28.2048 7.3616 28.2256 7.5296C28.2368 7.6272 28.2368 7.7248 28.2416 7.8224C28.256 8.096 28.3136 8.3632 28.3632 8.632C28.3648 8.6416 28.3696 8.6528 28.3696 8.6624C28.3632 8.7872 28.4 8.9088 28.3856 9.0336C28.3648 9.0544 28.3792 9.0608 28.3984 9.064C28.4 9.1216 28.4016 9.1792 28.4032 9.2352C28.3984 9.248 28.3856 9.2656 28.4144 9.2672C28.4272 9.5968 28.5376 9.9088 28.5984 10.2288C28.64 10.4544 28.6816 10.6784 28.7024 10.9072C28.728 11.1888 28.7376 11.472 28.728 11.7552C28.6896 12.9744 28.0832 13.8432 27.0496 14.4384C26.8512 14.552 26.6432 14.6464 26.424 14.7168C26.3344 14.7456 26.2432 14.7344 26.1536 14.7344C26.0944 14.7344 26.0576 14.6688 26.0784 14.6048C26.1488 14.3984 26.176 14.1824 26.2064 13.9696C26.2352 13.7712 26.2784 13.5696 26.2624 13.3664C26.2416 13.1008 26.2944 12.8352 26.264 12.5696C26.2368 12.3216 26.2544 12.0736 26.2464 11.8256C26.2352 11.4896 26.1952 11.1568 26.128 10.8272C26.0288 10.3344 25.9424 9.8416 25.8672 9.344C25.8432 9.1808 25.8256 9.0176 25.7952 8.856C25.784 8.7984 25.7936 8.736 25.7936 8.6768C25.7936 8.448 25.7904 8.2192 25.7936 7.9904C25.7936 7.9216 25.8144 7.8528 25.8272 7.7824C25.8656 7.776 25.8512 7.7456 25.856 7.7232C25.8592 7.7168 25.864 7.7104 25.8672 7.7056C25.8848 7.6992 25.8912 7.6896 25.8736 7.6752L25.8768 7.6736Z" fill="black"/>
<path d="M15.3601 5.15681C15.3617 5.14081 15.3633 5.12481 15.3665 5.10881C15.3697 5.10401 15.3729 5.09921 15.3761 5.09281C15.3777 5.07681 15.3809 5.06081 15.3825 5.04641C15.3857 5.04161 15.3889 5.03681 15.3921 5.03201C15.3921 5.01601 15.3937 5.00001 15.3953 4.98561C15.4337 4.97921 15.4193 4.94721 15.4241 4.92481C15.4257 4.91361 15.4273 4.90241 15.4289 4.89121C15.4321 4.88641 15.4353 4.88321 15.4401 4.87841C15.4465 4.85601 15.4529 4.83521 15.4609 4.81281C15.4641 4.80801 15.4673 4.80321 15.4721 4.79841C15.4721 4.79361 15.4737 4.78721 15.4753 4.78241C15.4801 4.77761 15.4833 4.77281 15.4881 4.76801C15.4913 4.73281 15.5041 4.70241 15.5233 4.67361C15.5281 4.66881 15.5313 4.66401 15.5361 4.65921C15.5377 4.64801 15.5393 4.63841 15.5409 4.62721C15.5441 4.62241 15.5473 4.61761 15.5505 4.61281C15.5505 4.60801 15.5521 4.60161 15.5537 4.59681C15.5585 4.59201 15.5617 4.58721 15.5665 4.58081C15.5681 4.56961 15.5697 4.56001 15.5713 4.54881C15.5745 4.54401 15.5793 4.53921 15.5825 4.53601C15.5889 4.51521 15.5953 4.49281 15.6017 4.47201C15.6049 4.46721 15.6097 4.46401 15.6129 4.45921C15.6465 4.39361 15.6609 4.31841 15.7233 4.27041C15.7489 4.27041 15.7537 4.25281 15.7553 4.23361C15.8465 4.10081 15.9441 3.97121 16.0513 3.84801C16.0625 3.84641 16.0769 3.84641 16.0753 3.83041C16.0753 3.82561 16.0609 3.82081 16.0545 3.81761C16.1169 3.76801 16.1777 3.71681 16.2257 3.64961C16.2737 3.58241 16.3393 3.52961 16.3985 3.47361C16.5121 3.36641 16.6129 3.24481 16.7249 3.13281C16.7601 3.09761 16.8081 3.07201 16.8513 3.04641C17.0721 2.92001 17.2641 2.75361 17.4801 2.62081C17.5953 2.55041 17.7217 2.49441 17.8465 2.44001C17.9793 2.38241 18.1105 2.32321 18.2465 2.27361C18.3665 2.22881 18.4961 2.20961 18.6225 2.19361C19.1953 2.12481 19.7713 2.14401 20.3457 2.12641C20.7937 2.11361 21.2401 2.14401 21.6881 2.12961C21.9185 2.12161 22.1489 2.09121 22.3777 2.05441C22.5873 2.02081 22.7937 1.97441 22.9825 1.88001C23.0929 1.82401 23.2017 1.83841 23.3121 1.83361C23.3777 1.83201 23.4353 1.91521 23.4433 2.00961C23.4529 2.10561 23.4337 2.20001 23.4241 2.29601C23.4097 2.44321 23.3841 2.59041 23.3649 2.73761C23.3425 2.90561 23.2977 3.06881 23.2657 3.23361C23.2545 3.28961 23.2417 3.34401 23.2289 3.39841C23.1105 3.89121 22.8001 4.20161 22.3265 4.36321C22.1569 4.42081 21.9825 4.44321 21.8081 4.47201C21.6033 4.50561 21.3985 4.53601 21.1937 4.56481C21.1281 4.57441 21.0609 4.57281 20.9953 4.57921C20.7921 4.59841 20.5873 4.59841 20.3841 4.60161C20.0849 4.60641 19.7873 4.61281 19.4881 4.62721C19.2865 4.63681 19.0849 4.65761 18.8849 4.67681C18.7169 4.69281 18.5473 4.68961 18.3809 4.72161C18.2321 4.75041 18.0833 4.77761 17.9345 4.80481C17.8209 4.82561 17.7041 4.83841 17.5905 4.86401C17.3889 4.91201 17.1841 4.95041 16.9889 5.01921C16.6321 5.14241 16.2673 5.23681 15.9137 5.36801C15.8977 5.37441 15.8833 5.38401 15.8673 5.39201C15.8321 5.37281 15.8161 5.39201 15.8049 5.42241C15.7553 5.41601 15.7233 5.46081 15.6785 5.46881C15.6449 5.45281 15.6273 5.46881 15.6177 5.50081C15.5553 5.51361 15.4977 5.54241 15.4465 5.57601C15.4017 5.60481 15.3537 5.61281 15.3201 5.58241C15.2897 5.55681 15.2993 5.50721 15.3185 5.46721C15.3521 5.39841 15.3313 5.32481 15.3393 5.25281C15.3441 5.24801 15.3473 5.24161 15.3521 5.23681C15.3521 5.21601 15.3537 5.19521 15.3553 5.17441C15.3601 5.16961 15.3633 5.16481 15.3681 5.15841L15.3601 5.15681Z" fill="black"/>
<path d="M20.3375 4.75999C20.6799 4.77119 20.9967 4.76159 21.3135 4.74399C21.5343 4.73119 21.7567 4.72959 21.9743 4.68959C22.2143 4.64479 22.4463 4.57439 22.6703 4.47519C22.9215 4.36319 23.0975 4.16799 23.2655 3.95999C23.4431 3.74079 23.5695 3.49759 23.6607 3.23199C23.7551 2.95839 23.8015 2.67519 23.8687 2.39519C23.9055 2.24479 23.8879 2.08639 23.8831 1.93279C23.8783 1.79999 23.9135 1.73279 24.0383 1.68639C24.2127 1.62079 24.3855 1.55679 24.5679 1.51679C24.7231 1.48319 24.7359 1.48799 24.7455 1.63359C24.7599 1.85439 24.7775 2.07519 24.7599 2.29599C24.7343 2.61119 24.7103 2.92639 24.6719 3.23999C24.6303 3.57439 24.5903 3.90719 24.4959 4.23039C24.4367 4.43359 24.3647 4.63199 24.3039 4.83519C24.2623 4.97119 24.2463 5.11839 24.1935 5.24799C24.1183 5.42879 24.0159 5.60479 23.8271 5.68799C23.6927 5.74719 23.5407 5.77279 23.3951 5.80639C23.1775 5.85759 22.9567 5.89919 22.7311 5.90719C22.4879 5.91679 22.2431 5.91039 21.9999 5.91679C21.8767 5.91999 21.7487 5.89919 21.6223 5.89439C21.2975 5.88479 20.9711 5.87519 20.6463 5.86239C20.3439 5.85119 20.0415 5.84319 19.7423 5.87519C19.5535 5.89439 19.3631 5.88799 19.1759 5.92479C19.0431 5.95039 18.9087 5.96959 18.7743 5.99679C18.6143 6.03039 18.4527 6.05919 18.2927 6.09279C18.1167 6.12959 17.9391 6.16959 17.7631 6.21119C17.5375 6.26399 17.3199 6.34399 17.0959 6.40159C17.0047 6.42559 16.9087 6.43039 16.8143 6.43679C16.6367 6.44799 16.4655 6.49119 16.3007 6.55519C16.1423 6.61759 15.9823 6.67519 15.8223 6.73599C15.7231 6.77439 15.6271 6.82399 15.5295 6.86239C15.4111 6.91039 15.2943 6.96479 15.1791 7.01759C15.1295 7.03999 15.0879 7.06719 15.0303 7.06399C14.9439 7.05919 14.9023 7.02879 14.8863 6.94719C14.8623 6.82719 14.8671 6.70719 14.8975 6.58879C14.9071 6.55199 14.9103 6.51199 14.9183 6.47359C14.9423 6.35679 15.0127 6.28479 15.1199 6.23519C15.1999 6.19999 15.2735 6.15039 15.3519 6.11199C15.4495 6.06239 15.5487 6.01599 15.6479 5.96799C15.7711 5.90879 15.8783 5.82559 15.9999 5.76159C16.1951 5.65919 16.3983 5.57439 16.5871 5.46239C16.7375 5.37279 16.9023 5.32319 17.0607 5.26559C17.1951 5.21759 17.3375 5.18239 17.4767 5.14399C17.6351 5.09919 17.7935 5.05599 17.9551 5.02079C18.1839 4.97119 18.4127 4.92159 18.6431 4.87999C18.8447 4.84319 19.0479 4.81759 19.2527 4.79679C19.6207 4.76159 19.9903 4.77919 20.3343 4.76159L20.3375 4.75999Z" fill="#010101"/>
<path d="M15.3265 24.1568C15.2081 24.1328 15.0801 24.0784 14.9569 24C14.2161 23.5296 13.5153 23.0048 12.8401 22.4432C12.5905 22.2352 12.3393 22.0288 12.0961 21.8112C11.8449 21.5856 11.5905 21.3632 11.3361 21.1424C11.1473 20.9792 10.9569 20.8192 10.7697 20.656C10.6449 20.5456 10.5185 20.4336 10.3969 20.3168C10.2929 20.2176 10.1873 20.12 10.0785 20.0256C10.0017 19.9568 9.92006 19.8912 9.84806 19.8144C9.75046 19.7104 9.63366 19.6272 9.53606 19.5216C9.39206 19.3648 9.25126 19.2064 9.10246 19.056C8.96806 18.9216 8.84646 18.7776 8.72006 18.6368C8.62086 18.5264 8.53766 18.3952 8.45286 18.2672C8.36326 18.1312 8.26566 17.9984 8.20646 17.848C8.15206 17.7088 8.06086 17.5616 8.12966 17.4048C8.22086 17.1952 8.36966 17.048 8.60806 16.9968C8.71366 16.9744 8.81286 16.9648 8.91846 16.984C8.97766 16.9952 9.01766 17.0368 9.06726 17.064C9.25126 17.1648 9.40166 17.3088 9.55366 17.4512C9.87206 17.7488 10.1409 18.0928 10.4497 18.3984C11.1201 19.0672 11.7713 19.7568 12.4161 20.4512C12.7889 20.8544 13.2177 21.192 13.6465 21.5296C14.1409 21.92 14.6337 22.3104 15.1441 22.68C15.3425 22.824 15.5313 22.9808 15.7233 23.1328C15.7681 23.168 15.8113 23.208 15.8561 23.2416C15.9937 23.3424 16.0097 23.56 15.9425 23.6896C15.8641 23.8368 15.7777 23.9792 15.6353 24.072C15.5505 24.128 15.4545 24.1552 15.3249 24.1568H15.3265Z" fill="#010101"/>
<path d="M24.4703 8.2672C24.4687 8.2256 24.4671 8.184 24.4655 8.1424C24.4927 8.12 24.4895 8.104 24.4543 8.0944C24.4543 8.064 24.4527 8.032 24.4511 8.0016C24.4799 7.9696 24.5023 7.9392 24.4383 7.9232C24.4383 7.9072 24.4399 7.8928 24.4415 7.8768C24.4879 7.8496 24.4479 7.8336 24.4335 7.8144C24.4335 7.8048 24.4335 7.7936 24.4351 7.784C24.4431 7.7792 24.4575 7.7776 24.4575 7.7712C24.4607 7.7552 24.4463 7.7552 24.4335 7.752C24.4159 7.616 24.4223 7.4816 24.4335 7.3456C24.4975 7.3136 24.4527 7.2832 24.4335 7.2512C24.4335 7.2096 24.4351 7.168 24.4367 7.1264C24.4415 7.1216 24.4447 7.1152 24.4495 7.1104C24.4559 7.0528 24.4623 6.9968 24.4687 6.9392C24.4735 6.9344 24.4767 6.928 24.4815 6.9232C24.4815 6.9024 24.4831 6.8816 24.4847 6.8608C24.4895 6.856 24.4927 6.8512 24.4975 6.8448C24.4991 6.8288 24.5007 6.8128 24.5039 6.7968C24.5071 6.792 24.5103 6.7872 24.5135 6.7808C24.5151 6.7648 24.5183 6.7488 24.5199 6.7344C24.5231 6.7296 24.5263 6.7248 24.5295 6.72L24.5343 6.688C24.5343 6.688 24.5423 6.6784 24.5455 6.672C24.5455 6.6608 24.5487 6.6512 24.5503 6.64C24.5535 6.6352 24.5583 6.6304 24.5615 6.6256C24.5631 6.6144 24.5647 6.6048 24.5663 6.5936C24.5967 6.5888 24.5919 6.5664 24.5919 6.5456C24.5919 6.5408 24.5919 6.536 24.5951 6.5312C24.5999 6.5264 24.6031 6.5216 24.6079 6.5168C24.6175 6.488 24.6335 6.4608 24.6543 6.4384C24.6991 6.4448 24.7039 6.416 24.7039 6.3824C24.7839 6.2768 24.8735 6.1824 24.9871 6.1104C25.0095 6.1104 25.0303 6.1072 25.0303 6.0768C25.0447 6.0672 25.0591 6.0576 25.0751 6.0464C25.0815 6.0416 25.0879 6.0384 25.0927 6.0336C25.1855 5.9744 25.2799 5.9168 25.3727 5.8576C25.3935 5.8576 25.4159 5.8624 25.4207 5.832C25.4719 5.8096 25.5247 5.7856 25.5759 5.7632C25.5967 5.7632 25.6207 5.7664 25.6223 5.7344C25.6703 5.7392 25.6959 5.6656 25.7519 5.6944C25.7743 5.7024 25.7775 5.688 25.7791 5.672C25.7903 5.672 25.7999 5.6704 25.8111 5.6688C25.8159 5.664 25.8207 5.6608 25.8271 5.656C25.9311 5.624 26.0351 5.592 26.1391 5.5584L26.1551 5.5456C26.1663 5.5456 26.1759 5.544 26.1871 5.5424C26.1919 5.5376 26.1967 5.5344 26.2031 5.5296C26.2335 5.5232 26.2655 5.5168 26.2959 5.5104C26.3007 5.5056 26.3071 5.5024 26.3119 5.4976C26.5247 5.4448 26.7391 5.392 26.9519 5.3376C26.9695 5.3616 26.9775 5.3488 26.9839 5.328C27.1887 5.288 27.3919 5.2464 27.5967 5.2064C27.7199 5.1824 27.8447 5.1584 27.9679 5.1344C27.9727 5.1296 27.9791 5.1264 27.9839 5.1216C28.0335 5.1312 28.0767 5.104 28.1247 5.104C28.1423 5.104 28.1615 5.1072 28.1711 5.088C28.2239 5.0736 28.2767 5.0576 28.3295 5.0432C28.3503 5.0432 28.3711 5.0432 28.3743 5.0144C28.4319 4.9872 28.4943 4.9792 28.5359 5.0304C28.5839 5.0896 28.5695 5.1616 28.5471 5.2288C28.5359 5.2304 28.5215 5.2288 28.5215 5.2464C28.5215 5.2512 28.5343 5.256 28.5423 5.2608C28.4671 5.5024 28.3951 5.7472 28.2495 5.96C28.2159 6.0096 28.1791 6.056 28.1439 6.104C28.0367 6.256 27.8639 6.3008 27.7023 6.3504C27.4607 6.4256 27.2127 6.48 26.9663 6.5424C26.9471 6.5184 26.9391 6.5312 26.9343 6.552C26.7695 6.5888 26.6127 6.6512 26.4495 6.6976C26.4287 6.6976 26.4063 6.6944 26.4031 6.7232C26.2127 6.7888 26.0415 6.8912 25.8863 7.0176C25.8191 7.072 25.7871 7.152 25.7487 7.2256C25.6047 7.496 25.4959 7.7792 25.4639 8.088C25.4543 8.088 25.4415 8.0912 25.4415 8.104C25.4415 8.1168 25.4543 8.1184 25.4639 8.12C25.4591 8.1824 25.4527 8.2448 25.4479 8.3072C25.4351 8.3088 25.4239 8.312 25.4223 8.3264C25.4207 8.3456 25.4335 8.3504 25.4479 8.3536C25.4479 8.4736 25.4479 8.5936 25.4479 8.7136C25.4383 8.7136 25.4255 8.7168 25.4255 8.7296C25.4255 8.7424 25.4383 8.744 25.4479 8.7456C25.4591 8.8704 25.4687 8.9952 25.4799 9.12C25.4671 9.1216 25.4559 9.1248 25.4543 9.1392C25.4527 9.1584 25.4655 9.1632 25.4799 9.1664C25.4991 9.3872 25.5439 9.6048 25.5711 9.824C25.6143 10.176 25.6959 10.5232 25.7695 10.8688C25.8351 11.184 25.9167 11.496 25.9599 11.816C25.9775 11.9424 25.9855 12.0704 25.9967 12.1968C25.9807 12.1984 25.9679 12.2048 25.9695 12.224C25.9711 12.24 25.9839 12.2416 25.9951 12.2448C25.9903 12.3184 26.0223 12.3888 26.0111 12.464C25.9983 12.4656 25.9871 12.4688 25.9855 12.4832C25.9823 12.5024 25.9967 12.5072 26.0111 12.5104C26.0287 12.8736 26.0399 13.2352 26.0255 13.5984C26.0143 13.8912 26.0127 14.1856 25.9199 14.4688C25.8623 14.6464 25.7999 14.8208 25.7199 14.9888C25.6383 15.16 25.4991 15.2592 25.3263 15.3152C25.1503 15.3728 24.9695 15.4144 24.7823 15.416C24.7599 15.416 24.7343 15.424 24.7183 15.4C24.7135 15.3952 24.7103 15.3904 24.7055 15.3856C24.7135 15.2976 24.7775 15.2352 24.8111 15.16C25.0095 14.7136 25.1999 14.2656 25.2671 13.7776C25.2767 13.7776 25.2895 13.776 25.2895 13.7632C25.2895 13.7504 25.2783 13.7488 25.2671 13.7472C25.2671 13.6736 25.2671 13.6016 25.2671 13.528C25.2863 13.528 25.3087 13.528 25.3103 13.5008C25.3119 13.4784 25.3151 13.4544 25.2831 13.4496C25.2831 13.2928 25.2831 13.1376 25.2831 12.9808C25.3151 12.976 25.3119 12.952 25.3103 12.9296C25.3087 12.9024 25.2863 12.9024 25.2671 12.9024C25.2687 12.6624 25.2399 12.4256 25.2095 12.1904C25.1695 11.8848 25.1087 11.5808 25.0463 11.2784C25.0015 11.0592 24.9439 10.8416 24.8975 10.624C24.8415 10.3616 24.7679 10.1024 24.7295 9.8352C24.7103 9.7072 24.6687 9.5824 24.6559 9.4528C24.6511 9.4464 24.6479 9.4416 24.6431 9.4352C24.6431 9.4096 24.6415 9.384 24.6399 9.3584C24.6351 9.352 24.6319 9.3472 24.6271 9.3408C24.6111 9.2208 24.5935 9.1024 24.5775 8.9824C24.5727 8.976 24.5695 8.9712 24.5647 8.9648C24.5647 8.9344 24.5631 8.904 24.5615 8.8736C24.5567 8.8672 24.5535 8.8608 24.5487 8.856C24.5487 8.8256 24.5471 8.7952 24.5455 8.7648C24.5407 8.7584 24.5375 8.7536 24.5327 8.7472C24.5311 8.5904 24.4895 8.4384 24.4815 8.2816C24.4783 8.2752 24.4735 8.2688 24.4703 8.2624V8.2672ZM24.5215 7.3488C24.4975 7.3552 24.4895 7.3728 24.4895 7.3952C24.4895 7.4128 24.4975 7.4336 24.5183 7.4352C24.5455 7.4384 24.5455 7.416 24.5455 7.3984C24.5455 7.3792 24.5519 7.3552 24.5215 7.3488ZM24.5439 7.5904C24.5439 7.5904 24.5423 7.5728 24.5263 7.5696C24.5103 7.5664 24.5023 7.5776 24.5007 7.5904C24.4991 7.6064 24.5007 7.6224 24.5231 7.624C24.5375 7.624 24.5455 7.6128 24.5455 7.5904H24.5439Z" fill="black"/>
<path d="M12.0209 18.4064C12.1905 18.4016 12.3425 18.472 12.5009 18.5168C12.6881 18.5696 12.8721 18.6416 13.0625 18.6768C13.1745 18.6976 13.2785 18.744 13.3937 18.7568C13.4833 18.7664 13.5745 18.8016 13.6657 18.816C13.8481 18.8448 14.0289 18.8848 14.2113 18.9152C14.3729 18.9424 14.5361 18.9712 14.6977 19.0064C14.7905 19.0256 14.8849 19.0448 14.9793 19.0432C15.0577 19.0432 15.1329 19.0672 15.2145 19.056C15.3137 19.0416 15.3793 19.1168 15.4257 19.1952C15.5313 19.3744 15.6321 19.5568 15.7377 19.7344C15.7969 19.8352 15.8513 19.9424 15.9281 20.0272C16.0017 20.1072 16.0417 20.2032 16.1057 20.2864C16.1441 20.336 16.1681 20.3984 16.2033 20.4496C16.2593 20.528 16.3169 20.6096 16.3585 20.6928C16.4049 20.7856 16.4817 20.8608 16.5089 20.9632C16.5121 20.976 16.5121 20.992 16.5201 21C16.6449 21.1216 16.6657 21.2992 16.7537 21.4432C16.8145 21.5408 16.8241 21.672 16.8017 21.8C16.7457 22.104 16.5857 22.3552 16.4177 22.6032C16.3553 22.6944 16.2145 22.6944 16.1233 22.6032C16.0177 22.4992 15.8929 22.424 15.7729 22.344C15.5585 22.2 15.3393 22.0624 15.1265 21.9152C15.0049 21.8304 14.8849 21.7424 14.7601 21.6624C14.6433 21.5872 14.5121 21.5312 14.4001 21.4496C14.2769 21.36 14.1553 21.2672 14.0305 21.1824C13.7345 20.9792 13.4449 20.7664 13.1697 20.5376C12.9825 20.3824 12.8177 20.2032 12.6465 20.032C12.5457 19.9328 12.4625 19.8176 12.3617 19.72C12.1473 19.5056 11.9921 19.2448 11.7969 19.0144C11.7361 18.9424 11.6785 18.8624 11.6385 18.7728C11.6241 18.7408 11.6209 18.7104 11.6305 18.6864C11.6801 18.568 11.8545 18.3776 12.0193 18.4096L12.0209 18.4064Z" fill="#010101"/>
<path d="M16.336 16.984C16.176 16.96 16.016 16.9744 15.856 16.968C15.6208 16.9584 15.3952 16.896 15.168 16.84C15.096 16.8224 15.0688 16.7552 15.0352 16.7056C14.9184 16.5232 14.8016 16.3392 14.6928 16.1504C14.608 16.0048 14.5296 15.856 14.4496 15.7088C14.3424 15.5088 14.2336 15.3072 14.144 15.0944C14.0432 14.8528 13.9264 14.6176 13.8352 14.3728C13.7808 14.2272 13.7056 14.0912 13.6416 13.9504C13.5744 13.8 13.528 13.6416 13.4672 13.4864C13.4192 13.3616 13.3872 13.232 13.336 13.1088C13.2736 12.96 13.2096 12.8112 13.1744 12.6544C13.128 12.44 13.008 12.2464 12.9904 12.0304C12.9776 11.8672 12.904 11.7216 12.8848 11.56C12.8768 11.5008 12.8752 11.4384 12.8608 11.3776C12.8192 11.1984 12.824 11.0128 12.808 10.8304C12.8 10.7488 12.7904 10.664 12.7984 10.584C12.8208 10.3504 12.8192 10.1104 12.9232 9.89119C13.0176 9.68959 13.104 9.48159 13.232 9.29759C13.2944 9.20959 13.376 9.13919 13.4528 9.06559C13.504 9.01759 13.664 9.06239 13.712 9.13119C13.792 9.24799 13.8336 9.37919 13.8576 9.51519C13.9552 10.072 14.0704 10.6272 14.2048 11.176C14.3104 11.6064 14.3904 12.0416 14.5072 12.4704C14.5648 12.6784 14.624 12.8864 14.6832 13.0944C14.736 13.2832 14.7904 13.4736 14.84 13.664C14.9024 13.904 15.0416 14.112 15.1296 14.3424C15.2288 14.6032 15.3232 14.8656 15.44 15.1184C15.576 15.4128 15.7056 15.7104 15.8816 15.984C16.0016 16.1712 16.1312 16.3504 16.2496 16.5376C16.32 16.648 16.384 16.7632 16.456 16.8736C16.512 16.9584 16.4928 16.9824 16.3904 16.9824C16.3728 16.9824 16.3536 16.9824 16.336 16.9824V16.984Z" fill="#010101"/>
<path d="M14.5855 17.0464C14.2559 17.0416 13.9567 16.9808 13.6591 16.8944C13.3903 16.816 13.1167 16.752 12.8607 16.632C12.6399 16.528 12.4207 16.4192 12.1951 16.3248C11.9791 16.2336 11.7871 16.1072 11.5983 15.9712C11.3375 15.7824 11.0687 15.6032 10.8079 15.4144C10.6895 15.328 10.5823 15.2288 10.4719 15.1312C10.4575 15.1184 10.4543 15.0944 10.4591 15.0656C10.4831 14.9296 10.5759 14.8352 10.6543 14.7328C10.7455 14.6128 10.8495 14.5024 10.9503 14.392C11.0271 14.3088 11.1007 14.2224 11.1663 14.1264C11.2351 14.0256 11.3231 13.9328 11.3967 13.8304C11.5055 13.6784 11.6239 13.5328 11.7183 13.3712C11.8623 13.1232 12.0255 12.8864 12.1439 12.6224C12.2079 12.48 12.2687 12.3344 12.3343 12.192C12.3535 12.1504 12.3663 12.112 12.4175 12.1088C12.4751 12.1056 12.4975 12.1632 12.5055 12.1936C12.5615 12.4064 12.6511 12.6064 12.7343 12.8064C12.8799 13.1552 12.9743 13.52 13.0911 13.8784C13.1311 14.0032 13.1871 14.12 13.2447 14.2368C13.2671 14.2816 13.2575 14.344 13.3279 14.3552C13.3327 14.3552 13.3423 14.376 13.3391 14.3808C13.3055 14.4464 13.3503 14.496 13.3759 14.5472C13.5279 14.8528 13.6703 15.1632 13.8415 15.4576C14.0751 15.8608 14.3135 16.2608 14.5535 16.6608C14.6015 16.7408 14.6655 16.8096 14.7231 16.8832C14.7439 16.9104 14.7839 16.936 14.7583 16.9776C14.7359 17.0144 14.6975 17.04 14.6511 17.0448C14.6223 17.0464 14.5935 17.0448 14.5839 17.0448L14.5855 17.0464Z" fill="#010101"/>
<path d="M18.1711 21.3392C18.1791 21.4704 18.1423 21.592 18.0639 21.7024C17.9823 21.8176 17.8463 21.8592 17.7055 21.8288C17.5871 21.8032 17.4799 21.7584 17.3791 21.6944C17.2783 21.632 17.2191 21.5328 17.1599 21.4352C17.0847 21.3152 17.0079 21.1936 16.9503 21.0656C16.9087 20.9728 16.8703 20.8736 16.8319 20.7776C16.7759 20.6384 16.7199 20.4992 16.6479 20.3648C16.5775 20.2352 16.5295 20.0928 16.4703 19.9568C16.4079 19.8128 16.3423 19.6688 16.2847 19.5232C16.2159 19.3472 16.1183 19.1824 16.0879 18.9904C16.0815 18.9536 16.0815 18.9456 16.1199 18.936C16.1791 18.92 16.2351 18.9344 16.2927 18.936C16.4847 18.9408 16.6751 18.96 16.8671 18.9808C16.9519 18.9904 17.0367 19.016 17.1263 19.0032C17.2015 18.992 17.2287 19.064 17.2431 19.1136C17.2767 19.224 17.3247 19.3296 17.3695 19.432C17.4271 19.5616 17.4575 19.704 17.5423 19.8224C17.5887 19.888 17.6239 19.96 17.6655 20.0272C17.6943 20.072 17.7151 20.1184 17.7295 20.1696C17.7439 20.2192 17.7615 20.2672 17.8063 20.2976C17.8143 20.304 17.8239 20.304 17.8239 20.3168C17.8383 20.4608 17.9231 20.5728 17.9919 20.6928C18.0719 20.832 18.1855 21.144 18.1711 21.3392Z" fill="#010101"/>
<path d="M19.2576 18.8512C19.2688 18.9136 19.2672 18.9728 19.2384 19.0352C19.1568 19.2144 19.056 19.3824 18.952 19.5504C18.8112 19.7792 18.6704 20.0096 18.504 20.2224C18.4352 20.3104 18.3856 20.3072 18.3184 20.216C18.1776 20.0256 18.0624 19.816 17.9248 19.624C17.8192 19.4752 17.76 19.304 17.6752 19.1456C17.6224 19.0464 17.656 19.0032 17.7712 18.9984C17.9744 18.9904 18.1792 18.992 18.3808 18.9632C18.5248 18.9424 18.672 18.9296 18.8176 18.8992C18.9584 18.8704 19.1088 18.8624 19.2576 18.8496V18.8512Z" fill="#010101"/>
<path d="M8.14087 26.9072C8.19687 26.8848 8.27847 26.9232 8.29767 26.9824C8.23687 26.9728 8.19207 26.9328 8.14087 26.9072Z" fill="#010101"/>
<path d="M14.6415 25.6544C14.5967 25.656 14.5423 25.7088 14.5151 25.6272C14.5567 25.6384 14.6111 25.5872 14.6415 25.6544Z" fill="#010101"/>
<path d="M23.7775 7.18881C23.7247 7.14081 23.7471 7.08641 23.7647 7.03201C23.7919 7.08161 23.7759 7.13601 23.7775 7.18881Z" fill="#010101"/>
<path d="M14.5007 26.0816C14.5055 26.0192 14.5471 26.0128 14.5951 26.016C14.5679 26.0432 14.5375 26.0672 14.5007 26.0816Z" fill="#010101"/>
<path d="M16.9519 16.7504C16.9967 16.752 17.0383 16.7632 17.0623 16.8064C17.0191 16.8016 16.9791 16.7872 16.9519 16.7504Z" fill="#010101"/>
<path d="M24.4368 7.25119C24.4576 7.28159 24.5024 7.31359 24.4368 7.34559C24.4432 7.31359 24.4112 7.28319 24.4368 7.25119Z" fill="#010101"/>
<path d="M25.2831 13.4528C25.3151 13.4576 25.3119 13.4816 25.3103 13.504C25.3087 13.5312 25.2863 13.5312 25.2671 13.5312C25.2719 13.5056 25.2783 13.4784 25.2831 13.4528Z" fill="#010101"/>
<path d="M24.4399 7.92319C24.5039 7.94079 24.4815 7.96959 24.4527 8.00159C24.4239 7.97919 24.4415 7.95039 24.4399 7.92319Z" fill="#010101"/>
<path d="M25.2671 12.9072C25.2863 12.9072 25.3087 12.9072 25.3103 12.9344C25.3119 12.9568 25.3151 12.9808 25.2831 12.9856C25.2783 12.96 25.2719 12.9328 25.2671 12.9072Z" fill="#010101"/>
<path d="M18.9536 16.7632C18.9792 16.7136 19.0128 16.7312 19.048 16.752C19.0192 16.7824 18.9856 16.7616 18.9536 16.7632Z" fill="#010101"/>
<path d="M13.9888 18.488C14.0272 18.4912 14.0704 18.4832 14.0944 18.5248C14.0544 18.5248 14.016 18.5216 13.9888 18.488Z" fill="#010101"/>
<path d="M14.1265 18.5264C14.1617 18.5264 14.2001 18.5152 14.2193 18.5584C14.1857 18.5584 14.1521 18.552 14.1265 18.5264Z" fill="#010101"/>
<path d="M14.2656 18.5632C14.304 18.5504 14.3376 18.5488 14.36 18.5904C14.3264 18.5904 14.296 18.5744 14.2656 18.5632Z" fill="#010101"/>
<path d="M23.7776 7.35999C23.7312 7.33439 23.7328 7.30879 23.7776 7.28159V7.35999Z" fill="#010101"/>
<path d="M12.3489 18.128C12.3825 18.1312 12.4209 18.128 12.4385 18.168C12.4081 18.1568 12.3697 18.1632 12.3489 18.128Z" fill="#010101"/>
<path d="M5.97441 24.392C5.98401 24.4112 6.00961 24.4256 5.98881 24.4512C5.95521 24.4384 5.93921 24.4224 5.97441 24.392Z" fill="#010101"/>
<path d="M5.94879 24.2848C5.95199 24.304 5.98078 24.32 5.95678 24.3424C5.92318 24.328 5.90879 24.3104 5.94879 24.2848Z" fill="#010101"/>
<path d="M13.0671 18.288C13.0927 18.28 13.1183 18.272 13.1263 18.3104C13.1039 18.3088 13.0751 18.3264 13.0671 18.288Z" fill="#010101"/>
<path d="M14.6721 18.64C14.6977 18.6192 14.7217 18.6128 14.7345 18.6528C14.7137 18.6528 14.6881 18.6656 14.6721 18.64Z" fill="#010101"/>
<path d="M20.2495 16.6528C20.2639 16.6112 20.2863 16.6176 20.3119 16.6416C20.2959 16.6688 20.2703 16.6528 20.2495 16.6528Z" fill="#010101"/>
<path d="M24.7039 6.38239C24.7039 6.41599 24.6991 6.44479 24.6543 6.43839C24.6687 6.41759 24.6751 6.39199 24.7039 6.38239Z" fill="#010101"/>
<path d="M14.8145 18.6528C14.8401 18.6352 14.8641 18.6288 14.8753 18.6688C14.8545 18.6672 14.8273 18.6848 14.8145 18.6528Z" fill="#010101"/>
<path d="M15.7808 18.688C15.8064 18.6672 15.8304 18.6592 15.8432 18.7008C15.8224 18.7008 15.7968 18.7168 15.7808 18.688Z" fill="#010101"/>
<path d="M9.64478 27.3984C9.67038 27.3872 9.69598 27.3792 9.70398 27.4192C9.68158 27.4176 9.65438 27.4352 9.64478 27.3984Z" fill="#010101"/>
<path d="M14.6305 11.656C14.6737 11.6704 14.6497 11.7072 14.6561 11.7344C14.6497 11.7072 14.6161 11.6896 14.6305 11.656Z" fill="#010101"/>
<path d="M14.536 11.2656C14.5808 11.28 14.5552 11.3168 14.5616 11.344C14.5552 11.3168 14.5216 11.2992 14.536 11.2656Z" fill="#010101"/>
<path d="M24.4353 7.81281C24.4497 7.83201 24.4897 7.84961 24.4433 7.87521C24.4545 7.85281 24.3985 7.83841 24.4353 7.81281Z" fill="#010101"/>
<path d="M15.6096 5.4976C15.6192 5.4672 15.6368 5.4496 15.6704 5.4656C15.656 5.488 15.6336 5.4928 15.6096 5.4976Z" fill="#010101"/>
<path d="M15.7969 5.41921C15.8081 5.38881 15.8241 5.37121 15.8593 5.38881C15.8449 5.41121 15.8209 5.41441 15.7969 5.41921Z" fill="#010101"/>
<path d="M12.9585 18.2688C12.9825 18.2656 13.0097 18.256 13.0161 18.2944C12.9937 18.2944 12.9649 18.3056 12.9585 18.2688Z" fill="#010101"/>
<path d="M14.4543 18.6032C14.4799 18.5904 14.5055 18.5808 14.5167 18.6208C14.4911 18.6304 14.4751 18.608 14.4543 18.6032Z" fill="#010101"/>
<path d="M15.2032 17.4688C15.1808 17.4672 15.1552 17.4768 15.1392 17.4512C15.1712 17.4192 15.1856 17.4464 15.2032 17.4688Z" fill="#010101"/>
<path d="M15.3599 17.4848C15.3375 17.4832 15.3119 17.4928 15.2959 17.4672C15.3279 17.4352 15.3423 17.4624 15.3599 17.4848Z" fill="#010101"/>
<path d="M13.3296 18.3392C13.3568 18.3248 13.3808 18.3152 13.392 18.3568C13.3664 18.3664 13.3488 18.3504 13.3296 18.3392Z" fill="#010101"/>
<path d="M5.99994 24.5296C6.04314 24.5344 6.02874 24.568 6.03194 24.592C6.01914 24.5744 6.00474 24.5568 5.99194 24.5376C5.99194 24.5376 5.99194 24.5328 5.99194 24.5312C5.99354 24.5296 5.99674 24.5296 5.99834 24.528L5.99994 24.5296Z" fill="#010101"/>
<path d="M26.0129 12.5152C25.9969 12.512 25.9841 12.5072 25.9873 12.488C25.9889 12.472 26.0017 12.4704 26.0129 12.4688C26.0129 12.4848 26.0129 12.5008 26.0129 12.5152Z" fill="#010101"/>
<path d="M25.4497 8.36C25.4337 8.3568 25.4209 8.352 25.4241 8.3328C25.4257 8.3168 25.4385 8.3152 25.4497 8.3136C25.4497 8.3296 25.4497 8.3456 25.4497 8.36Z" fill="#010101"/>
<path d="M9.53589 27.3808C9.55989 27.368 9.57589 27.3728 9.57909 27.4016C9.56149 27.4016 9.53749 27.4112 9.53589 27.3808Z" fill="#010101"/>
<path d="M26.3119 7.12641C26.3103 7.15681 26.2879 7.15681 26.2655 7.15681C26.2591 7.11361 26.2911 7.12961 26.3119 7.12641Z" fill="#010101"/>
<path d="M25.9967 12.2496C25.9839 12.248 25.9727 12.2448 25.9711 12.2288C25.9695 12.2096 25.9823 12.2048 25.9983 12.2016C25.9983 12.2176 25.9983 12.2336 25.9983 12.248L25.9967 12.2496Z" fill="#010101"/>
<path d="M12.344 25.4208C12.336 25.432 12.3248 25.4368 12.3104 25.4304C12.3072 25.4288 12.304 25.4208 12.3056 25.4176C12.3136 25.3984 12.3312 25.4064 12.3456 25.4032C12.3456 25.408 12.3456 25.4144 12.3456 25.4192L12.344 25.4208Z" fill="#010101"/>
<path d="M14.816 12.3904C14.8432 12.3936 14.848 12.408 14.84 12.432C14.8096 12.432 14.8144 12.4096 14.816 12.3904Z" fill="#010101"/>
<path d="M14.9104 12.7968C14.9488 12.8048 14.9344 12.8352 14.9392 12.8592C14.9216 12.8416 14.9136 12.8208 14.9104 12.7968Z" fill="#010101"/>
<path d="M14.9425 12.8912C14.9745 12.9008 14.9777 12.9152 14.9537 12.9376C14.9313 12.9264 14.9393 12.9088 14.9425 12.8912Z" fill="#010101"/>
<path d="M15.4224 4.92319C15.4192 4.94719 15.4336 4.97759 15.3936 4.98399C15.3968 4.95999 15.4032 4.93919 15.4224 4.92319Z" fill="#010101"/>
<path d="M25.4817 9.1728C25.4657 9.1696 25.4529 9.1648 25.4561 9.1456C25.4577 9.1296 25.4705 9.128 25.4817 9.1264C25.4817 9.1424 25.4817 9.1584 25.4817 9.1728Z" fill="#010101"/>
<path d="M14.9568 12.9536C14.9952 12.96 14.9808 12.992 14.9856 13.016C14.968 13 14.9584 12.9776 14.9568 12.9536Z" fill="#010101"/>
<path d="M25.8591 7.72159C25.8559 7.74399 25.8687 7.77599 25.8303 7.78079C25.8303 7.75679 25.8399 7.73599 25.8591 7.72159Z" fill="#010101"/>
<path d="M15.2721 13.8592C15.3073 13.8688 15.2929 13.8976 15.2977 13.92C15.2833 13.9024 15.2705 13.8832 15.2721 13.8592Z" fill="#010101"/>
<path d="M14.5664 18.616C14.5904 18.6048 14.6064 18.6096 14.6096 18.6384C14.592 18.6384 14.568 18.6496 14.5664 18.616Z" fill="#010101"/>
<path d="M13.4065 18.3584C13.4305 18.336 13.4449 18.3392 13.4529 18.3712C13.4369 18.3712 13.4161 18.3808 13.4065 18.3584Z" fill="#010101"/>
<path d="M13.2688 18.3216C13.2928 18.3056 13.3088 18.312 13.3136 18.3408C13.296 18.3408 13.2736 18.352 13.2688 18.3216Z" fill="#010101"/>
<path d="M12.8704 18.2512C12.8928 18.2512 12.9168 18.2448 12.9216 18.2784C12.896 18.2848 12.88 18.2752 12.8704 18.2512Z" fill="#010101"/>
<path d="M11.7903 17.9552C11.8127 17.9552 11.8383 17.9472 11.8431 17.9808C11.8175 17.9872 11.7967 17.984 11.7903 17.9552Z" fill="#010101"/>
<path d="M11.5344 17.8736C11.5568 17.8784 11.5856 17.864 11.5936 17.8992C11.568 17.9024 11.5504 17.8912 11.5344 17.8736Z" fill="#010101"/>
<path d="M14.8464 12.5312C14.8864 12.5408 14.8784 12.5664 14.864 12.592C14.872 12.5664 14.8336 12.5568 14.8464 12.5312Z" fill="#010101"/>
<path d="M14.8753 7.92479C14.8721 7.95519 14.8497 7.95359 14.8289 7.95359C14.8241 7.91039 14.8545 7.92479 14.8753 7.92479Z" fill="#010101"/>
<path d="M20.5615 16.6384C20.5695 16.6048 20.5855 16.6016 20.6095 16.6256C20.5983 16.6496 20.5791 16.6384 20.5615 16.6384Z" fill="#010101"/>
<path d="M19.4065 16.7312C19.4145 16.6976 19.4305 16.6944 19.4545 16.72C19.4433 16.744 19.4241 16.7328 19.4065 16.7312Z" fill="#010101"/>
<path d="M24.4545 8.09439C24.4897 8.10399 24.4913 8.11999 24.4657 8.14239C24.4433 8.13119 24.4545 8.11199 24.4545 8.09439Z" fill="#010101"/>
<path d="M25.4208 5.8352C25.416 5.864 25.392 5.8592 25.3728 5.8608C25.3792 5.832 25.3984 5.8288 25.4208 5.8352Z" fill="#010101"/>
<path d="M14.4881 11.0784C14.5153 11.0816 14.5201 11.096 14.5121 11.12C14.4817 11.12 14.4849 11.0976 14.4881 11.0784Z" fill="#010101"/>
<path d="M17.2959 16.8288C17.3183 16.8032 17.3343 16.8064 17.3439 16.84C17.3263 16.84 17.3071 16.8528 17.2959 16.8288Z" fill="#010101"/>
<path d="M9.51514 16.8752C9.53274 16.8752 9.55194 16.872 9.56474 16.8912C9.53594 16.9232 9.52954 16.888 9.51514 16.8752Z" fill="#010101"/>
<path d="M25.0305 6.0784C25.0305 6.1088 25.0097 6.1104 24.9873 6.112C24.9969 6.0944 25.0113 6.0832 25.0305 6.0784Z" fill="#010101"/>
<path d="M9.60791 16.9376C9.63991 16.9376 9.64151 16.9584 9.63991 16.9824C9.61591 16.9776 9.60951 16.96 9.60791 16.9376Z" fill="#010101"/>
<path d="M25.624 5.7376C25.6208 5.768 25.5984 5.7664 25.5776 5.7664C25.5872 5.7456 25.6016 5.736 25.624 5.7376Z" fill="#010101"/>
<path d="M22.2031 16.3728C22.2079 16.3424 22.2239 16.3392 22.2495 16.3536C22.2335 16.3584 22.2255 16.3824 22.2031 16.3728Z" fill="#010101"/>
<path d="M8.97431 15.9072C8.99191 15.9312 8.98871 15.9472 8.95671 15.9536C8.94871 15.9328 8.97271 15.9248 8.97431 15.9072Z" fill="#010101"/>
<path d="M9.0321 15.736C9.0321 15.7552 9.0353 15.7776 9.0065 15.7824C8.9937 15.7552 9.0097 15.7456 9.0321 15.736Z" fill="#010101"/>
<path d="M16.64 7.1104C16.6288 7.128 16.6112 7.1248 16.5952 7.1264C16.6112 7.1248 16.6128 7.0816 16.64 7.1104Z" fill="#010101"/>
<path d="M10.2656 17.344C10.288 17.344 10.3104 17.344 10.3136 17.3728C10.2912 17.3728 10.2784 17.3616 10.2656 17.344Z" fill="#010101"/>
<path d="M15.944 15.2816C15.9712 15.2864 15.968 15.3072 15.9696 15.3264C15.9488 15.3184 15.9344 15.3056 15.944 15.2816Z" fill="#010101"/>
<path d="M28.1712 5.09441C28.16 5.11361 28.1424 5.11041 28.1248 5.11041C28.1408 5.10561 28.1424 5.06241 28.1712 5.09441Z" fill="#010101"/>
<path d="M15.2353 7.69279C15.2305 7.72319 15.2081 7.71839 15.1873 7.71839C15.1985 7.70239 15.2113 7.68639 15.2353 7.69279Z" fill="#010101"/>
<path d="M26.4048 6.72959C26.4096 6.70079 26.432 6.70399 26.4512 6.70399C26.4384 6.71999 26.432 6.74239 26.4048 6.72959Z" fill="#010101"/>
<path d="M28.3744 5.0208C28.3712 5.0496 28.3504 5.048 28.3296 5.0496C28.3456 5.0416 28.3504 5.016 28.3744 5.0208Z" fill="#010101"/>
<path d="M24.5921 6.54721C24.5921 6.56801 24.5969 6.59041 24.5665 6.59521C24.5553 6.56801 24.5729 6.55841 24.5921 6.54721Z" fill="#010101"/>
<path d="M5.67529 23.0768C5.69129 23.0816 5.72169 23.0672 5.71049 23.1056C5.69129 23.1056 5.67849 23.096 5.67529 23.0768Z" fill="#010101"/>
<path d="M15.8911 7.3728C15.8831 7.3968 15.8623 7.3904 15.8447 7.392C15.8543 7.3712 15.8687 7.36 15.8911 7.3728Z" fill="#010101"/>
<path d="M14.8785 12.672C14.9105 12.6784 14.9137 12.6944 14.8961 12.7184C14.8913 12.7024 14.8705 12.6928 14.8785 12.672Z" fill="#010101"/>
<path d="M14.832 12.4688C14.864 12.4752 14.8672 12.4912 14.8496 12.5152C14.8464 12.4992 14.824 12.4896 14.832 12.4688Z" fill="#010101"/>
<path d="M27.6863 6.6128C27.6831 6.6432 27.6607 6.6416 27.6399 6.6416C27.6527 6.6288 27.6623 6.608 27.6863 6.6128Z" fill="#010101"/>
<path d="M5.87354 24.0624C5.90714 24.0656 5.91514 24.08 5.89594 24.1072C5.88794 24.0928 5.88154 24.0768 5.87354 24.0624Z" fill="#010101"/>
<path d="M15.752 4.23039C15.7504 4.25119 15.7456 4.26719 15.72 4.26719C15.72 4.24479 15.7216 4.22559 15.752 4.23039Z" fill="#010101"/>
<path d="M14.7377 12.0624C14.7681 12.0688 14.7729 12.0848 14.7553 12.1088C14.7537 12.0912 14.7297 12.0832 14.7377 12.0624Z" fill="#010101"/>
<path d="M14.6624 11.7808C14.6928 11.7888 14.6928 11.8048 14.6752 11.8272C14.672 11.8112 14.6464 11.8016 14.6624 11.7808Z" fill="#010101"/>
<path d="M16.0431 15.4848C16.0575 15.4896 16.0671 15.496 16.0543 15.5136C16.0303 15.5136 16.0351 15.4992 16.0431 15.4848Z" fill="#010101"/>
<path d="M8.99045 15.8608C9.00645 15.8848 8.98885 15.8864 8.97125 15.8896C8.96805 15.8736 8.96965 15.8608 8.99045 15.8608Z" fill="#010101"/>
<path d="M18.7024 16.7792C18.7072 16.7584 18.7136 16.7424 18.7344 16.768C18.7296 16.7872 18.7152 16.7824 18.7024 16.7792Z" fill="#010101"/>
<path d="M14.4719 11C14.4927 11.0032 14.5087 11.0096 14.4847 11.0304C14.4655 11.0256 14.4687 11.0128 14.4719 11Z" fill="#010101"/>
<path d="M14.3967 10.672C14.4143 10.6752 14.4287 10.68 14.4111 10.7008C14.3887 10.7008 14.3887 10.688 14.3967 10.672Z" fill="#010101"/>
<path d="M14.504 11.1568C14.52 11.16 14.5376 11.1616 14.5248 11.184C14.504 11.184 14.5008 11.1728 14.504 11.1568Z" fill="#010101"/>
<path d="M16.0496 3.81279C16.0496 3.81279 16.0704 3.82079 16.0704 3.82559C16.072 3.84159 16.0576 3.84159 16.0464 3.84319C16.0464 3.83199 16.0464 3.82239 16.048 3.81119L16.0496 3.81279Z" fill="#010101"/>
<path d="M10.5935 27.4368C10.5951 27.4256 10.5951 27.4096 10.6127 27.4144C10.6175 27.4144 10.6207 27.4288 10.6255 27.4368C10.6143 27.4368 10.6047 27.4368 10.5935 27.4368Z" fill="#010101"/>
<path d="M9.45435 27.3856C9.45595 27.376 9.45755 27.3632 9.47035 27.3632C9.48315 27.3632 9.48475 27.376 9.48635 27.3856C9.47515 27.3856 9.46555 27.3856 9.45435 27.3856Z" fill="#010101"/>
<path d="M26.5616 6.9744C26.5568 6.9936 26.5504 7.008 26.5312 6.9856C26.536 6.9696 26.5472 6.9664 26.5616 6.9744Z" fill="#010101"/>
<path d="M13.9536 25.592C13.9424 25.6096 13.9312 25.608 13.9216 25.592C13.9328 25.5712 13.944 25.5712 13.9536 25.592Z" fill="#010101"/>
<path d="M13.3279 25.5296C13.3167 25.5472 13.3055 25.5456 13.2959 25.5296C13.3071 25.5088 13.3183 25.5088 13.3279 25.5296Z" fill="#010101"/>
<path d="M13.0159 25.4992C13.0047 25.5168 12.9935 25.5152 12.9839 25.4992C12.9951 25.4784 13.0063 25.4784 13.0159 25.4992Z" fill="#010101"/>
<path d="M17.1569 6.976C17.1521 6.9936 17.1473 7.008 17.1265 6.9888C17.1281 6.9664 17.1409 6.9664 17.1569 6.976Z" fill="#010101"/>
<path d="M5.89429 24.1248C5.91349 24.128 5.93109 24.1328 5.90869 24.1552C5.88949 24.152 5.89109 24.1376 5.89429 24.1248Z" fill="#010101"/>
<path d="M5.84809 23.9216C5.86569 23.9248 5.8849 23.928 5.8641 23.952C5.8385 23.952 5.84489 23.936 5.84809 23.9216Z" fill="#010101"/>
<path d="M5.79993 23.6864C5.81913 23.6896 5.83673 23.6944 5.81433 23.7168C5.79193 23.7152 5.79833 23.6992 5.79993 23.6864Z" fill="#010101"/>
<path d="M5.71851 23.2656C5.73611 23.2672 5.75851 23.2656 5.73931 23.2944C5.71851 23.2944 5.72171 23.2768 5.71851 23.2656Z" fill="#010101"/>
<path d="M25.8767 7.67361C25.8943 7.68801 25.8879 7.69761 25.8703 7.70401C25.8639 7.69281 25.8527 7.68001 25.8767 7.67361Z" fill="#010101"/>
<path d="M24.4368 7.7504C24.448 7.752 24.464 7.752 24.4608 7.7696C24.4608 7.7744 24.4464 7.7776 24.4384 7.7824C24.4384 7.7712 24.4384 7.7616 24.4384 7.7504H24.4368Z" fill="#010101"/>
<path d="M14.4065 18.6048C14.4081 18.5952 14.4097 18.584 14.4225 18.584C14.4353 18.584 14.4369 18.5968 14.4385 18.6064C14.4273 18.6064 14.4177 18.6064 14.4065 18.6064V18.6048Z" fill="#010101"/>
<path d="M13.5007 18.376C13.5199 18.352 13.5263 18.3648 13.5327 18.3856C13.5183 18.3936 13.5071 18.3936 13.5007 18.376Z" fill="#010101"/>
<path d="M28.5423 5.2672C28.5423 5.2672 28.5215 5.2592 28.5215 5.2528C28.5215 5.2368 28.5359 5.2368 28.5471 5.2352C28.5471 5.2448 28.5439 5.256 28.5439 5.2656L28.5423 5.2672Z" fill="#010101"/>
<path d="M13.1887 18.3104C13.2111 18.2896 13.2159 18.3072 13.2191 18.3248C13.2047 18.3264 13.1903 18.3312 13.1887 18.3104Z" fill="#010101"/>
<path d="M14.2223 9.5936C14.2415 9.5968 14.2591 9.6016 14.2367 9.624C14.2159 9.6208 14.2207 9.6064 14.2223 9.5936Z" fill="#010101"/>
<path d="M26.9839 5.3344C26.9791 5.3552 26.9711 5.368 26.9519 5.344C26.9583 5.3264 26.9695 5.3264 26.9839 5.3344Z" fill="#010101"/>
<path d="M14.2161 9.48322C14.2321 9.49122 14.2385 9.50242 14.2209 9.51522C14.1969 9.50722 14.1985 9.49762 14.2161 9.48322Z" fill="#010101"/>
<path d="M12.6095 18.216C12.6095 18.2064 12.6127 18.1952 12.6239 18.1936C12.6367 18.1936 12.6383 18.2032 12.6399 18.2128H12.6079L12.6095 18.216Z" fill="#010101"/>
<path d="M11.4768 17.8464C11.4928 17.8448 11.5088 17.8432 11.5168 17.8624C11.4944 17.88 11.4848 17.8624 11.4768 17.8464Z" fill="#010101"/>
<path d="M11.2528 17.776C11.2768 17.7584 11.2784 17.7776 11.2816 17.7952C11.2656 17.7984 11.2512 17.8 11.2528 17.776Z" fill="#010101"/>
<path d="M25.7808 5.67519C25.7792 5.69119 25.776 5.70719 25.7536 5.69759C25.752 5.67679 25.7616 5.67199 25.7808 5.67519Z" fill="#010101"/>
<path d="M28.4 9.06241C28.3808 9.05921 28.3664 9.05281 28.3872 9.03201C28.4032 9.03681 28.4032 9.04961 28.4 9.06241Z" fill="#010101"/>
<path d="M14.7648 8.01601C14.7616 8.04481 14.744 8.04801 14.72 8.04161C14.7296 8.02401 14.744 8.01441 14.7648 8.01601Z" fill="#010101"/>
<path d="M25.4655 8.12639C25.4559 8.12639 25.4431 8.12319 25.4431 8.11039C25.4431 8.09759 25.4543 8.09599 25.4655 8.09439C25.4655 8.10559 25.4655 8.11519 25.4655 8.12639Z" fill="#010101"/>
<path d="M18.4849 16.7936C18.4897 16.7728 18.4961 16.7568 18.5169 16.7824C18.5121 16.8016 18.4977 16.7968 18.4849 16.7936Z" fill="#010101"/>
<path d="M10.0161 27.4368C10.0289 27.4192 10.0385 27.4224 10.0481 27.44C10.0353 27.4592 10.0241 27.4592 10.0161 27.4368Z" fill="#010101"/>
<path d="M14.376 8.43842C14.376 8.45442 14.3712 8.46562 14.3536 8.46882C14.3408 8.44322 14.3616 8.44322 14.376 8.43842Z" fill="#010101"/>
<path d="M26.936 6.5584C26.9408 6.5376 26.9488 6.52319 26.968 6.54879C26.9632 6.56799 26.9504 6.5648 26.936 6.5584Z" fill="#010101"/>
<path d="M19.2495 16.7472C19.2543 16.7264 19.2591 16.7104 19.2815 16.7344C19.2767 16.7536 19.2623 16.7488 19.2495 16.7472Z" fill="#010101"/>
<path d="M25.2671 13.7504C25.2767 13.752 25.2895 13.7536 25.2895 13.7664C25.2895 13.7792 25.2767 13.7808 25.2671 13.7808C25.2671 13.7696 25.2671 13.76 25.2671 13.7488V13.7504Z" fill="#010101"/>
<path d="M16.9055 16.704C16.9311 16.704 16.9391 16.7216 16.9343 16.744C16.9167 16.736 16.9055 16.7232 16.9055 16.704Z" fill="#010101"/>
<path d="M19.656 16.7152C19.6592 16.6944 19.6656 16.6784 19.688 16.7024C19.6832 16.7216 19.6704 16.7168 19.656 16.7152Z" fill="#010101"/>
<path d="M23.9471 8.60959C23.9279 8.60479 23.9135 8.59839 23.9359 8.57919C23.9455 8.58719 23.9503 8.59679 23.9471 8.60959Z" fill="#010101"/>
<path d="M21.7649 16.4656C21.7681 16.4448 21.7745 16.4288 21.7969 16.4528C21.7921 16.4704 21.7793 16.4672 21.7649 16.4656Z" fill="#010101"/>
<path d="M21.8433 16.4496C21.8465 16.4304 21.8529 16.4128 21.8737 16.4368C21.8689 16.4544 21.8561 16.4528 21.8433 16.4496Z" fill="#010101"/>
<path d="M15.9089 15.1872C15.9281 15.1904 15.9457 15.1952 15.9217 15.2176C15.9009 15.2144 15.9057 15.2 15.9089 15.1872Z" fill="#010101"/>
<path d="M14.2496 8.93759C14.2736 8.95999 14.256 8.96479 14.2368 8.96799C14.2336 8.95519 14.2304 8.94079 14.2496 8.93759Z" fill="#010101"/>
<path d="M25.4496 8.75041C25.44 8.75041 25.4272 8.74721 25.4272 8.73441C25.4272 8.72161 25.4384 8.72001 25.4496 8.71841V8.75041Z" fill="#010101"/>
<path d="M17.0945 16.8096C17.1153 16.7904 17.1201 16.8064 17.1249 16.824C17.1105 16.8304 17.0977 16.832 17.0945 16.8096Z" fill="#010101"/>
<path d="M28.4161 9.26561C28.3873 9.26401 28.4017 9.24801 28.4049 9.23361C28.4177 9.24001 28.4193 9.25281 28.4161 9.26561Z" fill="#010101"/>
<path d="M24.5487 8.86081C24.5487 8.86081 24.5567 8.87361 24.5615 8.87841C24.5519 8.87521 24.5455 8.87201 24.5487 8.86081Z" fill="#010101"/>
<path d="M15.5312 4.65759C15.5312 4.65759 15.5232 4.66719 15.5184 4.67199C15.5152 4.66079 15.5216 4.65759 15.5312 4.65759Z" fill="#010101"/>
<path d="M14.3137 8.6416C14.3137 8.6416 14.3057 8.6512 14.3009 8.656C14.2977 8.6448 14.3041 8.6416 14.3137 8.6416Z" fill="#010101"/>
<path d="M22.2656 16.3568C22.2656 16.3568 22.2768 16.3488 22.2816 16.344C22.2816 16.3536 22.2768 16.36 22.2656 16.3568Z" fill="#010101"/>
<path d="M22.0625 16.4032C22.0625 16.4032 22.0737 16.3952 22.0785 16.3904C22.0785 16.4 22.0737 16.4064 22.0625 16.4032Z" fill="#010101"/>
<path d="M15.6911 14.7664C15.6911 14.7664 15.6991 14.776 15.7023 14.7792C15.6927 14.7792 15.6863 14.7776 15.6911 14.7664Z" fill="#010101"/>
<path d="M21.9216 16.4352C21.9216 16.4352 21.9328 16.4272 21.9376 16.4224C21.9376 16.432 21.9328 16.4384 21.9216 16.4352Z" fill="#010101"/>
<path d="M15.6449 14.656C15.6449 14.656 15.6529 14.6656 15.6577 14.6704C15.6481 14.6704 15.6417 14.6672 15.6449 14.656Z" fill="#010101"/>
<path d="M21.6721 16.4816C21.6721 16.4816 21.6833 16.4736 21.6881 16.4688C21.6865 16.4784 21.6833 16.4848 21.6721 16.4816Z" fill="#010101"/>
<path d="M21.5776 16.4976C21.5776 16.4976 21.5888 16.4896 21.5936 16.4848C21.592 16.4944 21.5888 16.5008 21.5776 16.4976Z" fill="#010101"/>
<path d="M21.4065 16.528C21.4065 16.528 21.4177 16.52 21.4225 16.5152C21.4209 16.5248 21.4177 16.5312 21.4065 16.528Z" fill="#010101"/>
<path d="M21.2031 16.56C21.2031 16.56 21.2143 16.552 21.2191 16.5472C21.2175 16.5568 21.2143 16.5632 21.2031 16.56Z" fill="#010101"/>
<path d="M15.3327 14.016C15.3327 14.016 15.3407 14.0256 15.3439 14.0288C15.3343 14.0288 15.3279 14.0272 15.3327 14.016Z" fill="#010101"/>
<path d="M24.6081 6.51678C24.6081 6.51678 24.6001 6.52638 24.5953 6.53118C24.5921 6.51998 24.5985 6.51678 24.6081 6.51678Z" fill="#010101"/>
<path d="M20.0784 16.6688C20.0784 16.6688 20.0896 16.6608 20.096 16.656C20.0944 16.664 20.0896 16.672 20.0784 16.6688Z" fill="#010101"/>
<path d="M19.9216 16.6848C19.9216 16.6848 19.9328 16.6768 19.9392 16.672C19.9376 16.68 19.9328 16.688 19.9216 16.6848Z" fill="#010101"/>
<path d="M15.3007 13.9376C15.3007 13.9376 15.3087 13.9472 15.3119 13.952C15.3023 13.952 15.2959 13.9488 15.3007 13.9376Z" fill="#010101"/>
<path d="M24.5648 8.9696C24.5648 8.9696 24.5728 8.9808 24.5776 8.9872C24.568 8.9856 24.5616 8.9808 24.5648 8.9696Z" fill="#010101"/>
<path d="M14.344 8.50079C14.344 8.50079 14.336 8.51039 14.3312 8.51519C14.328 8.50399 14.3344 8.50079 14.344 8.50079Z" fill="#010101"/>
<path d="M15.1601 13.5312C15.1601 13.5312 15.1681 13.5408 15.1713 13.5456C15.1617 13.5456 15.1553 13.5424 15.1601 13.5312Z" fill="#010101"/>
<path d="M15.1296 13.4544C15.1296 13.4544 15.1376 13.464 15.1408 13.4688C15.1312 13.4688 15.1248 13.4672 15.1296 13.4544Z" fill="#010101"/>
<path d="M25.0928 6.03521C25.0928 6.03521 25.08 6.04321 25.0752 6.04801C25.0784 6.04001 25.0816 6.03201 25.0928 6.03521Z" fill="#010101"/>
<path d="M15.0993 13.376C15.0993 13.376 15.1073 13.3856 15.1105 13.3888C15.1009 13.3888 15.0945 13.3872 15.0993 13.376Z" fill="#010101"/>
<path d="M15.0832 13.328C15.0832 13.328 15.0912 13.3376 15.0944 13.3424C15.0848 13.3424 15.0784 13.3392 15.0832 13.328Z" fill="#010101"/>
<path d="M14.4288 10.7984C14.4288 10.7984 14.4352 10.808 14.4384 10.8128C14.4304 10.8112 14.4208 10.8096 14.4288 10.7984Z" fill="#010101"/>
<path d="M15.9872 15.376C15.9872 15.376 15.9952 15.3856 16 15.3904C15.9904 15.3904 15.984 15.3872 15.9872 15.376Z" fill="#010101"/>
<path d="M24.4705 8.26721C24.4705 8.26721 24.4785 8.28001 24.4817 8.28641C24.4721 8.28321 24.4673 8.27841 24.4705 8.26721Z" fill="#010101"/>
<path d="M15.0673 13.2816C15.0673 13.2816 15.0753 13.2912 15.0785 13.2976C15.0689 13.2976 15.0625 13.2944 15.0673 13.2816Z" fill="#010101"/>
<path d="M14.9887 13.048C14.9887 13.048 14.9951 13.0576 14.9999 13.0624C14.9903 13.0624 14.9839 13.0592 14.9887 13.048Z" fill="#010101"/>
<path d="M24.5312 6.72C24.5312 6.72 24.5248 6.7296 24.5216 6.7344C24.5136 6.7216 24.5216 6.7216 24.5312 6.72Z" fill="#010101"/>
<path d="M24.7056 15.3904C24.7056 15.3904 24.7136 15.4 24.7184 15.4048C24.7072 15.4048 24.7024 15.4 24.7056 15.3904Z" fill="#010101"/>
<path d="M9.68628 17.016C9.68628 17.016 9.69748 17.0224 9.70228 17.0272C9.69108 17.0336 9.68788 17.024 9.68628 17.016Z" fill="#010101"/>
<path d="M14.9216 7.8912L14.9072 7.9072C14.9072 7.896 14.912 7.8912 14.9216 7.8912Z" fill="#010101"/>
<path d="M25.8273 5.66081L25.8113 5.67361C25.8113 5.66401 25.8161 5.65761 25.8273 5.66081Z" fill="#010101"/>
<path d="M26.1552 5.55039L26.1392 5.56319C26.1392 5.55359 26.144 5.54719 26.1552 5.55039Z" fill="#010101"/>
<path d="M11.1584 17.7488C11.1584 17.7488 11.1664 17.7552 11.1712 17.7584C11.1584 17.7648 11.1584 17.7584 11.1584 17.7488Z" fill="#010101"/>
<path d="M11.2063 17.7648C11.2063 17.7648 11.2159 17.7696 11.2175 17.7744C11.2047 17.7824 11.2047 17.7744 11.2063 17.7648Z" fill="#010101"/>
<path d="M24.6273 9.34399C24.6273 9.34399 24.6353 9.35519 24.6401 9.36159C24.6305 9.35999 24.6241 9.35519 24.6273 9.34399Z" fill="#010101"/>
<path d="M24.6432 9.43842C24.6432 9.43842 24.6512 9.44962 24.656 9.45602C24.6464 9.45442 24.64 9.44962 24.6432 9.43842Z" fill="#010101"/>
<path d="M24.5153 6.78079C24.5153 6.78079 24.5089 6.79039 24.5057 6.79679C24.4977 6.78399 24.5057 6.78399 24.5153 6.78079Z" fill="#010101"/>
<path d="M26.2015 5.5344C26.2015 5.5344 26.1919 5.5424 26.1855 5.5472C26.1855 5.5376 26.1903 5.5312 26.2015 5.5344Z" fill="#010101"/>
<path d="M14.8944 12.7344C14.8944 12.7344 14.9024 12.744 14.9072 12.7488C14.8976 12.7488 14.8912 12.744 14.8944 12.7344Z" fill="#010101"/>
<path d="M15.0304 7.81761C15.0304 7.81761 15.0192 7.82401 15.0144 7.82881C15.0176 7.82081 15.0192 7.81281 15.0304 7.81761Z" fill="#010101"/>
<path d="M26.3119 5.50401C26.3119 5.50401 26.3007 5.51201 26.2959 5.51681C26.2959 5.50721 26.3007 5.50081 26.3119 5.50401Z" fill="#010101"/>
<path d="M14.8624 12.6096C14.8624 12.6096 14.8704 12.6192 14.8752 12.624C14.8656 12.624 14.8592 12.6192 14.8624 12.6096Z" fill="#010101"/>
<path d="M14.2369 9.68799L14.2497 9.70399C14.2401 9.70239 14.2337 9.69919 14.2369 9.68799Z" fill="#010101"/>
<path d="M15.0785 7.78721C15.0785 7.78721 15.0673 7.79361 15.0625 7.79681C15.0657 7.78881 15.0673 7.78081 15.0785 7.78721Z" fill="#010101"/>
<path d="M24.5617 6.62561L24.5505 6.64001C24.5457 6.62881 24.5521 6.62561 24.5617 6.62561Z" fill="#010101"/>
<path d="M15.1088 7.76639C15.1088 7.76639 15.0992 7.77759 15.0928 7.78239C15.0928 7.77279 15.0976 7.76639 15.1088 7.76639Z" fill="#010101"/>
<path d="M14.3153 10.2976C14.3153 10.2976 14.3233 10.3088 14.3281 10.3136C14.3185 10.3136 14.3121 10.3088 14.3153 10.2976Z" fill="#010101"/>
<path d="M15.344 5.2352C15.344 5.2352 15.336 5.2464 15.3312 5.2512C15.328 5.24 15.3344 5.2368 15.344 5.2352Z" fill="#010101"/>
<path d="M15.3601 5.1568C15.3601 5.1568 15.3521 5.1664 15.3473 5.1728C15.3441 5.1616 15.3505 5.1584 15.3601 5.1568Z" fill="#010101"/>
<path d="M27.9823 5.12959C27.9823 5.12959 27.9711 5.13759 27.9663 5.14239C27.9663 5.13279 27.9711 5.12639 27.9823 5.12959Z" fill="#010101"/>
<path d="M24.5328 8.7504C24.5328 8.7504 24.5408 8.7616 24.5456 8.768C24.536 8.7648 24.5296 8.7616 24.5328 8.7504Z" fill="#010101"/>
<path d="M14.7999 12.328C14.7999 12.328 14.8079 12.3376 14.8127 12.344C14.8031 12.344 14.7967 12.3392 14.7999 12.328Z" fill="#010101"/>
<path d="M15.3744 5.09439C15.3744 5.09439 15.368 5.10399 15.3648 5.11039C15.3568 5.09759 15.3648 5.09759 15.3744 5.09439Z" fill="#010101"/>
<path d="M14.3312 10.376C14.3312 10.376 14.3392 10.3872 14.344 10.392C14.3344 10.3904 14.328 10.3872 14.3312 10.376Z" fill="#010101"/>
<path d="M15.1553 7.73921C15.1553 7.73921 15.1457 7.74721 15.1409 7.75041C15.1409 7.74081 15.1425 7.73441 15.1553 7.73921Z" fill="#010101"/>
<path d="M15.3903 5.03201C15.3903 5.03201 15.3839 5.04161 15.3807 5.04641C15.3727 5.03361 15.3807 5.03361 15.3903 5.03201Z" fill="#010101"/>
<path d="M14.7679 12.1888C14.7679 12.1888 14.7759 12.2 14.7807 12.2048C14.7711 12.2048 14.7647 12.2 14.7679 12.1888Z" fill="#010101"/>
<path d="M15.2655 7.6768C15.2655 7.6768 15.2559 7.6848 15.2495 7.688C15.2495 7.6784 15.2527 7.672 15.2655 7.6768Z" fill="#010101"/>
<path d="M15.4383 4.87839C15.4383 4.87839 15.4319 4.88639 15.4271 4.89119C15.4207 4.87999 15.4271 4.87839 15.4383 4.87839Z" fill="#010101"/>
<path d="M15.4689 4.7984C15.4689 4.7984 15.4625 4.808 15.4577 4.8128C15.4529 4.8016 15.4593 4.8 15.4689 4.7984Z" fill="#010101"/>
<path d="M12.4193 22.936C12.4193 22.936 12.4113 22.9248 12.4065 22.92C12.4161 22.9216 12.4225 22.9248 12.4193 22.936Z" fill="#010101"/>
<path d="M12.5135 23.0144C12.5135 23.0144 12.5055 23.0032 12.5007 22.9984C12.5103 23 12.5167 23.0032 12.5135 23.0144Z" fill="#010101"/>
<path d="M24.4992 6.84479C24.4992 6.84479 24.4912 6.85439 24.4864 6.86079C24.4832 6.84959 24.4896 6.84639 24.4992 6.84479Z" fill="#010101"/>
<path d="M14.7535 12.1248C14.7535 12.1248 14.7615 12.1344 14.7663 12.1392C14.7567 12.1392 14.7503 12.136 14.7535 12.1248Z" fill="#010101"/>
<path d="M13.2927 23.608C13.2927 23.608 13.2847 23.6032 13.2815 23.6C13.2911 23.5936 13.2959 23.5968 13.2927 23.608Z" fill="#010101"/>
<path d="M27.5137 6.66081C27.5137 6.66081 27.5041 6.66881 27.4993 6.67361C27.4993 6.66401 27.5025 6.65761 27.5137 6.66081Z" fill="#010101"/>
<path d="M14.3631 10.5472C14.3631 10.5472 14.3711 10.5568 14.3759 10.5632C14.3663 10.5632 14.3599 10.5584 14.3631 10.5472Z" fill="#010101"/>
<path d="M24.4831 6.9216C24.4831 6.9216 24.4751 6.9328 24.4703 6.9376C24.4671 6.9264 24.4735 6.9232 24.4831 6.9216Z" fill="#010101"/>
<path d="M14.7247 12.0016C14.7247 12.0016 14.7311 12.0112 14.7343 12.016C14.7263 12.016 14.7167 12.016 14.7247 12.0016Z" fill="#010101"/>
<path d="M15.4848 4.76801C15.4848 4.76801 15.4768 4.77761 15.472 4.78241C15.4688 4.77121 15.4752 4.76801 15.4848 4.76801Z" fill="#010101"/>
<path d="M14.4129 10.736C14.4129 10.736 14.4193 10.7456 14.4225 10.7504C14.4145 10.7488 14.4049 10.7472 14.4129 10.736Z" fill="#010101"/>
<path d="M15.5471 4.61121C15.5471 4.61121 15.5407 4.62081 15.5375 4.62561C15.5311 4.61441 15.5391 4.61281 15.5471 4.61121Z" fill="#010101"/>
<path d="M6.20796 25.0624C6.20796 25.0624 6.21596 25.0704 6.21916 25.0736C6.20796 25.0768 6.20476 25.0736 6.20796 25.0624Z" fill="#010101"/>
<path d="M14.032 25.0896C14.032 25.0896 14.0432 25.0816 14.048 25.0768C14.0464 25.0864 14.0432 25.0928 14.032 25.0896Z" fill="#010101"/>
<path d="M24.4511 7.1088C24.4511 7.1088 24.4431 7.11999 24.4383 7.12479C24.4351 7.11359 24.4415 7.1104 24.4511 7.1088Z" fill="#010101"/>
<path d="M14.2656 8.85919C14.2656 8.85919 14.2576 8.87039 14.2528 8.87519C14.2496 8.86399 14.256 8.86079 14.2656 8.85919Z" fill="#010101"/>
<path d="M14.7103 11.9536C14.7103 11.9536 14.7183 11.96 14.7199 11.9664C14.7119 11.9664 14.7039 11.9664 14.7103 11.9536Z" fill="#010101"/>
<path d="M14.6929 11.8912C14.6929 11.8912 14.7009 11.9024 14.7041 11.9072C14.6961 11.9056 14.6881 11.9024 14.6929 11.8912Z" fill="#010101"/>
<path d="M14.6751 11.8448C14.6751 11.8448 14.6831 11.8544 14.6879 11.8592C14.6783 11.8592 14.6719 11.856 14.6751 11.8448Z" fill="#010101"/>
<path d="M13.6255 25.5616C13.6255 25.5616 13.6143 25.5616 13.6079 25.5616C13.6111 25.5584 13.6159 25.5536 13.6191 25.5504C13.6207 25.5536 13.6239 25.5584 13.6255 25.5616Z" fill="#010101"/>
<path d="M14.3807 10.6112C14.3807 10.6112 14.3871 10.6208 14.3903 10.6272C14.3823 10.6256 14.3727 10.624 14.3807 10.6112Z" fill="#010101"/>
<path d="M15.5632 4.57919C15.5632 4.57919 15.5552 4.58879 15.5504 4.59519C15.5472 4.58399 15.5536 4.58079 15.5632 4.57919Z" fill="#010101"/>
<path d="M15.5792 4.53441C15.5792 4.53441 15.5712 4.54401 15.568 4.54721C15.5632 4.53601 15.5696 4.53281 15.5792 4.53441Z" fill="#010101"/>
<path d="M15.6095 4.45601C15.6095 4.45601 15.6015 4.46401 15.5983 4.46881C15.5935 4.45761 15.5999 4.45441 15.6095 4.45601Z" fill="#010101"/>
<path d="M7.19204 26.2032C7.19204 26.2032 7.20004 26.2112 7.20484 26.2144C7.19364 26.2176 7.19044 26.2144 7.19204 26.2032Z" fill="#010101"/>
<path d="M24.5455 6.672C24.5455 6.672 24.5375 6.6816 24.5343 6.688C24.5295 6.6768 24.5359 6.6736 24.5455 6.672Z" fill="#010101"/>
<path d="M8.29761 26.984C8.29761 26.984 8.30721 26.992 8.31361 26.9968C8.30241 27 8.29921 26.9936 8.29761 26.984Z" fill="#010101"/>
<path d="M8.50073 27.0928L8.51513 27.1056C8.50393 27.1088 8.50073 27.1024 8.50073 27.0928Z" fill="#010101"/>
<path d="M14.616 11.5952C14.616 11.5952 14.6224 11.6048 14.6256 11.6112C14.6176 11.6096 14.608 11.608 14.616 11.5952Z" fill="#010101"/>
<path d="M14.5968 11.5312C14.5968 11.5312 14.6048 11.5408 14.6096 11.5472C14.6 11.5472 14.5936 11.5424 14.5968 11.5312Z" fill="#010101"/>
<path d="M27.3905 6.70401H27.3745C27.3745 6.70401 27.3777 6.69601 27.3793 6.69281C27.3825 6.69601 27.3873 6.70081 27.3905 6.70401Z" fill="#010101"/>
<path d="M16.0975 15.6256C16.0975 15.6256 16.1055 15.6352 16.1103 15.64C16.1007 15.64 16.0943 15.6368 16.0975 15.6256Z" fill="#010101"/>
<path d="M16.0192 15.4528C16.0192 15.4528 16.0272 15.4624 16.0304 15.4672C16.0208 15.4672 16.0144 15.464 16.0192 15.4528Z" fill="#010101"/>
<path d="M14.3905 8.4096C14.3905 8.4096 14.3825 8.4176 14.3777 8.4224C14.3745 8.4112 14.3793 8.408 14.3905 8.4096Z" fill="#010101"/>
<path d="M12.5057 25.272C12.5057 25.272 12.4977 25.2784 12.4929 25.2784C12.4897 25.2784 12.4849 25.2752 12.4817 25.272C12.4849 25.2704 12.4897 25.2656 12.4929 25.2656C12.4961 25.2656 12.5009 25.2688 12.5057 25.272Z" fill="#010101"/>
<path d="M12.5808 25.2528C12.5808 25.2528 12.5824 25.2576 12.5808 25.2592C12.5792 25.2592 12.576 25.2592 12.5744 25.2608C12.5744 25.2592 12.5728 25.256 12.5744 25.2544C12.576 25.2544 12.5792 25.2544 12.5808 25.2528Z" fill="#010101"/>
<path d="M15.0847 18.5616C15.0847 18.5616 15.0767 18.5568 15.0735 18.5536C15.0783 18.552 15.0815 18.5472 15.0863 18.5488C15.0895 18.5488 15.0943 18.5536 15.0975 18.5552C15.0927 18.5568 15.0895 18.56 15.0847 18.5616Z" fill="#010101"/>
<path d="M24.5215 7.3472C24.5535 7.3536 24.5455 7.3776 24.5455 7.3968C24.5455 7.4144 24.5455 7.4368 24.5183 7.4336C24.4975 7.4304 24.4895 7.4112 24.4895 7.3936C24.4895 7.3728 24.4975 7.3536 24.5215 7.3472Z" fill="#010101"/>
<path d="M24.5439 7.5888C24.5439 7.6112 24.5375 7.6224 24.5215 7.6224C24.5007 7.6224 24.4975 7.6048 24.4991 7.5888C24.4991 7.5744 24.5087 7.5648 24.5247 7.568C24.5407 7.5712 24.5423 7.584 24.5423 7.5888H24.5439Z" fill="#010101"/>
</g>
<defs>
<clipPath id="clip0_149_12979">
<rect width="32" height="32" fill="white"/>
</clipPath>
</defs>
</svg>
