<svg width="32" height="32" viewBox="0 0 32 32" fill="none" xmlns="http://www.w3.org/2000/svg">
<g clip-path="url(#clip0_149_12984)">
<path d="M14.4111 19.048C14.4015 19.0272 14.4175 19.0144 14.4255 18.9984C14.4303 18.9936 14.4335 18.9888 14.4383 18.984C14.4399 18.9728 14.4415 18.9632 14.4447 18.952C14.4479 18.9472 14.4511 18.9424 14.4543 18.9376C14.4543 18.9328 14.4559 18.9264 14.4575 18.9216C14.4623 18.9168 14.4655 18.9104 14.4703 18.9056C14.4607 18.8704 14.5007 18.8464 14.4927 18.8112C14.4959 18.8064 14.4991 18.8016 14.5023 18.7968C14.5023 18.7808 14.5039 18.7648 14.5055 18.7488C14.5103 18.744 14.5135 18.7392 14.5183 18.7344C14.5183 18.7184 14.5199 18.7024 14.5215 18.6864C14.5263 18.6816 14.5295 18.6768 14.5343 18.6704C14.5407 18.6176 14.5471 18.5664 14.5519 18.5136C14.5695 18.5104 14.5887 18.5072 14.5679 18.4832C14.5343 18.2736 14.5327 18.0608 14.5151 17.8496C14.5039 17.7168 14.4943 17.5824 14.4735 17.448C14.4383 17.2176 14.4335 16.9824 14.4351 16.7488C14.4351 16.4128 14.4143 16.0784 14.4175 15.7424C14.4175 15.6192 14.3935 15.4944 14.3807 15.3712C14.3999 15.3472 14.3807 15.344 14.3631 15.3408C14.3711 15.2848 14.3343 15.2368 14.3359 15.1824C14.3519 15.16 14.3359 15.1568 14.3199 15.1536C14.3263 15.1184 14.2879 15.0944 14.2991 15.0592C14.2943 15.024 14.2975 14.984 14.2559 14.9664C14.2559 14.936 14.2319 14.9136 14.2207 14.888C14.2207 14.8672 14.2223 14.8448 14.1951 14.84C14.1215 14.7248 14.0431 14.6128 13.9535 14.512C13.8415 14.3872 13.7199 14.2704 13.6127 14.1424C13.5391 14.0544 13.4671 13.968 13.3807 13.8928C13.1439 13.6864 12.9071 13.48 12.6575 13.2912C12.6511 13.2864 12.6479 13.2784 12.6431 13.272C12.6415 13.2672 12.6383 13.264 12.6335 13.264C12.5583 13.1872 12.4703 13.1264 12.3775 13.072C12.3711 13.0688 12.3663 13.0656 12.3599 13.0608C12.2367 13.0112 12.1471 12.9152 12.0431 12.8384C12.0063 12.8112 11.9631 12.7904 11.9407 12.7488C11.9407 12.72 11.9231 12.7152 11.8991 12.7152C11.7951 12.64 11.7039 12.5536 11.6111 12.464C11.5007 12.3568 11.4031 12.2368 11.2927 12.128C11.2255 12.0624 11.1663 11.9808 11.1247 11.8912C11.1087 11.856 11.0847 11.8256 11.0639 11.792C11.0607 11.7872 11.0559 11.784 11.0527 11.7792C11.0527 11.7744 11.0511 11.768 11.0495 11.7632C11.0495 11.7424 11.0511 11.72 11.0223 11.7168C10.9887 11.6576 10.9567 11.6 10.9231 11.5408C10.9199 11.5376 10.9151 11.5328 10.9119 11.5296C10.8991 11.504 10.8767 11.4816 10.8799 11.4496C10.9007 11.4192 10.8799 11.4032 10.8575 11.3888L10.8447 11.3712C10.8447 11.3712 10.8367 11.3616 10.8319 11.3568C10.8255 11.3408 10.8079 11.3296 10.8159 11.3088C10.8287 11.264 10.8079 11.2352 10.7695 11.216C10.7583 11.1536 10.7279 11.0992 10.7039 11.0416C10.7007 11.0192 10.7135 10.9888 10.6767 10.9808C10.6767 10.9696 10.6735 10.96 10.6719 10.9488C10.6687 10.944 10.6655 10.9392 10.6623 10.9344C10.6623 10.9232 10.6607 10.912 10.6591 10.9024C10.6751 10.8672 10.6639 10.8416 10.6303 10.8256C10.6303 10.8144 10.6303 10.8032 10.6287 10.7936C10.6447 10.7744 10.6303 10.7664 10.6143 10.7616C10.5951 10.672 10.5759 10.584 10.5567 10.4944C10.5631 10.472 10.5599 10.456 10.5327 10.4512C10.5327 10.4352 10.5327 10.4192 10.5327 10.4032C10.5551 10.3792 10.5487 10.3632 10.5167 10.3568C10.5167 10.336 10.5167 10.3152 10.5167 10.2944C10.5391 10.2704 10.5343 10.2544 10.5023 10.248C10.5023 10.2272 10.5039 10.2048 10.5055 10.184C10.5231 10.1584 10.5167 10.144 10.4879 10.1392C10.4879 10.0928 10.4863 10.0464 10.4847 9.99839C10.5087 9.97439 10.5055 9.95839 10.4719 9.95199C10.4719 9.75519 10.4639 9.55679 10.4719 9.35999C10.4799 9.17119 10.5023 8.98399 10.5199 8.79519C10.5247 8.79039 10.5279 8.78559 10.5327 8.78079C10.5359 8.77599 10.5391 8.76959 10.5423 8.76479C10.6447 8.75519 10.5903 8.85759 10.6351 8.89119C10.6447 8.87359 10.6559 8.85279 10.6847 8.85919C10.7823 9.06079 10.8863 9.25919 11.0015 9.45119C11.2559 9.87679 11.5295 10.288 11.8831 10.64C12.0255 10.7808 12.1743 10.9136 12.3471 11.0176C12.3487 11.0448 12.3679 11.0464 12.3903 11.0448C12.4767 11.1008 12.5647 11.1536 12.6511 11.2112C12.8543 11.344 13.0831 11.4224 13.3007 11.5248C13.3071 11.5424 13.3167 11.552 13.3311 11.5312C13.3567 11.5456 13.3839 11.5584 13.4095 11.5728C13.4191 11.5968 13.4399 11.5904 13.4575 11.5904C13.5791 11.6464 13.7007 11.7024 13.8223 11.7584C13.8463 11.7696 13.8671 11.7824 13.8943 11.7808C13.8975 11.8112 13.9199 11.808 13.9423 11.808C14.0559 11.8496 14.1711 11.888 14.2815 11.9328C14.4431 12 14.6047 12.0656 14.7631 12.1376C15.0239 12.2576 15.2639 12.408 15.4879 12.5856C15.5039 12.5984 15.5199 12.608 15.5359 12.6192C15.5407 12.624 15.5439 12.6304 15.5487 12.6352C15.9903 13.0256 16.3903 13.448 16.6495 13.9872C16.6959 14.0832 16.7391 14.1824 16.7807 14.28C16.7903 14.3024 16.7951 14.336 16.7839 14.3568C16.7439 14.4288 16.7471 14.5088 16.7311 14.584C16.6847 14.7888 16.5871 14.9712 16.4783 15.1472C16.4559 15.184 16.4527 15.2288 16.4239 15.2608C16.3855 15.264 16.3791 15.2912 16.3807 15.3232C16.2959 15.4688 16.1919 15.6032 16.1263 15.7616C16.1231 15.7664 16.1183 15.7712 16.1151 15.776C16.0895 15.8208 16.0623 15.8656 16.0479 15.9168C16.0271 15.9216 16.0127 15.928 16.0367 15.9488C16.0287 16.0208 15.9631 16.064 15.9471 16.1328C15.9311 16.1984 15.8991 16.2592 15.8751 16.3232C15.8431 16.3472 15.8207 16.376 15.8495 16.4176C15.8399 16.4384 15.8303 16.4592 15.8207 16.48C15.7999 16.4944 15.7967 16.5088 15.8159 16.5264C15.7775 16.6208 15.7743 16.7184 15.7711 16.8192C15.7599 17.1792 15.8063 17.5312 15.9247 17.872C15.9359 17.9024 15.9471 17.9344 15.9599 17.9648C15.9631 17.9696 15.9663 17.9744 15.9695 17.9808C16.1679 18.5136 16.5103 18.936 16.9631 19.272C17.0431 19.3312 17.1311 19.376 17.2255 19.4112C17.2319 19.432 17.2415 19.44 17.2575 19.4176C17.2831 19.432 17.3023 19.4576 17.3359 19.4528C17.3407 19.456 17.3471 19.4608 17.3519 19.464C17.5071 19.5264 17.6655 19.5824 17.8351 19.592C17.8399 19.5968 17.8463 19.6 17.8511 19.6048C18.0319 19.6432 18.2095 19.688 18.3967 19.656C18.4895 19.64 18.5855 19.6352 18.6799 19.6256C18.6975 19.6416 18.7135 19.6384 18.7247 19.6176C19.0495 19.5856 19.3199 19.4208 19.5935 19.264C19.9999 19.0304 20.3263 18.7136 20.5599 18.3056C20.6111 18.216 20.6511 18.1184 20.6959 18.0256C20.6991 18.0208 20.7039 18.0176 20.7071 18.0128C20.8351 17.768 20.9103 17.5088 20.8943 17.2288C20.9183 17.2064 20.9023 17.2016 20.8815 17.1968C20.8847 17.08 20.8319 16.9776 20.7951 16.8704C20.7759 16.8144 20.7471 16.7632 20.7215 16.7088L20.7103 16.6976C20.6591 16.5968 20.6191 16.4896 20.5471 16.4C20.5279 16.376 20.5167 16.3456 20.4863 16.3328C20.4815 16.3296 20.4767 16.3264 20.4703 16.3216C20.3455 16.1712 20.1919 16.0544 20.0255 15.9536C20.0079 15.9424 19.9887 15.9344 19.9711 15.9248C19.9663 15.9216 19.9599 15.9184 19.9551 15.9152C19.9311 15.912 19.9087 15.9024 19.8943 15.8816C19.8911 15.8512 19.8703 15.8512 19.8479 15.8528C19.8271 15.8576 19.8159 15.8416 19.7999 15.8352C19.7951 15.8304 19.7903 15.8272 19.7839 15.8224C19.7551 15.8256 19.7359 15.792 19.7055 15.8C19.6879 15.768 19.6623 15.7568 19.6271 15.7728C19.5087 15.7472 19.3871 15.76 19.2671 15.76C19.2367 15.736 19.2079 15.7264 19.1887 15.7712C19.1247 15.7712 19.0623 15.7824 18.9999 15.8032C18.9935 15.7968 18.9823 15.7888 18.9775 15.8C18.9727 15.8096 18.9775 15.8224 18.9775 15.832C18.9711 15.8384 18.9695 15.8528 18.9551 15.8464C18.9535 15.8368 18.9519 15.8272 18.9503 15.8176C18.9311 15.8224 18.9423 15.8368 18.9391 15.8464C18.9343 15.8464 18.9279 15.8464 18.9231 15.8464C18.9231 15.8368 18.9215 15.8256 18.9103 15.8256C18.8943 15.8256 18.8943 15.84 18.8927 15.8528C18.8719 15.848 18.8543 15.8528 18.8351 15.8656C18.5599 16.0112 18.2991 16.1792 18.1007 16.4224C17.9439 16.6128 17.8175 16.8272 17.7487 17.0672C17.7183 17.1744 17.7359 17.2832 17.7743 17.3856C17.8351 17.5488 17.9295 17.6912 18.0751 17.7936C18.2559 17.9216 18.5295 17.8944 18.6831 17.7312C18.8239 17.5808 18.8367 17.4944 18.7359 17.3488C18.6927 17.2864 18.6415 17.2304 18.5823 17.184C18.3727 17.0208 18.3311 16.8144 18.4863 16.6032C18.6351 16.4 18.8383 16.2832 19.0975 16.2752C19.4255 16.2656 19.6991 16.4 19.9343 16.6096C20.0863 16.7456 20.1839 16.92 20.1807 17.1376C20.1759 17.3264 20.1951 17.5168 20.1567 17.7056C20.0943 18.0192 19.9391 18.2832 19.7151 18.5056C19.5087 18.7104 19.2751 18.8816 18.9999 18.9824C18.7839 19.0624 18.5631 19.128 18.3279 19.1216C18.1967 19.1168 18.0639 19.144 17.9343 19.1328C17.7663 19.1168 17.5919 19.1104 17.4383 19.016C17.3551 18.9648 17.2575 18.9392 17.1775 18.88C17.1567 18.8336 17.1279 18.7952 17.0719 18.792C17.0431 18.7776 17.0223 18.7552 17.0063 18.728C17.0031 18.6928 16.9807 18.6832 16.9503 18.6832C16.7631 18.504 16.6511 18.2752 16.5311 18.0512C16.4207 17.8432 16.3407 17.6176 16.3087 17.3856C16.2879 17.2336 16.2815 17.0752 16.2847 16.92C16.2847 16.8896 16.2847 16.8576 16.2847 16.8272C16.3167 16.7552 16.3071 16.6816 16.2911 16.6096C16.2911 16.5936 16.2911 16.5776 16.2895 16.5616C16.3247 16.5552 16.3183 16.5296 16.3151 16.5056C16.3199 16.3808 16.3695 16.2672 16.4047 16.1504C16.4143 16.1216 16.4223 16.0912 16.4303 16.0624C16.4687 16.056 16.4559 16.0256 16.4591 16.0016C16.4975 15.912 16.5343 15.8224 16.5727 15.7328C16.5759 15.7296 16.5807 15.7248 16.5839 15.7216C16.6223 15.68 16.6335 15.624 16.6639 15.5776C16.6895 15.5728 16.6943 15.5568 16.6895 15.5344C16.7839 15.3744 16.8975 15.2288 17.0143 15.0864C17.0863 14.9968 17.1775 14.9232 17.2591 14.8416C17.2639 14.8368 17.2671 14.832 17.2719 14.8272C17.2879 14.8112 17.3039 14.7952 17.3199 14.7792C17.3247 14.7744 17.3295 14.7712 17.3343 14.7664C17.4143 14.728 17.4767 14.6656 17.5423 14.6064C17.5471 14.6032 17.5503 14.6 17.5551 14.5968C17.5583 14.5824 17.5679 14.5792 17.5807 14.5776C17.6095 14.5744 17.6303 14.5632 17.6319 14.5312C17.6367 14.528 17.6399 14.528 17.6463 14.528C17.6527 14.5248 17.6575 14.5216 17.6639 14.5184C17.6975 14.4976 17.7343 14.4832 17.7727 14.48C17.7951 14.5056 17.8111 14.5024 17.8207 14.4688C17.8943 14.4528 17.9663 14.4368 18.0399 14.4192C18.0623 14.4432 18.0671 14.4256 18.0703 14.4064C18.0751 14.4064 18.0815 14.408 18.0863 14.4096C18.1135 14.424 18.1375 14.4304 18.1471 14.3904C18.3151 14.3648 18.4831 14.3408 18.6511 14.3216C18.8639 14.2976 19.0815 14.2896 19.2959 14.3168C19.3295 14.3216 19.3615 14.3216 19.3951 14.3232C19.4015 14.3232 19.4079 14.3232 19.4143 14.3232C19.5455 14.344 19.6783 14.3616 19.8079 14.3856C20.3311 14.4832 20.7983 14.6992 21.1983 15.0496C21.3359 15.1712 21.4799 15.288 21.5871 15.4416C21.5807 15.4784 21.5919 15.4992 21.6319 15.4944C21.7583 15.6272 21.8863 15.7616 22.0127 15.8944C22.2239 16.1152 22.4335 16.3376 22.6447 16.5584C22.7871 16.7072 22.9391 16.8496 23.0735 17.0064C23.1983 17.1552 23.3455 17.28 23.4783 17.4192C23.5935 17.5408 23.7295 17.6432 23.8559 17.7536C23.8719 17.768 23.8927 17.7792 23.9103 17.7904C23.9135 17.8256 23.9407 17.8208 23.9647 17.8192C24.0143 17.9024 24.1039 17.9408 24.1775 17.9984C24.1791 18.0032 24.1823 18.0064 24.1887 18.008C24.2991 18.0928 24.4111 18.1776 24.5215 18.264C24.5247 18.2672 24.5295 18.2704 24.5327 18.2736C24.5471 18.2992 24.5903 18.288 24.5983 18.3216C24.6031 18.3568 24.6287 18.3504 24.6527 18.3504C24.6639 18.3744 24.6847 18.3808 24.7071 18.3888C24.7071 18.4112 24.7071 18.4304 24.7375 18.4304C24.8063 18.4592 24.8607 18.5088 24.9119 18.5616C24.9135 18.5664 24.9167 18.5696 24.9215 18.5696C24.9263 18.5888 24.9455 18.584 24.9583 18.5904C24.9631 18.6144 24.9711 18.6256 24.9903 18.6C25.0351 18.6704 25.1071 18.7104 25.1775 18.7504C25.2463 18.7904 25.3055 18.8448 25.3823 18.872L25.3999 18.8816C25.4719 18.9248 25.5423 18.9712 25.6175 19.0112C25.8399 19.1248 26.0479 19.2688 26.2927 19.3328C26.3327 19.3424 26.3711 19.3568 26.4127 19.3536C26.4159 19.3728 26.4207 19.3904 26.4431 19.368C26.4847 19.3824 26.5263 19.3984 26.5679 19.4128C26.5727 19.4544 26.5791 19.4976 26.5839 19.5392C26.3247 19.6896 26.0479 19.7936 25.7535 19.8496C25.7167 19.856 25.6815 19.8688 25.6447 19.8784C25.6207 19.856 25.6047 19.8608 25.5983 19.8928C25.3967 19.9216 25.1935 19.9136 24.9903 19.9136C24.9807 19.896 24.9695 19.8928 24.9583 19.9104C24.9167 19.9104 24.8751 19.9088 24.8335 19.9072C24.8303 19.8864 24.8239 19.8704 24.8015 19.8944C24.7711 19.8944 24.7391 19.8928 24.7087 19.8912C24.6927 19.8464 24.6623 19.8592 24.6303 19.872C24.6255 19.872 24.6191 19.8736 24.6143 19.8752C24.6111 19.856 24.6047 19.8384 24.5823 19.8624C24.5615 19.8624 24.5407 19.8608 24.5199 19.8592C24.4991 19.816 24.4639 19.8176 24.4255 19.832C24.3903 19.84 24.3631 19.816 24.3327 19.8112C24.3295 19.792 24.3231 19.776 24.3023 19.7968C24.2911 19.7968 24.2815 19.7952 24.2703 19.7936C24.2655 19.7728 24.2591 19.76 24.2399 19.7824C24.2351 19.7824 24.2287 19.7824 24.2239 19.7808C24.2207 19.7568 24.2047 19.7504 24.1823 19.7552C24.0879 19.7376 24.0015 19.6976 23.9135 19.664C23.8879 19.6544 23.8607 19.648 23.8335 19.64C23.8111 19.5936 23.7759 19.5792 23.7279 19.5936C23.6223 19.536 23.5167 19.4784 23.4111 19.4208C23.3647 19.3952 23.3183 19.3712 23.2719 19.3456C23.2703 19.3136 23.2463 19.3136 23.2239 19.3152C23.1455 19.2672 23.0687 19.2176 22.9903 19.1696C22.9839 19.1664 22.9791 19.1616 22.9727 19.1584C22.8063 19.0528 22.6399 18.9472 22.4735 18.8416C22.4687 18.8368 22.4639 18.8336 22.4591 18.8288C22.3967 18.8016 22.3343 18.7744 22.2703 18.7488C22.2687 18.72 22.2479 18.7184 22.2255 18.72C22.1263 18.6896 22.0335 18.632 21.9263 18.624C21.9215 18.6192 21.9151 18.616 21.9103 18.6112C21.8943 18.6112 21.8799 18.6096 21.8639 18.608C21.8591 18.6032 21.8527 18.6 21.8479 18.5952C21.7615 18.608 21.6815 18.5648 21.5903 18.5888C21.4623 18.6224 21.3631 18.6992 21.2639 18.776C21.0783 18.92 20.9183 19.0896 20.7967 19.2928C20.7183 19.424 20.6703 19.5696 20.6799 19.72C20.6911 19.8768 20.7439 20.0272 20.8287 20.1632C20.9647 20.3808 21.1487 20.5424 21.3775 20.6576C21.6287 20.784 21.8959 20.8528 22.1759 20.8736C22.2111 20.8768 22.2495 20.8624 22.2863 20.8512C22.3167 20.8416 22.3343 20.8496 22.3487 20.8752C22.3487 20.8864 22.3487 20.896 22.3487 20.9072C22.1375 21.152 21.8799 21.3312 21.5727 21.432C21.3471 21.5056 21.1151 21.5584 20.8783 21.5872C20.8559 21.5776 20.8383 21.5808 20.8335 21.608C20.7967 21.608 20.7615 21.6096 20.7247 21.6112C20.7023 21.5872 20.6975 21.6032 20.6927 21.624C20.6559 21.624 20.6207 21.6256 20.5839 21.6272C20.5615 21.6032 20.5567 21.6192 20.5519 21.64C20.3231 21.6432 20.0991 21.6848 19.8703 21.6928C19.6191 21.7008 19.3695 21.7104 19.1183 21.7104C18.9663 21.7104 18.8143 21.7232 18.6607 21.7216C18.4719 21.7216 18.2847 21.696 18.0959 21.6752C17.9471 21.6592 17.7967 21.6448 17.6479 21.6256C17.4271 21.5984 17.2079 21.5776 16.9871 21.5616C16.6943 21.5408 16.4015 21.5504 16.1103 21.528C15.8623 21.5088 15.6143 21.5088 15.3663 21.504C15.3023 21.48 15.2383 21.4608 15.1775 21.5136C14.9647 21.5024 14.7583 21.5504 14.5519 21.5872C14.3375 21.6272 14.1391 21.7168 13.9487 21.8256C13.6991 21.968 13.4367 22.088 13.2095 22.2672C13.0527 22.3904 12.9023 22.5216 12.7743 22.6768C12.6335 22.8448 12.4783 22.9968 12.3023 23.1264C12.2495 23.16 12.1727 23.1632 12.1471 23.2368C12.0319 23.2752 11.9103 23.2704 11.7919 23.2704C11.6351 23.2704 11.4767 23.2832 11.3199 23.2528C11.2559 23.2416 11.2335 23.2176 11.2431 23.1568C11.2623 23.1568 11.2719 23.1456 11.2719 23.1264C11.2927 23.0944 11.3183 23.0656 11.3535 23.0496C11.3727 23.0496 11.3823 23.0368 11.3823 23.0176C11.5039 22.8992 11.6415 22.7936 11.7423 22.6528C11.7999 22.5728 11.8815 22.5184 11.9503 22.4512C12.0303 22.3712 12.0863 22.2704 12.1775 22.2032C12.1887 22.2032 12.2047 22.2032 12.2031 22.1872C12.2031 22.1824 12.1887 22.1776 12.1823 22.1728C12.2719 22.1184 12.3151 22.016 12.3983 21.9536C12.4223 21.9536 12.4287 21.9392 12.4319 21.92C12.4415 21.896 12.4527 21.8736 12.4767 21.8608C12.5039 21.8608 12.5087 21.8432 12.5103 21.8224C12.5103 21.8112 12.5151 21.8032 12.5263 21.8C12.5503 21.8 12.5551 21.784 12.5567 21.7648C12.5631 21.7568 12.5679 21.7472 12.5743 21.7392C12.5967 21.7392 12.6015 21.7216 12.6031 21.704C12.6095 21.6944 12.6159 21.6864 12.6207 21.6768C12.6431 21.6768 12.6479 21.6592 12.6495 21.64C12.6623 21.6128 12.6719 21.5824 12.7023 21.568C12.7343 21.56 12.7439 21.5376 12.7423 21.5088C12.7519 21.4816 12.7631 21.456 12.7887 21.4416C12.8287 21.4256 12.8479 21.3952 12.8511 21.3536C12.8671 21.3152 12.8847 21.2784 12.9215 21.256C12.9535 21.248 12.9615 21.224 12.9599 21.1952C12.9711 21.1696 12.9823 21.1456 13.0079 21.1296C13.0367 21.128 13.0383 21.1056 13.0383 21.0848C13.0495 21.0688 13.0495 21.0416 13.0767 21.0368C13.1071 21.0288 13.1183 21.008 13.1167 20.9792C13.1327 20.9408 13.1503 20.904 13.1871 20.8816C13.2175 20.8736 13.2255 20.8496 13.2255 20.8224C13.2303 20.816 13.2351 20.8096 13.2399 20.8016C13.2671 20.8016 13.2719 20.7824 13.2719 20.76C13.2799 20.7328 13.2927 20.7072 13.3183 20.6912C13.3599 20.6752 13.3775 20.6432 13.3807 20.6016C13.3999 20.5664 13.4143 20.5264 13.4527 20.5056C13.4847 20.496 13.4911 20.472 13.4895 20.4432C13.5311 20.3712 13.5743 20.3008 13.6303 20.2384C13.6591 20.2368 13.6623 20.216 13.6623 20.1952V20.192C13.6927 20.1888 13.6927 20.168 13.6927 20.1472C13.7055 20.1232 13.7135 20.096 13.7407 20.0816C13.7679 20.0816 13.7727 20.0624 13.7727 20.04C13.7983 19.9776 13.8383 19.9264 13.8831 19.8784C13.9103 19.8768 13.9135 19.8576 13.9135 19.8368C13.9407 19.7776 13.9775 19.7232 14.0223 19.6752C14.0495 19.6752 14.0543 19.6544 14.0527 19.632C14.1071 19.5312 14.1727 19.4384 14.2415 19.3472C14.2703 19.344 14.2719 19.3232 14.2703 19.3008C14.2703 19.288 14.2671 19.272 14.2879 19.2688C14.3183 19.2672 14.3183 19.2448 14.3183 19.2224C14.3247 19.1856 14.3407 19.1536 14.3711 19.1296C14.4063 19.1088 14.4255 19.0784 14.4175 19.0368L14.4111 19.048ZM13.5791 13.9664C13.5791 13.9664 13.5695 13.9568 13.5631 13.9504C13.5583 13.9456 13.5519 13.9392 13.5471 13.9344C13.5423 13.9296 13.5375 13.9248 13.5311 13.9184C13.5263 13.9136 13.5199 13.9072 13.5151 13.9024C13.5103 13.8976 13.5055 13.8928 13.4991 13.8864L13.4831 13.8704C13.4831 13.8704 13.4735 13.8592 13.4671 13.8544L13.4511 13.8384C13.4511 13.8384 13.4415 13.8272 13.4351 13.8224C13.4319 13.8208 13.4287 13.8192 13.4255 13.816C13.4271 13.8192 13.4287 13.8224 13.4319 13.8256C13.4367 13.8304 13.4431 13.8368 13.4479 13.8416C13.4527 13.8464 13.4591 13.8512 13.4639 13.8576C13.4687 13.8624 13.4751 13.8672 13.4799 13.8736C13.4847 13.8784 13.4911 13.8832 13.4959 13.8896C13.5007 13.8944 13.5055 13.8992 13.5119 13.9056C13.5167 13.9104 13.5231 13.9168 13.5279 13.9216C13.5327 13.9264 13.5375 13.9312 13.5439 13.9376C13.5487 13.9424 13.5551 13.9488 13.5599 13.9536L13.5759 13.9696C13.5759 13.9696 13.5855 13.9808 13.5919 13.9856C13.5967 13.9904 13.6015 13.9968 13.6079 14.0016C13.6095 14.0176 13.6127 14.032 13.6303 14.0384C13.6303 14.0384 13.6351 14.0352 13.6367 14.0336C13.6367 14.0144 13.6239 14.008 13.6111 14C13.6063 13.9952 13.5999 13.9904 13.5951 13.984C13.5903 13.9792 13.5839 13.9744 13.5791 13.968V13.9664ZM12.1711 12.8288C12.1711 12.8288 12.1775 12.832 12.1791 12.8336C12.1775 12.8304 12.1759 12.8272 12.1743 12.8256C12.1615 12.7968 12.1631 12.7632 12.1391 12.736C12.1055 12.7872 12.1183 12.816 12.1711 12.8288ZM13.9903 21.6944C13.9903 21.6944 13.9887 21.6896 13.9871 21.6896C13.9855 21.6896 13.9823 21.6896 13.9807 21.6896C13.9807 21.6928 13.9839 21.6944 13.9855 21.6976C13.9871 21.6976 13.9887 21.6944 13.9903 21.6944Z" fill="black"/>
<path d="M4.14084 26.9488C4.15204 26.9248 4.16484 26.9024 4.18724 26.8896C4.20964 26.8896 4.22084 26.8768 4.21764 26.8544C4.30564 26.736 4.39844 26.6224 4.49924 26.5136C4.52324 26.5136 4.53284 26.4992 4.52964 26.4768C4.53604 26.4608 4.54244 26.4432 4.56164 26.4368C4.58564 26.4368 4.59524 26.424 4.59204 26.4016C4.60324 26.3776 4.61604 26.3568 4.64004 26.344C4.66404 26.344 4.67364 26.3312 4.67044 26.3088C4.67684 26.2912 4.68324 26.2736 4.70244 26.2672C4.72484 26.2672 4.73444 26.256 4.73284 26.2336C4.74404 26.2096 4.75524 26.1872 4.77924 26.1744C4.80164 26.1744 4.81284 26.1632 4.80964 26.1408C4.82084 26.1168 4.83204 26.0944 4.85604 26.0816C4.87844 26.0816 4.88964 26.0688 4.88644 26.0464C4.89764 26.0224 4.91044 26 4.93284 25.9872C4.95684 25.9872 4.96644 25.9744 4.96324 25.952C5.01924 25.8704 5.08484 25.7952 5.15204 25.7216C5.17444 25.7216 5.18404 25.7088 5.18244 25.6864C5.19364 25.664 5.20644 25.64 5.23044 25.6272C5.25284 25.6272 5.26404 25.6144 5.26084 25.592C5.27204 25.568 5.28324 25.5456 5.30724 25.5328C5.32964 25.5328 5.34084 25.52 5.33764 25.4976C5.34564 25.472 5.36164 25.4528 5.38404 25.4384C5.40804 25.4384 5.41764 25.4256 5.41444 25.4016C5.42084 25.384 5.42724 25.3664 5.44644 25.36C5.46884 25.36 5.48004 25.3488 5.47684 25.3264C5.48804 25.3024 5.50084 25.28 5.52324 25.2672C5.54564 25.2672 5.55684 25.2544 5.55364 25.232C5.56324 25.2064 5.57604 25.1856 5.60004 25.1728C5.62244 25.1728 5.63364 25.16 5.63044 25.1376C5.63684 25.12 5.64164 25.1024 5.66244 25.0944C5.68484 25.0944 5.69444 25.0832 5.69284 25.0608C5.75364 24.9728 5.82404 24.8912 5.89604 24.8128C5.91844 24.8128 5.92964 24.8 5.92644 24.7776C5.93764 24.7536 5.95044 24.7328 5.97444 24.7184C5.99844 24.7184 6.00804 24.7056 6.00484 24.6832C6.01604 24.6608 6.02884 24.6384 6.05284 24.6256C6.07684 24.6256 6.08644 24.6128 6.08324 24.5904C6.08964 24.5728 6.09604 24.5552 6.11524 24.5488C6.13764 24.5488 6.14724 24.5376 6.14564 24.5152C6.15684 24.4912 6.16964 24.4688 6.19204 24.456C6.21444 24.456 6.22404 24.4432 6.22244 24.4208C6.23364 24.3968 6.24484 24.3744 6.26884 24.3616C6.29124 24.3616 6.30244 24.3488 6.29924 24.3264C6.31044 24.3024 6.32164 24.28 6.34564 24.2672C6.36964 24.2672 6.37924 24.2544 6.37604 24.232C6.38244 24.2144 6.38884 24.1968 6.40804 24.1904C6.43044 24.1904 6.44004 24.1792 6.43844 24.1568C6.44964 24.1328 6.46244 24.1104 6.48484 24.0976C6.50724 24.0976 6.51844 24.0848 6.51524 24.0624C6.59684 23.9488 6.68804 23.8416 6.78084 23.7376C6.80324 23.7376 6.81444 23.7248 6.81124 23.7024C6.82084 23.6784 6.83524 23.656 6.85764 23.6432C6.88164 23.6432 6.89124 23.6304 6.88804 23.608C6.89924 23.584 6.91204 23.5632 6.93604 23.5504C6.96004 23.5504 6.96964 23.5376 6.96644 23.5152C6.97284 23.4976 6.97924 23.48 6.99844 23.4736C7.02084 23.4736 7.03044 23.4624 7.02884 23.44C7.04004 23.416 7.05124 23.3936 7.07524 23.3808C7.09764 23.3808 7.10884 23.368 7.10564 23.3456C7.11684 23.3216 7.12804 23.2992 7.15204 23.2864C7.17444 23.2864 7.18564 23.2736 7.18244 23.2512C7.19204 23.2272 7.20484 23.2048 7.22884 23.192C7.25284 23.192 7.26244 23.1792 7.25924 23.1568C7.26724 23.1312 7.28324 23.112 7.30564 23.0992C7.32964 23.0992 7.33924 23.0864 7.33604 23.0624C7.34244 23.0448 7.34884 23.0272 7.36804 23.0208C7.39044 23.0208 7.40164 23.008 7.39844 22.9856C7.40964 22.9616 7.42244 22.9392 7.44644 22.9264C7.46884 22.9264 7.48004 22.9136 7.47684 22.8912C7.55844 22.7776 7.64964 22.6704 7.74244 22.5664C7.76484 22.5664 7.77604 22.5536 7.77284 22.5312C7.78244 22.5072 7.79684 22.4864 7.81924 22.472C7.84324 22.472 7.85284 22.4592 7.84964 22.4368C7.85764 22.4112 7.87204 22.392 7.89764 22.3792C7.92164 22.3792 7.93124 22.3664 7.92804 22.344C7.93444 22.3264 7.93924 22.3088 7.96004 22.3024C7.98244 22.3024 7.99204 22.2896 7.99044 22.2688C8.00164 22.2448 8.01444 22.2224 8.03684 22.2096C8.05924 22.2096 8.07044 22.1968 8.06724 22.1744C8.07844 22.1504 8.08964 22.128 8.11364 22.1152C8.13604 22.1152 8.14724 22.1024 8.14404 22.08C8.15364 22.056 8.16804 22.0352 8.19044 22.0208C8.21444 22.0208 8.22404 22.008 8.22084 21.9856C8.25124 21.936 8.28964 21.8912 8.33124 21.8496C8.35364 21.8496 8.36484 21.8368 8.36164 21.8144C8.37284 21.7904 8.38564 21.768 8.40804 21.7552C8.43044 21.7552 8.44164 21.7424 8.43844 21.72C8.47364 21.664 8.51524 21.6128 8.56324 21.568C8.58724 21.568 8.59684 21.5552 8.59364 21.5312C8.60164 21.5056 8.61764 21.4864 8.64164 21.4736C8.66564 21.4736 8.67524 21.4608 8.67204 21.4368C8.67844 21.4192 8.68484 21.4016 8.70404 21.3952C8.72644 21.3952 8.73764 21.3824 8.73444 21.36C8.74564 21.336 8.75844 21.3152 8.78244 21.3008C8.80484 21.3008 8.81604 21.288 8.81284 21.2656C8.81924 21.248 8.82564 21.2304 8.84484 21.2224C8.86724 21.2224 8.87684 21.2112 8.87524 21.1888C8.88644 21.1648 8.89924 21.1424 8.92164 21.1296C8.94404 21.1296 8.95364 21.1184 8.95204 21.096C8.96324 21.072 8.97444 21.0496 8.99844 21.0368C9.02084 21.0368 9.03044 21.0256 9.02884 21.0032C9.06404 20.9472 9.10724 20.896 9.15364 20.8496C9.17604 20.8496 9.18724 20.8368 9.18404 20.8144C9.21444 20.7632 9.25284 20.72 9.29444 20.6784C9.31684 20.6784 9.32644 20.6672 9.32484 20.6448C9.33604 20.6208 9.34884 20.5984 9.37124 20.5856C9.39364 20.5856 9.40324 20.5728 9.40164 20.552C9.41284 20.528 9.42404 20.5056 9.44804 20.4928C9.47044 20.4928 9.48164 20.48 9.47844 20.4576C9.48804 20.4336 9.50084 20.4112 9.52484 20.3984C9.54724 20.3984 9.55844 20.3856 9.55524 20.3632C9.56644 20.3392 9.57764 20.3168 9.60164 20.304C9.62564 20.304 9.63524 20.2912 9.63204 20.2688C9.63844 20.2512 9.64484 20.2336 9.66404 20.2272C9.68644 20.2272 9.69604 20.216 9.69444 20.1936C9.70564 20.1696 9.71844 20.1472 9.74084 20.1344C9.76324 20.1344 9.77444 20.1232 9.77124 20.1008C9.78244 20.0784 9.79524 20.0544 9.81764 20.0416C9.84004 20.0416 9.85124 20.0288 9.84804 20.0064C9.93444 19.888 10.0288 19.7744 10.1296 19.6656C10.1536 19.6656 10.1632 19.6528 10.16 19.6288C10.1664 19.6112 10.1728 19.5936 10.192 19.5872C10.2144 19.5872 10.224 19.576 10.2224 19.5536C10.2336 19.5296 10.2464 19.5072 10.2688 19.4944C10.2912 19.4944 10.3008 19.4832 10.2992 19.4608C10.3104 19.4368 10.3232 19.4144 10.3456 19.4016C10.368 19.4016 10.3792 19.3888 10.376 19.3664C10.3872 19.3424 10.4 19.32 10.4224 19.3072C10.4448 19.3072 10.456 19.2944 10.4528 19.272C10.4624 19.248 10.4768 19.2256 10.4992 19.2128C10.5216 19.2128 10.5328 19.2 10.5296 19.1776C10.5408 19.1536 10.5536 19.1312 10.576 19.1184C10.5984 19.1184 10.6096 19.1056 10.6064 19.0832C10.6176 19.0608 10.6304 19.0384 10.6528 19.024C10.6768 19.024 10.6864 19.0112 10.6832 18.9888C10.816 18.8128 10.9616 18.6448 11.1056 18.4768C11.128 18.4768 11.1376 18.464 11.136 18.4416C11.1472 18.4176 11.16 18.3952 11.184 18.3824C11.2064 18.3824 11.216 18.3696 11.2144 18.3488C11.2256 18.3248 11.2368 18.3024 11.2608 18.2896C11.2832 18.2896 11.2928 18.2784 11.2912 18.256C11.3024 18.232 11.3136 18.2096 11.3376 18.1968C11.36 18.1968 11.3712 18.1856 11.368 18.1632C11.3776 18.1392 11.392 18.1168 11.4144 18.104C11.4368 18.104 11.448 18.0912 11.4448 18.0688C11.456 18.0448 11.4688 18.024 11.4912 18.0096C11.5136 18.0096 11.5248 17.9968 11.5216 17.9744C11.5328 17.952 11.5456 17.9296 11.568 17.9152C11.5904 17.9152 11.6016 17.9024 11.5984 17.88C11.6864 17.7616 11.7808 17.6496 11.88 17.5392C11.9024 17.5392 11.9136 17.5264 11.9104 17.504C11.9216 17.48 11.9344 17.4592 11.9584 17.4448C11.9808 17.4448 11.992 17.432 11.9888 17.4096C12 17.3856 12.0128 17.3648 12.0368 17.3504C12.0592 17.3504 12.0688 17.3376 12.0672 17.3152C12.0784 17.2928 12.0912 17.2688 12.1152 17.256C12.1376 17.256 12.1472 17.2448 12.1456 17.2224C12.1616 17.1936 12.1776 17.1648 12.208 17.1472C12.2304 17.1472 12.2416 17.136 12.24 17.1136C12.3056 17.0192 12.3824 16.9344 12.4592 16.8512C12.5056 16.8992 12.5376 16.8896 12.5552 16.8272C12.5904 16.8416 12.608 16.88 12.6464 16.888C12.6496 16.8912 12.6528 16.8944 12.6576 16.8992C12.7472 16.9808 12.8368 17.0624 12.92 17.1488C13.1248 17.3616 13.2608 17.6128 13.368 17.8864C13.4304 18.0448 13.4352 18.2096 13.4592 18.3712C13.4896 18.576 13.5168 18.7808 13.5456 18.9856C13.5584 19.0768 13.5712 19.168 13.584 19.2592C13.5872 19.2848 13.5744 19.3024 13.5568 19.32C13.5248 19.3504 13.4976 19.3856 13.4848 19.4272C13.464 19.4272 13.4576 19.44 13.4592 19.4576C13.4112 19.52 13.3632 19.5824 13.3152 19.6448L13.304 19.6576C13.2672 19.7056 13.2288 19.7536 13.192 19.8016L13.1808 19.8192C13.1808 19.8192 13.176 19.8304 13.1744 19.8352C13.1568 19.8352 13.1504 19.8448 13.1488 19.8592C13.1248 19.8672 13.1408 19.9072 13.1088 19.9104C13.1056 19.9136 13.1024 19.9168 13.1024 19.92C13.0672 19.928 13.0816 19.9744 13.0512 19.9872C13.048 19.992 13.0432 19.9952 13.04 20C13.0144 20.008 13.032 20.048 13 20.0496C12.9968 20.0528 12.9936 20.056 12.992 20.0608C12.9568 20.0848 12.944 20.1248 12.9264 20.16C12.9216 20.1648 12.9184 20.1696 12.9136 20.1744C12.9056 20.1808 12.8976 20.1856 12.8912 20.192C12.8864 20.1936 12.8848 20.1968 12.8832 20.2016C12.8496 20.2448 12.816 20.288 12.7824 20.3312C12.7776 20.3344 12.776 20.3376 12.7744 20.3424C12.7552 20.3472 12.76 20.3648 12.7552 20.3792C12.7504 20.384 12.7472 20.3888 12.7424 20.3952C12.736 20.4 12.7296 20.4064 12.7232 20.4112L12.712 20.4224C12.688 20.4304 12.7024 20.4704 12.672 20.4736C12.6688 20.4768 12.6672 20.48 12.6656 20.4832C12.6304 20.5088 12.6176 20.5472 12.6 20.5824C12.5952 20.5888 12.592 20.5936 12.5872 20.6H12.5808C12.5648 20.6 12.5568 20.608 12.5552 20.6224C12.536 20.6288 12.5408 20.6464 12.5376 20.6608C12.5328 20.6672 12.5296 20.6752 12.5248 20.6816C12.496 20.7248 12.4384 20.744 12.4288 20.8016C12.424 20.808 12.4208 20.8144 12.416 20.8208H12.4112C12.3936 20.8176 12.3856 20.8272 12.384 20.8432C12.3776 20.8512 12.3712 20.8576 12.3648 20.8656C12.3616 20.872 12.3568 20.8768 12.3536 20.8832C12.328 20.9344 12.2928 20.9792 12.256 21.0224C12.2528 21.0288 12.2512 21.0368 12.248 21.0432C12.2256 21.0352 12.2128 21.0432 12.2112 21.0688C12.2016 21.1088 12.144 21.1152 12.1456 21.1632C12.1408 21.1696 12.1376 21.176 12.1328 21.1824C12.1168 21.2016 12.0992 21.2224 12.0832 21.2416C12.0784 21.2464 12.0752 21.2512 12.0704 21.256C12.0256 21.3072 11.9824 21.36 11.9376 21.4112C11.9344 21.4144 11.9312 21.4176 11.9312 21.4224C11.8464 21.528 11.7616 21.6352 11.6784 21.7408L11.6656 21.7584C11.6048 21.8352 11.544 21.912 11.4832 21.9904C11.4816 21.9936 11.48 21.9968 11.4784 22C11.4304 22.0592 11.3824 22.1184 11.3344 22.1792C11.3296 22.1856 11.3264 22.192 11.3216 22.1968C11.2976 22.2272 11.264 22.2496 11.2512 22.288C11.2464 22.2896 11.2448 22.2928 11.2432 22.2976C11.0448 22.5104 10.888 22.7552 10.8128 23.032C10.7296 23.3344 10.7136 23.6496 10.7952 23.9616C10.816 24.04 10.808 24.1088 10.7568 24.1792C10.2656 24.84 9.76004 25.4928 9.25764 26.1456C8.27044 27.4272 7.28004 28.7072 6.29284 29.9888C6.20804 30.0976 6.12644 30.208 6.04484 30.32C6.02084 30.3536 5.99524 30.3648 5.95524 30.3664C5.28324 30.3712 4.61124 30.3728 3.94084 30.3872C3.48804 30.3968 3.03524 30.3872 2.58404 30.4048C2.15684 30.4208 1.73124 30.4032 1.30404 30.424C1.28324 30.424 1.26404 30.4256 1.25284 30.4016C1.24004 30.3744 1.25764 30.3568 1.27204 30.3392C1.38404 30.192 1.50084 30.0496 1.62084 29.9104C1.82564 29.672 2.02724 29.4304 2.23044 29.1888C2.23844 29.1792 2.24964 29.1728 2.25924 29.1648C2.28324 29.1648 2.29284 29.152 2.28964 29.1296C2.29604 29.112 2.30084 29.0944 2.32164 29.0864C2.34404 29.0864 2.35364 29.0752 2.35204 29.0528C2.36324 29.0288 2.37604 29.0064 2.39844 28.9936C2.42084 28.9936 2.43044 28.9824 2.42884 28.96C2.48964 28.872 2.56004 28.7904 2.63204 28.712C2.65444 28.712 2.66404 28.6992 2.66244 28.6768C2.67364 28.6528 2.68484 28.6304 2.70884 28.6176C2.73124 28.6176 2.74244 28.6048 2.73924 28.5824C2.75044 28.5584 2.76324 28.536 2.78724 28.5232C2.80964 28.5232 2.82084 28.5104 2.81764 28.488C2.82724 28.4624 2.84004 28.4416 2.86564 28.4288C2.88804 28.4288 2.89924 28.416 2.89604 28.3936C2.90244 28.376 2.90724 28.3584 2.92804 28.3504C2.95044 28.3504 2.96004 28.3392 2.95844 28.3168C2.96964 28.2928 2.98084 28.2704 3.00484 28.256C3.02724 28.256 3.03684 28.2448 3.03524 28.2224C3.04644 28.1984 3.05764 28.176 3.08164 28.1632C3.10404 28.1632 3.11524 28.152 3.11204 28.128C3.12324 28.104 3.13604 28.0816 3.15844 28.0688C3.18084 28.0688 3.19204 28.056 3.18884 28.0336C3.27044 27.92 3.36164 27.8144 3.45444 27.7104C3.47684 27.7104 3.48804 27.6976 3.48484 27.6752C3.49444 27.6512 3.50884 27.6288 3.53124 27.616C3.55524 27.616 3.56484 27.6032 3.56164 27.5808C3.56964 27.5552 3.58404 27.536 3.60964 27.5232C3.63364 27.5232 3.64324 27.5104 3.64004 27.488C3.64644 27.4704 3.65284 27.4528 3.67204 27.4464C3.69444 27.4464 3.70404 27.4336 3.70244 27.4128C3.71364 27.3888 3.72484 27.3664 3.74884 27.3536C3.77124 27.3536 3.78244 27.3408 3.77924 27.3184C3.79044 27.2944 3.80164 27.272 3.82564 27.2592C3.84804 27.2592 3.85924 27.2464 3.85604 27.224C3.91204 27.1408 3.97764 27.0672 4.04324 26.9936C4.06564 26.9936 4.07684 26.9824 4.07364 26.9584L4.14084 26.9488ZM5.98884 30.1552C5.99844 30.152 6.01124 30.1536 6.00804 30.1392C6.00484 30.128 5.99364 30.1264 5.98404 30.128C5.97444 30.128 5.96164 30.1296 5.96484 30.144C5.96804 30.1552 5.97924 30.1568 5.98884 30.1568V30.1552Z" fill="black"/>
<path d="M21.8608 7.21278C21.9072 7.13278 21.9696 7.06398 22.0208 6.98878C22.1136 6.85598 22.224 6.73758 22.3152 6.60318C22.3664 6.52798 22.432 6.45598 22.4912 6.38398C22.624 6.21918 22.7584 6.05438 22.8848 5.88638C23.0256 5.70078 23.168 5.51678 23.304 5.32638C23.4 5.19358 23.52 5.07357 23.6224 4.94397C23.6848 4.86557 23.7408 4.78237 23.8 4.70237C23.816 4.70237 23.8256 4.69437 23.8272 4.67837C23.9344 4.53917 24.0416 4.39997 24.1488 4.26237C24.1616 4.24637 24.1776 4.23357 24.2 4.23517C24.2048 4.23037 24.2096 4.22717 24.216 4.22237C24.4384 4.21757 24.6608 4.22078 24.8848 4.23198C25.0528 4.24158 25.2208 4.24637 25.3888 4.25277C25.4192 4.30717 25.4512 4.30717 25.4832 4.25277C25.6144 4.24157 25.7424 4.27677 25.8736 4.26877C25.8752 4.28157 25.8784 4.29277 25.8928 4.29437C25.912 4.29597 25.9168 4.28317 25.92 4.26877C26.1536 4.27357 26.3856 4.27997 26.6192 4.27997C26.7008 4.27997 26.6928 4.34397 26.6992 4.38717C26.7296 4.61117 26.752 4.83677 26.7808 5.06077C26.8096 5.28477 26.8432 5.50717 26.8704 5.73117C26.8944 5.92157 26.9088 6.11358 26.9376 6.30398C26.952 6.39358 26.9584 6.47517 26.8992 6.55037C26.8656 6.59357 26.8048 6.61437 26.7872 6.67357C26.7824 6.67517 26.7792 6.67837 26.7776 6.68477C26.6592 6.82717 26.544 6.97278 26.4416 7.12798C26.4368 7.12958 26.4352 7.13278 26.4336 7.13758C26.3024 7.29758 26.1712 7.45598 26.056 7.62558C26.0512 7.63038 26.048 7.63358 26.0432 7.63838C26.0192 7.64638 26.016 7.67038 26.0048 7.68958C26 7.68958 25.9968 7.69438 25.9968 7.69918C25.9168 7.78878 25.84 7.88318 25.7744 7.98398C25.7696 7.98878 25.7664 7.99198 25.7616 7.99678C25.544 8.27198 25.3248 8.54558 25.1088 8.82078C23.9152 10.3408 22.7216 11.8624 21.5264 13.384C21.4752 13.4496 21.4192 13.512 21.3728 13.5808C21.3184 13.6624 21.2528 13.7072 21.152 13.688C21.1408 13.672 21.1312 13.672 21.12 13.688C20.6816 13.6832 20.2432 13.6496 19.8048 13.6528C19.64 13.6528 19.4752 13.6288 19.3088 13.6272C19.1504 13.6272 18.9904 13.6368 18.832 13.6224C18.4688 13.5904 18.104 13.5872 17.7392 13.5776C17.6032 13.5744 17.4672 13.552 17.3296 13.5712C17.2784 13.5792 17.2144 13.5616 17.1552 13.56C17.1104 13.56 17.0496 13.5792 17.032 13.5232C17.0176 13.4768 17.032 13.4224 17.064 13.3792C17.1024 13.3264 17.144 13.2768 17.184 13.2256C17.8128 12.4192 18.4416 11.6144 19.0688 10.808C19.6288 10.088 20.1856 9.36798 20.744 8.64638C20.8912 8.45598 21.0464 8.27198 21.184 8.07518C21.2864 7.92798 21.3968 7.78718 21.5024 7.64478C21.6048 7.50558 21.7136 7.36638 21.8288 7.23518C21.8448 7.23518 21.8528 7.22718 21.856 7.21278H21.8608Z" fill="black"/>
<path d="M15.7809 23.8224C15.6305 24.024 15.4801 24.224 15.3313 24.4256C14.2273 25.912 13.1041 27.384 11.9873 28.8624C11.6449 29.3152 11.3041 29.768 10.9649 30.2224C10.9233 30.2784 10.8785 30.2992 10.8081 30.2992C10.5121 30.296 10.2145 30.2896 9.91846 30.3024C9.52646 30.3184 9.13286 30.3104 8.74086 30.3184C8.12966 30.3312 7.51845 30.3376 6.90725 30.3472C6.87365 30.3472 6.84006 30.3472 6.80646 30.352C6.77446 30.3568 6.73926 30.3792 6.71686 30.3424C6.69126 30.3008 6.69606 30.2592 6.72806 30.2192C6.83526 30.0848 6.94085 29.9488 7.04485 29.8128C7.93605 28.6576 8.82566 27.5008 9.71846 26.3472C10.1889 25.7376 10.6641 25.1328 11.1377 24.5248C11.2017 24.4432 11.2481 24.3488 11.3297 24.2816C11.3617 24.2848 11.3777 24.2704 11.3761 24.2384C11.4673 24.1504 11.5697 24.0752 11.6705 24C11.6753 23.9968 11.6817 23.9936 11.6865 23.9904C11.6961 23.9824 11.7073 23.976 11.7169 23.968C11.7217 23.9648 11.7281 23.9616 11.7329 23.9584C11.7377 23.9568 11.7441 23.9536 11.7489 23.952C11.7537 23.9472 11.7585 23.944 11.7633 23.9392C11.7729 23.9328 11.7825 23.9264 11.7921 23.92C11.7985 23.9168 11.8033 23.9136 11.8097 23.9104C11.8401 23.8928 11.8705 23.8752 11.9009 23.8576C11.9073 23.8544 11.9121 23.8512 11.9185 23.8464C11.9553 23.824 11.9905 23.8016 12.0273 23.7792C12.0417 23.784 12.0593 23.7968 12.0593 23.7664C12.2257 23.688 12.4049 23.6608 12.5857 23.6544C12.9313 23.6432 13.2769 23.6864 13.6225 23.6688C13.7617 23.6624 13.8993 23.648 14.0369 23.6384C14.1137 23.6336 14.1905 23.624 14.2689 23.624C14.4529 23.624 14.6369 23.6128 14.8209 23.6032C15.1345 23.5856 15.4481 23.5952 15.7617 23.5904C15.7889 23.6272 15.8081 23.6736 15.8673 23.6704C15.8609 23.7296 15.7969 23.7552 15.7857 23.8112C15.7809 23.8128 15.7793 23.816 15.7777 23.8208L15.7809 23.8224Z" fill="black"/>
<path d="M25.4432 3.62718C25.328 3.61918 25.1888 3.66238 25.064 3.59678C24.9312 3.52638 24.816 3.42878 24.7072 3.31998C24.6112 3.22398 24.5584 3.10878 24.5376 2.98718C24.5152 2.85598 24.5248 2.71838 24.536 2.58398C24.5408 2.53118 24.584 2.48478 24.6528 2.46878C24.7664 2.43998 24.8816 2.45278 24.9968 2.44318C25.2672 2.41918 25.536 2.40478 25.8064 2.38078C25.984 2.36478 26.1648 2.36638 26.3408 2.34398C26.6032 2.31038 26.8688 2.31838 27.1312 2.27678C27.248 2.25918 27.3744 2.26398 27.496 2.25598C27.68 2.24318 27.8656 2.23198 28.0496 2.22078C28.096 2.21758 28.1168 2.22078 28.1136 2.28798C28.1088 2.38878 28.1312 2.49278 28.1456 2.59518C28.1632 2.73758 28.184 2.87998 28.2032 3.02238C28.2288 3.20798 28.2528 3.39358 28.2768 3.57918C28.2992 3.75998 28.3216 3.94238 28.344 4.12318C28.368 4.31198 28.3936 4.50078 28.416 4.68798C28.4336 4.83678 28.4416 4.98558 28.4688 5.13278C28.4752 5.16478 28.4816 5.19838 28.4832 5.23038C28.488 5.32478 28.4384 5.37438 28.344 5.39358C28.208 5.42078 28.0704 5.41278 27.9344 5.40478C27.768 5.39518 27.6064 5.35518 27.4944 5.21278C27.4832 5.19838 27.4688 5.18558 27.4544 5.17598C27.3728 5.12478 27.3296 5.04638 27.3296 4.95518C27.3296 4.79518 27.3024 4.63678 27.2816 4.47998C27.2592 4.30718 27.248 4.13278 27.2224 3.95998C27.2048 3.84638 27.1824 3.72798 27.192 3.61118C27.1968 3.54398 27.1584 3.54078 27.1104 3.55038C27.088 3.55518 27.0688 3.56638 27.0432 3.56478C26.8784 3.55198 26.7136 3.57758 26.5488 3.58238C26.3024 3.59038 26.0544 3.60158 25.808 3.61438C25.6928 3.62078 25.576 3.61758 25.4432 3.62718Z" fill="black"/>
<path d="M12.9855 16.3584C12.6735 15.9936 12.2895 15.6976 11.9919 15.3168C11.8383 15.1184 11.6719 14.9296 11.5663 14.7008C11.4895 14.5344 11.4127 14.3648 11.3903 14.1776C11.3791 14.0816 11.3407 13.9936 11.3263 13.8976C11.3007 13.7232 11.2751 13.5504 11.2783 13.3728C11.2799 13.224 11.2815 13.0768 11.2831 12.928C11.2831 12.864 11.3311 12.832 11.3743 12.8032C11.4031 12.784 11.4127 12.8176 11.4239 12.8432C11.5199 13.0736 11.6559 13.2768 11.8063 13.4736C12.0095 13.7376 12.2655 13.936 12.5359 14.1232C12.7215 14.2528 12.9007 14.392 13.0735 14.5376C13.2543 14.6896 13.3887 14.8784 13.5151 15.0784C13.6159 15.2384 13.6655 15.4144 13.7119 15.5888C13.7615 15.7744 13.7999 15.9664 13.8175 16.1616C13.8287 16.288 13.8383 16.416 13.8303 16.5408C13.8143 16.7728 13.8031 17.008 13.7327 17.232C13.7151 17.2896 13.6863 17.3408 13.6543 17.3904C13.6399 17.4 13.6255 17.3984 13.6127 17.3904C13.5183 17.2 13.4351 17.0032 13.3183 16.824C13.2303 16.6896 13.1327 16.5616 13.0415 16.4304C13.0271 16.4096 12.9967 16.4176 12.9903 16.3904C12.9983 16.3856 13.0111 16.3824 13.0111 16.3776C13.0143 16.3616 12.9999 16.3616 12.9887 16.3584H12.9855Z" fill="black"/>
<path d="M14.6256 22.3152C14.7792 22.264 14.9392 22.2416 15.0976 22.2112C15.1744 22.1968 15.2512 22.2 15.328 22.192C15.6048 22.1616 15.8832 22.1584 16.16 22.1744C16.4016 22.1888 16.6416 22.2112 16.8832 22.2368C17.0656 22.256 17.248 22.272 17.4304 22.2944C17.5632 22.3104 17.6944 22.3312 17.8272 22.3424C17.9584 22.3536 18.0896 22.36 18.2208 22.3584C18.3712 22.3584 18.52 22.376 18.6704 22.3808C18.6832 22.4096 18.712 22.4336 18.7024 22.4704C18.6352 22.6096 18.512 22.696 18.3856 22.7712C18.0976 22.9456 17.7936 23.0896 17.48 23.2128C17.2064 23.3216 16.92 23.3552 16.6256 23.3424C16.4576 23.336 16.2896 23.3232 16.1216 23.3088C16.0448 23.3024 15.968 23.2752 15.8896 23.2784C15.8736 23.2336 15.8432 23.2464 15.8112 23.2592C15.8064 23.2592 15.8 23.2608 15.7952 23.2624C15.7792 23.2176 15.7488 23.2304 15.7168 23.2448L15.7008 23.248C15.6928 23.2096 15.6672 23.216 15.6416 23.2272C15.6256 23.2288 15.608 23.2304 15.592 23.232C15.5888 23.2128 15.5856 23.1952 15.5616 23.216C15.5408 23.216 15.52 23.216 15.4976 23.216C15.4944 23.1968 15.4912 23.1792 15.4672 23.2C15.4464 23.2 15.4256 23.2 15.4032 23.2C15.4 23.1808 15.3968 23.1632 15.3728 23.184C15.3232 23.2 15.28 23.1584 15.232 23.168C15.224 23.128 15.1936 23.1424 15.1696 23.1392L15.0608 23.136C15.0576 23.1168 15.0528 23.0992 15.0304 23.1216C14.9808 23.1344 14.9376 23.096 14.8896 23.104C14.8832 23.072 14.8688 23.0672 14.8432 23.088C14.8272 23.088 14.8112 23.088 14.7952 23.088C14.7888 23.0576 14.7744 23.0512 14.7504 23.0704C14.6432 23.0656 14.5408 23.0384 14.4352 23.0208C14.3056 23 14.1728 22.9936 14.0464 22.9632C13.896 22.9264 13.736 22.9584 13.5936 22.8848C13.5936 22.8816 13.5936 22.8768 13.5936 22.8736C13.6112 22.8384 13.64 22.8144 13.6704 22.7936C13.6752 22.7904 13.6816 22.7872 13.6864 22.784C13.696 22.7776 13.7056 22.7696 13.7152 22.7632C13.7216 22.76 13.7264 22.7552 13.7328 22.752L13.7632 22.7312C13.7632 22.7312 13.7744 22.7248 13.7808 22.7216C13.8016 22.7088 13.8224 22.696 13.8416 22.6848C13.8464 22.6816 13.8528 22.6784 13.8576 22.6752C13.8624 22.6736 13.8688 22.672 13.8736 22.6704C13.8784 22.6672 13.8832 22.6624 13.888 22.6592C14.0352 22.5856 14.1808 22.5104 14.3296 22.4416C14.3648 22.4256 14.392 22.3888 14.4368 22.3936C14.4608 22.4128 14.464 22.3936 14.4672 22.3776C14.5136 22.3616 14.5616 22.344 14.608 22.328C14.6128 22.3232 14.6176 22.32 14.6224 22.3152H14.6256Z" fill="black"/>
<path d="M10.6832 8.86078C10.656 8.85438 10.6448 8.87518 10.6336 8.89278C10.5904 8.85918 10.6448 8.75678 10.5408 8.76638C10.5872 8.70718 10.6144 8.70558 10.6368 8.76638C10.648 8.79998 10.6784 8.82398 10.6832 8.85918V8.86078Z" fill="#070707"/>
<path d="M16.2864 16.6112C16.3008 16.6848 16.312 16.7568 16.28 16.8288C16.248 16.7648 16.2816 16.6944 16.2576 16.6304C16.2576 16.6288 16.2768 16.6176 16.288 16.6112H16.2864Z" fill="#070707"/>
<path d="M12.1407 23.2496C12.1679 23.1776 12.2431 23.1744 12.2959 23.1392C12.2687 23.2112 12.2063 23.2336 12.1407 23.2496Z" fill="#070707"/>
<path d="M26.5776 19.5488C26.5728 19.5072 26.5664 19.464 26.5616 19.4224C26.592 19.4224 26.64 19.4336 26.6352 19.4528C26.6256 19.4864 26.6432 19.5472 26.5776 19.5488Z" fill="#070707"/>
<path d="M15.1711 21.528C15.2319 21.4736 15.2959 21.4944 15.3599 21.5184C15.2975 21.544 15.2335 21.5264 15.1711 21.528Z" fill="#070707"/>
<path d="M15.8704 23.672C15.8128 23.6768 15.7936 23.6288 15.7648 23.592C15.8208 23.592 15.8752 23.592 15.8704 23.672Z" fill="#070707"/>
<path d="M12.6128 16.8192C12.5936 16.8816 12.5616 16.8912 12.5168 16.8432C12.5376 16.7872 12.5792 16.8192 12.6128 16.8192Z" fill="#070707"/>
<path d="M18.704 22.4688C18.7136 22.432 18.6848 22.408 18.672 22.3792C18.68 22.3792 18.6896 22.3792 18.6944 22.3824C18.7136 22.4016 18.7568 22.3888 18.7584 22.416C18.7584 22.4368 18.7296 22.4576 18.704 22.4688Z" fill="#070707"/>
<path d="M17.0671 18.7952C17.1231 18.8 17.1519 18.8384 17.1727 18.8832C17.1167 18.8784 17.1023 18.8256 17.0671 18.7952Z" fill="#070707"/>
<path d="M14.4112 19.048C14.4176 19.0912 14.4 19.12 14.3648 19.1408C14.3552 19.0976 14.368 19.064 14.4112 19.048Z" fill="#070707"/>
<path d="M25.4832 4.25439C25.4512 4.30879 25.4208 4.30879 25.3888 4.25439H25.4832Z" fill="#070707"/>
<path d="M15.8431 16.4224C15.8159 16.3808 15.8367 16.3536 15.8687 16.328C15.8799 16.3648 15.8671 16.3952 15.8431 16.4224Z" fill="#070707"/>
<path d="M23.7216 19.6064C23.7696 19.5936 23.8048 19.6064 23.8272 19.6528C23.792 19.6368 23.7568 19.6208 23.7216 19.6064Z" fill="#070707"/>
<path d="M13.376 20.6128C13.3728 20.6544 13.3552 20.688 13.3136 20.7024C13.3296 20.6688 13.3296 20.624 13.376 20.6128Z" fill="#070707"/>
<path d="M12.8465 21.3648C12.8433 21.4064 12.8241 21.4368 12.7841 21.4528C12.7953 21.416 12.8081 21.3808 12.8465 21.3648Z" fill="#070707"/>
<path d="M10.7697 11.2192C10.8081 11.2384 10.8289 11.2672 10.8161 11.312C10.7889 11.2864 10.7825 11.2512 10.7697 11.2192Z" fill="#070707"/>
<path d="M16.3744 15.328C16.3728 15.296 16.3792 15.2688 16.4176 15.2656C16.424 15.3008 16.4224 15.3312 16.3744 15.328Z" fill="#070707"/>
<path d="M24.4208 19.8448C24.4592 19.832 24.4928 19.8304 24.5152 19.872C24.48 19.8752 24.4512 19.856 24.4208 19.8448Z" fill="#070707"/>
<path d="M14.2544 14.968C14.296 14.9856 14.2928 15.0256 14.2976 15.0608C14.2672 15.0384 14.2608 15.0032 14.2544 14.968Z" fill="#070707"/>
<path d="M19.6256 15.7792C19.6608 15.7632 19.6848 15.7744 19.704 15.8064C19.672 15.8128 19.648 15.8016 19.6256 15.7792Z" fill="#070707"/>
<path d="M19.1873 15.7792C19.2081 15.7344 19.2353 15.744 19.2657 15.768C19.2433 15.7952 19.2129 15.7776 19.1873 15.7792Z" fill="#070707"/>
<path d="M24.6256 19.8848C24.656 19.872 24.6864 19.8576 24.704 19.904C24.6736 19.9136 24.6512 19.896 24.6256 19.8848Z" fill="#070707"/>
<path d="M10.856 11.3904C10.8768 11.4064 10.8976 11.4208 10.8784 11.4512C10.8464 11.44 10.8416 11.4176 10.856 11.3904Z" fill="#070707"/>
<path d="M10.632 10.8288C10.6656 10.8464 10.6752 10.872 10.6608 10.9056C10.6352 10.8848 10.632 10.8576 10.632 10.8288Z" fill="#070707"/>
<path d="M15.72 23.2448C15.7504 23.2304 15.7808 23.2176 15.7984 23.2624C15.7696 23.272 15.7456 23.2576 15.72 23.2448Z" fill="#070707"/>
<path d="M13.4848 20.4544C13.4848 20.4832 13.4784 20.5072 13.448 20.5168C13.4288 20.4768 13.4624 20.4688 13.4848 20.4544Z" fill="#070707"/>
<path d="M13.2208 20.832C13.2208 20.8592 13.2128 20.8832 13.1824 20.8912C13.1648 20.8512 13.1936 20.8432 13.2208 20.832Z" fill="#070707"/>
<path d="M16.944 18.6848C16.9744 18.6848 16.9968 18.696 17 18.7296C16.968 18.7296 16.952 18.712 16.944 18.6848Z" fill="#070707"/>
<path d="M13.112 20.9904C13.112 21.0192 13.1024 21.0416 13.072 21.048C13.0528 21.0048 13.1008 21.0096 13.112 20.9904Z" fill="#070707"/>
<path d="M12.9552 21.2064C12.9552 21.2352 12.9472 21.2592 12.9168 21.2672C12.9008 21.2288 12.9296 21.2192 12.9552 21.2064Z" fill="#070707"/>
<path d="M12.736 21.52C12.736 21.5488 12.7264 21.5712 12.696 21.5792C12.6768 21.5376 12.7216 21.5392 12.736 21.52Z" fill="#070707"/>
<path d="M15.6432 23.2256C15.6704 23.2144 15.6944 23.208 15.7024 23.2464C15.68 23.2448 15.6512 23.2624 15.6432 23.2256Z" fill="#070707"/>
<path d="M17.6255 14.5344C17.6239 14.5664 17.6031 14.5776 17.5743 14.5808C17.5791 14.552 17.5903 14.5296 17.6255 14.5344Z" fill="#070707"/>
<path d="M15.1711 23.1408C15.1951 23.1424 15.2271 23.1296 15.2335 23.1696C15.2047 23.1776 15.1855 23.1648 15.1711 23.1408Z" fill="#070707"/>
<path d="M16.4543 16.0032C16.4511 16.0256 16.4639 16.0576 16.4255 16.064C16.4223 16.0384 16.4223 16.0128 16.4543 16.0032Z" fill="#070707"/>
<path d="M15.8127 23.2592C15.8431 23.2464 15.8735 23.232 15.8911 23.2784C15.8623 23.288 15.8431 23.2496 15.8127 23.2592Z" fill="#070707"/>
<path d="M25.592 19.904C25.5984 19.872 25.6144 19.8672 25.6384 19.8896C25.6288 19.9136 25.6096 19.9056 25.592 19.904Z" fill="#070707"/>
<path d="M21.6256 15.4992C21.5856 15.5024 21.5744 15.4816 21.5808 15.4464C21.6 15.4608 21.616 15.4768 21.6256 15.4992Z" fill="#070707"/>
<path d="M10.4719 9.95361C10.5055 9.96161 10.5088 9.97761 10.4848 10C10.4592 9.99041 10.4719 9.96961 10.4719 9.95361Z" fill="#070707"/>
<path d="M10.488 10.1408C10.5168 10.1456 10.5248 10.16 10.5056 10.1856C10.4736 10.1808 10.488 10.1584 10.488 10.1408Z" fill="#070707"/>
<path d="M10.5024 10.2512C10.5344 10.2576 10.5392 10.2736 10.5168 10.2976C10.4896 10.2896 10.5024 10.2688 10.5024 10.2512Z" fill="#070707"/>
<path d="M10.5184 10.36C10.5504 10.3664 10.5552 10.3824 10.5344 10.4064C10.5072 10.3984 10.5184 10.3776 10.5184 10.36Z" fill="#070707"/>
<path d="M14.752 23.072C14.7776 23.0528 14.792 23.0608 14.7968 23.0896C14.7792 23.0896 14.7568 23.1008 14.752 23.072Z" fill="#070707"/>
<path d="M10.6768 10.984C10.7136 10.992 10.7008 11.0224 10.704 11.0448C10.6848 11.0288 10.6736 11.0096 10.6768 10.984Z" fill="#070707"/>
<path d="M14.8448 23.0896C14.8688 23.0688 14.8848 23.0736 14.8912 23.1056C14.8736 23.1056 14.8528 23.1168 14.8448 23.0896Z" fill="#070707"/>
<path d="M18.1408 14.3936C18.1312 14.4336 18.1056 14.4272 18.08 14.4128C18.1056 14.424 18.1152 14.3808 18.1408 14.3936Z" fill="#070707"/>
<path d="M25.9216 4.27039C25.9184 4.28639 25.9136 4.29919 25.8944 4.29599C25.88 4.29439 25.8768 4.28159 25.8752 4.27039C25.8912 4.27039 25.9072 4.27039 25.9216 4.27039Z" fill="#070707"/>
<path d="M17.8128 14.472C17.8048 14.5056 17.7888 14.5088 17.7648 14.4832C17.776 14.4592 17.7952 14.4704 17.8128 14.472Z" fill="#070707"/>
<path d="M18.7184 19.6224C18.7056 19.6416 18.6912 19.6448 18.6736 19.6304C18.6832 19.5968 18.7008 19.6016 18.7184 19.6224Z" fill="#070707"/>
<path d="M12.424 21.9344C12.4224 21.9552 12.4144 21.9696 12.3904 21.968C12.392 21.9488 12.384 21.9184 12.424 21.9344Z" fill="#070707"/>
<path d="M11.376 24.2368C11.3776 24.2688 11.3616 24.2832 11.3296 24.28C11.3392 24.2592 11.3552 24.2464 11.376 24.2368Z" fill="#070707"/>
<path d="M24.7312 18.4384C24.7024 18.4384 24.7008 18.4176 24.7008 18.3968C24.736 18.3936 24.7296 18.4192 24.7312 18.4384Z" fill="#070707"/>
<path d="M24.6464 18.3584C24.6224 18.3584 24.5968 18.3648 24.592 18.3296C24.6112 18.336 24.6512 18.3056 24.6464 18.3584Z" fill="#070707"/>
<path d="M23.96 17.8272C23.936 17.8272 23.9104 17.8336 23.9056 17.7984C23.9248 17.8064 23.9648 17.7744 23.96 17.8272Z" fill="#070707"/>
<path d="M13.6096 17.3904C13.624 17.3984 13.6368 17.4016 13.6512 17.3904C13.6656 17.408 13.656 17.416 13.6384 17.4192C13.6128 17.424 13.6064 17.4096 13.6096 17.3888V17.3904Z" fill="#070707"/>
<path d="M16.3088 16.5072C16.312 16.5312 16.3184 16.5568 16.2832 16.5632C16.2832 16.5408 16.2704 16.512 16.3088 16.5072Z" fill="#070707"/>
<path d="M15.8096 16.5296C15.7904 16.512 15.7936 16.496 15.8144 16.4832C15.8368 16.5008 15.8304 16.5168 15.8096 16.5296Z" fill="#070707"/>
<path d="M18.8896 15.8608C18.8912 15.8496 18.8896 15.8336 18.9072 15.8336C18.9184 15.8336 18.92 15.8448 18.92 15.8544C18.912 15.8672 18.904 15.8848 18.8896 15.8592V15.8608Z" fill="#070707"/>
<path d="M23.2177 19.328C23.2417 19.328 23.2641 19.3264 23.2657 19.3584C23.2433 19.3584 23.2289 19.3472 23.2177 19.328Z" fill="#070707"/>
<path d="M14.1936 14.8432C14.2224 14.848 14.2192 14.8704 14.2192 14.8912C14.1968 14.8832 14.1824 14.8688 14.1936 14.8432Z" fill="#070707"/>
<path d="M11.0208 11.7184C11.0496 11.7216 11.048 11.744 11.048 11.7648C11.0336 11.7536 11.0128 11.744 11.0208 11.7184Z" fill="#070707"/>
<path d="M12.5488 21.7776C12.5472 21.7968 12.5424 21.8128 12.5184 21.8128C12.5152 21.7888 12.5184 21.7712 12.5488 21.7776Z" fill="#070707"/>
<path d="M12.5952 21.7152C12.5936 21.7328 12.5888 21.7504 12.5664 21.7504C12.56 21.7264 12.5648 21.7104 12.5952 21.7152Z" fill="#070707"/>
<path d="M12.6433 21.6512C12.6417 21.6688 12.6369 21.6864 12.6145 21.688C12.6081 21.664 12.6145 21.648 12.6433 21.6512Z" fill="#070707"/>
<path d="M14.2656 19.3136C14.2656 19.336 14.2656 19.3568 14.2368 19.36C14.232 19.336 14.2496 19.3248 14.2656 19.3136Z" fill="#070707"/>
<path d="M13.032 21.096C13.032 21.1168 13.032 21.1392 13.0016 21.1408C12.9952 21.1152 13.008 21.1024 13.032 21.096Z" fill="#070707"/>
<path d="M13.2672 20.7712C13.2672 20.7936 13.2624 20.8112 13.2352 20.8128C13.2352 20.7904 13.2496 20.7808 13.2672 20.7712Z" fill="#070707"/>
<path d="M12.3872 11.048C12.3664 11.048 12.3472 11.048 12.344 11.0208C12.3664 11.0176 12.3808 11.0288 12.3872 11.048Z" fill="#070707"/>
<path d="M13.6576 20.2064C13.6576 20.2288 13.6544 20.248 13.6256 20.2496C13.6256 20.2272 13.64 20.216 13.6576 20.2064Z" fill="#070707"/>
<path d="M19.8431 15.8592C19.8655 15.8592 19.8863 15.8592 19.8895 15.888C19.8639 15.8944 19.8575 15.8704 19.8431 15.8592Z" fill="#070707"/>
<path d="M13.688 20.1584C13.688 20.1792 13.688 20.2 13.6592 20.2032C13.6528 20.1776 13.6656 20.1632 13.688 20.1584Z" fill="#070707"/>
<path d="M13.768 20.0528C13.768 20.0752 13.7632 20.0928 13.736 20.0944C13.736 20.072 13.7504 20.0624 13.768 20.0528Z" fill="#070707"/>
<path d="M13.9072 19.848C13.9072 19.8688 13.904 19.888 13.8768 19.8896C13.8768 19.8672 13.8896 19.856 13.9072 19.848Z" fill="#070707"/>
<path d="M13.4544 11.5936C13.4368 11.5936 13.416 11.6 13.4064 11.576C13.4304 11.5632 13.4448 11.5728 13.4544 11.5936Z" fill="#070707"/>
<path d="M14.048 19.6448C14.048 19.6672 14.0448 19.6864 14.0176 19.688C14.0176 19.6656 14.032 19.6544 14.048 19.6448Z" fill="#070707"/>
<path d="M12.5023 21.8352C12.5023 21.856 12.4959 21.8752 12.4688 21.8736C12.4688 21.8496 12.4735 21.832 12.5023 21.8352Z" fill="#070707"/>
<path d="M14.3136 19.2352C14.3136 19.2576 14.3136 19.28 14.2832 19.2816C14.2816 19.2592 14.296 19.2464 14.3136 19.2352Z" fill="#070707"/>
<path d="M13.9376 11.8128C13.9168 11.8128 13.8928 11.816 13.8896 11.7856C13.912 11.7824 13.928 11.7936 13.9376 11.8128Z" fill="#070707"/>
<path d="M22.2208 18.7328C22.2432 18.7328 22.264 18.7328 22.2656 18.7616C22.2416 18.7664 22.2352 18.744 22.2208 18.7328Z" fill="#070707"/>
<path d="M11.896 12.7168C11.9184 12.7168 11.9376 12.7216 11.9376 12.7504C11.9184 12.7456 11.9024 12.736 11.896 12.7168Z" fill="#070707"/>
<path d="M2.95203 28.3856C2.95363 28.408 2.94403 28.4208 2.92163 28.4208C2.92163 28.4 2.92963 28.3872 2.95203 28.3856Z" fill="#070707"/>
<path d="M5.18726 25.6832C5.18886 25.7056 5.17926 25.7168 5.15686 25.7184C5.15686 25.6976 5.16486 25.6848 5.18726 25.6832Z" fill="#070707"/>
<path d="M12.296 17.1056C12.2976 17.128 12.2864 17.1392 12.264 17.1392C12.264 17.1184 12.2736 17.1056 12.296 17.1056Z" fill="#070707"/>
<path d="M20.8768 17.2032C20.8976 17.2064 20.9136 17.2128 20.8896 17.2352C20.8704 17.2304 20.8736 17.2176 20.8768 17.2032Z" fill="#070707"/>
<path d="M12.2015 17.216C12.2031 17.2384 12.1935 17.2496 12.1711 17.2496C12.1711 17.2288 12.1791 17.216 12.2015 17.216Z" fill="#070707"/>
<path d="M12.1232 17.3088C12.1248 17.3312 12.1152 17.3424 12.0928 17.344C12.0928 17.3232 12.1008 17.3104 12.1232 17.3088Z" fill="#070707"/>
<path d="M4.88965 26.0416C4.89125 26.064 4.88165 26.0752 4.85925 26.0768C4.85925 26.056 4.86725 26.0432 4.88965 26.0416Z" fill="#070707"/>
<path d="M12.0464 17.4016C12.048 17.424 12.0384 17.4352 12.016 17.4368C12.016 17.416 12.024 17.4032 12.0464 17.4016Z" fill="#070707"/>
<path d="M11.968 17.496C11.9696 17.5184 11.96 17.5312 11.9376 17.5312C11.9376 17.5104 11.9456 17.4976 11.968 17.496Z" fill="#070707"/>
<path d="M3.54725 27.6672C3.54885 27.6896 3.53925 27.7008 3.51685 27.7024C3.51685 27.6816 3.52485 27.6688 3.54725 27.6672Z" fill="#070707"/>
<path d="M11.6544 17.8704C11.656 17.8928 11.6464 17.904 11.624 17.9056C11.624 17.8848 11.632 17.872 11.6544 17.8704Z" fill="#070707"/>
<path d="M11.5776 17.9648C11.5792 17.9872 11.5696 18 11.5472 18C11.5472 17.9792 11.5552 17.9664 11.5776 17.9648Z" fill="#070707"/>
<path d="M5.26563 25.5888C5.26723 25.6112 5.25763 25.6224 5.23523 25.624C5.23523 25.6032 5.24323 25.5904 5.26563 25.5888Z" fill="#070707"/>
<path d="M5.34241 25.4944C5.34401 25.5168 5.33441 25.5296 5.31201 25.5296C5.31201 25.5088 5.32001 25.496 5.34241 25.4944Z" fill="#070707"/>
<path d="M5.42078 25.4C5.42398 25.4224 5.41438 25.4352 5.39038 25.4368C5.39038 25.416 5.39838 25.4016 5.42078 25.4Z" fill="#070707"/>
<path d="M11.4992 18.0592C11.5008 18.0816 11.4911 18.0928 11.4688 18.0944C11.4688 18.0736 11.4784 18.0608 11.4992 18.0592Z" fill="#070707"/>
<path d="M11.4208 18.152C11.4224 18.1744 11.4128 18.1856 11.3904 18.1856C11.3904 18.1648 11.4 18.152 11.4208 18.152Z" fill="#070707"/>
<path d="M11.3424 18.2464C11.344 18.2688 11.3344 18.28 11.312 18.28C11.312 18.2592 11.32 18.2464 11.3424 18.2464Z" fill="#070707"/>
<path d="M14.3616 15.344C14.3792 15.3472 14.3984 15.3488 14.3792 15.3744C14.3568 15.3744 14.36 15.36 14.3616 15.344Z" fill="#070707"/>
<path d="M16.6832 15.536C16.688 15.5584 16.6832 15.5744 16.6576 15.5792C16.6544 15.5584 16.6688 15.5472 16.6832 15.536Z" fill="#070707"/>
<path d="M3.76478 27.4016C3.76638 27.424 3.75677 27.4352 3.73438 27.4352C3.73438 27.4144 3.74238 27.4016 3.76478 27.4016Z" fill="#070707"/>
<path d="M3.17115 28.12C3.17275 28.1424 3.16315 28.1536 3.14075 28.1552C3.14075 28.1344 3.14875 28.1216 3.17115 28.12Z" fill="#070707"/>
<path d="M11.1873 18.4336C11.1889 18.456 11.1793 18.4672 11.1569 18.4688C11.1569 18.448 11.1649 18.4352 11.1873 18.4336Z" fill="#070707"/>
<path d="M14.5664 18.4848C14.5872 18.5088 14.5664 18.512 14.5504 18.5152C14.5472 18.5008 14.5456 18.4864 14.5664 18.4848Z" fill="#070707"/>
<path d="M5.56165 25.2288C5.56325 25.2512 5.55365 25.264 5.53125 25.264C5.53125 25.2432 5.53925 25.2304 5.56165 25.2288Z" fill="#070707"/>
<path d="M24.984 18.608C24.9648 18.632 24.9568 18.6208 24.952 18.5984C24.9632 18.5984 24.9776 18.5888 24.984 18.608Z" fill="#070707"/>
<path d="M5.64002 25.136C5.64162 25.1584 5.63202 25.1712 5.60962 25.1712C5.60962 25.1504 5.61762 25.1376 5.64002 25.136Z" fill="#070707"/>
<path d="M5.7024 25.0592C5.7024 25.0816 5.6928 25.0928 5.672 25.0928C5.672 25.072 5.68 25.0592 5.7024 25.0592Z" fill="#070707"/>
<path d="M5.93604 24.776C5.93764 24.7984 5.92804 24.8112 5.90564 24.8112C5.90564 24.7904 5.91364 24.7776 5.93604 24.776Z" fill="#070707"/>
<path d="M4.81275 26.136C4.81435 26.1584 4.80475 26.1696 4.78235 26.1696C4.78235 26.1488 4.79035 26.136 4.81275 26.136Z" fill="#070707"/>
<path d="M6.01441 24.6816C6.01761 24.704 6.00641 24.7168 5.98401 24.7168C5.98401 24.696 5.99201 24.6832 6.01441 24.6816Z" fill="#070707"/>
<path d="M4.73438 26.2304C4.73598 26.2528 4.72638 26.264 4.70398 26.264C4.70398 26.2432 4.71198 26.2304 4.73438 26.2304Z" fill="#070707"/>
<path d="M6.09278 24.5872C6.09598 24.6096 6.08478 24.6224 6.06238 24.6224C6.06238 24.6016 6.07038 24.5888 6.09278 24.5872Z" fill="#070707"/>
<path d="M6.15516 24.512C6.15676 24.5344 6.14716 24.5456 6.12476 24.5456C6.12476 24.5248 6.13276 24.512 6.15516 24.512Z" fill="#070707"/>
<path d="M6.23365 24.4176C6.23525 24.44 6.22565 24.4512 6.20325 24.4528C6.20325 24.432 6.21125 24.4192 6.23365 24.4176Z" fill="#070707"/>
<path d="M6.31202 24.3232C6.31362 24.3456 6.30402 24.3584 6.28162 24.3584C6.28162 24.3376 6.28962 24.3248 6.31202 24.3232Z" fill="#070707"/>
<path d="M3.09436 28.2144C3.09596 28.2368 3.08476 28.248 3.06396 28.248C3.06396 28.2272 3.07196 28.2144 3.09436 28.2144Z" fill="#070707"/>
<path d="M6.39039 24.2288C6.39359 24.2512 6.38239 24.264 6.35999 24.264C6.35999 24.2432 6.36799 24.2304 6.39039 24.2288Z" fill="#070707"/>
<path d="M10.7328 18.9792C10.7344 19.0016 10.7248 19.0144 10.7024 19.0144C10.7024 18.9936 10.7104 18.9808 10.7328 18.9792Z" fill="#070707"/>
<path d="M6.45276 24.152C6.45436 24.1744 6.44476 24.1856 6.42236 24.1856C6.42236 24.1648 6.43036 24.152 6.45276 24.152Z" fill="#070707"/>
<path d="M3.62403 27.5728C3.62723 27.5952 3.61603 27.608 3.59363 27.608C3.59363 27.5872 3.60163 27.5744 3.62403 27.5728Z" fill="#070707"/>
<path d="M10.6544 19.0736C10.656 19.096 10.6464 19.1088 10.624 19.1088C10.624 19.088 10.632 19.0752 10.6544 19.0736Z" fill="#070707"/>
<path d="M10.5776 19.1664C10.5792 19.1888 10.5696 19.2016 10.5472 19.2016C10.5472 19.1808 10.5552 19.168 10.5776 19.1664Z" fill="#070707"/>
<path d="M6.53125 24.0576C6.53285 24.08 6.52325 24.0912 6.50085 24.0928C6.50085 24.072 6.50885 24.0592 6.53125 24.0576Z" fill="#070707"/>
<path d="M14.3184 15.1568C14.3344 15.16 14.3504 15.1648 14.3344 15.1856C14.3152 15.184 14.3104 15.1744 14.3184 15.1568Z" fill="#070707"/>
<path d="M10.4992 19.2608C10.5008 19.2832 10.4911 19.2944 10.4688 19.296C10.4688 19.2752 10.4768 19.2624 10.4992 19.2608Z" fill="#070707"/>
<path d="M12.9856 16.3584C12.9968 16.36 13.0112 16.3616 13.008 16.3776C13.008 16.3824 12.9936 16.3872 12.9872 16.3904V16.3584H12.9856Z" fill="#070707"/>
<path d="M3.016 28.3088C3.016 28.3312 3.0064 28.3424 2.9856 28.3424C2.9856 28.3216 2.9936 28.3088 3.016 28.3088Z" fill="#070707"/>
<path d="M10.4208 19.3552C10.4224 19.3776 10.4128 19.3888 10.3904 19.3904C10.3904 19.3696 10.3984 19.3568 10.4208 19.3552Z" fill="#070707"/>
<path d="M26.4352 19.376C26.4112 19.3984 26.408 19.3808 26.4048 19.3616C26.4192 19.3584 26.4304 19.36 26.4352 19.376Z" fill="#070707"/>
<path d="M17.2497 19.4224C17.2337 19.4448 17.2257 19.4368 17.2177 19.416C17.2305 19.4096 17.2417 19.4032 17.2497 19.4224Z" fill="#070707"/>
<path d="M13.5153 19.4528C13.5153 19.4352 13.5217 19.4224 13.5409 19.4224C13.5425 19.4416 13.5361 19.4528 13.5153 19.4528Z" fill="#070707"/>
<path d="M7.3584 23.056C7.3616 23.08 7.352 23.0912 7.328 23.0928C7.328 23.072 7.336 23.0576 7.3584 23.056Z" fill="#070707"/>
<path d="M10.3424 19.4496C10.344 19.472 10.3344 19.4832 10.312 19.4832C10.312 19.4624 10.32 19.4496 10.3424 19.4496Z" fill="#070707"/>
<path d="M6.82715 23.6992C6.82875 23.7216 6.81915 23.7328 6.79675 23.7344C6.79675 23.7136 6.80475 23.7008 6.82715 23.6992Z" fill="#070707"/>
<path d="M10.2656 19.544C10.2656 19.5664 10.256 19.5776 10.2352 19.5776C10.2352 19.5568 10.2432 19.544 10.2656 19.544Z" fill="#070707"/>
<path d="M6.90564 23.6032C6.90884 23.6256 6.89764 23.6384 6.87524 23.6384C6.87524 23.6176 6.88324 23.6048 6.90564 23.6032Z" fill="#070707"/>
<path d="M3.24964 28.0256C3.25124 28.048 3.24164 28.0608 3.21924 28.0608C3.21924 28.04 3.22724 28.0272 3.24964 28.0256Z" fill="#070707"/>
<path d="M5.48475 25.3232C5.48635 25.3456 5.47675 25.3568 5.45435 25.3568C5.45435 25.336 5.46395 25.3232 5.48475 25.3232Z" fill="#070707"/>
<path d="M10.2015 19.6192C10.2047 19.6416 10.1951 19.6544 10.1711 19.656C10.1711 19.6352 10.1791 19.6224 10.2015 19.6192Z" fill="#070707"/>
<path d="M2.40638 29.0432C2.40638 29.0656 2.39678 29.0768 2.37598 29.0768C2.37598 29.056 2.38398 29.0432 2.40638 29.0432Z" fill="#070707"/>
<path d="M4.67041 26.3072C4.67361 26.3296 4.66241 26.3424 4.64001 26.3424C4.64001 26.3216 4.64801 26.3088 4.67041 26.3072Z" fill="#070707"/>
<path d="M24.1776 19.768C24.1984 19.7632 24.2144 19.768 24.2192 19.7936C24.1952 19.8016 24.1872 19.7856 24.1776 19.768Z" fill="#070707"/>
<path d="M24.2336 19.7952C24.2528 19.7728 24.2608 19.7856 24.264 19.8064C24.2496 19.8128 24.2384 19.8128 24.2336 19.7952Z" fill="#070707"/>
<path d="M18.0624 14.4096C18.0592 14.4288 18.0528 14.4464 18.032 14.4224C18.0368 14.4048 18.0496 14.4064 18.0624 14.4096Z" fill="#070707"/>
<path d="M24.2976 19.8096C24.32 19.7888 24.3248 19.8048 24.328 19.824C24.3136 19.8288 24.3008 19.832 24.2976 19.8096Z" fill="#070707"/>
<path d="M6.98401 23.5104C6.98721 23.5328 6.97761 23.5456 6.95361 23.5456C6.95361 23.5248 6.96161 23.512 6.98401 23.5104Z" fill="#070707"/>
<path d="M21.1248 13.688C21.1344 13.672 21.1456 13.6704 21.1568 13.688C21.1472 13.7088 21.136 13.7088 21.1248 13.688Z" fill="#070707"/>
<path d="M4.59363 26.4C4.59683 26.4224 4.58563 26.4352 4.56323 26.4352C4.56323 26.4144 4.57123 26.4016 4.59363 26.4Z" fill="#070707"/>
<path d="M4.96802 25.9472C4.97122 25.9696 4.96002 25.9824 4.93762 25.9824C4.93762 25.9616 4.94562 25.9488 4.96802 25.9472Z" fill="#070707"/>
<path d="M7.04639 23.4336C7.04799 23.456 7.03839 23.4672 7.01599 23.4672C7.01599 23.4464 7.02399 23.4336 7.04639 23.4336Z" fill="#070707"/>
<path d="M13.328 11.5344C13.3136 11.5552 13.304 11.5456 13.2976 11.528C13.3104 11.5216 13.3216 11.5152 13.328 11.5344Z" fill="#070707"/>
<path d="M7.12476 23.3392C7.12636 23.3616 7.11676 23.3728 7.09436 23.3744C7.09436 23.3536 7.10236 23.3408 7.12476 23.3392Z" fill="#070707"/>
<path d="M23.8288 4.68001C23.8272 4.69601 23.8176 4.70401 23.8016 4.70401C23.8016 4.68481 23.8096 4.67681 23.8288 4.68001Z" fill="#070707"/>
<path d="M24.952 19.9216C24.9648 19.904 24.9744 19.9072 24.984 19.9248C24.9712 19.944 24.96 19.944 24.952 19.9216Z" fill="#070707"/>
<path d="M7.20154 23.2448C7.20314 23.2672 7.19354 23.28 7.17114 23.28C7.17114 23.2592 7.17914 23.2464 7.20154 23.2448Z" fill="#070707"/>
<path d="M9.88965 19.9952C9.89125 20.0176 9.88165 20.0288 9.85925 20.0304C9.85925 20.0096 9.86725 19.9968 9.88965 19.9952Z" fill="#070707"/>
<path d="M15.5632 23.216C15.5872 23.1952 15.5904 23.2128 15.5936 23.232C15.5792 23.2336 15.5648 23.2384 15.5632 23.216Z" fill="#070707"/>
<path d="M4.52955 26.4768C4.53275 26.5008 4.52315 26.5136 4.49915 26.5136C4.49915 26.4928 4.50715 26.4784 4.52955 26.4768Z" fill="#070707"/>
<path d="M9.81116 20.0896C9.81276 20.112 9.80316 20.1232 9.78076 20.1232C9.78076 20.1024 9.79036 20.0896 9.81116 20.0896Z" fill="#070707"/>
<path d="M15.4705 23.2C15.4945 23.1792 15.4977 23.1968 15.5009 23.216C15.4865 23.2176 15.4721 23.2224 15.4705 23.2Z" fill="#070707"/>
<path d="M16.0304 15.9536C16.0064 15.9328 16.0208 15.9264 16.0416 15.9216C16.048 15.936 16.048 15.9472 16.0304 15.9536Z" fill="#070707"/>
<path d="M9.73438 20.184C9.73598 20.2064 9.72638 20.2176 9.70398 20.2176C9.70398 20.1968 9.71198 20.184 9.73438 20.184Z" fill="#070707"/>
<path d="M15.376 23.184C15.4 23.1632 15.4032 23.1808 15.4064 23.2C15.392 23.2016 15.3776 23.2064 15.376 23.184Z" fill="#070707"/>
<path d="M4.21766 26.8544C4.21926 26.8768 4.20966 26.888 4.18726 26.8896C4.18726 26.8688 4.19526 26.856 4.21766 26.8544Z" fill="#070707"/>
<path d="M9.67041 20.2608C9.67361 20.2832 9.66241 20.296 9.64001 20.296C9.64001 20.2752 9.64801 20.2624 9.67041 20.2608Z" fill="#070707"/>
<path d="M7.28003 23.1504C7.28323 23.1728 7.27203 23.1856 7.24963 23.1856C7.24963 23.1648 7.25763 23.152 7.28003 23.1504Z" fill="#070707"/>
<path d="M9.59205 20.3552C9.59365 20.3776 9.58405 20.3904 9.56165 20.3904C9.56165 20.3696 9.56965 20.3568 9.59205 20.3552Z" fill="#070707"/>
<path d="M21.8608 7.21278C21.8576 7.22718 21.8496 7.23518 21.8336 7.23518C21.8336 7.21758 21.8416 7.20798 21.8608 7.21278Z" fill="#070707"/>
<path d="M11.2656 23.1408C11.2656 23.16 11.256 23.1712 11.2368 23.1712C11.2288 23.1456 11.2528 23.1472 11.2656 23.1408Z" fill="#070707"/>
<path d="M9.51514 20.4496C9.51674 20.472 9.50714 20.4832 9.48474 20.4848C9.48474 20.464 9.49274 20.4512 9.51514 20.4496Z" fill="#070707"/>
<path d="M3.7024 27.4784C3.7056 27.5008 3.696 27.5136 3.672 27.5136C3.672 27.4928 3.68 27.48 3.7024 27.4784Z" fill="#070707"/>
<path d="M15.032 23.1232C15.0544 23.1008 15.0592 23.1184 15.0624 23.1376C15.0496 23.1408 15.0352 23.144 15.032 23.1232Z" fill="#070707"/>
<path d="M9.43677 20.5424C9.43837 20.5648 9.42877 20.576 9.40637 20.576C9.40637 20.5552 9.41437 20.5424 9.43677 20.5424Z" fill="#070707"/>
<path d="M2.87525 28.4784C2.87685 28.5008 2.86725 28.5136 2.84485 28.5136C2.84485 28.4928 2.85285 28.48 2.87525 28.4784Z" fill="#070707"/>
<path d="M24.7952 19.9072C24.8176 19.8832 24.8224 19.8992 24.8272 19.92C24.8144 19.9232 24.8 19.9264 24.7952 19.9072Z" fill="#070707"/>
<path d="M8.39039 21.808C8.39199 21.8304 8.38239 21.8416 8.35999 21.8432C8.35999 21.8224 8.36799 21.8096 8.39039 21.808Z" fill="#070707"/>
<path d="M2.34241 29.1184C2.34401 29.1408 2.33441 29.1536 2.31201 29.1536C2.31201 29.1328 2.32001 29.12 2.34241 29.1184Z" fill="#070707"/>
<path d="M8.24964 21.9792C8.25284 22.0016 8.24164 22.0144 8.21924 22.0144C8.21924 21.9936 8.22724 21.9808 8.24964 21.9792Z" fill="#070707"/>
<path d="M2.79676 28.5728C2.79836 28.5952 2.78876 28.608 2.76636 28.608C2.76636 28.5872 2.77436 28.5744 2.79676 28.5728Z" fill="#070707"/>
<path d="M11.376 23.032C11.376 23.0512 11.368 23.0624 11.3472 23.064C11.3424 23.04 11.3616 23.0384 11.376 23.032Z" fill="#070707"/>
<path d="M9.21766 20.808C9.21926 20.8304 9.20966 20.8432 9.18726 20.8432C9.18726 20.8224 9.19526 20.8096 9.21766 20.808Z" fill="#070707"/>
<path d="M7.42078 22.9792C7.42238 23.0016 7.41278 23.0128 7.39038 23.0144C7.39038 22.9936 7.39838 22.9808 7.42078 22.9792Z" fill="#070707"/>
<path d="M7.49915 22.8864C7.50075 22.9088 7.49115 22.9216 7.46875 22.9216C7.46875 22.9008 7.47675 22.888 7.49915 22.8864Z" fill="#070707"/>
<path d="M7.79676 22.5264C7.79836 22.5488 7.78876 22.5616 7.76636 22.5616C7.76636 22.5408 7.77436 22.528 7.79676 22.5264Z" fill="#070707"/>
<path d="M10.616 10.7632C10.632 10.768 10.6448 10.776 10.6304 10.7952C10.6048 10.7952 10.6096 10.7792 10.616 10.7632Z" fill="#070707"/>
<path d="M22.344 20.9216C22.344 20.9104 22.344 20.9008 22.344 20.8896C22.3552 20.8928 22.3712 20.8928 22.368 20.9088C22.368 20.9136 22.3536 20.9168 22.344 20.9216Z" fill="#070707"/>
<path d="M10.5344 10.4528C10.56 10.4576 10.5648 10.4736 10.5584 10.496C10.544 10.4848 10.5264 10.4752 10.5344 10.4528Z" fill="#070707"/>
<path d="M9.06238 20.9968C9.06398 21.0192 9.05438 21.0304 9.03198 21.0304C9.03198 21.0096 9.03998 20.9968 9.06238 20.9968Z" fill="#070707"/>
<path d="M7.87354 22.432C7.87674 22.4544 7.86554 22.4672 7.84314 22.4672C7.84314 22.4464 7.85114 22.4336 7.87354 22.432Z" fill="#070707"/>
<path d="M12.2656 21.0608C12.2672 21.0368 12.28 21.0288 12.3024 21.0352C12.2944 21.0512 12.2832 21.0608 12.2656 21.0608Z" fill="#070707"/>
<path d="M8.98401 21.0896C8.98401 21.112 8.97441 21.1232 8.95361 21.1232C8.95361 21.1024 8.96161 21.0896 8.98401 21.0896Z" fill="#070707"/>
<path d="M18.976 15.8416C18.976 15.8304 18.9728 15.8176 18.976 15.8096C18.9808 15.7984 18.992 15.8048 18.9984 15.8128C18.9904 15.8224 18.9824 15.8336 18.976 15.8432V15.8416Z" fill="#070707"/>
<path d="M14.4688 22.3776C14.4656 22.3952 14.4624 22.4144 14.4384 22.3936C14.4432 22.3776 14.4528 22.3728 14.4688 22.3776Z" fill="#070707"/>
<path d="M8.90564 21.184C8.90564 21.2064 8.89764 21.2176 8.87524 21.2176C8.87524 21.1968 8.88324 21.184 8.90564 21.184Z" fill="#070707"/>
<path d="M2.71839 28.6672C2.71999 28.6896 2.71039 28.7008 2.68799 28.7024C2.68799 28.6816 2.69599 28.6688 2.71839 28.6672Z" fill="#070707"/>
<path d="M7.95203 22.3376C7.95523 22.36 7.94403 22.3728 7.92163 22.3728C7.92163 22.352 7.92963 22.3392 7.95203 22.3376Z" fill="#070707"/>
<path d="M8.84314 21.2608C8.84474 21.2832 8.83514 21.296 8.81274 21.296C8.81274 21.2752 8.82074 21.2624 8.84314 21.2608Z" fill="#070707"/>
<path d="M8.76477 21.3552C8.76637 21.3776 8.75677 21.3888 8.73438 21.3904C8.73438 21.3696 8.74237 21.3568 8.76477 21.3552Z" fill="#070707"/>
<path d="M2.48475 28.9488C2.48475 28.9712 2.47515 28.9824 2.45435 28.9824C2.45435 28.9616 2.46395 28.9488 2.48475 28.9488Z" fill="#070707"/>
<path d="M8.01441 22.2624C8.01601 22.2848 8.00641 22.296 7.98401 22.296C7.98401 22.2752 7.99201 22.2624 8.01441 22.2624Z" fill="#070707"/>
<path d="M8.70081 21.4304C8.70401 21.4528 8.69441 21.4672 8.67041 21.4672C8.67041 21.4464 8.67841 21.432 8.70081 21.4304Z" fill="#070707"/>
<path d="M9.3584 20.6368C9.3584 20.6592 9.3504 20.6704 9.328 20.6704C9.328 20.6496 9.336 20.6368 9.3584 20.6368Z" fill="#070707"/>
<path d="M4.14075 26.9488C4.14235 26.9712 4.13275 26.9824 4.11035 26.984C4.11035 26.9632 4.11835 26.9504 4.14075 26.9488Z" fill="#070707"/>
<path d="M8.62403 21.5248C8.62723 21.5472 8.61763 21.56 8.59363 21.5616C8.59363 21.5408 8.60163 21.5264 8.62403 21.5248Z" fill="#070707"/>
<path d="M20.8271 21.6224C20.8335 21.5952 20.8495 21.592 20.8719 21.6016C20.8591 21.6128 20.8495 21.6304 20.8271 21.6224Z" fill="#070707"/>
<path d="M20.6864 21.6368C20.6912 21.616 20.696 21.6 20.7184 21.624C20.7136 21.6432 20.6992 21.6384 20.6864 21.6368Z" fill="#070707"/>
<path d="M20.5457 21.6528C20.5505 21.632 20.5553 21.616 20.5777 21.64C20.5729 21.6592 20.5601 21.6544 20.5457 21.6528Z" fill="#070707"/>
<path d="M3.92164 27.2128C3.92324 27.2352 3.91364 27.248 3.89124 27.248C3.89124 27.2272 3.89924 27.2144 3.92164 27.2128Z" fill="#070707"/>
<path d="M12.1744 22.1872C12.1744 22.1872 12.1952 22.1968 12.1952 22.2016C12.1952 22.2176 12.1808 22.2176 12.1696 22.2176C12.1696 22.208 12.1728 22.1968 12.1728 22.1872H12.1744Z" fill="#070707"/>
<path d="M8.09278 22.168C8.09438 22.1904 8.08478 22.2016 8.06238 22.2032C8.06238 22.1824 8.07038 22.1696 8.09278 22.168Z" fill="#070707"/>
<path d="M3.84314 27.3072C3.84474 27.3296 3.83514 27.3408 3.81274 27.3424C3.81274 27.3216 3.82074 27.3088 3.84314 27.3072Z" fill="#070707"/>
<path d="M8.46717 21.7136C8.46877 21.736 8.45917 21.7472 8.43677 21.7488C8.43677 21.728 8.44477 21.7152 8.46717 21.7136Z" fill="#070707"/>
<path d="M8.17115 22.0736C8.17275 22.096 8.16315 22.1088 8.14075 22.1088C8.14075 22.088 8.14875 22.0752 8.17115 22.0736Z" fill="#070707"/>
<path d="M11.264 18.3408C11.2656 18.3632 11.256 18.3744 11.2336 18.3744C11.2336 18.3536 11.2416 18.3408 11.264 18.3408Z" fill="#070707"/>
<path d="M24.5776 19.8736C24.6 19.8496 24.6048 19.8672 24.6096 19.8864C24.5968 19.8896 24.5824 19.8928 24.5776 19.8736Z" fill="#070707"/>
<path d="M18.9377 15.856C18.9409 15.8464 18.9297 15.8304 18.9489 15.8272C18.9505 15.8368 18.9521 15.8464 18.9537 15.856C18.9489 15.856 18.9425 15.856 18.9377 15.856Z" fill="#070707"/>
<path d="M12.0624 23.768C12.0624 23.7968 12.0448 23.7856 12.0304 23.7808C12.0352 23.7616 12.0496 23.7664 12.0624 23.768Z" fill="#070707"/>
<path d="M12.6096 20.6176C12.6096 20.6016 12.6192 20.5936 12.6352 20.5952C12.624 20.6 12.6272 20.6208 12.6096 20.6176Z" fill="#070707"/>
<path d="M12.4368 20.8368C12.4384 20.8208 12.4464 20.8112 12.464 20.8144C12.4544 20.8208 12.4544 20.84 12.4368 20.8368Z" fill="#070707"/>
<path d="M13.2032 19.8544C13.2032 19.8384 13.2112 19.8288 13.2288 19.8304C13.2224 19.84 13.2208 19.856 13.2032 19.8544Z" fill="#070707"/>
<path d="M12.5776 20.6768C12.5776 20.6768 12.5856 20.6624 12.5904 20.656C12.5904 20.6656 12.5984 20.68 12.5776 20.6768Z" fill="#070707"/>
<path d="M11.5328 21.9936C11.5328 21.9936 11.536 21.9872 11.5376 21.984C11.5392 21.984 11.544 21.9872 11.544 21.9888C11.544 21.9968 11.5392 21.9984 11.5328 21.9936Z" fill="#070707"/>
<path d="M20.4688 16.328C20.4688 16.328 20.4783 16.3344 20.4847 16.3392C20.4735 16.3456 20.4704 16.3376 20.4688 16.328Z" fill="#070707"/>
<path d="M11.2976 22.2896C11.2976 22.2896 11.3008 22.2816 11.3056 22.28C11.3056 22.2816 11.3088 22.2832 11.3104 22.2864C11.3072 22.2864 11.3024 22.288 11.2992 22.2896H11.2976Z" fill="#070707"/>
<path d="M14.6256 22.3152C14.6256 22.3152 14.616 22.3232 14.6112 22.328C14.6112 22.3184 14.6144 22.312 14.6256 22.3152Z" fill="#070707"/>
<path d="M12.1248 21.2496C12.1248 21.2496 12.1328 21.24 12.1376 21.2352C12.1408 21.2464 12.1344 21.2496 12.1248 21.2496Z" fill="#070707"/>
<path d="M10.5312 8.78241C10.5312 8.78241 10.5232 8.79201 10.5184 8.79681C10.5152 8.78561 10.5216 8.78241 10.5312 8.78241Z" fill="#070707"/>
<path d="M12.1873 21.1744C12.1873 21.1744 12.1953 21.1616 12.2001 21.1552C12.2001 21.1648 12.2033 21.176 12.1873 21.1744Z" fill="#070707"/>
<path d="M25.7648 7.99681C25.7648 7.99681 25.7728 7.98881 25.7776 7.98401C25.7792 7.99521 25.7776 8.00001 25.7648 7.99681Z" fill="#070707"/>
<path d="M12.3024 21.0352C12.3024 21.0352 12.3072 21.0208 12.3104 21.0144C12.3136 21.024 12.3136 21.032 12.3024 21.0352Z" fill="#070707"/>
<path d="M12.408 20.8768C12.408 20.8768 12.416 20.8656 12.4192 20.8592C12.424 20.8704 12.416 20.8736 12.408 20.8768Z" fill="#070707"/>
<path d="M13.8912 22.6592C13.8912 22.6592 13.8816 22.6672 13.8768 22.6704C13.8768 22.6608 13.88 22.6528 13.8912 22.6592Z" fill="#070707"/>
<path d="M13.8591 22.6768C13.8591 22.6768 13.8479 22.6832 13.8431 22.6864C13.8463 22.6784 13.8479 22.6688 13.8591 22.6768Z" fill="#070707"/>
<path d="M13.7808 22.7232C13.7808 22.7232 13.7696 22.7296 13.7632 22.7328C13.7664 22.7248 13.768 22.7152 13.7808 22.7232Z" fill="#070707"/>
<path d="M13.7344 22.7536C13.7344 22.7536 13.7232 22.7616 13.7168 22.7648C13.72 22.7568 13.7232 22.7472 13.7344 22.7536Z" fill="#070707"/>
<path d="M13.688 22.7856C13.688 22.7856 13.6768 22.792 13.672 22.7952C13.6752 22.7872 13.6768 22.7792 13.688 22.7856Z" fill="#070707"/>
<path d="M13.5952 22.8768C13.5952 22.8768 13.5952 22.8848 13.5952 22.888C13.592 22.8848 13.5872 22.8832 13.584 22.88C13.5872 22.88 13.592 22.8784 13.5952 22.8768Z" fill="#070707"/>
<path d="M10.6625 10.9376C10.6625 10.9376 10.6689 10.9472 10.6721 10.952C10.6625 10.952 10.6545 10.9504 10.6625 10.9376Z" fill="#070707"/>
<path d="M26 7.69917C26 7.69917 26.0032 7.69118 26.008 7.68958C26.0144 7.70078 26.0096 7.70237 26 7.69917Z" fill="#070707"/>
<path d="M12.4688 20.816C12.4688 20.816 12.4768 20.8032 12.4816 20.7968C12.4816 20.8064 12.4847 20.8176 12.4688 20.816Z" fill="#070707"/>
<path d="M11.376 22.1904C11.376 22.1904 11.384 22.1776 11.3888 22.1728C11.392 22.184 11.384 22.1872 11.376 22.1904Z" fill="#070707"/>
<path d="M12.6416 20.5952C12.6416 20.5952 12.6496 20.584 12.6544 20.5776C12.6544 20.5872 12.6576 20.5968 12.6416 20.5952Z" fill="#070707"/>
<path d="M12.72 20.4784C12.72 20.4784 12.7232 20.4704 12.7264 20.4688C12.7344 20.4784 12.7312 20.4816 12.72 20.4784Z" fill="#070707"/>
<path d="M11.9856 21.416C11.9856 21.416 11.9888 21.408 11.992 21.4048C11.9984 21.4144 11.9968 21.4176 11.9856 21.416Z" fill="#070707"/>
<path d="M26.0464 7.63841C26.0464 7.63841 26.0544 7.63041 26.0592 7.62561C26.0624 7.63681 26.0592 7.64161 26.0464 7.63841Z" fill="#070707"/>
<path d="M12.7968 20.3904C12.7968 20.3904 12.8048 20.3808 12.8096 20.3744C12.8128 20.3856 12.8064 20.3888 12.7968 20.3904Z" fill="#070707"/>
<path d="M12.8289 20.3376C12.8289 20.3376 12.8321 20.3296 12.8369 20.3264C12.8433 20.336 12.8401 20.3392 12.8289 20.3376Z" fill="#070707"/>
<path d="M12.9376 20.1968C12.9376 20.1968 12.9408 20.1888 12.9456 20.1872C12.9456 20.1888 12.9488 20.192 12.9504 20.1936C12.9456 20.1936 12.9424 20.1952 12.9376 20.1968Z" fill="#070707"/>
<path d="M12.9696 20.1712C12.9696 20.1712 12.9776 20.1616 12.9824 20.1568C12.9856 20.168 12.9792 20.1712 12.9696 20.1712Z" fill="#070707"/>
<path d="M13.048 20.056C13.048 20.056 13.0512 20.048 13.056 20.0448C13.0624 20.0544 13.0592 20.0576 13.048 20.056Z" fill="#070707"/>
<path d="M26.4368 7.136C26.4368 7.136 26.44 7.128 26.4448 7.1264C26.4512 7.1376 26.4464 7.1392 26.4368 7.136Z" fill="#070707"/>
<path d="M26.7808 6.6832C26.7808 6.6832 26.7856 6.6736 26.7904 6.672C26.7952 6.6832 26.7904 6.6848 26.7808 6.6832Z" fill="#070707"/>
<path d="M13.0944 19.9952C13.0944 19.9952 13.1024 19.9872 13.1056 19.9824C13.1088 19.9936 13.1056 19.9984 13.0944 19.9952Z" fill="#070707"/>
<path d="M24.2177 4.22239C24.2177 4.22239 24.2081 4.23039 24.2017 4.23519C24.2017 4.22559 24.2049 4.21919 24.2177 4.22239Z" fill="#070707"/>
<path d="M10.832 11.36C10.832 11.36 10.84 11.3696 10.8448 11.3744C10.8352 11.3744 10.8288 11.3728 10.832 11.36Z" fill="#070707"/>
<path d="M10.912 11.5312C10.912 11.5312 10.92 11.5392 10.9232 11.5424C10.9136 11.544 10.9088 11.5424 10.912 11.5312Z" fill="#070707"/>
<path d="M11.7184 21.752L11.7312 21.7344C11.7344 21.7456 11.7264 21.7488 11.7184 21.752Z" fill="#070707"/>
<path d="M13.2352 19.8144L13.2464 19.7968C13.2512 19.808 13.2432 19.8112 13.2352 19.8144Z" fill="#070707"/>
<path d="M13.36 19.6512L13.3712 19.6384C13.3744 19.6496 13.3712 19.6544 13.36 19.6512Z" fill="#070707"/>
<path d="M17.8449 19.608C17.8449 19.608 17.8337 19.6 17.8289 19.5952C17.8401 19.592 17.8433 19.5984 17.8449 19.608Z" fill="#070707"/>
<path d="M17.344 19.4688C17.344 19.4688 17.3328 19.4608 17.328 19.4576C17.3392 19.4512 17.3424 19.4592 17.344 19.4688Z" fill="#070707"/>
<path d="M11.0512 11.7824C11.0512 11.7824 11.0592 11.7904 11.0624 11.7952C11.0528 11.7968 11.048 11.7936 11.0512 11.7824Z" fill="#070707"/>
<path d="M15.7808 23.8224C15.7808 23.8224 15.784 23.8144 15.7888 23.8128C15.7952 23.824 15.7904 23.8256 15.7808 23.8224Z" fill="#070707"/>
<path d="M11.9217 23.848C11.9217 23.848 11.9105 23.8544 11.9041 23.8592C11.9073 23.8512 11.9105 23.8416 11.9217 23.848Z" fill="#070707"/>
<path d="M11.8128 23.9104C11.8128 23.9104 11.8016 23.9168 11.7952 23.92C11.7984 23.912 11.8 23.9024 11.8128 23.9104Z" fill="#070707"/>
<path d="M11.7664 23.9408C11.7664 23.9408 11.7568 23.9488 11.752 23.9536C11.752 23.944 11.7552 23.9376 11.7664 23.9408Z" fill="#070707"/>
<path d="M11.7344 23.9584L11.7184 23.968C11.7184 23.968 11.7232 23.9504 11.7344 23.9584Z" fill="#070707"/>
<path d="M11.688 23.9888C11.688 23.9888 11.6768 23.9952 11.672 23.9984C11.6752 23.9904 11.6768 23.9808 11.688 23.9888Z" fill="#070707"/>
<path d="M22.9664 19.1728C22.9664 19.1728 22.9776 19.1808 22.984 19.184C22.9728 19.1888 22.9696 19.1808 22.9664 19.1728Z" fill="#070707"/>
<path d="M14.4384 18.984C14.4384 18.984 14.4304 18.9936 14.4256 18.9984C14.4208 18.9872 14.4288 18.984 14.4384 18.984Z" fill="#070707"/>
<path d="M14.4528 18.9376C14.4528 18.9376 14.4464 18.9472 14.4432 18.952C14.4368 18.9408 14.4448 18.9392 14.4528 18.9376Z" fill="#070707"/>
<path d="M14.4688 18.9056C14.4688 18.9056 14.4608 18.9168 14.456 18.9216C14.4512 18.9104 14.4592 18.9072 14.4688 18.9056Z" fill="#070707"/>
<path d="M25.392 18.8912L25.3744 18.8816C25.3856 18.8752 25.3888 18.8848 25.392 18.8912Z" fill="#070707"/>
<path d="M22.4528 18.8432C22.4528 18.8432 22.4624 18.8512 22.4672 18.856C22.456 18.8608 22.4528 18.8544 22.4528 18.8432Z" fill="#070707"/>
<path d="M15.5441 12.6416C15.5441 12.6416 15.536 12.6304 15.5312 12.6256C15.5408 12.6272 15.5473 12.6304 15.5441 12.6416Z" fill="#070707"/>
<path d="M14.5008 18.7968C14.5008 18.7968 14.4944 18.8064 14.4912 18.8112C14.4832 18.7984 14.4912 18.7984 14.5008 18.7968Z" fill="#070707"/>
<path d="M14.5152 18.7344C14.5152 18.7344 14.5072 18.744 14.5024 18.7488C14.4992 18.7376 14.5056 18.7344 14.5152 18.7344Z" fill="#070707"/>
<path d="M14.5312 18.672C14.5312 18.672 14.5232 18.6816 14.5184 18.688C14.5152 18.6768 14.5216 18.6736 14.5312 18.672Z" fill="#070707"/>
<path d="M21.9056 18.6256C21.9056 18.6256 21.9168 18.6336 21.9216 18.6384C21.9104 18.6416 21.9072 18.6352 21.9056 18.6256Z" fill="#070707"/>
<path d="M21.8433 18.6096C21.8433 18.6096 21.8545 18.6176 21.8593 18.6224C21.8481 18.6256 21.8449 18.6192 21.8433 18.6096Z" fill="#070707"/>
<path d="M24.9168 18.5776C24.9168 18.5776 24.9088 18.5744 24.9072 18.5696C24.9184 18.5632 24.92 18.568 24.9168 18.5776Z" fill="#070707"/>
<path d="M24.5265 18.2816C24.5265 18.2816 24.5185 18.2752 24.5153 18.272C24.5265 18.2672 24.5297 18.272 24.5265 18.2816Z" fill="#070707"/>
<path d="M20.7024 18.0176C20.7024 18.0176 20.6944 18.0256 20.6912 18.0304C20.688 18.0192 20.6928 18.016 20.7024 18.0176Z" fill="#070707"/>
<path d="M24.1823 18.016C24.1823 18.016 24.1727 18.0128 24.1711 18.0064C24.1823 18.0016 24.1839 18.0064 24.1823 18.016Z" fill="#070707"/>
<path d="M15.9632 17.984C15.9632 17.984 15.9568 17.9744 15.9536 17.968C15.9616 17.9696 15.9712 17.9712 15.9632 17.984Z" fill="#070707"/>
<path d="M12.7136 16.8896C12.7136 16.8896 12.7072 16.8832 12.7024 16.8784C12.7136 16.8752 12.7168 16.8784 12.7136 16.8896Z" fill="#070707"/>
<path d="M12.3584 13.064C12.3584 13.064 12.3696 13.0704 12.376 13.0752C12.3648 13.0816 12.3616 13.072 12.3584 13.064Z" fill="#070707"/>
<path d="M20.7072 16.704L20.7184 16.7152C20.7088 16.7168 20.704 16.7152 20.7072 16.704Z" fill="#070707"/>
<path d="M12.6304 13.2656C12.6304 13.2656 12.6384 13.2688 12.64 13.2736C12.6288 13.2816 12.6272 13.2752 12.6304 13.2656Z" fill="#070707"/>
<path d="M19.952 15.9216C19.952 15.9216 19.9632 15.928 19.968 15.9312C19.9568 15.9392 19.9552 15.9296 19.952 15.9216Z" fill="#070707"/>
<path d="M19.7808 15.8288C19.7808 15.8288 19.7904 15.8368 19.7968 15.8416C19.7856 15.8448 19.7824 15.8384 19.7808 15.8288Z" fill="#070707"/>
<path d="M16.1088 15.7808C16.1088 15.7808 16.1168 15.7712 16.12 15.7664C16.1248 15.7776 16.1184 15.7808 16.1088 15.7808Z" fill="#070707"/>
<path d="M16.5776 15.7232C16.5776 15.7232 16.5696 15.7312 16.5664 15.7344C16.5632 15.7232 16.5664 15.72 16.5776 15.7232Z" fill="#070707"/>
<path d="M17.2656 14.8288C17.2656 14.8288 17.2576 14.8384 17.2528 14.8432C17.2496 14.832 17.256 14.8288 17.2656 14.8288Z" fill="#070707"/>
<path d="M17.328 14.768C17.328 14.768 17.3184 14.776 17.3136 14.7808C17.3136 14.7712 17.3168 14.7648 17.328 14.768Z" fill="#070707"/>
<path d="M17.5472 14.5984C17.5472 14.5984 17.5392 14.6048 17.5344 14.608C17.5312 14.5968 17.536 14.5936 17.5472 14.5984Z" fill="#070707"/>
<path d="M17.656 14.5216C17.656 14.5216 17.6448 14.528 17.6384 14.5312C17.6416 14.5232 17.6432 14.5136 17.656 14.5216Z" fill="#070707"/>
<path d="M19.4064 14.328C19.4064 14.328 19.3936 14.328 19.3872 14.328C19.392 14.3248 19.3952 14.32 19.4 14.3168C19.4016 14.32 19.4048 14.3248 19.4064 14.328Z" fill="#070707"/>
<path d="M13.1569 19.9152C13.1569 19.9152 13.1601 19.9072 13.1633 19.9056C13.1697 19.9152 13.1681 19.9184 13.1569 19.9152Z" fill="#070707"/>
<path d="M12.7664 20.4176L12.7776 20.4064C12.7808 20.4176 12.7776 20.4208 12.7664 20.4176Z" fill="#070707"/>
<path d="M12.1712 12.8304C12.1184 12.8176 12.1056 12.7888 12.1392 12.7376C12.1632 12.7648 12.1616 12.8 12.1744 12.8272L12.1712 12.8304Z" fill="#070707"/>
<path d="M13.6112 13.9984C13.624 14.0064 13.6384 14.0144 13.6368 14.032C13.6368 14.0336 13.632 14.0368 13.6304 14.0368C13.6128 14.032 13.6096 14.016 13.608 14L13.6112 13.9968V13.9984Z" fill="#070707"/>
<path d="M13.9904 21.696C13.9904 21.696 13.9872 21.6992 13.9856 21.6992C13.9856 21.696 13.9824 21.6944 13.9808 21.6912C13.9824 21.6912 13.9856 21.6912 13.9872 21.6912C13.9872 21.6912 13.9888 21.6944 13.9904 21.696Z" fill="#070707"/>
<path d="M13.5489 13.936C13.5489 13.936 13.5601 13.9472 13.5649 13.952L13.5617 13.9552C13.5569 13.9504 13.5505 13.944 13.5457 13.9392L13.5473 13.9376L13.5489 13.936Z" fill="#070707"/>
<path d="M12.1743 12.8272C12.1743 12.8272 12.1775 12.8336 12.1791 12.8352C12.1759 12.8336 12.1727 12.832 12.1711 12.8304L12.1743 12.8272Z" fill="#070707"/>
<path d="M13.5313 13.9232C13.5313 13.9232 13.5201 13.912 13.5153 13.9072L13.5185 13.904C13.5185 13.904 13.5297 13.9152 13.5345 13.92H13.5329L13.5313 13.9232Z" fill="#070707"/>
<path d="M13.4368 13.8304C13.4368 13.8304 13.4336 13.824 13.4304 13.8208C13.4336 13.8224 13.4368 13.824 13.44 13.8272L13.4368 13.8304Z" fill="#070707"/>
<path d="M13.44 13.8272C13.44 13.8272 13.4496 13.8384 13.456 13.8432L13.4528 13.8464C13.448 13.8416 13.4416 13.8352 13.4368 13.8304L13.44 13.8272Z" fill="#070707"/>
<path d="M13.4672 13.8608C13.4672 13.8608 13.456 13.8512 13.4512 13.8448L13.4544 13.8416C13.4592 13.8464 13.464 13.8528 13.4704 13.8576L13.4672 13.8608Z" fill="#070707"/>
<path d="M13.4704 13.8576C13.4704 13.8576 13.48 13.8688 13.4864 13.8736L13.4832 13.8768C13.4832 13.8768 13.472 13.8672 13.4672 13.8608L13.4704 13.8576Z" fill="#070707"/>
<path d="M13.4864 13.8736C13.4864 13.8736 13.496 13.8848 13.5024 13.8896L13.4992 13.8928C13.4944 13.888 13.488 13.8832 13.4832 13.8768L13.4864 13.8736Z" fill="#070707"/>
<path d="M13.5151 13.9072C13.5151 13.9072 13.5055 13.8976 13.4991 13.8912L13.5023 13.888C13.5071 13.8928 13.5119 13.8976 13.5183 13.904L13.5151 13.9072Z" fill="#070707"/>
<path d="M13.608 14.0016C13.608 14.0016 13.5984 13.9904 13.592 13.9856L13.5952 13.9824C13.6 13.9872 13.6064 13.992 13.6112 13.9984L13.608 14.0016Z" fill="#070707"/>
<path d="M13.5793 13.968C13.5793 13.968 13.5905 13.9776 13.5953 13.984L13.592 13.9872C13.5872 13.9824 13.5824 13.976 13.576 13.9712L13.5793 13.968Z" fill="#070707"/>
<path d="M13.5648 13.952C13.5648 13.952 13.5744 13.9616 13.5808 13.968L13.5776 13.9712C13.5728 13.9664 13.568 13.9616 13.5616 13.9552L13.5648 13.952Z" fill="#070707"/>
<path d="M13.5329 13.9216C13.5329 13.9216 13.5425 13.9312 13.5489 13.9376L13.5472 13.9392C13.5424 13.9344 13.5376 13.9296 13.5312 13.9232L13.5329 13.9216Z" fill="#070707"/>
<path d="M5.98886 30.1536C5.97926 30.1536 5.96646 30.1536 5.96486 30.1408C5.96166 30.1264 5.97446 30.1264 5.98406 30.1248C5.99366 30.1248 6.00646 30.1248 6.00806 30.136C6.01126 30.1504 5.99686 30.1504 5.98886 30.152V30.1536Z" fill="#070707"/>
</g>
<defs>
<clipPath id="clip0_149_12984">
<rect width="32" height="32" fill="white"/>
</clipPath>
</defs>
</svg>
