<svg width="32" height="32" viewBox="0 0 32 32" fill="none" xmlns="http://www.w3.org/2000/svg">
<g clip-path="url(#clip0_149_12978)">
<path d="M7.4624 14.6064C7.2624 14.6592 7.1888 14.6112 7.152 14.448C7.1248 14.3248 7.0944 14.2016 7.0592 14.08C7.0352 13.9984 6.9856 13.9264 6.9616 13.8432C6.9232 13.7104 7.0128 13.5168 7.1456 13.4704C7.4208 13.3744 7.6528 13.2064 7.8912 13.0464C7.9024 13.0464 7.912 13.0432 7.912 13.0304C7.912 13.0176 7.904 13.0144 7.8912 13.0176C7.7744 13.0272 7.6672 13.0736 7.5552 13.1008C7.3552 13.1504 7.1632 13.2272 6.9584 13.2544C6.7904 13.2768 6.624 13.2896 6.4544 13.2704C6.0144 13.2208 5.5904 13.1088 5.1712 12.9664C4.7504 12.824 4.3712 12.6016 3.9968 12.368C3.9904 12.3632 3.9824 12.3616 3.976 12.3584C3.968 12.344 3.9552 12.3344 3.9392 12.3296C3.9312 12.3232 3.9232 12.3168 3.9152 12.3104C3.9072 12.2944 3.8944 12.2848 3.8784 12.2816C3.736 12.152 3.5792 12.0416 3.4416 11.9072C3.12 11.5904 2.8928 11.2192 2.7904 10.7776C2.7312 10.5264 2.7408 10.272 2.7744 10.0176C2.7936 9.87358 2.9184 9.76318 3.0688 9.73438C3.0832 9.73118 3.0976 9.72638 3.1136 9.72158C3.1232 9.72158 3.1344 9.71838 3.144 9.71678C3.3472 9.72158 3.552 9.72958 3.7552 9.73278C3.7984 9.73278 3.848 9.74718 3.8848 9.70558C3.8928 9.71838 3.8976 9.71038 3.9024 9.70398C3.9104 9.72158 3.9264 9.72158 3.9424 9.72158C4.1232 9.70718 4.3056 9.69438 4.4864 9.67998C4.528 9.67678 4.5696 9.67518 4.6112 9.67358C4.8416 9.66718 5.072 9.66238 5.3008 9.64318C5.3216 9.64958 5.3424 9.64958 5.3632 9.63998C5.4992 9.64318 5.6336 9.62398 5.7696 9.61278C5.888 9.60318 6.0064 9.59038 6.1232 9.58238C6.352 9.56798 6.5776 9.53598 6.8048 9.50718C7.0176 9.47998 7.2192 9.39838 7.432 9.37918C7.5984 9.36478 7.7648 9.35038 7.9296 9.32798C8.04 9.31358 8.1552 9.32958 8.2608 9.28158C8.2656 9.29118 8.2704 9.28958 8.2752 9.28158C8.3056 9.31198 8.344 9.29758 8.3776 9.29598C8.4976 9.29278 8.6176 9.30718 8.736 9.27998C8.7536 9.28958 8.7632 9.27518 8.776 9.26718C8.808 9.31358 8.84 9.26238 8.872 9.26718C8.9456 9.27198 9.0208 9.27038 9.096 9.26878C9.1584 9.26878 9.2224 9.27358 9.2848 9.25278C9.3008 9.27678 9.3152 9.27518 9.3312 9.25278C9.7248 9.23358 10.1184 9.22558 10.5104 9.21598C10.6752 9.21118 10.84 9.21598 11.0048 9.19838C11.0288 9.19678 11.0592 9.20798 11.0736 9.17598C11.1312 9.21278 11.192 9.18558 11.2512 9.18718C11.5568 9.19198 11.8624 9.19678 12.168 9.20318C12.1856 9.20798 12.1936 9.20318 12.184 9.18558C12.08 9.00318 11.9856 8.81598 11.9088 8.61918C11.888 8.56478 11.8944 8.54718 11.9552 8.53278C12.384 8.42398 12.8224 8.35998 13.2528 8.25598C13.4336 8.21278 13.616 8.17918 13.7968 8.13918C13.8304 8.13118 13.848 8.13278 13.8672 8.16318C14.112 8.53918 14.4592 8.77438 14.8912 8.88638C14.9472 8.90078 15.0048 8.91838 15.064 8.90878C15.0752 8.90878 15.0848 8.91038 15.096 8.91198C15.5088 8.95518 15.8784 8.85278 16.2048 8.59518C16.2272 8.58718 16.2432 8.57278 16.2544 8.55358C16.5088 8.33598 16.6736 8.06878 16.72 7.73438C16.7232 7.70878 16.7376 7.68798 16.7376 7.66078C16.7392 7.51678 16.7408 7.51838 16.888 7.49278C17.2016 7.43678 17.5168 7.38718 17.8272 7.31518C17.9952 7.27678 18.168 7.25598 18.3344 7.20478C18.3952 7.18558 18.464 7.19518 18.5264 7.16798C18.5584 7.15358 18.568 7.19518 18.5664 7.22558C18.5664 7.34558 18.5488 7.46718 18.5664 7.58398C18.5792 7.67038 18.5488 7.74878 18.5584 7.83038C18.5616 7.85758 18.5216 7.86718 18.5248 7.89598C18.5088 7.90238 18.5136 7.91678 18.5152 7.92798C18.5088 7.96958 18.5024 8.01118 18.4944 8.05278C18.4768 8.05918 18.48 8.07198 18.4848 8.08478C18.48 8.11198 18.4752 8.13758 18.472 8.16478C18.4592 8.17758 18.4432 8.18878 18.4544 8.20958C18.4416 8.25598 18.4304 8.30238 18.4176 8.35038C18.3984 8.35518 18.4032 8.36958 18.4064 8.38238C18.3296 8.63998 18.2064 8.87678 18.0736 9.11038C18.056 9.14238 18.0336 9.17118 18.0416 9.21118C18.0432 9.22238 18.048 9.23678 18.0288 9.24158C17.9456 9.26078 17.9472 9.35838 17.8784 9.39838C18.04 9.40638 18.1952 9.42238 18.352 9.40958C18.4208 9.40318 18.4896 9.42078 18.56 9.40158C18.616 9.38718 18.6736 9.37758 18.7312 9.36478C18.7536 9.36798 18.776 9.36798 18.7936 9.35198C18.9424 9.34078 19.0816 9.28478 19.216 9.23198C19.4784 9.12798 19.7536 9.06558 20.0224 8.98558C20.872 8.73438 21.7232 8.49278 22.5824 8.28158C22.9504 8.19198 23.32 8.10878 23.6912 8.03358C24.2416 7.92158 24.784 7.77918 25.3328 7.66078C25.568 7.60958 25.8016 7.55518 26.0368 7.51358C26.5504 7.42398 27.0544 7.29598 27.5616 7.17918C27.7568 7.13438 27.952 7.09118 28.144 7.03678C28.2416 7.00798 28.3456 7.01438 28.4448 7.03518C28.5424 7.05598 28.576 7.13918 28.6016 7.22238C28.7184 7.60478 28.8496 7.98398 28.9984 8.35518C29.056 8.49758 29.1248 8.63518 29.1888 8.77438C29.1776 8.79838 29.192 8.80638 29.2128 8.81118C29.312 9.04958 29.4256 9.28318 29.5024 9.52958C29.5136 9.56478 29.5216 9.59838 29.5312 9.63358C29.528 9.64638 29.5232 9.66078 29.5424 9.66558C29.5424 9.67678 29.5424 9.68638 29.5424 9.69758C29.5152 9.70718 29.5296 9.72798 29.5296 9.74398C29.4816 9.82398 29.4016 9.86398 29.3232 9.90238C29.064 10.0272 28.792 10.1024 28.5056 10.136C28.4704 10.1408 28.4368 10.1568 28.4 10.1536C28.3888 10.1504 28.384 10.1568 28.3824 10.1664C28.2528 10.184 28.1232 10.2 27.9952 10.2208C27.8496 10.2432 27.704 10.2656 27.5568 10.2784C27.3856 10.2912 27.216 10.3104 27.0448 10.3232C26.9088 10.3328 26.7728 10.336 26.6352 10.3424C26.6176 10.3424 26.5984 10.3312 26.5872 10.3536C26.288 10.3856 25.9856 10.3856 25.6848 10.392C24.976 10.408 24.2672 10.4496 23.5584 10.4832C23.4064 10.4912 23.2528 10.4832 23.1008 10.4976C22.3952 10.5664 21.6864 10.552 20.9792 10.592C20.6912 10.608 20.4016 10.6064 20.1136 10.6224C19.9248 10.6336 19.7376 10.664 19.5488 10.6816C19.4 10.696 19.2512 10.7024 19.1024 10.7152C18.9392 10.7296 18.776 10.7488 18.6112 10.76C18.5056 10.7664 18.4032 10.7792 18.2976 10.7936C17.9872 10.8352 17.6816 10.904 17.3904 11.024C16.8624 11.2416 16.344 11.4832 15.8 11.6624C15.4112 11.7904 15.0288 11.9424 14.6272 12.0352C14.4128 12.0848 14.1984 12.112 13.9776 12.088C13.7968 12.0672 13.6128 12.0688 13.432 12.0848C12.9712 12.128 12.5424 12.0448 12.1504 11.7904C12.0224 11.7072 11.8832 11.6384 11.7328 11.6C11.7152 11.5952 11.6976 11.5952 11.68 11.592C11.6704 11.584 11.6592 11.584 11.6496 11.592C11.5728 11.584 11.504 11.6032 11.432 11.6336C11.056 11.7952 10.7024 11.9936 10.3632 12.2224C9.9664 12.4896 9.56 12.7424 9.1552 12.9968C8.6592 13.3088 8.2432 13.7104 7.8512 14.1376C7.7216 14.2784 7.5904 14.4192 7.4928 14.5872C7.48 14.5968 7.4688 14.608 7.456 14.6176L7.4624 14.6064Z" fill="black"/>
<path d="M9.14088 21.2816C9.14088 21.3904 9.14408 21.4992 9.14408 21.6096C9.14408 21.6256 9.13288 21.6464 9.15528 21.6576C9.17128 21.984 9.18248 22.3104 9.20648 22.6368C9.22088 22.84 9.25768 23.04 9.27368 23.2432C9.28808 23.424 9.33608 23.6 9.33288 23.7808C9.32968 23.7936 9.32648 23.808 9.34408 23.8128C9.34408 23.864 9.34728 23.9168 9.34888 23.968C9.34728 23.9808 9.34248 23.9952 9.36008 24C9.38248 24.24 9.40488 24.48 9.44008 24.7184C9.44328 24.744 9.44168 24.7696 9.44168 24.7952C9.43848 24.808 9.43528 24.8208 9.45288 24.8272L9.47368 25.0912C9.47048 25.104 9.46728 25.1168 9.48328 25.1232C9.48488 25.1648 9.48648 25.2064 9.48808 25.2464C9.48488 25.2592 9.48168 25.272 9.49768 25.2784C9.50408 25.3872 9.51208 25.496 9.51848 25.6048C9.51688 25.6176 9.51208 25.6304 9.52808 25.6368C9.52968 25.6992 9.53128 25.7616 9.53448 25.8224C9.53288 25.8352 9.52808 25.848 9.54408 25.8544L9.54888 26.088C9.54568 26.1008 9.54248 26.1136 9.55848 26.12C9.58408 26.568 9.60008 27.0176 9.57928 27.4672C9.57608 27.5392 9.55688 27.6096 9.55848 27.6816C9.54088 27.688 9.54568 27.7008 9.54728 27.7136C9.53128 27.904 9.48968 28.0912 9.44008 28.2752C9.37128 28.5296 9.30568 28.7856 9.20648 29.032C9.13288 29.2128 9.03048 29.3776 8.91848 29.536C8.90248 29.544 8.89288 29.5568 8.88808 29.5728C8.87208 29.5888 8.85768 29.6032 8.84168 29.6192C8.82408 29.6256 8.80808 29.6368 8.79848 29.6528C8.72648 29.7408 8.65448 29.8256 8.55208 29.8784C8.44968 29.9312 8.34728 29.912 8.27208 29.824C8.26888 29.8144 8.26568 29.8032 8.26248 29.7936C8.26888 29.7696 8.25288 29.7536 8.24168 29.7376C7.97928 29.3616 7.74408 28.968 7.48808 28.5888C7.15048 28.0928 6.77928 27.6224 6.33608 27.216C6.23048 27.12 6.11848 27.0304 6.00648 26.9408C5.82568 26.7936 5.66888 26.624 5.54088 26.4288C5.51848 26.3952 5.50248 26.3632 5.53288 26.3232C5.54088 26.312 5.54088 26.2928 5.53928 26.2784C5.53768 26.1216 5.52968 25.9648 5.53288 25.808C5.53608 25.6832 5.55208 25.5584 5.56168 25.4336C5.56808 25.424 5.56968 25.4128 5.56488 25.4016C5.59208 25.3088 5.58088 25.2128 5.59208 25.1168C5.61288 24.944 5.62888 24.7728 5.65448 24.6C5.67368 24.4688 5.68648 24.336 5.70408 24.2032C5.72328 24.0512 5.75208 23.9008 5.76328 23.7488C5.77128 23.6416 5.79368 23.536 5.80008 23.4288C5.80648 23.304 5.83048 23.1808 5.84328 23.056C5.85608 22.9392 5.86568 22.8208 5.87528 22.704C5.88968 22.5376 5.90728 22.3728 5.92008 22.2064C5.92808 22.112 5.92808 22.016 5.93448 21.92C5.95048 21.664 5.96648 21.408 6.00008 21.152C6.02888 20.928 6.05128 20.7024 6.08008 20.4784C6.10408 20.2864 6.13608 20.0944 6.15848 19.9024C6.17928 19.7264 6.18728 19.5504 6.20648 19.3744C6.22408 19.1984 6.25448 19.024 6.26728 18.8496C6.28488 18.5936 6.36008 18.3488 6.39528 18.0976C6.42088 17.9104 6.45768 17.7264 6.48168 17.5392C6.49288 17.4464 6.48808 17.352 6.48808 17.2576C6.48808 16.9984 6.48968 16.7392 6.48808 16.4784C6.48808 16.3696 6.48328 16.2608 6.48168 16.152C6.48328 16.1296 6.49128 16.1072 6.47048 16.0896C6.47528 15.9872 6.45928 15.888 6.44648 15.7872C6.43048 15.6656 6.45288 15.5632 6.55048 15.472C6.75368 15.28 6.97288 15.1088 7.19528 14.944C7.34888 14.8304 7.48808 14.704 7.61928 14.5648C7.80008 14.3728 8.01608 14.2208 8.23368 14.0736C8.27208 14.048 8.31368 14.0256 8.36328 14.024H8.42568C8.51368 14.0416 8.57288 14.1008 8.61288 14.1744C8.70248 14.3392 8.75848 14.5168 8.76808 14.704C8.77288 14.808 8.80968 14.9056 8.80328 15.0112C8.80168 15.024 8.79688 15.0384 8.81448 15.0432C8.81448 15.0688 8.81768 15.0944 8.81928 15.12C8.81928 15.1376 8.80808 15.1568 8.83048 15.168C8.84488 15.32 8.86248 15.472 8.90088 15.6208C8.92488 15.712 8.91528 15.8064 8.92488 15.8992C8.97288 16.3312 8.98728 16.7648 8.99528 17.2C9.00008 17.4208 9.00168 17.6432 9.00328 17.864C9.00328 18.0736 9.02888 18.28 9.04808 18.488C9.05448 18.552 9.05288 18.6176 9.05448 18.6832C9.05448 18.7152 9.03848 18.7488 9.06568 18.7776C9.07848 19.1984 9.08488 19.6208 9.08488 20.0416C9.08488 20.2784 9.10888 20.5168 9.12008 20.7536C9.12648 20.8912 9.12808 21.0288 9.13128 21.1664C9.13448 21.2032 9.11368 21.2416 9.14248 21.2768L9.14088 21.2816Z" fill="black"/>
<path d="M11.6832 7.23518C11.696 6.76638 11.8272 6.32638 12.024 5.90718C12.2592 5.40638 12.6 4.99038 13.04 4.65598C13.0576 4.64158 13.0752 4.62718 13.0928 4.61118C13.1824 4.55038 13.2768 4.49598 13.36 4.42398C13.4992 4.34398 13.6368 4.26238 13.7904 4.21118C13.8032 4.20638 13.816 4.20478 13.8272 4.20158C13.8384 4.20798 13.8416 4.19998 13.8432 4.19038C14.0416 4.12798 14.2336 4.04638 14.4416 4.01598C14.5536 3.99838 14.6656 3.97438 14.7792 3.97118C14.8048 3.97118 14.832 3.97118 14.8576 3.97118C15.0448 3.95358 15.232 3.95998 15.4192 3.97438C15.4304 3.99838 15.4496 3.98558 15.4672 3.98558C15.4976 3.98558 15.5296 3.98878 15.56 3.99038C15.5712 4.01438 15.5904 4.00158 15.608 4.00158C15.6128 4.00158 15.6192 4.00158 15.624 4.00158C15.6528 3.99678 15.6736 4.02718 15.7024 4.01758C15.7072 4.01758 15.7136 4.01758 15.7184 4.01758C15.7408 4.01278 15.7552 4.04638 15.7808 4.03198C16.2416 4.11998 16.6624 4.29918 17.0432 4.57118C17.064 4.58558 17.0864 4.59998 17.1072 4.61438C17.1248 4.63198 17.1408 4.66878 17.16 4.61598C17.1696 4.60318 17.1792 4.59198 17.1872 4.57918C17.256 4.46078 17.256 4.44958 17.1536 4.35518C16.992 4.20478 16.824 4.06238 16.6304 3.95358C16.5824 3.92638 16.5472 3.88318 16.5056 3.84958C16.4368 3.79678 16.4544 3.67518 16.552 3.64798C16.624 3.62718 16.6976 3.60798 16.7712 3.59998C16.9904 3.57918 17.2064 3.54238 17.424 3.50718C17.6672 3.46878 17.9072 3.42078 18.1472 3.36958C18.76 3.24158 19.3648 3.08638 19.9792 2.96158C20.6 2.83518 21.2192 2.69278 21.8384 2.55838C22.0864 2.50398 22.3376 2.46878 22.5872 2.42718C22.8544 2.38238 23.1216 2.34238 23.3872 2.29278C23.5808 2.25598 23.7776 2.22238 23.9728 2.19358C24.232 2.15518 24.488 2.10078 24.7488 2.07198C24.9584 2.04798 25.168 2.01598 25.376 1.98558C25.5616 1.95838 25.7488 1.93438 25.9328 1.89758C26.0576 1.87198 26.1872 1.87678 26.3104 1.83838C26.3216 1.83838 26.3312 1.83518 26.3424 1.83358C26.4768 1.81758 26.6144 1.81118 26.7456 1.78078C26.8752 1.75038 27.0064 1.74878 27.136 1.72638C27.2928 1.69918 27.4496 1.67518 27.6064 1.65118C27.616 1.64958 27.6272 1.64798 27.6368 1.64638C27.6592 1.64798 27.68 1.64958 27.6992 1.63678C27.7104 1.63518 27.72 1.63358 27.7312 1.63038C27.8576 1.62398 27.9808 1.59358 28.104 1.56478C28.1776 1.54718 28.2336 1.56318 28.2912 1.60318C28.4592 1.72158 28.5472 1.89118 28.5952 2.08478C28.5904 2.09598 28.5968 2.09918 28.6064 2.10238C28.6304 2.19038 28.6544 2.27838 28.6784 2.36638C28.6816 2.37598 28.6848 2.38718 28.6864 2.39678C28.6864 2.41278 28.6864 2.42878 28.688 2.44478C28.6864 2.46718 28.672 2.49118 28.6992 2.50718C28.6992 2.52798 28.6992 2.54878 28.6992 2.56958C28.672 2.58718 28.6864 2.61118 28.6896 2.63198C28.6672 2.78878 28.6096 2.93278 28.5184 3.06238C28.4816 3.11518 28.4336 3.15518 28.376 3.18078C27.936 3.37438 27.496 3.56638 27.0208 3.65598C26.8384 3.68958 26.656 3.73278 26.4672 3.72638C26.4176 3.72478 26.4128 3.73758 26.4288 3.78558C26.4544 3.86078 26.4752 3.93918 26.4816 4.01918C26.488 4.09278 26.4576 4.14398 26.4064 4.18878C26.3472 4.24158 26.28 4.27998 26.208 4.31038C25.8944 4.44958 25.5648 4.53918 25.2288 4.60158C25.1824 4.60958 25.1376 4.62878 25.0912 4.64158C25.0816 4.64478 25.0704 4.64638 25.0608 4.64958C24.9568 4.67198 24.8496 4.68478 24.7488 4.71998C24.736 4.71358 24.7264 4.71998 24.7168 4.72638C24.4496 4.77278 24.1824 4.81918 23.9152 4.86398C23.808 4.88158 23.6992 4.89758 23.592 4.91518C23.5792 4.91198 23.5664 4.90878 23.56 4.92638C23.3296 4.96798 23.0992 5.01918 22.8688 5.06398C22.6944 5.09758 22.5136 5.10718 22.3408 5.15198C22.1952 5.19038 22.0448 5.19198 21.8976 5.22238C21.7344 5.25758 21.5712 5.29278 21.4048 5.31998C20.92 5.40158 20.4384 5.49758 19.9648 5.63038C19.8816 5.65278 19.7952 5.66558 19.7136 5.68478C19.6096 5.70878 19.512 5.67838 19.4128 5.69278C19.368 5.69918 19.3504 5.65598 19.3168 5.63678C19.2192 5.58238 19.1248 5.52158 19.024 5.47198C18.7168 5.31998 18.4368 5.12798 18.1664 4.91838C18.136 4.89438 18.104 4.87358 18.072 4.84958C18.0608 4.83198 18.0464 4.81758 18.0256 4.82078C18.008 4.82238 18.0128 4.83838 18.016 4.84958C17.9952 4.92958 17.9776 5.01118 17.952 5.09118C17.904 5.23518 17.9504 5.36318 18.0208 5.48478C18.1072 5.63198 18.2176 5.76158 18.2912 5.91838C18.3104 5.95838 18.3296 5.99678 18.344 6.03998C18.368 6.11838 18.3056 6.11998 18.272 6.12798C18.0608 6.17118 17.8528 6.22558 17.6432 6.27518C17.52 6.30558 17.3936 6.32638 17.2736 6.36638C17.0384 6.44638 16.7904 6.47038 16.5552 6.54878C16.4592 6.58078 16.4176 6.56478 16.3712 6.47678C16.248 6.24158 16.0192 6.15198 15.7968 6.04958C15.6928 6.00158 15.576 5.98878 15.4736 5.93278C15.4576 5.92478 15.4384 5.92158 15.4208 5.91838C14.816 5.83838 14.2976 5.99838 13.9024 6.48158C13.7632 6.65278 13.6752 6.84958 13.6352 7.06718C13.6288 7.10238 13.6112 7.12318 13.5696 7.13118C13.4352 7.15358 13.2992 7.17438 13.168 7.20638C12.8848 7.27518 12.5936 7.29918 12.3088 7.35038C12.2256 7.36478 12.1376 7.36158 12.0576 7.40478C12.0272 7.42078 11.9872 7.38878 11.944 7.40478C11.8912 7.42558 11.8288 7.42398 11.7696 7.42558C11.688 7.42878 11.664 7.39838 11.6752 7.31678C11.6784 7.29598 11.6784 7.27518 11.68 7.25598C11.68 7.25118 11.68 7.24478 11.68 7.23998L11.6832 7.23518Z" fill="black"/>
<path d="M8.51828 6.68959C8.51828 6.68959 8.50708 6.69279 8.50068 6.69439C8.48788 6.68799 8.48788 6.69439 8.48628 6.70399C8.47988 6.70559 8.47508 6.70719 8.46868 6.70879C8.45588 6.70239 8.45588 6.70879 8.45588 6.71839C8.19348 6.85279 7.94068 7.00479 7.67188 7.12959C7.66068 7.12319 7.65748 7.12959 7.65748 7.14079C7.65268 7.14239 7.64628 7.14399 7.64148 7.14559C7.62868 7.13919 7.62708 7.14559 7.62708 7.15679C7.62068 7.15839 7.61588 7.15999 7.60948 7.16159C7.59668 7.15519 7.59508 7.16159 7.59508 7.17279L7.57748 7.17759C7.56468 7.17119 7.56308 7.17759 7.56308 7.18879C7.55668 7.19039 7.55188 7.19199 7.54548 7.19359C7.53268 7.18719 7.53108 7.19359 7.53108 7.20479L7.51348 7.20959C7.50068 7.20319 7.49908 7.20959 7.49908 7.22079C7.24788 7.35199 6.99828 7.48479 6.74708 7.61599C6.73428 7.60959 6.73268 7.61599 6.73268 7.62719C6.70868 7.62559 6.69428 7.63839 6.68468 7.65759C6.61428 7.69439 6.54068 7.72799 6.47188 7.76799C5.95828 8.06879 5.43348 8.34399 4.88948 8.58559C4.87508 8.59199 4.86068 8.59839 4.84628 8.60479C4.78708 8.62879 4.72948 8.65439 4.67028 8.67839C4.65588 8.68479 4.64148 8.69119 4.62708 8.69759C4.57908 8.71679 4.53108 8.73599 4.48308 8.75679C4.46868 8.76319 4.45428 8.76959 4.43988 8.77599C4.42868 8.78079 4.41748 8.78399 4.40628 8.78879L4.36308 8.80799C4.27348 8.84319 4.18388 8.87999 4.09428 8.91519L4.04948 8.93279C3.96468 8.94239 3.89268 8.98879 3.81268 9.01119C3.80308 9.01439 3.79188 9.01759 3.78228 9.02079C3.71028 9.02879 3.64468 9.04959 3.56948 9.00479C3.50548 8.96479 3.47348 8.91359 3.45428 8.84959C3.41108 8.69279 3.37268 8.53599 3.33108 8.37919L3.32468 8.34879C3.29908 8.25599 3.31828 8.15839 3.29428 8.06559C3.27988 8.00799 3.30868 7.95839 3.35028 7.91999C3.43988 7.83679 3.53428 7.75999 3.65428 7.72159C4.02708 7.60639 4.33108 7.38399 4.60628 7.11679C4.68468 7.03999 4.75188 6.95359 4.81908 6.86719C4.84468 6.83519 4.83988 6.81279 4.81908 6.77919C4.76468 6.68639 4.67828 6.63519 4.58708 6.59039C4.52628 6.55999 4.50068 6.51359 4.49428 6.44799C4.48468 6.36799 4.49428 6.28639 4.49428 6.20639C4.49108 5.94879 4.48788 5.69119 4.47988 5.43359C4.47028 5.10399 4.52148 4.78399 4.61108 4.46719C4.68788 4.19359 4.75988 3.91839 4.83028 3.64319C4.88628 3.42719 4.96788 3.22239 5.05588 3.01759C5.08148 2.95839 5.11188 2.90399 5.10868 2.83359C5.10548 2.78559 5.14708 2.75839 5.18868 2.73919C5.22708 2.72319 5.26868 2.71999 5.31188 2.71999C5.66548 2.71519 6.01908 2.73919 6.37268 2.75199C6.49908 2.75679 6.62548 2.76799 6.75188 2.77279C6.94868 2.78079 7.14548 2.78399 7.34228 2.78719C7.41428 2.81599 7.48788 2.79679 7.56148 2.79839C7.89428 2.80639 8.22708 2.81119 8.55988 2.82079C8.80308 2.82719 9.04788 2.83039 9.29108 2.84799C9.61588 2.87199 9.94228 2.86879 10.2671 2.89119C10.4495 2.90239 10.6319 2.91359 10.8127 2.92639C11.0831 2.94559 11.3551 2.97279 11.6255 2.99199C11.7343 2.99999 11.8431 2.99199 11.9503 3.00639C11.9567 3.02399 11.9695 3.01919 11.9823 3.01599C12.0703 3.01599 12.1599 3.01599 12.2479 3.01599C12.2575 3.01599 12.2687 3.01599 12.2783 3.01599C12.7135 3.04319 13.1503 3.05119 13.5871 3.05919C13.9247 3.06559 14.2623 3.05919 14.5999 3.06719C14.8463 3.07199 15.0943 3.08799 15.3311 3.17119C15.3775 3.18719 15.4239 3.20479 15.4671 3.22719C15.5583 3.27359 15.5791 3.35199 15.5135 3.43199C15.4447 3.51679 15.3647 3.59519 15.2783 3.66399C15.1999 3.69279 15.1215 3.72319 15.0431 3.75199C14.9231 3.78559 14.8047 3.81759 14.6847 3.85119C14.6719 3.84639 14.6591 3.84479 14.6527 3.86239C14.6111 3.86879 14.5695 3.87519 14.5279 3.88159C14.5167 3.87679 14.5119 3.88319 14.5103 3.89279C14.3375 3.93279 14.1647 3.96799 13.9919 4.01119C13.8383 4.04959 13.6879 4.09439 13.5407 4.14559C13.4367 4.18079 13.3375 4.23359 13.2415 4.28799C13.0879 4.37439 12.9247 4.44479 12.7791 4.54079C12.6479 4.62879 12.5103 4.69439 12.3679 4.75199C12.1903 4.82239 12.0031 4.86399 11.8175 4.91199C11.6447 4.95679 11.4703 4.97119 11.2943 4.99039C11.2815 4.98719 11.2671 4.98399 11.2623 5.00159C11.1903 5.00799 11.1167 5.01439 11.0447 5.02239C11.0319 5.01919 11.0191 5.01599 11.0127 5.03199C10.9823 5.03359 10.9503 5.03519 10.9199 5.03679C10.9071 5.03359 10.8943 5.02879 10.8879 5.04639C10.7791 5.05919 10.6703 5.07039 10.5615 5.08319C10.5327 5.07519 10.5135 5.10239 10.4815 5.10239C10.5247 5.13919 10.5679 5.12479 10.6095 5.12959C10.7343 5.14719 10.8591 5.15039 10.9839 5.12959C10.9951 5.13599 11.0047 5.13279 11.0159 5.12639C11.1087 5.12799 11.1999 5.10719 11.2911 5.08959C11.3551 5.07679 11.4191 5.08159 11.4831 5.08319C11.5279 5.08319 11.5583 5.11199 11.5679 5.15999C11.5679 5.17599 11.5679 5.19199 11.5679 5.20799C11.5487 5.28319 11.4815 5.29599 11.4239 5.32159C11.4127 5.31679 11.4095 5.32319 11.4079 5.33279C11.4031 5.33279 11.3967 5.33599 11.3919 5.33759C11.3807 5.33279 11.3775 5.33919 11.3759 5.34879C11.3711 5.34879 11.3663 5.35199 11.3599 5.35359C11.3487 5.34879 11.3455 5.35519 11.3439 5.36479C11.3391 5.36479 11.3343 5.36799 11.3279 5.36959C11.3167 5.36479 11.3135 5.37279 11.3119 5.38079C11.2287 5.41919 11.1455 5.45759 11.0623 5.49439C11.0511 5.48799 11.0479 5.49599 11.0463 5.50559C11.0415 5.50559 11.0367 5.50879 11.0303 5.51039C11.0191 5.50559 11.0159 5.51199 11.0143 5.52159C11.0095 5.52159 11.0047 5.52479 10.9999 5.52479C10.9887 5.51999 10.9855 5.52799 10.9839 5.53599C10.9791 5.53599 10.9743 5.53919 10.9695 5.53919C10.9583 5.53439 10.9551 5.54239 10.9535 5.55039C10.6575 5.69439 10.3711 5.85919 10.0671 5.98399C9.85588 6.07039 9.64308 6.15519 9.43988 6.25919C9.41748 6.24959 9.40628 6.26239 9.39828 6.27999C9.33908 6.30399 9.27988 6.32799 9.22068 6.35199C9.20788 6.34559 9.20788 6.35199 9.20628 6.36159C9.03988 6.44159 8.87188 6.52159 8.70548 6.60159C8.67828 6.59519 8.66068 6.60959 8.64468 6.62719C8.63828 6.62879 8.63348 6.63039 8.62708 6.63199C8.61428 6.62559 8.61428 6.63199 8.61268 6.64159C8.60628 6.64319 8.60148 6.64479 8.59508 6.64639C8.58228 6.63999 8.58228 6.64639 8.58068 6.65599C8.57428 6.65759 8.56948 6.65919 8.56308 6.66079C8.55028 6.65439 8.55028 6.66079 8.54868 6.67039C8.54228 6.67199 8.53748 6.67359 8.53108 6.67519C8.51828 6.66879 8.51828 6.67519 8.51668 6.68479L8.51828 6.68959Z" fill="black"/>
<path d="M10.1104 24.8304C10.0736 24.8128 10.064 24.7856 10.064 24.7456C10.064 24.5872 10.064 24.4272 10.0416 24.2704C10.0032 24.024 9.95836 23.7792 9.93756 23.5296C9.91996 23.3264 9.89276 23.1232 9.87516 22.92C9.85916 22.7424 9.85276 22.5648 9.84316 22.3872C9.83196 22.1936 9.79836 22 9.78556 21.8048C9.77596 21.656 9.76636 21.5072 9.75356 21.3584C9.73916 21.1936 9.70236 21.032 9.68156 20.8672C9.66236 20.7168 9.64476 20.5664 9.61116 20.4176C9.54556 20.1296 9.49596 19.8368 9.42876 19.5488C9.39356 19.4 9.39676 19.2432 9.37756 19.0896C9.35676 18.92 9.34556 18.7488 9.31996 18.5792C9.29756 18.4288 9.28156 18.2752 9.26716 18.1232C9.24956 17.9504 9.25916 17.7776 9.23356 17.6064C9.24156 17.5968 9.24156 17.5872 9.23356 17.576C9.22876 17.352 9.23996 17.128 9.22236 16.904C9.22876 16.888 9.22556 16.872 9.21916 16.8576C9.19036 16.64 9.16636 16.4208 9.15516 16.2016C9.14396 16.0048 9.13916 15.808 9.11516 15.6128C9.07196 15.2416 9.00796 14.8784 8.87036 14.528C8.80316 14.3584 8.75516 14.1792 8.71036 14.0016C8.68156 13.8864 8.68956 13.7808 8.78876 13.68C9.20636 13.2608 9.67676 12.9136 10.1856 12.6144C10.2576 12.5728 10.3344 12.5424 10.4112 12.5088C10.4864 12.4752 10.5504 12.5152 10.5952 12.616C10.6096 12.6496 10.6128 12.6848 10.6144 12.7216C10.624 12.9568 10.6064 13.192 10.5808 13.4256C10.544 13.768 10.5632 14.1104 10.5632 14.4528C10.5632 14.536 10.5664 14.6192 10.568 14.7024C10.568 14.72 10.5568 14.7392 10.5792 14.7504C10.5792 14.7968 10.5824 14.8432 10.584 14.8896C10.5824 14.9024 10.576 14.9152 10.5936 14.9216C10.6 15.0048 10.608 15.088 10.6144 15.1696C10.6128 15.1824 10.6064 15.1968 10.6256 15.2016C10.6432 15.3216 10.6592 15.44 10.6768 15.56C10.6752 15.5728 10.6688 15.5856 10.688 15.592C10.6992 15.6704 10.712 15.7472 10.7232 15.8256C10.7216 15.8384 10.7168 15.8512 10.7344 15.8576C10.7344 15.9376 10.7744 16.0112 10.7712 16.0912C10.76 16.1168 10.7904 16.1312 10.7872 16.1536C10.7872 16.1584 10.7872 16.1632 10.7872 16.1696C10.7856 16.1824 10.7808 16.1952 10.7984 16.2016C10.7968 16.272 10.8336 16.3344 10.8352 16.4032C10.8304 16.416 10.8272 16.4288 10.8448 16.4352C10.8464 16.4512 10.8496 16.4656 10.8512 16.4816C10.84 16.5024 10.856 16.5136 10.8672 16.5264C10.9056 16.6896 10.9424 16.8528 10.9808 17.016C11.0448 17.2896 11.1104 17.5616 11.16 17.8384C11.1632 17.8608 11.1728 17.8816 11.1792 17.904C11.1744 17.9152 11.1792 17.92 11.1904 17.9216C11.2288 18.0816 11.2656 18.2432 11.304 18.4032C11.3008 18.416 11.296 18.4304 11.3152 18.4352C11.3744 18.6432 11.432 18.8512 11.4912 19.0592C11.488 19.072 11.4832 19.0864 11.5024 19.0912C11.52 19.1488 11.536 19.2048 11.5536 19.2624C11.5504 19.2752 11.5456 19.2896 11.5648 19.2944C11.5664 19.304 11.568 19.3152 11.5696 19.3248C11.5648 19.336 11.5696 19.3392 11.5808 19.3408C11.7664 19.8912 11.9744 20.4336 12.1824 20.9776C12.2176 21.072 12.2544 21.1664 12.2896 21.2624C12.2864 21.2752 12.28 21.2896 12.3008 21.2944C12.328 21.3728 12.3568 21.4496 12.384 21.528C12.3888 21.5728 12.4 21.616 12.4256 21.6544C12.4368 21.696 12.4496 21.7376 12.4608 21.7792C12.4576 21.7904 12.4608 21.7952 12.472 21.7984C12.4672 21.8512 12.5008 21.8944 12.512 21.944C12.5344 22.056 12.5616 22.1664 12.5872 22.2784C12.5728 22.304 12.6064 22.3184 12.6016 22.3408C12.6016 22.3456 12.6016 22.3504 12.6016 22.3568C12.592 22.3856 12.624 22.4064 12.6192 22.4352C12.6192 22.44 12.6192 22.4464 12.6192 22.4512C12.6176 22.464 12.6128 22.4784 12.6304 22.4832C12.6464 22.5936 12.6656 22.704 12.6784 22.8144C12.6976 22.9696 12.7072 23.1264 12.664 23.28C12.648 23.3376 12.624 23.3936 12.5536 23.408C12.5408 23.4048 12.5264 23.4016 12.5216 23.4208C12.5056 23.4224 12.4896 23.424 12.4752 23.4256C12.464 23.4192 12.4608 23.4256 12.4608 23.4368C11.9344 23.7296 11.4224 24.0512 10.8848 24.3232C10.8688 24.3312 10.8512 24.3376 10.8352 24.3456C10.824 24.3408 10.8208 24.3488 10.8192 24.3568C10.8144 24.3568 10.8096 24.36 10.8048 24.36C10.7936 24.3552 10.7904 24.3632 10.7888 24.3712C10.6624 24.4256 10.5568 24.5104 10.4512 24.5968C10.36 24.672 10.2704 24.7504 10.1808 24.8272C10.16 24.8272 10.1392 24.8272 10.1184 24.8272L10.1104 24.8304Z" fill="black"/>
<path d="M28.6273 5.31362C28.6065 5.50242 28.5361 5.67842 28.4961 5.86242C28.4881 5.89762 28.4768 5.93282 28.4688 5.96802C28.4592 5.96962 28.4529 5.97442 28.4577 5.98562C28.4529 6.11682 28.3873 6.18722 28.2593 6.22562C27.9169 6.32802 27.5761 6.44162 27.2353 6.55202C27.2225 6.54882 27.2081 6.54402 27.2033 6.56322C27.0465 6.61122 26.8913 6.65922 26.7345 6.70722C26.7217 6.70562 26.7073 6.70082 26.7025 6.72002C26.3585 6.82562 26.0161 6.93122 25.6721 7.03522C25.6593 7.03362 25.6449 7.02882 25.6401 7.04802C25.4993 7.09122 25.3585 7.13442 25.2193 7.17762C25.2081 7.17282 25.2033 7.17922 25.2017 7.18882C25.0721 7.22562 24.9425 7.26402 24.8129 7.30082C24.8017 7.29762 24.7969 7.30402 24.7953 7.31362C24.7041 7.32002 24.6209 7.35682 24.5361 7.38562C23.9649 7.57122 23.3889 7.73602 22.8161 7.91682C22.6385 7.97282 22.4593 8.02722 22.2801 8.08162C21.9297 8.18882 21.5793 8.29602 21.2305 8.40642C20.5121 8.63202 19.7937 8.85762 19.0753 9.08482C18.9921 9.11042 18.9249 9.09122 18.8673 9.03522C18.8065 8.97602 18.8017 8.89762 18.8177 8.81762C18.8529 8.62882 18.9233 8.44802 18.9025 8.24962C18.8977 8.20802 18.9265 8.14722 18.9441 8.09602C18.9793 8.00002 18.9809 7.88802 18.9825 7.78242C18.9825 7.65122 19.0049 7.52322 19.0209 7.39522C19.0273 7.35042 19.0497 7.32322 19.0977 7.30882C19.2161 7.27522 19.3329 7.23682 19.4593 7.23362C19.6881 7.22562 19.9057 7.15682 20.1249 7.10402C20.5057 7.01282 20.8865 6.92002 21.2673 6.82722C21.4961 6.77122 21.7233 6.71362 21.9521 6.65762C21.9857 6.66082 22.016 6.64802 22.0464 6.63682C22.104 6.62562 22.1633 6.61602 22.2177 6.59362C22.2449 6.59682 22.2689 6.59202 22.2817 6.56322C22.3793 6.57122 22.4689 6.53762 22.5617 6.51362C22.5873 6.52162 22.5985 6.50402 22.6097 6.48482C22.6833 6.50082 22.7425 6.44962 22.8081 6.44482C22.9361 6.43362 23.0561 6.39682 23.1777 6.36802C23.5233 6.28802 23.8689 6.20322 24.2129 6.12322C25.5249 5.81602 26.8368 5.50882 28.1488 5.20162C28.2608 5.17602 28.3713 5.14882 28.4817 5.12002C28.5361 5.10562 28.5969 5.08802 28.6353 5.13602C28.6721 5.18242 28.6609 5.24322 28.6369 5.29762C28.6273 5.29762 28.6209 5.30242 28.6241 5.31362H28.6273Z" fill="black"/>
<path d="M4.8385 17.672C4.8625 17.6176 4.8721 17.56 4.8769 17.5024C4.8993 17.4928 4.8977 17.472 4.8977 17.4528C4.9393 17.312 4.9521 17.1648 4.9873 17.024C5.0305 16.8528 5.0305 16.6784 5.0625 16.5072C5.0913 16.3568 5.0961 16.2032 5.1105 16.0512C5.1265 15.8928 5.1425 15.7344 5.1553 15.576C5.1633 15.488 5.1633 15.4016 5.1697 15.3136C5.1873 15.0912 5.2065 14.8688 5.2321 14.6464C5.2433 14.5392 5.2625 14.4336 5.2993 14.3328C5.3201 14.3216 5.3233 14.3024 5.3233 14.2816C5.3665 14.2208 5.4241 14.224 5.4833 14.248C5.6241 14.3024 5.7569 14.3728 5.8881 14.4464C6.0593 14.5408 6.2177 14.6528 6.3761 14.7664C6.3761 14.7856 6.3841 14.7984 6.4033 14.8032C6.3921 15.0608 6.3825 15.32 6.3713 15.5776C6.3473 15.5952 6.3617 15.6192 6.3617 15.6416C6.3601 15.6928 6.3585 15.7456 6.3569 15.7968C6.3345 15.808 6.3457 15.8272 6.3473 15.8448C6.3473 15.8704 6.3473 15.896 6.3489 15.9232C6.3489 15.944 6.3457 15.9648 6.3441 15.9856C6.3377 16.0272 6.3329 16.0688 6.3265 16.1104C6.3025 16.128 6.3169 16.152 6.3153 16.1744L6.3105 16.2672C6.2849 16.2848 6.3009 16.3088 6.2993 16.3312C6.2993 16.368 6.2961 16.4032 6.2945 16.44C6.2721 16.4512 6.2833 16.4704 6.2833 16.488C6.2577 16.8192 6.2849 17.1504 6.2769 17.4816C6.2753 17.5664 6.2673 17.6528 6.2625 17.7376C6.2465 17.744 6.2497 17.7584 6.2529 17.7696C6.2497 17.9904 6.2081 18.2048 6.1633 18.4208C6.1409 18.5248 6.1169 18.6304 6.1089 18.7376C6.0913 18.744 6.0961 18.7568 6.0977 18.7696C6.0977 18.7744 6.0977 18.7792 6.0977 18.7856C6.1009 18.808 6.0705 18.8224 6.0817 18.848C6.0753 18.8944 6.0689 18.9408 6.0609 18.9872C6.0433 18.992 6.0481 19.0064 6.0497 19.0192C6.0433 19.0656 6.0369 19.112 6.0289 19.1584C6.0113 19.1648 6.0161 19.1776 6.0177 19.1904C6.0177 19.1952 6.0177 19.2 6.0177 19.2064C6.0209 19.2288 5.9905 19.2432 6.0017 19.2688C5.9793 19.4 5.9569 19.5312 5.9345 19.664C5.9137 19.7904 5.8929 19.9168 5.8721 20.0432C5.8465 20.2128 5.8161 20.3824 5.7969 20.552C5.7857 20.6448 5.7745 20.7392 5.7633 20.832C5.7441 20.9984 5.7297 21.1648 5.7025 21.3312C5.6929 21.3872 5.6977 21.4448 5.6961 21.5024C5.6753 21.5152 5.6865 21.5344 5.6865 21.5504C5.6849 21.5968 5.6817 21.6432 5.6801 21.6896C5.6609 21.7024 5.6705 21.7216 5.6705 21.7376C5.6689 21.7744 5.6673 21.8096 5.6657 21.8464C5.6417 21.864 5.6561 21.888 5.6561 21.9104C5.6561 21.9408 5.6529 21.9728 5.6513 22.0032C5.6257 22.0208 5.6417 22.0448 5.6401 22.0672C5.5841 22.5456 5.6465 23.0256 5.6385 23.504C5.6385 23.5824 5.6369 23.6592 5.6353 23.7376C5.6145 23.7504 5.6241 23.768 5.6257 23.7856C5.6257 23.7984 5.6241 23.8112 5.6257 23.824C5.6273 23.8928 5.5745 23.9216 5.5249 23.9376C5.4737 23.9552 5.4481 23.9024 5.4321 23.8624C5.3617 23.6976 5.2929 23.5312 5.2257 23.3664C5.0449 22.9264 4.8225 22.504 4.6465 22.0624C4.4881 21.6672 4.3633 21.2608 4.2353 20.856C4.1697 20.6464 4.1137 20.4352 4.0737 20.2192C4.0337 20.008 4.0561 19.8016 4.1137 19.5968C4.1889 19.3328 4.3217 19.0912 4.3969 18.8288C4.4177 18.7568 4.4417 18.6848 4.4657 18.6144C4.4705 18.6048 4.4737 18.5936 4.4785 18.584C4.5281 18.456 4.5777 18.328 4.6273 18.1984C4.6433 18.184 4.6481 18.1664 4.6513 18.1456C4.7153 18.0016 4.7825 17.8592 4.8257 17.7072C4.8289 17.6976 4.8337 17.6864 4.8369 17.6768L4.8385 17.672Z" fill="black"/>
<path d="M25.1551 5.65602C25.1455 5.65762 25.1343 5.65922 25.1247 5.66082C25.1119 5.65762 25.0991 5.65282 25.0927 5.67042L25.0463 5.67682C25.0207 5.66402 25.0063 5.69282 24.9839 5.69122H24.9679C24.9423 5.68002 24.9279 5.70722 24.9055 5.70722C24.9007 5.70722 24.8959 5.70722 24.8895 5.70722C24.8655 5.69762 24.8495 5.72322 24.8271 5.72322C24.8223 5.72322 24.8175 5.72322 24.8111 5.72322C24.7871 5.71362 24.7711 5.73922 24.7487 5.73922C24.7439 5.73922 24.7391 5.73922 24.7327 5.73922C24.7087 5.72962 24.6927 5.75522 24.6703 5.75522C24.6655 5.75522 24.6607 5.75522 24.6543 5.75522C24.6287 5.74402 24.6143 5.77122 24.5919 5.77122C24.5871 5.77122 24.5823 5.77122 24.5759 5.77122C24.5503 5.76002 24.5359 5.78722 24.5135 5.78722C24.5087 5.78722 24.5039 5.78722 24.4975 5.78722C24.4847 5.78562 24.4719 5.78082 24.4655 5.79842C24.4559 5.80002 24.4447 5.80162 24.4351 5.80322C24.4047 5.78882 24.3839 5.81442 24.3567 5.81922C24.3519 5.81922 24.3471 5.81922 24.3407 5.81922C24.3151 5.80802 24.3007 5.83522 24.2783 5.83522C24.2735 5.83522 24.2687 5.83522 24.2623 5.83522C24.2367 5.82402 24.2223 5.85122 24.1999 5.85122C24.1951 5.85122 24.1903 5.85122 24.1839 5.85122C24.1711 5.84962 24.1583 5.84482 24.1519 5.86082C24.1359 5.86242 24.1215 5.86562 24.1055 5.86722C24.0799 5.85442 24.0655 5.88482 24.0431 5.88162C24.0383 5.88162 24.0335 5.88162 24.0271 5.88162C24.0143 5.88002 24.0015 5.87522 23.9935 5.89122C23.9471 5.89922 23.9007 5.90562 23.8543 5.91362C23.8287 5.90242 23.8143 5.92962 23.7919 5.92962C23.7871 5.92962 23.7823 5.92962 23.7759 5.92962C23.7503 5.91842 23.7359 5.94722 23.7135 5.94562C23.7087 5.94562 23.7039 5.94562 23.6975 5.94562C23.6719 5.93442 23.6575 5.96162 23.6351 5.96162C23.6303 5.96162 23.6255 5.96162 23.6191 5.96162C23.5935 5.95042 23.5791 5.97762 23.5567 5.97762C23.5519 5.97762 23.5471 5.97762 23.5407 5.97762C23.5151 5.96642 23.5007 5.99362 23.4783 5.99362C23.4735 5.99362 23.4687 5.99362 23.4623 5.99362C23.4367 5.98402 23.4223 6.00962 23.3999 6.00962C23.3951 6.00962 23.3903 6.00962 23.3839 6.00962C23.3599 6.00002 23.3439 6.02562 23.3215 6.02562C23.3167 6.02562 23.3119 6.02562 23.3055 6.02562C23.2815 6.01602 23.2655 6.04162 23.2431 6.04162C23.2383 6.04162 23.2335 6.04162 23.2271 6.04162C23.2031 6.03202 23.1871 6.05762 23.1647 6.05762C23.1599 6.05762 23.1551 6.05762 23.1487 6.05762C23.1247 6.04802 23.1087 6.07362 23.0863 6.07362C23.0815 6.07362 23.0767 6.07362 23.0703 6.07362C23.0447 6.06402 23.0303 6.08962 23.0079 6.08962C23.0031 6.08962 22.9983 6.08962 22.9919 6.08962C22.9679 6.08002 22.9519 6.10562 22.9295 6.10562C22.9247 6.10562 22.9199 6.10562 22.9135 6.10562C22.8895 6.09602 22.8735 6.12002 22.8511 6.12162C22.8463 6.12162 22.8415 6.12162 22.8351 6.12162C22.8223 6.12002 22.8095 6.11522 22.8031 6.13122C22.7311 6.14402 22.6575 6.15682 22.5855 6.16962C22.5727 6.16482 22.5599 6.16162 22.5535 6.17922C22.5071 6.18562 22.4607 6.19362 22.4143 6.20002C22.4015 6.19842 22.3887 6.19362 22.3823 6.20962C22.3359 6.21602 22.2895 6.22402 22.2431 6.23042C22.2175 6.21922 22.2031 6.24802 22.1807 6.24642C22.1759 6.24642 22.1711 6.24642 22.1647 6.24642C22.1391 6.23522 22.1247 6.26242 22.1023 6.26242C22.0975 6.26242 22.0927 6.26242 22.0863 6.26242C22.0623 6.25282 22.0463 6.27522 22.0271 6.28002C21.9615 6.27362 21.9023 6.30722 21.8367 6.30882C21.8111 6.29762 21.7967 6.32642 21.7743 6.32482C21.7695 6.32482 21.7647 6.32482 21.7583 6.32482C21.7327 6.31362 21.7183 6.34242 21.6959 6.34082H21.6799C21.6543 6.32962 21.6399 6.35842 21.6175 6.35682C21.6127 6.35682 21.6079 6.35682 21.6015 6.35682C21.5759 6.34562 21.5615 6.37442 21.5391 6.37282C21.5343 6.37282 21.5295 6.37282 21.5231 6.37282C21.4975 6.36162 21.4831 6.38882 21.4607 6.38882C21.4559 6.38882 21.4511 6.38882 21.4447 6.38882C21.4191 6.37762 21.4047 6.40482 21.3823 6.40482C21.3775 6.40482 21.3727 6.40482 21.3663 6.40482C21.3407 6.39362 21.3263 6.42082 21.3039 6.42082C21.2991 6.42082 21.2943 6.42082 21.2879 6.42082C21.2623 6.40962 21.2479 6.43682 21.2255 6.43682C21.2207 6.43682 21.2159 6.43682 21.2095 6.43682C21.1839 6.42562 21.1695 6.45282 21.1471 6.45282C21.1423 6.45282 21.1375 6.45282 21.1311 6.45282C21.1055 6.44162 21.0911 6.47042 21.0687 6.46882C21.0639 6.46882 21.0591 6.46882 21.0527 6.46882C21.0271 6.45762 21.0127 6.48642 20.9903 6.48482C20.9855 6.48482 20.9807 6.48482 20.9743 6.48482C20.9487 6.47362 20.9343 6.50242 20.9119 6.50082C20.9071 6.50082 20.9023 6.50082 20.8959 6.50082C20.8703 6.48962 20.8559 6.51842 20.8335 6.51682C20.8287 6.51682 20.8239 6.51682 20.8175 6.51682C20.7919 6.50562 20.7775 6.53442 20.7551 6.53282C20.7503 6.53282 20.7455 6.53282 20.7391 6.53282C20.7135 6.52162 20.6991 6.55042 20.6767 6.54882C20.6719 6.54882 20.6671 6.54882 20.6607 6.54882C20.6351 6.53762 20.6207 6.56642 20.5983 6.56482C20.5935 6.56482 20.5887 6.56482 20.5823 6.56482C20.5567 6.55362 20.5423 6.58242 20.5199 6.58082C20.5151 6.58082 20.5103 6.58082 20.5039 6.58082C20.4911 6.57922 20.4783 6.57282 20.4719 6.59202C20.3839 6.60962 20.2959 6.62722 20.2079 6.64482C20.1951 6.64162 20.1823 6.63682 20.1759 6.65442C20.1615 6.65602 20.1455 6.65922 20.1311 6.66082C20.1055 6.64802 20.0911 6.67682 20.0687 6.67522C20.0639 6.67522 20.0591 6.67522 20.0527 6.67522C20.0271 6.66402 20.0127 6.69122 19.9903 6.69122C19.9855 6.69122 19.9807 6.69122 19.9743 6.69122C19.9487 6.68002 19.9343 6.70882 19.9119 6.70722C19.9071 6.70722 19.9023 6.70722 19.8959 6.70722C19.8703 6.69602 19.8559 6.72482 19.8335 6.72322C19.8287 6.72322 19.8239 6.72322 19.8175 6.72322C19.7919 6.71202 19.7775 6.74082 19.7551 6.73922C19.7503 6.73922 19.7455 6.73922 19.7391 6.73922C19.7135 6.72802 19.6991 6.75682 19.6767 6.75522C19.6719 6.75522 19.6671 6.75522 19.6607 6.75522C19.6351 6.74402 19.6207 6.77282 19.5983 6.77122C19.5935 6.77122 19.5887 6.77122 19.5823 6.77122C19.5567 6.76002 19.5423 6.78722 19.5199 6.78722C19.5151 6.78722 19.5103 6.78722 19.5039 6.78722C19.4783 6.77602 19.4639 6.80482 19.4415 6.80322C19.4367 6.80322 19.4319 6.80322 19.4255 6.80322C19.3999 6.79202 19.3855 6.81922 19.3631 6.81922H19.3471C19.3215 6.80802 19.3071 6.83522 19.2847 6.83522C19.2799 6.83522 19.2751 6.83522 19.2687 6.83522C19.2431 6.82402 19.2287 6.85122 19.2063 6.85122C19.2015 6.85122 19.1967 6.85122 19.1903 6.85122C19.1647 6.84002 19.1503 6.86722 19.1279 6.86722C19.1231 6.86722 19.1183 6.86722 19.1119 6.86722C19.0863 6.85602 19.0719 6.88322 19.0495 6.88322C19.0447 6.88322 19.0399 6.88322 19.0335 6.88322C19.0079 6.87202 18.9935 6.89922 18.9711 6.89922C18.9663 6.89922 18.9615 6.89922 18.9551 6.89922C18.9295 6.88802 18.9151 6.91522 18.8927 6.91522C18.8879 6.91522 18.8831 6.91522 18.8767 6.91522C18.8511 6.90402 18.8367 6.93122 18.8143 6.93122C18.8095 6.93122 18.8047 6.93122 18.7983 6.93122C18.7727 6.92002 18.7583 6.94722 18.7359 6.94722C18.7311 6.94722 18.7263 6.94722 18.7199 6.94722C18.7071 6.94562 18.6943 6.94082 18.6879 6.95682C18.6575 6.96482 18.6207 6.94882 18.5951 6.97762C18.5711 6.97282 18.5519 6.97762 18.5455 7.00482C18.4063 7.04962 18.2543 7.02882 18.1151 7.09122C18.0591 7.11682 17.9807 7.10402 17.9119 7.11202C17.8127 7.12322 17.7199 7.15522 17.6207 7.16642C17.3935 7.19362 17.1695 7.24322 16.9439 7.28642C16.7679 7.32002 16.5887 7.34082 16.4159 7.39042C16.3519 7.40802 16.2815 7.39842 16.2191 7.44002C16.1951 7.45762 16.1567 7.44162 16.1583 7.39682C16.1663 7.20642 16.1023 7.03042 16.0335 6.85922C16.0143 6.81442 16.0463 6.82082 16.0639 6.80802L16.0943 6.80002C16.1903 6.78242 16.2847 6.76162 16.3791 6.73602C16.4863 6.70722 16.5983 6.69122 16.7087 6.66402C16.9103 6.61602 17.1103 6.55682 17.3119 6.50722C17.5087 6.45922 17.7119 6.42562 17.9039 6.36322C18.0847 6.30402 18.2767 6.31362 18.4559 6.25282C18.4671 6.25602 18.4719 6.25122 18.4751 6.24002C18.5711 6.24002 18.6591 6.19522 18.7535 6.18242C18.7647 6.17922 18.7743 6.17762 18.7855 6.17442C18.8495 6.16962 18.9119 6.15362 18.9727 6.13602C18.9839 6.13282 18.9935 6.13122 19.0047 6.12802C19.1407 6.09922 19.2751 6.07042 19.4111 6.04162C19.4223 6.03842 19.4319 6.03682 19.4431 6.03362C19.5535 6.01762 19.6639 5.99362 19.7711 5.96322C19.7823 5.96002 19.7919 5.95842 19.8031 5.95522C19.8655 5.94242 19.9279 5.92962 19.9903 5.91682C20.0015 5.91362 20.0111 5.91202 20.0223 5.90882C20.0847 5.89602 20.1471 5.88322 20.2095 5.87042L20.2415 5.86242C20.3535 5.84962 20.4607 5.81602 20.5695 5.79202C20.5807 5.78882 20.5903 5.78722 20.6015 5.78402C20.7103 5.76162 20.8207 5.73762 20.9295 5.71522C20.9407 5.71202 20.9503 5.70882 20.9615 5.70722C21.0271 5.71842 21.0879 5.68482 21.1471 5.67042C21.2415 5.64802 21.3391 5.64162 21.4303 5.60482C21.4415 5.60162 21.4511 5.60002 21.4623 5.59682C21.5711 5.57442 21.6815 5.55042 21.7903 5.52802C21.8015 5.52482 21.8111 5.52162 21.8223 5.52002C21.8847 5.50722 21.9471 5.49442 22.0095 5.48002C22.0207 5.47682 22.0303 5.47522 22.0415 5.47202C22.0799 5.47202 22.1151 5.46082 22.1503 5.44962C22.1615 5.44642 22.1711 5.44482 22.1823 5.44162C22.3615 5.41442 22.5359 5.36482 22.7135 5.32642C22.7247 5.32322 22.7343 5.32002 22.7455 5.31682C22.7839 5.31682 22.8191 5.30562 22.8543 5.29282C22.8655 5.28962 22.8751 5.28802 22.8863 5.28482C23.0223 5.25602 23.1567 5.22722 23.2927 5.19842C23.3055 5.20322 23.3151 5.19842 23.3247 5.19042C23.3871 5.17762 23.4495 5.16482 23.5119 5.15202C23.5247 5.15682 23.5343 5.15202 23.5439 5.14402C23.5823 5.14562 23.6175 5.13282 23.6527 5.12322C23.6655 5.12642 23.6751 5.12322 23.6847 5.11522C23.7455 5.12002 23.7999 5.09442 23.8559 5.08322C24.1087 5.03202 24.3631 4.98722 24.6143 4.92642C24.8367 4.87202 25.0623 4.83362 25.2847 4.77922C25.4047 4.75042 25.5279 4.72322 25.6511 4.70082L25.6831 4.69282C25.6991 4.68962 25.7135 4.68642 25.7295 4.68322C25.7407 4.68162 25.7503 4.67842 25.7615 4.67682C25.8847 4.65122 26.0063 4.62402 26.1295 4.60002C26.3359 4.56162 26.5423 4.52642 26.7471 4.48802C27.0015 4.44162 27.2575 4.39202 27.5119 4.34562C27.7743 4.29602 28.0367 4.24642 28.3007 4.19842C28.3343 4.19202 28.3679 4.19362 28.4015 4.19202C28.4271 4.19202 28.4543 4.19202 28.4799 4.19202C28.5551 4.25762 28.5967 4.34082 28.6015 4.43842C28.6079 4.55842 28.6031 4.67682 28.6015 4.79682C28.6015 4.84802 28.5807 4.88962 28.5327 4.91842C28.4399 4.97122 28.3471 5.00962 28.2367 5.00802C28.0975 5.00642 27.9615 5.04962 27.8255 5.07682C27.4127 5.15842 27.0063 5.26882 26.5919 5.35362C26.4815 5.37602 26.3711 5.40802 26.2607 5.43202C26.2479 5.42882 26.2351 5.42402 26.2287 5.44162C26.1919 5.44802 26.1567 5.45602 26.1199 5.46242C26.1087 5.45762 26.1039 5.46242 26.1023 5.47362L25.9167 5.50882C25.9039 5.50562 25.8911 5.50082 25.8847 5.52002C25.8687 5.52162 25.8543 5.52322 25.8383 5.52642C25.8255 5.52322 25.8127 5.51842 25.8063 5.53602C25.7695 5.54242 25.7343 5.55042 25.6975 5.55682C25.6847 5.55362 25.6719 5.54882 25.6655 5.56802C25.6495 5.56962 25.6351 5.57122 25.6191 5.57282C25.6079 5.56802 25.6031 5.57282 25.6015 5.58402C25.5871 5.58402 25.5727 5.58722 25.5567 5.58882C25.5439 5.58562 25.5311 5.58082 25.5247 5.59842C25.5087 5.60002 25.4943 5.60162 25.4783 5.60482C25.4527 5.59202 25.4383 5.62082 25.4159 5.61922C25.4111 5.61922 25.4063 5.61922 25.3999 5.61922C25.3871 5.61762 25.3727 5.61282 25.3679 5.63042C25.3583 5.63202 25.3471 5.63362 25.3375 5.63522C25.3247 5.63202 25.3119 5.62722 25.3055 5.64482C25.2895 5.64642 25.2751 5.64802 25.2591 5.65122C25.2463 5.64802 25.2335 5.64322 25.2271 5.66082C25.2175 5.66242 25.2063 5.66402 25.1967 5.66562C25.1791 5.66562 25.1599 5.65282 25.1487 5.67682L25.1551 5.65602Z" fill="black"/>
<path d="M12.9839 18.752C13.0063 18.84 13.0287 18.928 13.0495 19.016C13.0463 19.0288 13.0415 19.0416 13.0607 19.048C13.0671 19.0736 13.0751 19.0992 13.0815 19.1248C13.0815 19.1504 13.0815 19.1776 13.0815 19.2032C13.0847 19.2592 13.0671 19.3104 13.0495 19.3616C12.9503 19.6464 12.8271 19.9216 12.7007 20.1952C12.6671 20.2672 12.6223 20.336 12.5791 20.4032C12.5407 20.4624 12.4943 20.472 12.4191 20.4528C12.3071 20.424 12.2639 20.3504 12.2383 20.256C12.1599 19.9536 11.9823 19.6928 11.8783 19.4032C11.6255 18.7024 11.3951 17.9936 11.2495 17.2592C11.1871 16.9392 11.1151 16.6224 11.0527 16.3024C11.0047 16.056 10.9439 15.8112 10.9199 15.5584C10.9007 15.3504 10.8735 15.1424 10.8575 14.9328C10.8239 14.4768 10.8207 14.0192 10.8255 13.5616C10.8255 13.512 10.8255 13.4624 10.8591 13.4208H10.9375C11.0575 13.5088 11.1759 13.5984 11.2959 13.688C11.2959 13.7088 11.3039 13.7216 11.3263 13.7216C11.3423 13.7488 11.3663 13.7648 11.3919 13.7824C11.4031 13.824 11.4127 13.8656 11.4239 13.9072C11.4239 13.912 11.4239 13.9168 11.4239 13.9232C11.4223 13.936 11.4159 13.9488 11.4351 13.9552C11.4367 13.976 11.4399 13.9968 11.4415 14.016C11.4383 14.0336 11.4271 14.0528 11.4527 14.064C11.4527 14.08 11.4559 14.0944 11.4575 14.1104C11.4527 14.1232 11.4495 14.136 11.4655 14.1424C11.5583 14.552 11.6495 14.9616 11.7423 15.3712C11.7503 15.4032 11.7599 15.4368 11.7695 15.4688C11.7663 15.4816 11.7679 15.4928 11.7791 15.5008C11.7807 15.5104 11.7839 15.5216 11.7855 15.5312C11.8079 15.6592 11.8431 15.784 11.8863 15.9072C11.8895 15.9168 11.8911 15.9264 11.8943 15.936C11.8911 15.9488 11.8927 15.96 11.9039 15.968C11.9055 15.9776 11.9087 15.9888 11.9103 15.9984C11.9295 16.0832 11.9503 16.168 11.9839 16.248C11.9855 16.2576 11.9887 16.2688 11.9903 16.2784C12.0223 16.448 12.1039 16.6 12.1695 16.7584C12.2879 17.04 12.4015 17.3232 12.5167 17.6064C12.5295 17.6688 12.5615 17.7216 12.5871 17.7776C12.7087 18.032 12.8495 18.2784 12.9231 18.5536C12.9295 18.576 12.9343 18.5984 12.9391 18.6208C12.9343 18.632 12.9407 18.6352 12.9503 18.6384C12.9567 18.6688 12.9631 18.6992 12.9711 18.7312C12.9663 18.7424 12.9727 18.7456 12.9823 18.7488L12.9839 18.752Z" fill="black"/>
<path d="M11.0175 6.37602C11.0159 6.39842 11.0159 6.41922 11.0287 6.43842L11.0335 6.47042C11.0367 6.51682 11.0431 6.56322 11.0431 6.60962C11.0495 7.02562 10.8463 7.31522 10.4943 7.51042C10.3215 7.60642 10.1327 7.66722 9.94868 7.73922C9.80148 7.79682 9.65108 7.84002 9.50068 7.88162C9.15668 7.97602 8.80468 8.02722 8.45428 8.08482C8.26068 8.11682 8.06708 8.14082 7.87348 8.17122C7.59028 8.21602 7.31028 8.27842 7.02868 8.32802C6.79348 8.36802 6.55348 8.39522 6.31348 8.39362C6.27348 8.39362 6.23828 8.40962 6.19988 8.41442C6.16948 8.41762 6.13748 8.42562 6.10708 8.42562C6.06068 8.42562 6.01908 8.40162 6.00308 8.35842C5.98548 8.30882 6.00788 8.26562 6.05268 8.24002C6.22068 8.14242 6.36788 8.01762 6.54548 7.93122C6.87668 7.77122 7.19188 7.58082 7.50548 7.38882C8.28788 6.90722 9.11188 6.50562 9.95508 6.14242C10.1263 6.06882 10.2991 6.00002 10.4655 5.91522C10.6575 5.81922 10.7775 5.85922 10.8911 6.04322C10.9167 6.08482 10.9359 6.13122 10.9583 6.17442C10.9631 6.18402 10.9663 6.19522 10.9711 6.20482C10.9839 6.25122 10.9967 6.29922 11.0095 6.34562C11.0111 6.35682 11.0143 6.36642 11.0159 6.37762L11.0175 6.37602Z" fill="black"/>
<path d="M10.6257 7.816C10.6865 7.8208 10.7361 7.776 10.7969 7.7792C10.8097 7.784 10.8225 7.7872 10.8289 7.7696C10.8657 7.7632 10.9009 7.7568 10.9377 7.7504C10.9505 7.752 10.9633 7.7568 10.9697 7.7392C10.9857 7.7376 11.0001 7.736 11.0161 7.7344C11.0289 7.736 11.0417 7.7408 11.0481 7.7232C11.2017 7.6864 11.3569 7.6528 11.5105 7.6272C11.6097 7.6112 11.7121 7.5872 11.8129 7.5728C11.8897 7.5616 11.9697 7.544 12.0481 7.5312C12.1265 7.5184 12.2097 7.5104 12.2865 7.496C12.4209 7.472 12.5585 7.4624 12.6897 7.4224C12.7745 7.3968 12.8657 7.3952 12.9537 7.3808C13.1553 7.3472 13.3569 7.3168 13.5569 7.2784C13.7105 7.2496 13.8641 7.2144 14.0161 7.1808C14.0625 7.1712 14.0977 7.152 14.0801 7.232C14.0673 7.2944 14.0833 7.3632 14.0961 7.4288C14.1121 7.5104 14.1009 7.5984 14.1233 7.6816C14.1265 7.6912 14.1233 7.7024 14.1265 7.712C14.1361 7.76 14.1905 7.8176 14.1473 7.8496C14.1185 7.8704 14.0593 7.8784 14.0129 7.888C13.8545 7.9216 13.6977 7.9616 13.5393 7.9904C13.4321 8.0096 13.3233 8.0224 13.2161 8.0448C12.9985 8.088 12.7809 8.1296 12.5617 8.1728C12.5361 8.1392 12.5345 8.168 12.5281 8.1856C12.3489 8.2016 12.1761 8.2528 12.0001 8.2832C11.8321 8.312 11.6657 8.3456 11.4993 8.3776C11.4817 8.376 11.4641 8.3648 11.4513 8.3872C11.4417 8.3888 11.4305 8.3904 11.4209 8.392C11.4033 8.3904 11.3841 8.3808 11.3729 8.4032C11.3569 8.4048 11.3425 8.4064 11.3265 8.408C11.3089 8.4064 11.2913 8.3952 11.2785 8.4176C11.2689 8.4192 11.2577 8.4208 11.2481 8.4224C11.2305 8.4208 11.2113 8.4112 11.2001 8.4336C11.1841 8.4352 11.1697 8.4368 11.1537 8.4384C11.1361 8.4368 11.1185 8.4256 11.1057 8.448C11.0961 8.4496 11.0849 8.4512 11.0753 8.4528C11.0577 8.4512 11.0385 8.44 11.0273 8.464C11.0113 8.4656 10.9969 8.4672 10.9809 8.4688C10.9633 8.4656 10.9457 8.456 10.9329 8.4784C10.9233 8.48 10.9121 8.4816 10.9025 8.4832C10.8849 8.4816 10.8657 8.4704 10.8545 8.4944C10.8449 8.4944 10.8337 8.4976 10.8241 8.4992C10.8065 8.4976 10.7873 8.488 10.7761 8.5104C10.7601 8.512 10.7457 8.5136 10.7297 8.5168C10.7121 8.5152 10.6945 8.5056 10.6817 8.5264L10.6513 8.5312C10.6337 8.5296 10.6145 8.52 10.6033 8.5424C10.5873 8.544 10.5729 8.5456 10.5569 8.5488C10.5393 8.5472 10.5217 8.536 10.5089 8.5584C10.4673 8.5648 10.4257 8.5728 10.3841 8.5792C10.3665 8.5776 10.3473 8.5664 10.3361 8.5904C10.3201 8.592 10.3057 8.5936 10.2897 8.5952C10.2721 8.5936 10.2529 8.5824 10.2417 8.6064C10.2321 8.608 10.2209 8.6112 10.2113 8.6128C10.1889 8.6096 10.1665 8.5968 10.1473 8.6208C10.1377 8.6224 10.1265 8.624 10.1169 8.6256C10.0945 8.6256 10.0705 8.6128 10.0529 8.6368C9.86085 8.6704 9.66885 8.704 9.47525 8.7376C9.46245 8.7328 9.44965 8.7312 9.44325 8.7472C9.42245 8.7488 9.40165 8.7504 9.38085 8.7536C9.36805 8.7488 9.35525 8.7472 9.34885 8.7632C9.32805 8.7648 9.30725 8.7664 9.28645 8.768C9.27365 8.7632 9.26085 8.7632 9.25445 8.7792C9.23365 8.7808 9.21285 8.7824 9.19205 8.784C9.17925 8.7792 9.16645 8.7792 9.16005 8.7936C9.13925 8.7952 9.11845 8.7968 9.09765 8.7984C9.08485 8.7936 9.07205 8.7936 9.06565 8.808L8.81605 8.8432C8.79365 8.84 8.77125 8.8272 8.75205 8.8528C8.74245 8.8544 8.73125 8.8576 8.72165 8.8592C8.69925 8.856 8.67685 8.8432 8.65765 8.8688C8.64805 8.8704 8.63685 8.8736 8.62725 8.8752C8.60485 8.872 8.58245 8.8592 8.56325 8.8848C8.55365 8.8864 8.54245 8.8896 8.53285 8.8912C8.51045 8.888 8.48805 8.8752 8.46885 8.9008C8.45285 8.9024 8.43845 8.904 8.42245 8.9056C8.40005 8.904 8.37605 8.8912 8.35845 8.9168C8.34885 8.9168 8.33765 8.92 8.32805 8.9216C8.30565 8.9216 8.28165 8.9072 8.26405 8.9328C8.25445 8.9328 8.24325 8.936 8.23365 8.9376C8.21605 8.9344 8.19845 8.9264 8.18565 8.9472C8.16965 8.9488 8.15525 8.9504 8.13925 8.952C8.11685 8.9504 8.09285 8.9376 8.07525 8.9632C7.91365 8.992 7.75365 9.0192 7.59205 9.048C7.57925 9.0432 7.56645 9.0416 7.56005 9.0576C7.35685 9.0832 7.15205 9.1056 6.94885 9.1328C6.83365 9.1488 6.71525 9.1376 6.60325 9.1808C6.59685 9.184 6.58565 9.1744 6.57605 9.1696C6.56165 9.1664 6.54885 9.1632 6.54565 9.184C6.52005 9.1888 6.49285 9.1936 6.46725 9.1984C6.43845 9.1648 6.43525 9.208 6.42085 9.2128C6.29605 9.2336 6.16965 9.2304 6.04485 9.2704C5.95525 9.2992 5.85125 9.2944 5.75525 9.288C5.70085 9.2848 5.65445 9.24 5.63525 9.1824C5.63525 9.1616 5.63525 9.1408 5.63525 9.12C5.68005 9.0192 5.77765 8.9888 5.86885 8.9648C6.29125 8.856 6.71525 8.7552 7.13925 8.6512C7.27045 8.6192 7.40005 8.584 7.52965 8.552C7.54245 8.5552 7.55365 8.552 7.56165 8.5424C7.69925 8.5264 7.83045 8.4816 7.96485 8.448C8.17925 8.3952 8.39365 8.3392 8.60805 8.2864C8.62085 8.2896 8.63205 8.2864 8.64005 8.2768C8.84965 8.2352 9.05605 8.184 9.26245 8.128C9.30405 8.1168 9.34725 8.1088 9.39045 8.0992C9.40325 8.1024 9.41445 8.0992 9.42245 8.0896C9.52325 8.0752 9.62085 8.048 9.71845 8.0208C9.73125 8.024 9.74245 8.0208 9.75045 8.0112C9.76005 8.0096 9.77125 8.008 9.78085 8.0048C9.79365 8.008 9.80485 8.0048 9.81285 7.9952C9.96005 7.9728 10.1025 7.9296 10.2465 7.8928C10.3553 7.8656 10.4673 7.8432 10.5777 7.8192C10.5905 7.824 10.6033 7.8272 10.6097 7.8096L10.6257 7.816Z" fill="black"/>
<path d="M16.0097 7.67362C15.9681 7.80642 15.8945 7.92162 15.8129 8.03202C15.7697 8.04322 15.7457 8.07522 15.7249 8.11042C15.5617 8.25762 15.3745 8.32802 15.1521 8.33122C14.7633 8.33602 14.5025 8.13762 14.3073 7.82562C14.2641 7.75522 14.2705 7.66722 14.2353 7.59362C14.2065 7.53122 14.2177 7.47042 14.2193 7.40802C14.2225 7.29442 14.2129 7.18562 14.2625 7.07202C14.3809 6.80002 14.5633 6.59842 14.8465 6.50082C15.0321 6.43682 15.2209 6.44162 15.4113 6.48322C15.5073 6.50402 15.5873 6.53922 15.6561 6.60802C15.6849 6.63682 15.7233 6.65922 15.7665 6.67522C15.8657 6.71042 15.8897 6.81442 15.9329 6.89282C16.0289 7.06722 16.0481 7.26562 16.0625 7.46242C16.0641 7.49442 16.0529 7.52322 16.0449 7.55362C16.0129 7.58722 16.0049 7.62722 16.0097 7.67202V7.67362Z" fill="black"/>
<path d="M12.5183 17.608C12.4031 17.3248 12.2879 17.0416 12.1711 16.76C12.1055 16.6032 12.0239 16.4512 11.9919 16.28C12.0383 16.3072 12.0335 16.36 12.0511 16.4C12.1199 16.5568 12.2255 16.696 12.2815 16.8576C12.3647 17.0976 12.4447 17.3392 12.5263 17.5792C12.5295 17.5904 12.5279 17.6 12.5199 17.6064L12.5183 17.608Z" fill="#F3F3F3"/>
<path d="M13.3617 4.42401C13.2785 4.49601 13.1857 4.55041 13.0945 4.61121C13.0945 4.59041 13.0945 4.56801 13.1121 4.55521C13.1905 4.50401 13.2641 4.44161 13.3601 4.42401H13.3617Z" fill="#F3F3F3"/>
<path d="M11.8864 15.9072C11.8448 15.784 11.808 15.6592 11.7856 15.5312C11.7936 15.536 11.808 15.5392 11.8112 15.5472C11.8496 15.6624 11.88 15.7792 11.8976 15.8992C11.8976 15.9024 11.8896 15.9056 11.8864 15.9088V15.9072Z" fill="#F3F3F3"/>
<path d="M15.0464 3.75041C15.1248 3.72161 15.2032 3.69121 15.2816 3.66241C15.2208 3.73761 15.1424 3.76801 15.0464 3.75041Z" fill="#F3F3F3"/>
<path d="M7.56319 2.79518C7.48959 2.79358 7.41599 2.81278 7.34399 2.78398C7.41759 2.76478 7.49279 2.74078 7.56319 2.79518Z" fill="#F3F3F3"/>
<path d="M11.984 16.2496C11.9504 16.1696 11.9296 16.0848 11.9104 16C11.9664 16.0736 11.9872 16.1584 11.984 16.2496Z" fill="#F3F3F3"/>
<path d="M11.2496 9.184C11.1904 9.184 11.128 9.2096 11.072 9.1728C11.1312 9.1744 11.192 9.1584 11.2496 9.184Z" fill="#F3F3F3"/>
<path d="M6.46876 16.0944C6.48956 16.112 6.48156 16.1344 6.47996 16.1568C6.45916 16.1536 6.42876 16.1648 6.42396 16.1312C6.41916 16.0976 6.44316 16.0944 6.46876 16.0944Z" fill="#F3F3F3"/>
<path d="M10.6097 5.12801C10.5697 5.12321 10.5249 5.13761 10.4817 5.10081C10.5153 5.10081 10.5329 5.07361 10.5617 5.08161C10.5585 5.11681 10.6017 5.10401 10.6081 5.12801H10.6097Z" fill="#F3F3F3"/>
<path d="M15.7231 8.11038C15.7439 8.07518 15.7695 8.04318 15.8111 8.03198C15.8015 8.07998 15.7727 8.10878 15.7231 8.11038Z" fill="#F3F3F3"/>
<path d="M9.14074 21.2816C9.11194 21.248 9.13274 21.208 9.12954 21.1712C9.17754 21.2032 9.16474 21.2416 9.14074 21.2816Z" fill="#F3F3F3"/>
<path d="M11.4256 13.9056C11.4144 13.864 11.4048 13.8224 11.3936 13.7808C11.4656 13.8064 11.44 13.8576 11.4256 13.9056Z" fill="#F3F3F3"/>
<path d="M12.4207 21.656C12.3967 21.6176 12.384 21.5744 12.3792 21.5296C12.4192 21.5632 12.4367 21.6032 12.4207 21.656Z" fill="#F3F3F3"/>
<path d="M16.0097 7.67358C16.0033 7.62878 16.0129 7.58878 16.0449 7.55518C16.0449 7.59838 16.0481 7.64158 16.0097 7.67358Z" fill="#F3F3F3"/>
<path d="M9.06246 18.7808C9.03526 18.752 9.05286 18.7184 9.05126 18.6864C9.10086 18.712 9.08326 18.7456 9.06246 18.7808Z" fill="#F3F3F3"/>
<path d="M22.0463 6.63681C22.0159 6.64801 21.9855 6.65921 21.9519 6.65761C21.9759 6.61761 22.0047 6.59841 22.0463 6.63681Z" fill="#F3F3F3"/>
<path d="M13.0815 19.2032C13.0815 19.1776 13.0815 19.1504 13.0815 19.1248C13.1263 19.152 13.1263 19.1776 13.0815 19.2032Z" fill="#F3F3F3"/>
<path d="M10.9375 13.4208H10.8591C10.8847 13.3728 10.9103 13.3728 10.9375 13.4208Z" fill="#F3F3F3"/>
<path d="M14.8592 3.96801C14.8336 3.96801 14.8064 3.96801 14.7808 3.96801C14.8064 3.92001 14.832 3.92001 14.8592 3.96801Z" fill="#F3F3F3"/>
<path d="M28.4832 4.17121C28.4576 4.17121 28.4304 4.17121 28.4048 4.17121C28.4304 4.12481 28.4576 4.12481 28.4832 4.17121Z" fill="#F3F3F3"/>
<path d="M10.1104 24.8304C10.1312 24.8304 10.152 24.8304 10.1728 24.8304C10.1712 24.8544 10.1552 24.8672 10.1328 24.8656C10.1152 24.8656 10.112 24.8464 10.1104 24.832V24.8304Z" fill="#F3F3F3"/>
<path d="M8.37451 8.91998C8.39211 8.89438 8.41611 8.90718 8.43851 8.90878C8.42411 8.94878 8.40171 8.94398 8.37451 8.91998Z" fill="#F3F3F3"/>
<path d="M8.09448 8.96802C8.11208 8.94402 8.13608 8.95522 8.15848 8.95682C8.14408 8.99842 8.12168 8.99202 8.09448 8.96802Z" fill="#F3F3F3"/>
<path d="M18.7968 9.34558C18.7776 9.36158 18.7568 9.36158 18.7344 9.35838C18.7472 9.31518 18.7712 9.32158 18.7968 9.34558Z" fill="#F3F3F3"/>
<path d="M6.30091 16.328C6.30091 16.3072 6.28651 16.2816 6.31211 16.264C6.33611 16.2896 6.34251 16.3136 6.30091 16.328Z" fill="#F3F3F3"/>
<path d="M5.64491 22.0624C5.64491 22.04 5.63051 22.016 5.65611 21.9984C5.68011 22.024 5.68651 22.048 5.64491 22.0624Z" fill="#F3F3F3"/>
<path d="M28.7008 2.50082C28.6736 2.48322 28.688 2.45922 28.6896 2.43842C28.7296 2.45282 28.7232 2.47682 28.7008 2.50082Z" fill="#F3F3F3"/>
<path d="M6.31532 16.1728C6.31532 16.1504 6.30092 16.1264 6.32652 16.1088C6.35212 16.1344 6.35852 16.1568 6.31532 16.1728Z" fill="#F3F3F3"/>
<path d="M22.2815 6.5632C22.2687 6.592 22.2463 6.5968 22.2175 6.5936C22.2239 6.552 22.2559 6.5632 22.2815 6.5632Z" fill="#F3F3F3"/>
<path d="M28.6913 2.62722C28.6897 2.60482 28.6753 2.58082 28.7009 2.56482C28.7233 2.59042 28.7297 2.61282 28.6913 2.62722Z" fill="#F3F3F3"/>
<path d="M5.65276 9.12482C5.65276 9.14562 5.65276 9.16642 5.65276 9.18722C5.60956 9.16642 5.60956 9.14562 5.65276 9.12482Z" fill="#F3F3F3"/>
<path d="M6.34399 15.984C6.34399 15.9632 6.34719 15.9424 6.34879 15.9216C6.38879 15.9456 6.38879 15.9664 6.34399 15.984Z" fill="#F3F3F3"/>
<path d="M10.1553 8.62243C10.1729 8.59843 10.1969 8.61123 10.2193 8.61443C10.2033 8.65283 10.1809 8.64803 10.1553 8.62243Z" fill="#F3F3F3"/>
<path d="M6.36317 15.6416C6.36317 15.6192 6.34877 15.5952 6.37277 15.5776C6.39837 15.6032 6.40477 15.6256 6.36317 15.6416Z" fill="#F3F3F3"/>
<path d="M10.0625 8.63839C10.0801 8.61439 10.1041 8.62719 10.1265 8.62719C10.1121 8.66879 10.0881 8.66239 10.0625 8.63839Z" fill="#F3F3F3"/>
<path d="M8.76489 8.85761C8.78249 8.83201 8.80649 8.84481 8.82889 8.84801C8.81289 8.88641 8.79049 8.88161 8.76489 8.85761Z" fill="#F3F3F3"/>
<path d="M8.67212 8.8736C8.68972 8.848 8.71372 8.8608 8.73612 8.864C8.72012 8.904 8.69772 8.8976 8.67212 8.8736Z" fill="#F3F3F3"/>
<path d="M8.57764 8.88958C8.59524 8.86558 8.61924 8.87678 8.64164 8.87998C8.62564 8.91998 8.60324 8.91358 8.57764 8.88958Z" fill="#F3F3F3"/>
<path d="M8.48486 8.90399C8.50246 8.87999 8.52646 8.89119 8.54886 8.89439C8.53286 8.93439 8.51046 8.92799 8.48486 8.90399Z" fill="#F3F3F3"/>
<path d="M5.65931 21.9056C5.65931 21.8832 5.64491 21.8592 5.66891 21.8416C5.69451 21.8672 5.70091 21.8896 5.65931 21.9056Z" fill="#F3F3F3"/>
<path d="M8.28149 8.93597C8.29909 8.91037 8.32309 8.92317 8.34549 8.92477C8.33109 8.96477 8.30869 8.95997 8.28149 8.93597Z" fill="#F3F3F3"/>
<path d="M8.42251 14.0288H8.36011C8.38091 13.9872 8.40171 13.9872 8.42251 14.0288Z" fill="#F3F3F3"/>
<path d="M24.3584 5.81601C24.384 5.81281 24.4064 5.78721 24.4368 5.80001C24.4192 5.84481 24.3888 5.83361 24.3584 5.81601Z" fill="#F3F3F3"/>
<path d="M5.36001 9.63841C5.33921 9.64801 5.31841 9.64641 5.29761 9.64161C5.31681 9.61921 5.33761 9.61921 5.36001 9.63841Z" fill="#F3F3F3"/>
<path d="M15.7039 4.0144C15.6751 4.024 15.6543 3.9936 15.6255 3.9984C15.6559 3.9824 15.6863 3.9696 15.7039 4.0144Z" fill="#F3F3F3"/>
<path d="M18.0192 4.84479C18.016 4.83359 18.0112 4.81759 18.0288 4.81599C18.0496 4.81439 18.0656 4.82719 18.0752 4.84479C18.056 4.84479 18.0384 4.84479 18.0192 4.84479Z" fill="#F3F3F3"/>
<path d="M12.6127 22.4368C12.6175 22.408 12.5871 22.3872 12.5951 22.3584C12.6399 22.376 12.6287 22.4064 12.6127 22.4368Z" fill="#F3F3F3"/>
<path d="M6.28478 16.4848C6.28478 16.4672 6.27358 16.448 6.29598 16.4368C6.32318 16.4592 6.31838 16.4752 6.28478 16.4848Z" fill="#F3F3F3"/>
<path d="M19.2192 6.832C19.2416 6.832 19.2576 6.8048 19.2816 6.816C19.2704 6.856 19.2464 6.8496 19.2192 6.832Z" fill="#F3F3F3"/>
<path d="M26.592 10.3408C26.6032 10.3184 26.6224 10.3296 26.64 10.3296C26.6304 10.3632 26.6144 10.368 26.592 10.3408Z" fill="#F3F3F3"/>
<path d="M25.4209 5.5968C25.4433 5.5968 25.4577 5.5696 25.4833 5.5824C25.4705 5.6224 25.4465 5.616 25.4209 5.5968Z" fill="#F3F3F3"/>
<path d="M15.4689 3.98239C15.4513 3.98239 15.4321 3.99519 15.4209 3.97119C15.4449 3.94399 15.4593 3.95039 15.4689 3.98239Z" fill="#F3F3F3"/>
<path d="M8.77437 9.26721C8.76317 9.27681 8.75357 9.29121 8.73438 9.28001C8.74237 9.25921 8.75837 9.26401 8.77437 9.26721Z" fill="#F3F3F3"/>
<path d="M9.3296 9.2512C9.3136 9.2736 9.2976 9.2752 9.2832 9.2512C9.2992 9.2304 9.3152 9.2304 9.3296 9.2512Z" fill="#F3F3F3"/>
<path d="M25.1553 5.65601C25.1665 5.63201 25.1857 5.64321 25.2033 5.64481C25.1937 5.67681 25.1793 5.68321 25.1553 5.65601Z" fill="#F3F3F3"/>
<path d="M18.5601 6.98399C18.5665 6.95519 18.5857 6.95199 18.6097 6.95679C18.6065 6.98879 18.5825 6.98719 18.5601 6.98399Z" fill="#F3F3F3"/>
<path d="M9.15511 21.656C9.13271 21.6448 9.14391 21.6256 9.14391 21.608C9.17751 21.6176 9.18231 21.632 9.15511 21.656Z" fill="#F3F3F3"/>
<path d="M24.9839 5.69123C25.0063 5.69123 25.0207 5.66403 25.0463 5.67683C25.0335 5.71683 25.0095 5.71043 24.9839 5.69123Z" fill="#F3F3F3"/>
<path d="M24.9055 5.70718C24.9279 5.70718 24.9439 5.68158 24.9679 5.69118C24.9567 5.73118 24.9327 5.72478 24.9055 5.70718Z" fill="#F3F3F3"/>
<path d="M24.8271 5.72158C24.8495 5.72158 24.8655 5.69598 24.8895 5.70558C24.8783 5.74558 24.8543 5.73918 24.8271 5.72158Z" fill="#F3F3F3"/>
<path d="M24.7488 5.73758C24.7712 5.73758 24.7872 5.71198 24.8112 5.72158C24.8 5.76158 24.776 5.75518 24.7488 5.73758Z" fill="#F3F3F3"/>
<path d="M24.6704 5.75363C24.6928 5.75363 24.7088 5.72803 24.7328 5.73763C24.7216 5.77763 24.6976 5.77123 24.6704 5.75363Z" fill="#F3F3F3"/>
<path d="M15.6095 3.99838C15.5919 3.99838 15.5727 4.01118 15.5615 3.98718C15.5855 3.95998 15.5999 3.96638 15.6095 3.99838Z" fill="#F3F3F3"/>
<path d="M24.5935 5.76962C24.6159 5.76962 24.6319 5.74402 24.6559 5.75362C24.6447 5.79362 24.6207 5.78722 24.5935 5.76962Z" fill="#F3F3F3"/>
<path d="M24.5151 5.78561C24.5375 5.78561 24.5535 5.75841 24.5775 5.76961C24.5663 5.80961 24.5423 5.80321 24.5151 5.78561Z" fill="#F3F3F3"/>
<path d="M15.7809 4.02721C15.7553 4.04161 15.7409 4.00801 15.7185 4.01281C15.7441 3.99521 15.7681 3.98881 15.7809 4.02721Z" fill="#F3F3F3"/>
<path d="M5.69124 21.5472C5.69124 21.5296 5.68004 21.512 5.70084 21.4992C5.72964 21.5216 5.72644 21.5376 5.69124 21.5472Z" fill="#F3F3F3"/>
<path d="M24.28 5.832C24.3024 5.832 24.3184 5.8048 24.3424 5.816C24.3312 5.856 24.3072 5.8496 24.28 5.832Z" fill="#F3F3F3"/>
<path d="M8.20312 8.95037C8.21592 8.92797 8.23352 8.93757 8.25112 8.94077C8.24152 8.97437 8.22552 8.97917 8.20312 8.95037Z" fill="#F3F3F3"/>
<path d="M24.2031 5.84799C24.2255 5.84799 24.2415 5.82079 24.2655 5.83199C24.2543 5.87199 24.2303 5.86559 24.2031 5.84799Z" fill="#F3F3F3"/>
<path d="M11.4527 14.0624C11.4287 14.0512 11.4399 14.032 11.4415 14.0144C11.4751 14.024 11.4767 14.04 11.4527 14.0624Z" fill="#F3F3F3"/>
<path d="M5.67513 21.7344C5.67513 21.7168 5.66393 21.6992 5.68473 21.6864C5.71353 21.7088 5.71033 21.7248 5.67513 21.7344Z" fill="#F3F3F3"/>
<path d="M18.7505 6.92477C18.7729 6.92477 18.7889 6.89917 18.8129 6.90877C18.8017 6.94877 18.7777 6.94237 18.7505 6.92477Z" fill="#F3F3F3"/>
<path d="M24.0464 5.8784C24.0688 5.8816 24.0848 5.8512 24.1088 5.864C24.096 5.904 24.072 5.8976 24.0464 5.8784Z" fill="#F3F3F3"/>
<path d="M6.00322 19.2656C5.99202 19.24 6.02242 19.2256 6.01922 19.2032C6.03682 19.2304 6.04322 19.2544 6.00322 19.2656Z" fill="#F3F3F3"/>
<path d="M23.7969 5.92477C23.8193 5.92477 23.8353 5.89757 23.8593 5.90877C23.8481 5.94877 23.8241 5.94237 23.7969 5.92477Z" fill="#F3F3F3"/>
<path d="M18.8271 6.91043C18.8495 6.91043 18.8655 6.88323 18.8895 6.89443C18.8783 6.93443 18.8543 6.92803 18.8271 6.91043Z" fill="#F3F3F3"/>
<path d="M23.7185 5.94082C23.7409 5.94082 23.7553 5.91362 23.7809 5.92482C23.7697 5.96482 23.7457 5.95842 23.7185 5.94082Z" fill="#F3F3F3"/>
<path d="M23.6399 5.95682C23.6623 5.95682 23.6783 5.92962 23.7023 5.94082C23.6911 5.98082 23.6671 5.97442 23.6399 5.95682Z" fill="#F3F3F3"/>
<path d="M23.5615 5.97281C23.5839 5.97281 23.5999 5.9472 23.6239 5.9568C23.6127 5.9968 23.5887 5.99041 23.5615 5.97281Z" fill="#F3F3F3"/>
<path d="M23.4832 5.98721C23.5056 5.98721 23.5216 5.96161 23.5456 5.97121C23.5344 6.01121 23.5104 6.00481 23.4832 5.98721Z" fill="#F3F3F3"/>
<path d="M10.5776 14.7504C10.5536 14.7392 10.5664 14.72 10.5664 14.7024C10.5984 14.712 10.6048 14.7264 10.5776 14.7504Z" fill="#F3F3F3"/>
<path d="M23.4065 6.0032C23.4289 6.0032 23.4449 5.9776 23.4689 5.9872C23.4577 6.0272 23.4337 6.0208 23.4065 6.0032Z" fill="#F3F3F3"/>
<path d="M8.82711 15.1728C8.80311 15.1616 8.81591 15.1424 8.81591 15.1248C8.84791 15.1344 8.85431 15.1488 8.82711 15.1728Z" fill="#F3F3F3"/>
<path d="M23.3279 6.01919C23.3503 6.01919 23.3663 5.99359 23.3903 6.00319C23.3791 6.04319 23.3551 6.03679 23.3279 6.01919Z" fill="#F3F3F3"/>
<path d="M23.2495 6.03518C23.2719 6.03518 23.2879 6.00958 23.3119 6.01918C23.3007 6.05918 23.2767 6.05278 23.2495 6.03518Z" fill="#F3F3F3"/>
<path d="M23.1711 6.04959C23.1935 6.04959 23.2095 6.02399 23.2335 6.03359C23.2223 6.07359 23.1983 6.06719 23.1711 6.04959Z" fill="#F3F3F3"/>
<path d="M23.0928 6.06558C23.1152 6.06558 23.1312 6.03998 23.1552 6.04958C23.144 6.08958 23.12 6.08318 23.0928 6.06558Z" fill="#F3F3F3"/>
<path d="M23.0144 6.08163C23.0368 6.08163 23.0528 6.05603 23.0768 6.06563C23.0656 6.10563 23.0416 6.09923 23.0144 6.08163Z" fill="#F3F3F3"/>
<path d="M22.9375 6.09762C22.9599 6.09762 22.9759 6.07202 22.9999 6.08162C22.9887 6.12162 22.9647 6.11522 22.9375 6.09762Z" fill="#F3F3F3"/>
<path d="M6.08159 18.8432C6.07039 18.8176 6.10079 18.8032 6.09759 18.7808C6.11519 18.808 6.12159 18.832 6.08159 18.8432Z" fill="#F3F3F3"/>
<path d="M22.8591 6.11203C22.8815 6.11203 22.8975 6.08643 22.9215 6.09603C22.9103 6.13603 22.8863 6.12963 22.8591 6.11203Z" fill="#F3F3F3"/>
<path d="M6.34725 15.8432C6.34725 15.8256 6.33605 15.8064 6.35685 15.7952C6.38405 15.8176 6.38085 15.8336 6.34725 15.8432Z" fill="#F3F3F3"/>
<path d="M10.2495 8.60799C10.2607 8.58559 10.2799 8.59519 10.2975 8.59679C10.2879 8.63039 10.2719 8.63359 10.2495 8.60799Z" fill="#F3F3F3"/>
<path d="M10.344 8.592C10.3552 8.5696 10.3744 8.5792 10.392 8.5808C10.3824 8.6144 10.3664 8.6192 10.344 8.592Z" fill="#F3F3F3"/>
<path d="M16.2528 8.54881C16.2416 8.56961 16.2256 8.58241 16.2032 8.59041C16.2 8.55361 16.2208 8.54401 16.2528 8.54881Z" fill="#F3F3F3"/>
<path d="M10.5151 8.56158C10.5263 8.53918 10.5455 8.54878 10.5631 8.55198C10.5535 8.58558 10.5375 8.58878 10.5151 8.56158Z" fill="#F3F3F3"/>
<path d="M10.6096 8.54562C10.6208 8.52322 10.64 8.53282 10.6576 8.53442C10.648 8.56802 10.632 8.57282 10.6096 8.54562Z" fill="#F3F3F3"/>
<path d="M22.1873 6.23837C22.2097 6.23837 22.2241 6.21117 22.2497 6.22237C22.2385 6.26237 22.2145 6.25597 22.1873 6.23837Z" fill="#F3F3F3"/>
<path d="M22.1089 6.25278C22.1313 6.25278 22.1473 6.22557 22.1713 6.23677C22.1601 6.27677 22.1361 6.27038 22.1089 6.25278Z" fill="#F3F3F3"/>
<path d="M10.6863 8.5296C10.6991 8.5072 10.7167 8.5168 10.7343 8.52C10.7247 8.5536 10.7087 8.5584 10.6863 8.5296Z" fill="#F3F3F3"/>
<path d="M18.9055 6.89438C18.9279 6.89438 18.9439 6.86718 18.9679 6.87838C18.9567 6.91838 18.9327 6.91198 18.9055 6.89438Z" fill="#F3F3F3"/>
<path d="M21.7808 6.31681C21.8032 6.31841 21.8176 6.28961 21.8432 6.30081C21.832 6.34081 21.808 6.33441 21.7808 6.31681Z" fill="#F3F3F3"/>
<path d="M21.7024 6.3312C21.7248 6.3312 21.7392 6.30401 21.7648 6.31521C21.7536 6.35521 21.7296 6.3488 21.7024 6.3312Z" fill="#F3F3F3"/>
<path d="M21.624 6.3472C21.6464 6.3472 21.6608 6.32 21.6864 6.3312C21.6752 6.3712 21.6512 6.3648 21.624 6.3472Z" fill="#F3F3F3"/>
<path d="M10.7808 8.51357C10.792 8.49117 10.8112 8.50077 10.8288 8.50237C10.8192 8.53597 10.8032 8.54077 10.7808 8.51357Z" fill="#F3F3F3"/>
<path d="M10.8591 8.49923C10.8703 8.47683 10.8895 8.48643 10.9071 8.48803C10.8975 8.52163 10.8815 8.52643 10.8591 8.49923Z" fill="#F3F3F3"/>
<path d="M21.5471 6.36319C21.5695 6.36319 21.5839 6.33599 21.6095 6.34719C21.5983 6.38719 21.5743 6.38079 21.5471 6.36319Z" fill="#F3F3F3"/>
<path d="M21.4688 6.37918C21.4911 6.37918 21.5072 6.35198 21.5312 6.36318C21.52 6.40318 21.4959 6.39678 21.4688 6.37918Z" fill="#F3F3F3"/>
<path d="M21.3904 6.39358C21.4128 6.39358 21.4288 6.36638 21.4528 6.37758C21.4416 6.41758 21.4176 6.41118 21.3904 6.39358Z" fill="#F3F3F3"/>
<path d="M21.312 6.40957C21.3344 6.40957 21.3488 6.38237 21.3744 6.39357C21.3632 6.43357 21.3392 6.42717 21.312 6.40957Z" fill="#F3F3F3"/>
<path d="M21.2336 6.42563C21.256 6.42563 21.272 6.39843 21.296 6.40963C21.2848 6.44963 21.2608 6.44323 21.2336 6.42563Z" fill="#F3F3F3"/>
<path d="M21.1553 6.44162C21.1777 6.44162 21.1937 6.41442 21.2177 6.42562C21.2065 6.46562 21.1825 6.45922 21.1553 6.44162Z" fill="#F3F3F3"/>
<path d="M10.9375 8.48321C10.9487 8.46081 10.9679 8.47041 10.9855 8.47361C10.9759 8.50721 10.9599 8.51041 10.9375 8.48321Z" fill="#F3F3F3"/>
<path d="M21.0784 6.45602C21.1008 6.45602 21.1152 6.42882 21.1408 6.44002C21.1296 6.48002 21.1056 6.47362 21.0784 6.45602Z" fill="#F3F3F3"/>
<path d="M21 6.47201C21.0224 6.47201 21.0368 6.44481 21.0624 6.45601C21.0512 6.49601 21.0272 6.48961 21 6.47201Z" fill="#F3F3F3"/>
<path d="M20.9216 6.48801C20.944 6.48961 20.9584 6.46081 20.984 6.47201C20.9728 6.51201 20.9488 6.50561 20.9216 6.48801Z" fill="#F3F3F3"/>
<path d="M18.9839 6.87839C19.0063 6.87839 19.0223 6.85119 19.0463 6.86239C19.0351 6.90239 19.0111 6.89599 18.9839 6.87839Z" fill="#F3F3F3"/>
<path d="M20.8433 6.504C20.8657 6.504 20.8801 6.4768 20.9057 6.488C20.8945 6.528 20.8705 6.5216 20.8433 6.504Z" fill="#F3F3F3"/>
<path d="M22.6095 6.48642C22.5983 6.50402 22.5871 6.52322 22.5615 6.51522C22.5647 6.48322 22.5871 6.48482 22.6095 6.48642Z" fill="#F3F3F3"/>
<path d="M20.7649 6.51999C20.7873 6.51999 20.8017 6.49279 20.8273 6.50399C20.8161 6.54399 20.7921 6.53759 20.7649 6.51999Z" fill="#F3F3F3"/>
<path d="M20.6863 6.53439C20.7087 6.53439 20.7231 6.50719 20.7487 6.51839C20.7375 6.55839 20.7135 6.55199 20.6863 6.53439Z" fill="#F3F3F3"/>
<path d="M20.6096 6.55038C20.632 6.55038 20.6464 6.52318 20.672 6.53438C20.6608 6.57438 20.6368 6.56798 20.6096 6.55038Z" fill="#F3F3F3"/>
<path d="M20.5312 6.56637C20.5536 6.56637 20.568 6.53917 20.5936 6.55037C20.5824 6.59037 20.5584 6.58397 20.5312 6.56637Z" fill="#F3F3F3"/>
<path d="M11.0305 8.46719C11.0417 8.44479 11.0609 8.45439 11.0785 8.45599C11.0689 8.48959 11.0529 8.49439 11.0305 8.46719Z" fill="#F3F3F3"/>
<path d="M11.1089 8.45123C11.1201 8.42883 11.1393 8.43843 11.1569 8.44163C11.1473 8.47523 11.1313 8.47843 11.1089 8.45123Z" fill="#F3F3F3"/>
<path d="M10.7841 16.1568C10.7873 16.1344 10.7569 16.12 10.7681 16.0944C10.8081 16.1056 10.8017 16.1296 10.7841 16.1568Z" fill="#F3F3F3"/>
<path d="M8.64331 6.62718C8.65931 6.60958 8.67851 6.59518 8.70411 6.60158C8.69451 6.63678 8.66571 6.62558 8.64331 6.62718Z" fill="#F3F3F3"/>
<path d="M11.5664 5.2048C11.5664 5.1888 11.5664 5.1728 11.5664 5.1568C11.5792 5.1584 11.5904 5.1616 11.592 5.1776C11.5936 5.1968 11.5808 5.2016 11.5664 5.2048Z" fill="#F3F3F3"/>
<path d="M11.2031 8.43679C11.2143 8.41439 11.2335 8.42399 11.2511 8.42559C11.2415 8.45919 11.2255 8.46399 11.2031 8.43679Z" fill="#F3F3F3"/>
<path d="M11.2815 8.42077C11.2943 8.39837 11.3119 8.40797 11.3295 8.41117C11.3199 8.44477 11.3039 8.44797 11.2815 8.42077Z" fill="#F3F3F3"/>
<path d="M11.3745 8.40481C11.3857 8.38241 11.4049 8.39201 11.4225 8.39361C11.4129 8.42721 11.3969 8.43201 11.3745 8.40481Z" fill="#F3F3F3"/>
<path d="M20.0784 6.65918C20.1008 6.65918 20.1152 6.63198 20.1408 6.64478C20.128 6.68478 20.104 6.67838 20.0784 6.65918Z" fill="#F3F3F3"/>
<path d="M11.4529 8.38879C11.4641 8.36639 11.4833 8.37599 11.5009 8.37919C11.4913 8.41279 11.4753 8.41599 11.4529 8.38879Z" fill="#F3F3F3"/>
<path d="M20 6.6752C20.0224 6.6752 20.0384 6.648 20.0624 6.6592C20.0512 6.6992 20.0272 6.6928 20 6.6752Z" fill="#F3F3F3"/>
<path d="M19.0625 6.86239C19.0849 6.86239 19.1009 6.83679 19.1249 6.84639C19.1137 6.88639 19.0897 6.87999 19.0625 6.86239Z" fill="#F3F3F3"/>
<path d="M19.9216 6.69119C19.944 6.69119 19.9584 6.66399 19.984 6.67519C19.9728 6.71519 19.9488 6.70879 19.9216 6.69119Z" fill="#F3F3F3"/>
<path d="M19.1409 6.8464C19.1633 6.8464 19.1793 6.8208 19.2033 6.8304C19.1921 6.8704 19.1681 6.864 19.1409 6.8464Z" fill="#F3F3F3"/>
<path d="M19.8433 6.70718C19.8657 6.70718 19.8801 6.67998 19.9057 6.69118C19.8945 6.73118 19.8705 6.72478 19.8433 6.70718Z" fill="#F3F3F3"/>
<path d="M12.5969 22.3424C12.6017 22.32 12.5681 22.3056 12.5825 22.28C12.6209 22.2928 12.6145 22.3168 12.5969 22.3424Z" fill="#F3F3F3"/>
<path d="M19.7649 6.72317C19.7873 6.72317 19.8017 6.69597 19.8273 6.70717C19.8161 6.74717 19.7921 6.74077 19.7649 6.72317Z" fill="#F3F3F3"/>
<path d="M9.21609 16.8608C9.22409 16.8752 9.22569 16.8912 9.21929 16.9072C9.19849 16.8928 9.19689 16.8784 9.21609 16.8608Z" fill="#F3F3F3"/>
<path d="M19.688 6.73758C19.7104 6.73758 19.7248 6.71038 19.7504 6.72158C19.7392 6.76158 19.7152 6.75518 19.688 6.73758Z" fill="#F3F3F3"/>
<path d="M19.6096 6.75363C19.632 6.75363 19.6464 6.72643 19.672 6.73763C19.6608 6.77763 19.6368 6.77123 19.6096 6.75363Z" fill="#F3F3F3"/>
<path d="M19.5312 6.76962C19.5536 6.76962 19.568 6.74242 19.5936 6.75362C19.5824 6.79362 19.5584 6.78722 19.5312 6.76962Z" fill="#F3F3F3"/>
<path d="M5.62874 23.7808C5.62874 23.7632 5.61754 23.7456 5.63834 23.7328C5.66714 23.7552 5.66234 23.7712 5.62874 23.7808Z" fill="#F3F3F3"/>
<path d="M19.4529 6.78561C19.4753 6.78561 19.4897 6.75841 19.5153 6.76961C19.5041 6.80961 19.4801 6.80321 19.4529 6.78561Z" fill="#F3F3F3"/>
<path d="M19.3745 6.80002C19.3969 6.80002 19.4113 6.77282 19.4369 6.78402C19.4257 6.82402 19.4017 6.81762 19.3745 6.80002Z" fill="#F3F3F3"/>
<path d="M19.2959 6.81601C19.3183 6.81601 19.3343 6.78881 19.3583 6.80001C19.3471 6.84001 19.3231 6.83361 19.2959 6.81601Z" fill="#F3F3F3"/>
<path d="M29.5343 9.73439C29.5343 9.71679 29.5199 9.69759 29.5471 9.68799C29.5711 9.71039 29.5663 9.72639 29.5343 9.73439Z" fill="#F3F3F3"/>
<path d="M6.68799 7.656C6.69919 7.6368 6.71199 7.624 6.73599 7.6272C6.73279 7.6592 6.71039 7.6576 6.68799 7.656Z" fill="#F3F3F3"/>
<path d="M4.89768 17.4528C4.89768 17.472 4.89768 17.4928 4.87688 17.5024C4.87688 17.4832 4.87048 17.4608 4.89768 17.4528Z" fill="#F3F3F3"/>
<path d="M4.65109 18.1408C4.64789 18.16 4.64309 18.1792 4.62709 18.1936C4.62549 18.1712 4.61909 18.1472 4.65109 18.1408Z" fill="#F3F3F3"/>
<path d="M22.0337 6.27201C22.0545 6.26721 22.0689 6.24321 22.0929 6.25441C22.0833 6.29121 22.0593 6.28481 22.0337 6.27201Z" fill="#F3F3F3"/>
<path d="M5.32321 14.2816C5.32321 14.3024 5.32001 14.3216 5.29921 14.3328C5.29761 14.3104 5.29121 14.2864 5.32321 14.2816Z" fill="#F3F3F3"/>
<path d="M17.1617 4.61281C17.1425 4.66561 17.1265 4.62721 17.1089 4.61121C17.1265 4.61121 17.1441 4.61121 17.1617 4.61281Z" fill="#F3F3F3"/>
<path d="M8.80005 29.656C8.80965 29.64 8.82565 29.6288 8.84325 29.6224C8.84325 29.6528 8.82245 29.656 8.80005 29.656Z" fill="#F3F3F3"/>
<path d="M6.43848 9.21922C6.45448 9.21282 6.45768 9.16962 6.48488 9.20482C6.47368 9.22402 6.45608 9.22082 6.43848 9.21922Z" fill="#F3F3F3"/>
<path d="M8.2641 29.7968C8.2673 29.8064 8.2705 29.8176 8.2737 29.8272C8.2545 29.8224 8.2433 29.8128 8.2641 29.7968Z" fill="#F3F3F3"/>
<path d="M24.7185 4.72159C24.7281 4.71359 24.7377 4.70878 24.7505 4.71518C24.7425 4.73278 24.7329 4.73919 24.7185 4.72159Z" fill="#F3F3F3"/>
<path d="M9.55036 27.7184C9.54716 27.7056 9.54396 27.6912 9.56156 27.6864C9.58716 27.7072 9.57116 27.7136 9.55036 27.7184Z" fill="#F3F3F3"/>
<path d="M18.7024 6.93599C18.7088 6.91839 18.7216 6.92319 18.7344 6.92639C18.7296 6.94879 18.7232 6.96319 18.7024 6.93599Z" fill="#F3F3F3"/>
<path d="M16.1088 6.7792L16.0784 6.7872C16.0848 6.768 16.0944 6.76 16.1088 6.7792Z" fill="#F3F3F3"/>
<path d="M8.88965 29.576C8.89445 29.56 8.90565 29.5472 8.92005 29.5392C8.92325 29.5616 8.91365 29.576 8.88965 29.576Z" fill="#F3F3F3"/>
<path d="M26.7024 6.71838C26.7072 6.69918 26.7216 6.70398 26.7344 6.70558C26.7296 6.72638 26.7248 6.74238 26.7024 6.71838Z" fill="#F3F3F3"/>
<path d="M9.56006 26.1248C9.54406 26.1184 9.54726 26.104 9.55046 26.0928C9.57286 26.0976 9.58726 26.1056 9.56006 26.1248Z" fill="#F3F3F3"/>
<path d="M9.54396 25.8592C9.52636 25.8528 9.53116 25.84 9.53436 25.8272C9.55676 25.832 9.57116 25.84 9.54396 25.8592Z" fill="#F3F3F3"/>
<path d="M9.52809 25.6416C9.51049 25.6352 9.51529 25.6224 9.51849 25.6096C9.54089 25.6144 9.55529 25.6224 9.52809 25.6416Z" fill="#F3F3F3"/>
<path d="M23.5615 4.92C23.5679 4.9024 23.5807 4.9072 23.5935 4.9088C23.5887 4.9312 23.5823 4.9456 23.5615 4.92Z" fill="#F3F3F3"/>
<path d="M5.56639 25.4048C5.57279 25.416 5.57119 25.4272 5.56319 25.4368C5.54399 25.424 5.54719 25.4144 5.56639 25.4048Z" fill="#F3F3F3"/>
<path d="M9.49757 25.2816C9.47997 25.2752 9.48477 25.2624 9.48797 25.2496C9.51037 25.2544 9.52477 25.2624 9.49757 25.2816Z" fill="#F3F3F3"/>
<path d="M9.4817 25.1248C9.4641 25.1184 9.4689 25.1056 9.4721 25.0928C9.4945 25.0976 9.5089 25.1056 9.4817 25.1248Z" fill="#F3F3F3"/>
<path d="M27.7327 1.62403C27.7215 1.62563 27.7119 1.62723 27.7007 1.63043C27.7087 1.61283 27.7183 1.60483 27.7327 1.62403Z" fill="#F3F3F3"/>
<path d="M11.0481 7.72162C11.0417 7.73922 11.0289 7.73442 11.0161 7.73282C11.0209 7.71042 11.0273 7.69602 11.0481 7.72162Z" fill="#F3F3F3"/>
<path d="M10.9695 7.73761C10.9631 7.75521 10.9503 7.75041 10.9375 7.74881C10.9423 7.72641 10.9487 7.71201 10.9695 7.73761Z" fill="#F3F3F3"/>
<path d="M10.8289 7.76798C10.8225 7.78558 10.8097 7.78238 10.7969 7.77758C10.8017 7.75518 10.8097 7.74238 10.8289 7.76798Z" fill="#F3F3F3"/>
<path d="M10.6255 7.81602C10.6191 7.83362 10.6063 7.83042 10.5935 7.82562C10.5983 7.80322 10.6063 7.79042 10.6255 7.81602Z" fill="#F3F3F3"/>
<path d="M18.5183 7.92317C18.5167 7.91037 18.5119 7.89757 18.5279 7.89117C18.5551 7.91037 18.5407 7.91837 18.5183 7.92317Z" fill="#F3F3F3"/>
<path d="M9.82888 8.00158C9.82088 8.01278 9.80967 8.01438 9.79688 8.01118C9.80167 7.98878 9.80968 7.97918 9.82888 8.00158Z" fill="#F3F3F3"/>
<path d="M9.76638 8.01602C9.75838 8.02562 9.74717 8.02882 9.73438 8.02562C9.73917 8.00482 9.74718 7.99362 9.76638 8.01602Z" fill="#F3F3F3"/>
<path d="M9.45125 24.8288C9.43365 24.8224 9.43845 24.8096 9.44005 24.7968C9.46245 24.8016 9.47685 24.808 9.45125 24.8288Z" fill="#F3F3F3"/>
<path d="M18.488 8.07839C18.4848 8.06559 18.48 8.05279 18.4976 8.04639C18.5232 8.06559 18.5104 8.07359 18.488 8.07839Z" fill="#F3F3F3"/>
<path d="M9.43849 8.09441C9.43049 8.10561 9.41929 8.10721 9.40649 8.10401C9.41129 8.08161 9.41929 8.07201 9.43849 8.09441Z" fill="#F3F3F3"/>
<path d="M12.5295 8.1872C12.5359 8.1696 12.5359 8.1408 12.5631 8.1744C12.5551 8.1888 12.5439 8.1888 12.5295 8.1872Z" fill="#F3F3F3"/>
<path d="M18.4559 8.20477C18.4447 8.18397 18.4607 8.17277 18.4735 8.15997C18.4847 8.18237 18.4831 8.19837 18.4559 8.20477Z" fill="#F3F3F3"/>
<path d="M8.65749 8.28159C8.64949 8.29119 8.63829 8.29439 8.62549 8.29119C8.63029 8.27039 8.63829 8.25919 8.65749 8.28159Z" fill="#F3F3F3"/>
<path d="M3.32635 8.34558L3.33275 8.37598C3.31515 8.36798 3.30875 8.35838 3.32635 8.34558Z" fill="#F3F3F3"/>
<path d="M18.408 8.37599C18.4048 8.36319 18.4 8.34879 18.4192 8.34399C18.4448 8.36479 18.4288 8.37119 18.408 8.37599Z" fill="#F3F3F3"/>
<path d="M9.35844 24C9.34084 23.9952 9.34404 23.9808 9.34724 23.968C9.36964 23.9728 9.38404 23.9792 9.35844 24Z" fill="#F3F3F3"/>
<path d="M9.34232 23.8128C9.32472 23.808 9.32792 23.7936 9.33112 23.7808C9.35192 23.7856 9.36792 23.792 9.34232 23.8128Z" fill="#F3F3F3"/>
<path d="M20.1855 6.63838C20.1919 6.62078 20.2047 6.62558 20.2175 6.62878C20.2127 6.65278 20.2031 6.66398 20.1855 6.63838Z" fill="#F3F3F3"/>
<path d="M27.6383 1.64001C27.6287 1.64161 27.6175 1.64321 27.6079 1.64481C27.6159 1.62721 27.6255 1.62081 27.6383 1.64001Z" fill="#F3F3F3"/>
<path d="M20.4832 6.57601C20.4896 6.55841 20.5024 6.56321 20.5152 6.56481C20.5104 6.58721 20.504 6.60161 20.4832 6.57601Z" fill="#F3F3F3"/>
<path d="M27.2017 6.56161C27.2065 6.54241 27.2209 6.54721 27.2337 6.55041C27.2289 6.57281 27.2225 6.58561 27.2017 6.56161Z" fill="#F3F3F3"/>
<path d="M11.0336 6.46883L11.0288 6.43683C11.048 6.44483 11.0528 6.45443 11.0336 6.46883Z" fill="#F3F3F3"/>
<path d="M11.0176 6.37599C11.016 6.36479 11.0128 6.35519 11.0112 6.34399C11.0304 6.35039 11.0384 6.35999 11.0176 6.37599Z" fill="#F3F3F3"/>
<path d="M12.5151 23.4208C12.5199 23.4016 12.5327 23.4048 12.5471 23.408C12.5439 23.4288 12.5375 23.4448 12.5151 23.4208Z" fill="#F3F3F3"/>
<path d="M9.39673 6.27677C9.40473 6.25917 9.41753 6.24637 9.43833 6.25597C9.43353 6.27997 9.41593 6.28157 9.39673 6.27677Z" fill="#F3F3F3"/>
<path d="M7.57912 8.54721C7.57112 8.55681 7.55992 8.56001 7.54712 8.55681C7.55192 8.53601 7.55992 8.52481 7.57912 8.54721Z" fill="#F3F3F3"/>
<path d="M12.624 22.4848C12.6048 22.48 12.6096 22.4656 12.6128 22.4528C12.6336 22.4576 12.6496 22.464 12.624 22.4848Z" fill="#F3F3F3"/>
<path d="M22.3889 6.20001C22.3953 6.18401 22.4097 6.18881 22.4209 6.19041C22.4161 6.21281 22.4081 6.22721 22.3889 6.20001Z" fill="#F3F3F3"/>
<path d="M10.9728 6.20319C10.968 6.19359 10.9648 6.18239 10.96 6.17279C10.9792 6.17759 10.992 6.18399 10.9728 6.20319Z" fill="#F3F3F3"/>
<path d="M4.84961 8.60477C4.86401 8.59837 4.87841 8.59197 4.89281 8.58557C4.88641 8.60957 4.87041 8.61117 4.84961 8.60477Z" fill="#F3F3F3"/>
<path d="M22.5615 6.16963C22.5679 6.15203 22.5807 6.15523 22.5935 6.16003C22.5887 6.18243 22.5807 6.19523 22.5615 6.16963Z" fill="#F3F3F3"/>
<path d="M18.7969 6.15519C18.7857 6.15839 18.7761 6.15999 18.7649 6.16319C18.7713 6.14399 18.7809 6.13439 18.7969 6.15519Z" fill="#F3F3F3"/>
<path d="M22.8113 6.12158C22.8177 6.10558 22.8321 6.11038 22.8433 6.11198C22.8385 6.13438 22.8305 6.14878 22.8113 6.12158Z" fill="#F3F3F3"/>
<path d="M19.0144 6.10881C19.0032 6.11201 18.9936 6.11361 18.9824 6.11681C18.9888 6.09761 18.9968 6.08801 19.0144 6.10881Z" fill="#F3F3F3"/>
<path d="M4.63037 8.69919C4.64477 8.69279 4.65917 8.68639 4.67357 8.67999C4.66717 8.70399 4.64957 8.70559 4.63037 8.69919Z" fill="#F3F3F3"/>
<path d="M9.45435 8.75039C9.46075 8.73439 9.47355 8.73599 9.48635 8.74079C9.48155 8.76159 9.47355 8.77439 9.45435 8.75039Z" fill="#F3F3F3"/>
<path d="M4.44165 8.77597C4.45605 8.76957 4.47045 8.76317 4.48485 8.75677C4.47845 8.78237 4.46085 8.78237 4.44165 8.77597Z" fill="#F3F3F3"/>
<path d="M9.36011 8.76638C9.36651 8.75038 9.37931 8.75198 9.39211 8.75678C9.38731 8.77758 9.37931 8.78878 9.36011 8.76638Z" fill="#F3F3F3"/>
<path d="M9.26562 8.78239C9.27202 8.76639 9.28483 8.76799 9.29763 8.77119C9.29283 8.79199 9.28482 8.80479 9.26562 8.78239Z" fill="#F3F3F3"/>
<path d="M29.216 8.80157C29.1968 8.79677 29.1824 8.78877 29.192 8.76477C29.2128 8.76797 29.2192 8.78237 29.216 8.80157Z" fill="#F3F3F3"/>
<path d="M4.36475 8.80802L4.40795 8.78882C4.40155 8.81282 4.38395 8.81442 4.36475 8.80802Z" fill="#F3F3F3"/>
<path d="M9.17285 8.79678C9.17925 8.78078 9.19205 8.78238 9.20485 8.78718C9.20005 8.80798 9.19205 8.81918 9.17285 8.79678Z" fill="#F3F3F3"/>
<path d="M9.07837 8.81283C9.08477 8.79683 9.09757 8.79843 9.11037 8.80323C9.10557 8.82403 9.09757 8.83523 9.07837 8.81283Z" fill="#F3F3F3"/>
<path d="M19.4529 6.01597C19.4417 6.01917 19.4321 6.02077 19.4209 6.02397C19.4273 6.00477 19.4353 5.99517 19.4529 6.01597Z" fill="#F3F3F3"/>
<path d="M26.3423 1.82881C26.3311 1.82881 26.3215 1.83201 26.3103 1.83361C26.3183 1.81441 26.3279 1.80961 26.3423 1.82881Z" fill="#F3F3F3"/>
<path d="M19.8113 5.9376C19.8001 5.9408 19.7905 5.9424 19.7793 5.9456C19.7857 5.9264 19.7937 5.9168 19.8113 5.9376Z" fill="#F3F3F3"/>
<path d="M23.9983 5.888C24.0063 5.872 24.0191 5.8768 24.0319 5.8784C24.0271 5.9008 24.0191 5.9152 23.9983 5.888Z" fill="#F3F3F3"/>
<path d="M15.0945 8.90883C15.0833 8.90883 15.0737 8.90723 15.0625 8.90563C15.0753 8.88803 15.0849 8.89123 15.0945 8.90883Z" fill="#F3F3F3"/>
<path d="M4.05127 8.93117L4.09607 8.91357C4.08807 8.93917 4.07207 8.93757 4.05127 8.93117Z" fill="#F3F3F3"/>
<path d="M20.0303 5.88963C20.0191 5.89283 20.0095 5.89443 19.9983 5.89763C20.0047 5.87843 20.0143 5.86883 20.0303 5.88963Z" fill="#F3F3F3"/>
<path d="M24.1553 5.85762C24.1617 5.84002 24.1745 5.84482 24.1873 5.84802C24.1825 5.87042 24.1745 5.88482 24.1553 5.85762Z" fill="#F3F3F3"/>
<path d="M20.2495 5.84318L20.2175 5.85118C20.2239 5.83198 20.2319 5.82238 20.2495 5.84318Z" fill="#F3F3F3"/>
<path d="M24.4673 5.79518C24.4737 5.77758 24.4865 5.78238 24.4993 5.78398C24.4945 5.80638 24.4881 5.82078 24.4673 5.79518Z" fill="#F3F3F3"/>
<path d="M3.78247 9.0176C3.79207 9.0144 3.80327 9.0112 3.81287 9.008C3.80647 9.0272 3.79847 9.0368 3.78247 9.0176Z" fill="#F3F3F3"/>
<path d="M7.5791 9.06243C7.5855 9.04643 7.5967 9.04643 7.6111 9.05283C7.6063 9.07523 7.5983 9.08643 7.5791 9.06243Z" fill="#F3F3F3"/>
<path d="M6.09752 18.7648C6.09592 18.752 6.09112 18.7392 6.10872 18.7328C6.13432 18.7536 6.11992 18.76 6.09752 18.7648Z" fill="#F3F3F3"/>
<path d="M6.56323 9.18882C6.56643 9.16802 6.58083 9.17282 6.59363 9.17442C6.59043 9.19362 6.58563 9.21122 6.56323 9.18882Z" fill="#F3F3F3"/>
<path d="M20.968 5.68799C20.9568 5.69119 20.9472 5.69439 20.936 5.69599C20.9424 5.67679 20.9504 5.66559 20.968 5.68799Z" fill="#F3F3F3"/>
<path d="M25.0928 5.67042C25.0992 5.65282 25.112 5.65602 25.1248 5.66082C25.12 5.68322 25.112 5.69602 25.0928 5.67042Z" fill="#F3F3F3"/>
<path d="M28.6879 2.39197C28.6847 2.38237 28.6815 2.37117 28.6799 2.36157C28.6991 2.36797 28.7087 2.37597 28.6879 2.39197Z" fill="#F3F3F3"/>
<path d="M25.2319 5.63838C25.2383 5.62078 25.2511 5.62558 25.2639 5.62878C25.2591 5.65118 25.2511 5.66398 25.2319 5.63838Z" fill="#F3F3F3"/>
<path d="M25.3103 5.62397C25.3167 5.60637 25.3295 5.60957 25.3423 5.61437C25.3375 5.63677 25.3295 5.64957 25.3103 5.62397Z" fill="#F3F3F3"/>
<path d="M8.27368 9.28001C8.26888 9.28801 8.26408 9.28961 8.25928 9.28001C8.26408 9.27841 8.26888 9.27841 8.27368 9.28001Z" fill="#F3F3F3"/>
<path d="M25.3728 5.60799C25.3776 5.58879 25.392 5.59519 25.4048 5.59679C25.4 5.61919 25.3936 5.63359 25.3728 5.60799Z" fill="#F3F3F3"/>
<path d="M25.5295 5.57759C25.5359 5.55999 25.5487 5.56319 25.5615 5.56799C25.5567 5.59039 25.5487 5.60319 25.5295 5.57759Z" fill="#F3F3F3"/>
<path d="M29.5456 9.65761C29.5264 9.65281 29.5296 9.64001 29.5344 9.62561C29.5552 9.63041 29.5696 9.63681 29.5456 9.65761Z" fill="#F3F3F3"/>
<path d="M21.4673 5.57762C21.4561 5.58082 21.4465 5.58242 21.4353 5.58562C21.4417 5.56642 21.4497 5.55682 21.4673 5.57762Z" fill="#F3F3F3"/>
<path d="M3.14075 9.71679C3.13115 9.71679 3.11995 9.71999 3.11035 9.72159C3.11835 9.70399 3.12795 9.69759 3.14075 9.71679Z" fill="#F3F3F3"/>
<path d="M3.89919 9.70239C3.89919 9.70239 3.88959 9.71839 3.88159 9.70399C3.88799 9.70399 3.89279 9.70399 3.89919 9.70239Z" fill="#F3F3F3"/>
<path d="M11.9856 3.01443C11.9728 3.01763 11.96 3.02243 11.9536 3.00483C11.9744 2.97763 11.9808 2.99203 11.9856 3.01443Z" fill="#F3F3F3"/>
<path d="M12.2816 3.01757C12.272 3.01757 12.2608 3.01757 12.2512 3.01757C12.2624 3.00157 12.272 3.00317 12.2816 3.01757Z" fill="#F3F3F3"/>
<path d="M11.6577 11.5792C11.6673 11.5712 11.6785 11.5712 11.6881 11.5792C11.6785 11.5936 11.6673 11.5936 11.6577 11.5792Z" fill="#F3F3F3"/>
<path d="M3.87671 12.2816C3.89431 12.2848 3.90551 12.296 3.91351 12.3104C3.89111 12.3136 3.87671 12.3056 3.87671 12.2816Z" fill="#F3F3F3"/>
<path d="M3.9375 12.3296C3.9551 12.3328 3.9663 12.3424 3.9743 12.3584C3.9519 12.3616 3.9391 12.3536 3.9375 12.3296Z" fill="#F3F3F3"/>
<path d="M25.6704 5.54557C25.6768 5.52797 25.6896 5.53117 25.7024 5.53437C25.6976 5.55677 25.6896 5.56957 25.6704 5.54557Z" fill="#F3F3F3"/>
<path d="M7.89111 13.0176C7.90231 13.0144 7.91191 13.0176 7.91191 13.0304C7.91191 13.0416 7.90231 13.0464 7.89111 13.0464C7.89111 13.0368 7.89111 13.0272 7.89111 13.0176Z" fill="#F3F3F3"/>
<path d="M25.6399 7.04638C25.6447 7.02718 25.6591 7.03198 25.6719 7.03358C25.6671 7.05438 25.6623 7.07038 25.6399 7.04638Z" fill="#F3F3F3"/>
<path d="M14.656 3.8608C14.6624 3.8448 14.6736 3.8448 14.688 3.8496C14.6832 3.8704 14.6752 3.8832 14.656 3.8608Z" fill="#F3F3F3"/>
<path d="M25.8113 5.51362C25.8177 5.49602 25.8305 5.49922 25.8433 5.50402C25.8385 5.52642 25.8305 5.53922 25.8113 5.51362Z" fill="#F3F3F3"/>
<path d="M11.328 13.7216C11.3056 13.7216 11.2976 13.7088 11.2976 13.688C11.32 13.688 11.3296 13.6992 11.328 13.7216Z" fill="#F3F3F3"/>
<path d="M12.296 21.296C12.2752 21.2912 12.2832 21.2768 12.2848 21.264C12.3056 21.2688 12.32 21.2752 12.296 21.296Z" fill="#F3F3F3"/>
<path d="M11.4351 13.9536C11.4175 13.9472 11.4223 13.9344 11.4239 13.9216C11.4463 13.9264 11.4607 13.9328 11.4351 13.9536Z" fill="#F3F3F3"/>
<path d="M25.8896 5.49918C25.896 5.48158 25.9088 5.48478 25.9216 5.48798C25.9168 5.51038 25.9088 5.52318 25.8896 5.49918Z" fill="#F3F3F3"/>
<path d="M21.8272 5.49919C21.816 5.50239 21.8064 5.50559 21.7952 5.50719C21.8016 5.48799 21.8096 5.47839 21.8272 5.49919Z" fill="#F3F3F3"/>
<path d="M25.0625 4.64319C25.0721 4.63999 25.0833 4.63839 25.0929 4.63519C25.0865 4.65439 25.0769 4.66239 25.0625 4.64319Z" fill="#F3F3F3"/>
<path d="M11.4655 14.1424C11.4495 14.1344 11.4527 14.1232 11.4575 14.1104C11.4815 14.1152 11.4927 14.1248 11.4655 14.1424Z" fill="#F3F3F3"/>
<path d="M11.5615 19.2976C11.5423 19.2928 11.5471 19.2784 11.5503 19.2656C11.5711 19.2704 11.5871 19.2768 11.5615 19.2976Z" fill="#F3F3F3"/>
<path d="M22.0464 5.4528C22.0352 5.456 22.0256 5.4576 22.0144 5.4608C22.0208 5.4416 22.0288 5.432 22.0464 5.4528Z" fill="#F3F3F3"/>
<path d="M7.4624 14.6064C7.4752 14.5968 7.4864 14.5856 7.4992 14.576C7.4992 14.6016 7.4864 14.6096 7.4624 14.6064Z" fill="#F3F3F3"/>
<path d="M26.2319 5.42079C26.2383 5.40319 26.2511 5.40639 26.2639 5.41119C26.2591 5.43359 26.2511 5.44639 26.2319 5.42079Z" fill="#F3F3F3"/>
<path d="M6.40489 14.8032C6.38569 14.7984 6.37769 14.784 6.37769 14.7664C6.40009 14.768 6.40809 14.7824 6.40489 14.8032Z" fill="#F3F3F3"/>
<path d="M10.5921 14.9232C10.5745 14.9168 10.5793 14.904 10.5825 14.8912C10.6049 14.896 10.6193 14.904 10.5921 14.9232Z" fill="#F3F3F3"/>
<path d="M8.8113 15.048C8.7921 15.0432 8.7969 15.0288 8.8001 15.016C8.8209 15.0208 8.8369 15.0272 8.8113 15.048Z" fill="#F3F3F3"/>
<path d="M22.1873 5.42241C22.1761 5.42561 22.1665 5.42721 22.1553 5.43041C22.1617 5.41121 22.1697 5.40161 22.1873 5.42241Z" fill="#F3F3F3"/>
<path d="M10.6241 15.2032C10.6049 15.1984 10.6113 15.184 10.6129 15.1712C10.6337 15.176 10.6497 15.1824 10.6241 15.2032Z" fill="#F3F3F3"/>
<path d="M11.7791 15.5008C11.7679 15.4928 11.7663 15.4816 11.7695 15.4688C11.7919 15.4736 11.8047 15.4816 11.7791 15.5008Z" fill="#F3F3F3"/>
<path d="M25.7649 4.65601C25.7537 4.65761 25.7441 4.66081 25.7329 4.66241C25.7393 4.64321 25.7489 4.63521 25.7649 4.65601Z" fill="#F3F3F3"/>
<path d="M10.6864 15.5952C10.6688 15.5888 10.6736 15.576 10.6752 15.5632C10.6976 15.568 10.712 15.5744 10.6864 15.5952Z" fill="#F3F3F3"/>
<path d="M6.01915 19.1872C6.01755 19.1744 6.01275 19.1616 6.03035 19.1552C6.05595 19.176 6.04155 19.1824 6.01915 19.1872Z" fill="#F3F3F3"/>
<path d="M25.6863 4.67198L25.6543 4.67998C25.6607 4.66078 25.6687 4.65118 25.6863 4.67198Z" fill="#F3F3F3"/>
<path d="M10.7327 15.8608C10.7151 15.8544 10.7199 15.8416 10.7215 15.8288C10.7439 15.8336 10.7583 15.84 10.7327 15.8608Z" fill="#F3F3F3"/>
<path d="M11.4993 19.0944C11.4801 19.0896 11.4849 19.0752 11.4881 19.0624C11.5089 19.0672 11.5249 19.0736 11.4993 19.0944Z" fill="#F3F3F3"/>
<path d="M11.904 15.9696C11.8912 15.9616 11.8912 15.9504 11.8944 15.9376C11.9168 15.9424 11.9296 15.9504 11.904 15.9696Z" fill="#F3F3F3"/>
<path d="M13.0608 19.0464C13.0416 19.04 13.0464 19.0272 13.0496 19.0144C13.072 19.0192 13.0848 19.0256 13.0608 19.0464Z" fill="#F3F3F3"/>
<path d="M22.7488 5.29761C22.7376 5.30081 22.728 5.30401 22.7168 5.30721C22.7216 5.28641 22.7312 5.27681 22.7488 5.29761Z" fill="#F3F3F3"/>
<path d="M22.8897 5.26561C22.8785 5.26881 22.8689 5.27041 22.8577 5.27361C22.8641 5.25441 22.8721 5.24481 22.8897 5.26561Z" fill="#F3F3F3"/>
<path d="M23.3264 5.17123C23.3168 5.17923 23.3072 5.18403 23.2944 5.17923C23.3008 5.16003 23.3104 5.15203 23.3264 5.17123Z" fill="#F3F3F3"/>
<path d="M10.7952 16.2048C10.7776 16.1984 10.7824 16.1856 10.784 16.1728C10.8064 16.1776 10.8208 16.184 10.7952 16.2048Z" fill="#F3F3F3"/>
<path d="M23.5457 5.1248C23.5361 5.1328 23.5265 5.1376 23.5137 5.1328C23.5201 5.1136 23.5281 5.104 23.5457 5.1248Z" fill="#F3F3F3"/>
<path d="M11.0159 5.12479C11.0063 5.13119 10.9951 5.13439 10.9839 5.12799C10.9919 5.11039 11.0031 5.10559 11.0159 5.12479Z" fill="#F3F3F3"/>
<path d="M10.8415 16.4384C10.8239 16.432 10.8271 16.4192 10.8319 16.4064C10.8543 16.4112 10.8671 16.4192 10.8415 16.4384Z" fill="#F3F3F3"/>
<path d="M23.6863 5.09439C23.6767 5.10399 23.6671 5.10719 23.6543 5.10239C23.6591 5.08159 23.6687 5.07199 23.6863 5.09439Z" fill="#F3F3F3"/>
<path d="M10.864 16.528C10.8528 16.5152 10.8368 16.504 10.848 16.4832C10.8752 16.4896 10.8768 16.5072 10.864 16.528Z" fill="#F3F3F3"/>
<path d="M10.8896 5.04481C10.896 5.02721 10.9088 5.03201 10.9216 5.03521C10.9168 5.05761 10.9088 5.07201 10.8896 5.04481Z" fill="#F3F3F3"/>
<path d="M11.0144 5.02882C11.0208 5.01122 11.0336 5.01602 11.0464 5.01922C11.0416 5.04162 11.0336 5.05602 11.0144 5.02882Z" fill="#F3F3F3"/>
<path d="M9.23199 17.5792C9.23839 17.5888 9.23999 17.5984 9.23199 17.6096C9.21759 17.6 9.21759 17.5888 9.23199 17.5792Z" fill="#F3F3F3"/>
<path d="M4.8383 17.672C4.8351 17.6816 4.8303 17.6928 4.8271 17.7024C4.8079 17.6832 4.8191 17.6768 4.8383 17.672Z" fill="#F3F3F3"/>
<path d="M6.25291 17.7664C6.25131 17.7536 6.24651 17.7408 6.26251 17.7344C6.28971 17.7536 6.27531 17.7616 6.25291 17.7664Z" fill="#F3F3F3"/>
<path d="M6.04967 19.016C6.04807 19.0032 6.04167 18.9888 6.06087 18.984C6.08647 19.0048 6.07047 19.0112 6.04967 19.016Z" fill="#F3F3F3"/>
<path d="M11.2656 4.99839C11.272 4.98079 11.2848 4.98399 11.2976 4.98719C11.2928 5.00799 11.2864 5.02399 11.2656 4.99839Z" fill="#F3F3F3"/>
<path d="M11.312 18.4384C11.2928 18.4336 11.2976 18.4192 11.3008 18.4064C11.3216 18.4112 11.336 18.4176 11.312 18.4384Z" fill="#F3F3F3"/>
<path d="M4.47835 18.5776C4.47355 18.5872 4.47035 18.5984 4.46555 18.608C4.44635 18.5888 4.45915 18.5808 4.47835 18.5776Z" fill="#F3F3F3"/>
<path d="M20.6079 5.76481C20.5967 5.76801 20.5871 5.76961 20.5759 5.77281C20.5823 5.75361 20.5903 5.74401 20.6079 5.76481Z" fill="#F3F3F3"/>
<path d="M11.6831 7.23523C11.6831 7.23523 11.6831 7.24643 11.6831 7.25123C11.6767 7.24803 11.6719 7.24483 11.6655 7.24323C11.6719 7.24003 11.6783 7.23843 11.6847 7.23523H11.6831Z" fill="#F3F3F3"/>
<path d="M10.9519 5.5472C10.9535 5.5376 10.9567 5.5312 10.9679 5.536C10.9631 5.5392 10.9567 5.544 10.9519 5.5472Z" fill="#F3F3F3"/>
<path d="M7.59521 7.1728C7.59521 7.1632 7.59681 7.1552 7.60961 7.1616C7.60481 7.1648 7.60001 7.168 7.59521 7.1728Z" fill="#F3F3F3"/>
<path d="M12.952 18.6416C12.9424 18.64 12.936 18.6352 12.9408 18.624C12.944 18.6304 12.9488 18.6352 12.952 18.6416Z" fill="#F3F3F3"/>
<path d="M11.1871 17.9248C11.1775 17.9232 11.1711 17.9184 11.1759 17.9072C11.1791 17.9136 11.1823 17.92 11.1871 17.9248Z" fill="#F3F3F3"/>
<path d="M28.6273 5.31361C28.6241 5.30241 28.6305 5.29761 28.6401 5.29761C28.6353 5.30241 28.6321 5.30881 28.6273 5.31361Z" fill="#F3F3F3"/>
<path d="M11.4065 5.3296C11.4065 5.32 11.4097 5.3136 11.4225 5.3184C11.4177 5.3216 11.4129 5.3264 11.4065 5.3296Z" fill="#F3F3F3"/>
<path d="M11.3745 5.34401C11.3745 5.33441 11.3793 5.32801 11.3905 5.33281C11.3857 5.33601 11.3793 5.34081 11.3745 5.34401Z" fill="#F3F3F3"/>
<path d="M11.344 5.36C11.344 5.3504 11.3488 5.344 11.36 5.3488C11.3552 5.352 11.3488 5.3568 11.344 5.36Z" fill="#F3F3F3"/>
<path d="M11.312 5.37599C11.3136 5.36639 11.3168 5.35999 11.328 5.36479C11.3232 5.36799 11.3168 5.37279 11.312 5.37599Z" fill="#F3F3F3"/>
<path d="M26.1057 5.45277C26.1089 5.44317 26.1121 5.43677 26.1233 5.44157C26.1169 5.44477 26.1121 5.44957 26.1057 5.45277Z" fill="#F3F3F3"/>
<path d="M11.5775 19.344C11.5679 19.344 11.5615 19.3392 11.5663 19.328C11.5695 19.3328 11.5743 19.3392 11.5775 19.344Z" fill="#F3F3F3"/>
<path d="M11.0464 5.5008C11.0464 5.4912 11.0496 5.4832 11.0624 5.4896C11.0576 5.4928 11.0512 5.4976 11.0464 5.5008Z" fill="#F3F3F3"/>
<path d="M11.0161 5.5168C11.0177 5.5072 11.0209 5.5008 11.0321 5.5056C11.0273 5.5088 11.0209 5.5136 11.0161 5.5168Z" fill="#F3F3F3"/>
<path d="M13.8449 4.18878C13.8433 4.19678 13.8401 4.20478 13.8289 4.19998C13.8337 4.19678 13.8401 4.19198 13.8449 4.18878Z" fill="#F3F3F3"/>
<path d="M14.5137 3.89119C14.5169 3.88159 14.5201 3.87519 14.5313 3.87999C14.5249 3.88319 14.5201 3.88799 14.5137 3.89119Z" fill="#F3F3F3"/>
<path d="M10.9839 5.5312C10.9855 5.5216 10.9887 5.5152 10.9999 5.52C10.9951 5.5232 10.9887 5.528 10.9839 5.5312Z" fill="#F3F3F3"/>
<path d="M25.6064 5.5616C25.6096 5.552 25.6128 5.5456 25.624 5.5504C25.6176 5.5536 25.6112 5.5568 25.6064 5.5616Z" fill="#F3F3F3"/>
<path d="M12.4673 21.8C12.4577 21.7968 12.4529 21.792 12.4561 21.7808C12.4593 21.7872 12.4641 21.7936 12.4673 21.8Z" fill="#F3F3F3"/>
<path d="M28.3872 10.1552C28.3888 10.1456 28.3936 10.1392 28.4048 10.1424C28.3984 10.1472 28.392 10.1504 28.3872 10.1552Z" fill="#F3F3F3"/>
<path d="M28.608 2.09603C28.5984 2.09443 28.592 2.08963 28.5968 2.07843C28.6 2.08483 28.6048 2.08963 28.608 2.09603Z" fill="#F3F3F3"/>
<path d="M28.456 5.98562C28.4512 5.97442 28.4576 5.96962 28.4672 5.96802C28.464 5.97442 28.4592 5.97922 28.456 5.98562Z" fill="#F3F3F3"/>
<path d="M18.4865 6.22083C18.4833 6.23043 18.4785 6.23522 18.4673 6.23362C18.4737 6.22882 18.4801 6.22563 18.4865 6.22083Z" fill="#F3F3F3"/>
<path d="M9.20483 6.35998C9.20483 6.35038 9.20643 6.34238 9.21923 6.35038C9.21443 6.35358 9.20963 6.35678 9.20483 6.35998Z" fill="#F3F3F3"/>
<path d="M12.4543 23.4368C12.4543 23.4272 12.4559 23.4208 12.4687 23.4256C12.4639 23.4288 12.4591 23.4336 12.4543 23.4368Z" fill="#F3F3F3"/>
<path d="M8.61108 6.6416C8.61108 6.632 8.61108 6.624 8.62548 6.632C8.62068 6.6352 8.61588 6.6384 8.61108 6.6416Z" fill="#F3F3F3"/>
<path d="M8.58081 6.65759C8.58081 6.64799 8.58241 6.63999 8.59521 6.64799L8.58081 6.65759Z" fill="#F3F3F3"/>
<path d="M8.54883 6.67358C8.54883 6.66398 8.55043 6.65598 8.56323 6.66398C8.55843 6.66718 8.55363 6.67038 8.54883 6.67358Z" fill="#F3F3F3"/>
<path d="M10.8127 24.3584C10.8127 24.3488 10.8175 24.3424 10.8287 24.3472C10.8239 24.3504 10.8175 24.3552 10.8127 24.3584Z" fill="#F3F3F3"/>
<path d="M10.7808 24.3744C10.7824 24.3648 10.7856 24.3584 10.7968 24.3632C10.792 24.3664 10.7856 24.3712 10.7808 24.3744Z" fill="#F3F3F3"/>
<path d="M8.51831 6.68957C8.51831 6.67997 8.51991 6.67197 8.53271 6.67997C8.52791 6.68317 8.52311 6.68637 8.51831 6.68957Z" fill="#F3F3F3"/>
<path d="M8.48633 6.70398C8.48633 6.69438 8.48633 6.68638 8.50073 6.69438C8.49593 6.69758 8.49113 6.70078 8.48633 6.70398Z" fill="#F3F3F3"/>
<path d="M6.73608 7.62562C6.73608 7.61602 6.73768 7.60802 6.75048 7.61442C6.74568 7.61762 6.74088 7.62082 6.73608 7.62562Z" fill="#F3F3F3"/>
<path d="M8.45605 6.72003C8.45605 6.71043 8.45605 6.70243 8.46885 6.71043C8.46405 6.71363 8.45925 6.71683 8.45605 6.72003Z" fill="#F3F3F3"/>
<path d="M24.7937 7.31197C24.7953 7.30237 24.8001 7.29597 24.8113 7.29917C24.8049 7.30397 24.8001 7.30717 24.7937 7.31197Z" fill="#F3F3F3"/>
<path d="M7.50244 7.22078C7.50244 7.21118 7.50404 7.20318 7.51684 7.20958C7.51204 7.21278 7.50724 7.21598 7.50244 7.22078Z" fill="#F3F3F3"/>
<path d="M7.53271 7.20478C7.53271 7.19518 7.53431 7.18718 7.54711 7.19358C7.54231 7.19678 7.53751 7.19998 7.53271 7.20478Z" fill="#F3F3F3"/>
<path d="M25.2 7.18721C25.2032 7.17761 25.2064 7.17121 25.2176 7.17601L25.2 7.18721Z" fill="#F3F3F3"/>
<path d="M7.65771 7.14241C7.65771 7.13281 7.66091 7.12641 7.67211 7.13121C7.66731 7.13441 7.66251 7.13921 7.65771 7.14241Z" fill="#F3F3F3"/>
<path d="M7.5647 7.18879C7.5647 7.17919 7.5663 7.17119 7.5791 7.17759C7.5743 7.18079 7.5695 7.18399 7.5647 7.18879Z" fill="#F3F3F3"/>
<path d="M7.6272 7.15681C7.6272 7.14721 7.6288 7.13921 7.6416 7.14561C7.6368 7.14881 7.632 7.15201 7.6272 7.15681Z" fill="#F3F3F3"/>
<path d="M12.984 18.752C12.9744 18.7504 12.968 18.7456 12.9728 18.7344C12.976 18.7408 12.9808 18.7456 12.984 18.752Z" fill="#F3F3F3"/>
<path d="M12.1825 9.18237C12.1921 9.20157 12.1825 9.20477 12.1665 9.19997L12.1825 9.18237Z" fill="#F3F3F3"/>
</g>
<defs>
<clipPath id="clip0_149_12978">
<rect width="32" height="32" fill="white"/>
</clipPath>
</defs>
</svg>
