<svg width="32" height="32" viewBox="0 0 32 32" fill="none" xmlns="http://www.w3.org/2000/svg">
<path d="M25.5136 13.2832C25.52 13.3488 25.4592 13.4016 25.472 13.4688C25.4544 13.472 25.4384 13.4784 25.4512 13.5008C25.448 13.6128 25.3824 13.7072 25.36 13.8144C25.352 13.8544 25.3536 13.8944 25.3472 13.9328C25.3296 13.9376 25.3152 13.944 25.3264 13.9664C25.3232 13.9968 25.32 14.0272 25.3152 14.0576C25.2976 14.0608 25.2832 14.0672 25.2944 14.0912C25.2912 14.1216 25.288 14.152 25.2848 14.1824C25.2672 14.1856 25.2512 14.192 25.264 14.216C25.24 14.3392 25.2144 14.4624 25.1904 14.5856C25.1728 14.5904 25.1584 14.5968 25.1696 14.6208C25.0688 15.0512 25.0224 15.488 25.0032 15.928C25.0016 15.9696 25.0032 16.0112 25.0064 16.0528C24.9952 16.0544 24.9808 16.056 24.984 16.0736C24.984 16.0784 24.9984 16.08 25.0064 16.0832C25.0128 16.3056 24.9872 16.528 24.976 16.7488C24.9712 16.832 24.9328 16.8832 24.8496 16.8992C24.8272 16.8912 24.8208 16.9056 24.816 16.9232C24.608 17.12 24.392 17.3088 24.1728 17.4928C23.9664 17.6656 23.8048 17.8736 23.624 18.0672C23.4624 18.24 23.3104 18.4208 23.1632 18.6032C22.9696 18.8432 22.7904 19.0992 22.624 19.36C22.3776 19.7456 22.1584 20.1472 21.9616 20.5584C21.9568 20.568 21.9584 20.5792 21.9568 20.5888C21.9392 20.5984 21.9168 20.5936 21.9056 20.6176C21.8288 20.7744 21.752 20.9328 21.672 21.088C21.6512 21.128 21.6416 21.1648 21.6688 21.2144C21.704 21.1776 21.736 21.144 21.7648 21.1104C21.7824 21.0912 21.7968 21.0704 21.8112 21.0496C22.1664 20.6816 22.5216 20.312 22.8912 19.9584C23.1392 19.7216 23.4 19.5024 23.688 19.3168C23.848 19.2144 24.008 19.1072 24.192 19.056C24.4096 18.9952 24.6272 18.9296 24.8528 18.896C24.9904 18.8752 25.0464 18.9088 25.1168 19.0416C25.2288 19.2528 25.304 19.4784 25.376 19.704C25.3904 19.7504 25.4288 19.7936 25.4176 19.848C25.4064 19.8704 25.4208 19.8752 25.4384 19.88C25.464 19.9728 25.4896 20.0656 25.5152 20.1584C25.5024 20.2208 25.504 20.2832 25.52 20.3456C25.5312 20.7232 25.4384 21.0928 25.4256 21.4672C25.4112 21.5312 25.4112 21.5968 25.4176 21.688C25.4384 21.6192 25.4816 21.5824 25.4656 21.5264C25.584 21.3136 25.6912 21.0944 25.832 20.8928C25.8976 20.7984 25.976 20.72 26.0608 20.6448C26.0896 20.6192 26.1312 20.6048 26.1696 20.5952C26.2304 20.5808 26.272 20.6032 26.2736 20.672C26.2784 20.8064 26.2896 20.9408 26.2848 21.0752C26.2768 21.2752 26.2592 21.48 26.2592 21.6768C26.2592 21.8816 26.24 22.0864 26.2416 22.2912C26.248 22.9024 26.2304 23.5152 26.2576 24.1264C26.2688 24.3904 26.2848 24.6576 26.3632 24.9152C26.392 25.0112 26.3968 25.1168 26.4 25.2192C26.4048 25.3312 26.4416 25.4384 26.472 25.5424C26.5744 25.9056 26.6384 26.28 26.7792 26.6304C26.9088 26.9552 27.0192 27.2864 27.1264 27.6176C27.1984 27.84 27.272 28.064 27.3376 28.288C27.376 28.416 27.3408 28.4864 27.2128 28.5568C27.056 28.6432 26.8864 28.7056 26.7216 28.7744C26.4816 28.8736 26.2416 28.9712 26.0016 29.0688C25.7232 29.1824 25.432 29.2352 25.136 29.28C24.9392 29.3088 24.7472 29.3168 24.5504 29.2992C24.4832 29.2928 24.4112 29.296 24.384 29.2144C24.3568 29.1328 24.3504 29.0496 24.4144 28.9792C24.4656 28.9216 24.5184 28.8672 24.584 28.824C24.6288 28.7952 24.6752 28.7664 24.6912 28.7088C24.704 28.7296 24.7136 28.7136 24.7216 28.7056C24.7216 28.7056 24.7152 28.6896 24.7104 28.6896C24.696 28.6896 24.6816 28.6928 24.6928 28.7136C24.5824 28.6928 24.4896 28.76 24.3872 28.7792C24.208 28.8144 24.0272 28.84 23.8496 28.872C23.5552 28.9264 23.2592 28.952 22.9616 28.9792C22.8064 28.992 22.6512 29 22.4976 29.008C22.1344 29.0272 21.7888 29.144 21.4368 29.2208C21.1456 29.2848 20.8528 29.3424 20.5696 29.4336C20.3792 29.4944 20.184 29.5408 19.992 29.5968C19.7376 29.6704 19.4832 29.7456 19.2256 29.808C18.976 29.8672 18.7296 29.9408 18.4784 29.9904C18.136 30.0576 17.792 30.1008 17.4448 30.1408C17.1536 30.1744 16.8592 30.192 16.5712 30.2416C16.2016 30.3056 15.8256 30.3184 15.4576 30.3808C15.3232 30.4032 15.2256 30.344 15.1472 30.2496C15.096 30.1888 15.104 30.1168 15.144 30.048C15.2416 29.8784 15.3968 29.7728 15.5584 29.68C15.6496 29.6288 15.7424 29.5776 15.832 29.5232C16.2304 29.2768 16.6544 29.0832 17.104 28.952C17.6048 28.8048 18.1072 28.6576 18.6224 28.5648C18.9504 28.5056 19.2496 28.3808 19.5328 28.2096C19.5648 28.2096 19.5872 28.1952 19.6032 28.1536C19.5456 28.1632 19.4896 28.1456 19.4416 28.1856C19.176 28.2064 18.9136 28.2368 18.6544 28.2992C18.576 28.3184 18.4944 28.3264 18.416 28.336C18.0784 28.3776 17.7504 28.4656 17.4336 28.5728C17.1072 28.6832 16.7792 28.7968 16.4672 28.9536C16.344 29.016 16.2144 29.072 16.0848 29.1232C16.064 29.1168 16.0528 29.1248 16.0496 29.1456C15.9536 29.1776 15.8528 29.2016 15.7728 29.272C15.7408 29.272 15.7168 29.288 15.6896 29.3024C15.4224 29.4432 15.1472 29.5664 14.8752 29.6976C14.4224 29.9184 13.9808 30.1664 13.504 30.336C13.4816 30.3296 13.4736 30.3424 13.4704 30.3616C13.2432 30.44 13.0192 30.5216 12.7904 30.5936C12.5552 30.6672 12.312 30.704 12.064 30.6992C11.9248 30.696 11.7856 30.7264 11.6496 30.6992C11.6144 30.616 11.6576 30.5648 11.7136 30.5232C11.9952 30.3184 12.2832 30.12 12.5616 29.9104C12.7488 29.7696 12.9264 29.6144 13.1088 29.4672C13.2512 29.352 13.4032 29.2464 13.5392 29.1232C13.6416 29.0304 13.7584 28.952 13.8528 28.8496C13.9744 28.7168 14.1168 28.608 14.2464 28.4832C14.464 28.272 14.6992 28.0768 14.9008 27.8512C15.04 27.696 15.208 27.5632 15.32 27.3808C15.352 27.328 15.4176 27.304 15.4432 27.2448C15.4656 27.232 15.4832 27.2144 15.4896 27.1904C15.4944 27.1728 15.504 27.152 15.48 27.1392C15.4592 27.128 15.4432 27.136 15.4304 27.1536C15.2944 27.2704 15.1584 27.3856 15.032 27.5152C14.8352 27.7168 14.6048 27.8816 14.3856 28.056C14.1872 28.2128 13.9824 28.3616 13.7808 28.5152C13.7088 28.5712 13.6384 28.6288 13.5664 28.6864C13.544 28.6816 13.536 28.6928 13.5344 28.7136C13.3904 28.8064 13.2624 28.92 13.1312 29.0288C13.1088 29.0256 13.1008 29.0352 13.0992 29.056C12.9408 29.16 12.8048 29.2912 12.664 29.4192C12.528 29.5424 12.392 29.6704 12.24 29.7728C12.1216 29.8528 12.0512 29.9728 11.9568 30.0704C11.832 30.1968 11.6992 30.2592 11.5216 30.256C11.3152 30.2544 11.12 30.2064 10.9248 30.1456C10.8288 30.1152 10.7344 30.0832 10.64 30.0512C10.6208 30.0448 10.5968 30.0432 10.584 30.0304C10.5424 29.9936 10.4928 29.9568 10.4656 29.9104C10.4272 29.8432 10.5024 29.8128 10.5328 29.7712C10.7632 29.4672 10.9968 29.1664 11.2 28.8432C11.48 28.3968 11.7616 27.952 12.0384 27.504C12.3408 27.016 12.6448 26.5296 12.9392 26.0384C13.2112 25.5856 13.4688 25.1232 13.736 24.6672C13.952 24.2992 14.176 23.9344 14.392 23.5664C14.6592 23.1104 14.9184 22.6512 15.1872 22.1968C15.4192 21.8032 15.6576 21.4112 15.8928 21.0192C16.152 20.5888 16.4144 20.16 16.6688 19.7264C16.888 19.3552 17.104 18.9808 17.3104 18.6016C17.496 18.2592 17.6864 17.9184 17.8352 17.5552C17.928 17.3296 18.0448 17.1136 18.1472 16.8912C18.2432 16.6832 18.368 16.4912 18.464 16.2864C18.736 15.7056 19.0672 15.1584 19.3808 14.6C19.632 14.1504 19.8928 13.704 20.1392 13.2512C20.2736 13.0032 20.4 12.7488 20.5264 12.4976C20.7344 12.0816 20.9024 11.648 21.1168 11.2352C21.3008 10.8816 21.4752 10.5216 21.6416 10.1584C21.8496 9.70081 22.0416 9.23681 22.2144 8.76481C22.3056 8.51681 22.4096 8.27201 22.5008 8.02401C22.64 7.64321 22.792 7.26721 22.9184 6.88321C23.0368 6.52321 23.136 6.15521 23.232 5.78881C23.2944 5.54881 23.3504 5.30561 23.384 5.06081C23.424 4.77121 23.4688 4.48001 23.488 4.18721C23.5008 3.98561 23.512 3.78561 23.5136 3.58241C23.6496 3.55681 23.72 3.67361 23.824 3.70081C23.8256 3.72001 23.8336 3.73281 23.856 3.72481C23.8976 3.74721 23.9392 3.77121 23.9808 3.79361C23.9808 3.81281 23.9888 3.82561 24.0128 3.81761C24.0848 3.86081 24.1568 3.90561 24.2288 3.94881C24.2304 3.96961 24.2384 3.98081 24.2608 3.97441C24.2816 3.98721 24.3008 3.99841 24.3216 4.01121C24.3216 4.03201 24.3312 4.04321 24.3536 4.03681C24.4288 4.09761 24.504 4.16161 24.5824 4.21281C24.6608 4.26401 24.6688 4.31521 24.6624 4.39041C24.6368 4.72641 24.6112 5.06081 24.5872 5.39681C24.5712 5.61921 24.56 5.84161 24.5472 6.06241C24.544 6.08161 24.5392 6.10081 24.536 6.12001C24.5328 6.13921 24.5344 6.16161 24.56 6.16001C24.568 6.16001 24.5744 6.13761 24.5808 6.12481C24.7488 5.86561 24.9056 5.60001 25.096 5.35521C25.1808 5.24641 25.2688 5.14081 25.3584 5.03681C25.4064 4.98081 25.4624 4.96001 25.5344 4.96641C25.6416 4.97441 25.7472 4.98401 25.848 5.02241C25.8896 5.03841 25.928 5.03041 25.968 5.03681C25.9744 5.05281 25.9792 5.06881 26.0016 5.05601C26.032 5.05921 26.0624 5.06401 26.0928 5.06721C26.0976 5.08481 26.1024 5.10081 26.1264 5.08801L26.2176 5.09761C26.2208 5.11681 26.2288 5.12961 26.2512 5.11841C26.3648 5.15201 26.4784 5.18721 26.5904 5.22081C26.5936 5.24001 26.6016 5.25121 26.624 5.24641C26.72 5.26561 26.792 5.34881 26.896 5.34721C26.9152 5.41441 26.9696 5.42721 27.0288 5.43041C27.0384 5.43201 27.048 5.43521 27.0576 5.43841C27.0608 5.45761 27.0672 5.47041 27.0896 5.46241C27.2032 5.52641 27.3168 5.59201 27.432 5.65601C27.432 5.67521 27.44 5.68801 27.464 5.68001C27.536 5.72321 27.608 5.76801 27.68 5.81121C27.6816 5.83041 27.6896 5.84321 27.712 5.83681C27.7328 5.84961 27.7536 5.86081 27.7744 5.87361C27.7744 5.89281 27.7824 5.90561 27.8048 5.89761C27.992 6.01121 28.1712 6.13601 28.3392 6.27361C28.528 6.43041 28.7056 6.60161 28.8672 6.79041C28.9216 6.85441 28.904 6.92961 28.8928 6.99841C28.8208 7.45281 28.5712 7.82241 28.3088 8.18401C28.2528 8.26241 28.2016 8.34401 28.1472 8.42401C28.128 8.42401 28.1168 8.43201 28.1216 8.45441C27.8816 8.77601 27.6416 9.09761 27.4016 9.41921C27.3824 9.41921 27.3712 9.42881 27.376 9.44961C27.3536 9.48161 27.3312 9.51201 27.3088 9.54401C27.2896 9.54401 27.2784 9.55361 27.2832 9.57441C27.032 9.89281 26.8016 10.2256 26.592 10.5744C26.504 10.7216 26.4128 10.8688 26.3264 11.0176C26.3008 11.0608 26.28 11.1072 26.2816 11.16C26.2624 11.1632 26.2496 11.1712 26.256 11.1936C26.2224 11.2752 26.1888 11.3568 26.1568 11.4384C26.1392 11.4432 26.1248 11.4512 26.1344 11.4736C26.1216 11.5152 26.1088 11.5552 26.096 11.5968C26.0768 11.6 26.064 11.6064 26.072 11.6288C26.0592 11.6704 26.0464 11.7104 26.0336 11.752C26.0144 11.7552 26.0016 11.7632 26.0096 11.7856C25.9968 11.8272 25.984 11.8672 25.9712 11.9088C25.952 11.912 25.9392 11.9184 25.9472 11.9408C25.9488 11.9856 25.8992 12.0144 25.9088 12.0624C25.8912 12.0672 25.8768 12.0736 25.8864 12.096C25.8832 12.1168 25.88 12.136 25.8784 12.1568C25.8592 12.16 25.8464 12.1664 25.8544 12.1888L25.8464 12.248C25.8272 12.2512 25.8144 12.2592 25.8224 12.2816C25.7792 12.4256 25.7344 12.5712 25.6912 12.7152C25.6752 12.72 25.6592 12.7248 25.6704 12.7472C25.68 12.8144 25.6288 12.8672 25.6288 12.9328C25.6112 12.9376 25.5968 12.9424 25.608 12.9664C25.584 13.0592 25.56 13.152 25.5344 13.2448C25.5168 13.2496 25.5024 13.256 25.5136 13.2784V13.2832ZM15.7008 26.9584C15.5904 26.9376 15.5504 27.0288 15.4928 27.0896C15.4784 27.1056 15.4752 27.128 15.4976 27.1408C15.5072 27.1456 15.528 27.1408 15.5392 27.1328C15.608 27.088 15.6272 26.9968 15.7024 26.9584C15.6896 26.9536 15.6896 26.9472 15.6992 26.9392C15.6992 26.9456 15.7008 26.952 15.7024 26.96L15.7008 26.9584Z" fill="black"/>
<path d="M9.09923 23.7376C9.06563 23.8192 9.03363 23.9024 9.00003 23.984C8.98083 23.9872 8.96803 23.9952 8.97443 24.0176C8.91043 24.1728 8.84643 24.328 8.78243 24.4832C8.76323 24.4848 8.75043 24.4944 8.75683 24.5152C8.70243 24.6496 8.64963 24.784 8.59523 24.9184C8.57603 24.9216 8.56323 24.9296 8.57123 24.952C8.52803 25.0656 8.48483 25.1792 8.44003 25.2928C8.42083 25.2944 8.40803 25.3024 8.41603 25.3248C8.40323 25.3664 8.39043 25.4064 8.37763 25.448C8.35843 25.4496 8.34563 25.4576 8.35363 25.48C8.30403 25.6608 8.20483 25.824 8.16003 26.008C8.14083 26.0096 8.12803 26.0176 8.13603 26.04C8.10243 26.144 8.06883 26.2464 8.03523 26.3504C7.99683 26.384 7.97603 26.424 7.98083 26.4768C7.90563 26.704 7.83043 26.9312 7.75523 27.16C7.73923 27.1648 7.72323 27.1696 7.73443 27.192C7.66883 27.4096 7.60323 27.6256 7.53763 27.8432C7.52003 27.848 7.50563 27.8528 7.51683 27.8768C7.52003 27.976 7.45763 28.0592 7.44483 28.1552C7.42883 28.16 7.41283 28.1664 7.42403 28.1888C7.36963 28.3984 7.31843 28.6096 7.25603 28.816C7.24003 28.8656 7.23043 28.9136 7.22723 28.9632C7.20963 28.968 7.19523 28.9744 7.20643 28.9968C7.21763 29.064 7.16483 29.1168 7.16483 29.1824C7.14883 29.1872 7.13123 29.192 7.14403 29.2144C7.14083 29.2448 7.13603 29.2752 7.13283 29.3056C7.11363 29.3088 7.10083 29.3168 7.11043 29.3392C7.10723 29.36 7.10563 29.3808 7.10243 29.4016C7.08483 29.4032 7.06883 29.408 7.08163 29.432C7.06563 29.5488 7.04003 29.664 6.99683 29.7728C6.94243 29.9088 6.85443 29.9328 6.75043 29.8336C6.64803 29.736 6.53923 29.6448 6.45763 29.5264C6.39043 29.4304 6.30563 29.3456 6.22403 29.2592C5.92963 28.952 5.71043 28.5904 5.48323 28.2352C5.37923 28.0736 5.27043 27.9136 5.17283 27.7472C5.13283 27.68 5.09443 27.6032 5.08803 27.5264C5.06723 27.3136 5.04963 27.1056 5.21123 26.9168C5.33283 26.7728 5.43683 26.6064 5.52323 26.4336C5.63203 26.216 5.75203 26.0048 5.86403 25.7888C6.03843 25.4528 6.10243 25.0896 6.13123 24.7184C6.17123 24.2 6.12483 23.6848 6.06563 23.1696C6.03843 22.9328 6.01283 22.696 5.98723 22.4608C5.98083 22.3984 5.97923 22.336 5.95363 22.2784C5.95683 22.2432 5.97283 22.2032 5.92483 22.1824C5.92963 21.9968 5.86723 21.8224 5.85123 21.64C5.84003 21.52 5.79683 21.4032 5.79843 21.2816C5.79843 21.1632 5.75203 21.0528 5.73443 20.9376C5.70883 20.7728 5.68483 20.608 5.67043 20.4416C5.66403 20.3696 5.64963 20.2976 5.64003 20.2272C5.64003 20.216 5.63843 20.2064 5.63683 20.1952C5.61283 19.912 5.61443 19.6288 5.61603 19.3456C5.61603 19.2736 5.61603 19.2032 5.61603 19.1248C5.77923 19.1152 5.90403 19.2144 6.04803 19.2304C6.04963 19.2496 6.05763 19.2624 6.08003 19.256C6.19363 19.296 6.30723 19.3344 6.41923 19.3744C6.43843 19.3808 6.45763 19.3936 6.47363 19.3744C6.48803 19.3568 6.48643 19.3328 6.47683 19.3168C6.42883 19.2448 6.38723 19.1664 6.32803 19.1056C6.22723 19.0032 6.14243 18.8848 6.01923 18.8048C5.96803 18.7712 5.92803 18.72 5.88803 18.6736C5.44483 18.1488 5.01763 17.6128 4.67363 17.0144C4.56643 16.8272 4.44643 16.6432 4.35203 16.4512C4.22883 16.2032 4.10723 15.952 3.99523 15.6976C3.82403 15.3136 3.67683 14.92 3.53923 14.5232C3.47683 14.3456 3.43043 14.1616 3.37603 13.9808C3.32003 13.7888 3.27043 13.5936 3.21763 13.4C3.17123 13.2304 3.14403 13.0576 3.10083 12.888C3.05123 12.688 3.01603 12.4848 2.98083 12.2816C2.96643 12.1952 2.97283 12.1056 2.95843 12.0192C2.88963 11.6016 2.86403 11.1808 2.83683 10.76C2.80323 10.248 2.81283 9.73439 2.85123 9.22399C2.88483 8.78559 2.93443 8.34879 2.97123 7.91039C2.97763 7.84319 3.02083 7.80959 3.06243 7.77439C3.24163 7.62079 3.41603 7.46399 3.60483 7.32479C3.79043 7.18879 3.97923 7.05279 4.19683 6.96319C4.29763 6.92159 4.39683 6.87039 4.48963 6.80959C4.56323 6.76159 4.64963 6.72959 4.73283 6.70079C4.77443 6.68639 4.83523 6.67679 4.86243 6.71359C4.88003 6.73759 4.87523 6.78879 4.84803 6.82879C4.82723 6.86079 4.80003 6.89759 4.80483 6.94239C4.77123 6.96479 4.73443 6.98559 4.74883 7.03679C4.74723 7.07999 4.70563 7.11199 4.71043 7.15839C4.67683 7.18079 4.64003 7.20319 4.65443 7.25439C4.63203 7.31679 4.60963 7.37759 4.58563 7.43999C4.56643 7.44159 4.55363 7.44959 4.56163 7.47199C4.54883 7.51199 4.53603 7.55359 4.52323 7.59359C4.50403 7.59679 4.49123 7.60479 4.49923 7.62719C4.49923 7.67199 4.45123 7.70079 4.46083 7.74879C4.44323 7.75359 4.42883 7.75999 4.43843 7.78239C4.43043 7.83519 4.39043 7.87999 4.40003 7.93599C4.36963 7.95999 4.33123 7.98079 4.34403 8.03039C4.33283 8.09119 4.29443 8.14719 4.30563 8.21279C4.28803 8.21759 4.27363 8.22399 4.28483 8.24639C4.26083 8.37119 4.23683 8.49599 4.21123 8.61919C4.17443 8.62879 4.18243 8.65599 4.18723 8.68159C4.18563 8.72319 4.18243 8.76479 4.18083 8.80479C4.14243 8.81439 4.15203 8.84159 4.15523 8.86719C4.13283 9.12159 4.10083 9.37599 4.06563 9.62879C4.04643 9.76959 4.05923 9.91679 4.03843 10.0592C3.95363 10.6448 3.97123 11.2304 4.01763 11.8176C4.04323 12.1312 4.06563 12.4448 4.11523 12.7552C4.07523 12.7776 4.07363 12.7984 4.11523 12.8192C4.16803 13.1696 4.20003 13.5248 4.27843 13.8688C4.35843 14.216 4.42563 14.568 4.53283 14.9104C4.62083 15.1968 4.70083 15.4864 4.80003 15.7712C4.92643 16.136 5.05603 16.5008 5.21123 16.8544C5.29923 17.0528 5.38083 17.2528 5.47843 17.4464C5.49283 17.4752 5.51043 17.4992 5.52803 17.5232C5.53763 17.5568 5.54403 17.5904 5.57603 17.6128C5.62883 17.776 5.72643 17.9136 5.81443 18.0576C5.76963 17.8848 5.68483 17.7312 5.61443 17.5712C5.61923 17.5632 5.61763 17.5552 5.61123 17.5488C5.62083 17.5168 5.61123 17.496 5.58083 17.4848C5.51363 17.288 5.44323 17.0944 5.38243 16.896C5.28163 16.568 5.16643 16.2432 5.09443 15.9088C5.03523 15.6432 4.97923 15.376 4.92963 15.1072C4.89443 14.9152 4.84323 14.7248 4.81283 14.5328C4.78723 14.3696 4.75843 14.2048 4.74723 14.0384C4.73123 13.8064 4.69603 13.5744 4.66883 13.344C4.61923 12.912 4.59523 12.4768 4.57283 12.0416C4.54243 11.44 4.55523 10.84 4.58883 10.2384C4.60963 9.85599 4.64483 9.47359 4.69603 9.09439C4.71523 8.95199 4.71203 8.80639 4.74243 8.66719C4.77443 8.51999 4.75203 8.36159 4.82883 8.22239C4.85923 8.16799 4.84163 8.10239 4.85123 8.04319C4.88803 7.83999 4.94083 7.63839 4.99363 7.44159C5.05923 7.19999 5.09923 6.95199 5.18723 6.71519C5.18883 6.71039 5.19523 6.70719 5.19523 6.70239C5.21443 6.63839 5.15043 6.56319 5.24323 6.50399C5.30563 6.46559 5.34083 6.38559 5.39363 6.33119C5.44643 6.27679 5.49123 6.20959 5.56643 6.18239C5.57603 6.17919 5.58243 6.16959 5.58883 6.16159C5.80003 5.92319 6.04803 5.72799 6.29123 5.52639C6.49763 5.35519 6.69923 5.17279 6.93603 5.04159C6.99523 5.00959 7.04163 4.96319 7.09443 4.92319C7.17283 4.86399 7.26563 4.84319 7.35043 4.80319C7.41283 4.77439 7.44803 4.79679 7.47843 4.84479C7.53923 4.94399 7.60003 5.04479 7.65923 5.14559C7.69603 5.20799 7.73763 5.26559 7.80163 5.31999C7.90243 5.16799 7.97283 5.00959 8.03363 4.84479C8.13923 4.55519 8.19363 4.25439 8.25763 3.95679C8.28003 3.85759 8.30083 3.75999 8.30883 3.65919C8.31683 3.54719 8.37763 3.49279 8.47683 3.45279C8.90403 3.27999 9.34563 3.20799 9.80483 3.26239C9.82563 3.26399 9.84643 3.26239 9.86723 3.26239C9.88643 3.27359 9.90723 3.27519 9.92803 3.26719C9.97923 3.27839 10.0304 3.28959 10.0832 3.30079C10.096 3.33759 10.1184 3.33599 10.1456 3.31679C10.2128 3.32159 10.28 3.32639 10.3472 3.33119C10.6224 3.35199 10.6832 3.38719 10.8368 3.62719C11.0352 3.93919 11.2464 4.24319 11.4048 4.57919C11.4128 4.59679 11.4192 4.61759 11.4256 4.63679C11.4192 4.65919 11.4304 4.66719 11.4496 4.66879C11.4576 4.68959 11.4496 4.71999 11.48 4.72959C11.496 4.82719 11.5392 4.91039 11.608 5.00319C11.608 4.89279 11.5808 4.80959 11.5392 4.72799C11.552 4.58879 11.5008 4.45919 11.4624 4.33119C11.3328 3.90079 11.1728 3.48159 11.0192 3.05919C10.8992 2.94079 10.9952 2.84959 11.0528 2.74719C11.1968 2.49279 11.4448 2.36159 11.6736 2.20639C11.7376 2.16319 11.768 2.17599 11.7952 2.24799C11.8528 2.40159 11.9072 2.55999 11.9856 2.70399C12.1648 3.03839 12.3152 3.38559 12.4672 3.73279C12.4816 3.76479 12.5008 3.79519 12.5184 3.82559C12.5104 3.84639 12.5184 3.85279 12.5376 3.84639C12.6496 4.04479 12.7712 4.23999 12.872 4.44479C12.9328 4.56479 13.0064 4.67359 13.096 4.76959C13.2848 4.97279 13.48 5.17119 13.7184 5.31839C13.7184 5.33919 13.728 5.35039 13.7504 5.34399C13.8512 5.42879 13.9792 5.47199 14.0864 5.54719C14.1392 5.58559 14.2 5.57599 14.2496 5.56479C14.464 5.51199 14.6864 5.50719 14.9024 5.45599C15.112 5.40639 15.2992 5.31199 15.4784 5.19519C15.944 4.89279 16.2944 4.48479 16.568 4.00479C16.6928 3.78719 16.8256 3.57439 16.9168 3.34239C16.9968 3.14079 17.1184 2.99199 17.2976 2.87039C17.528 2.71519 17.7392 2.53439 17.976 2.38719C18.008 2.39359 18.0384 2.39519 18.0704 2.38399C18.1712 2.44159 18.2496 2.52159 18.3232 2.60959C18.32 2.63039 18.3296 2.63999 18.3504 2.63999C18.3728 2.67199 18.3952 2.70239 18.4176 2.73439C18.4128 2.75519 18.424 2.76479 18.4432 2.76479C18.5728 2.98719 18.7168 3.19999 18.8448 3.42399C18.9248 3.56159 18.9728 3.71039 19.0448 3.84959C19.0768 3.91039 19.0592 3.97759 19.04 4.04479C19.0016 4.18559 18.9792 4.32799 18.9696 4.47359C18.9504 4.47679 18.9392 4.48479 18.944 4.50559C18.9424 4.53599 18.9392 4.56479 18.9376 4.59519C18.92 4.59999 18.9056 4.60639 18.9168 4.63039C18.9136 4.65119 18.9104 4.67199 18.9088 4.69279C18.8896 4.69599 18.8768 4.70239 18.8864 4.72479C18.8832 4.74559 18.88 4.76479 18.8784 4.78559C18.8592 4.78879 18.8464 4.79679 18.8544 4.81919C18.7648 5.06399 18.6208 5.27999 18.4736 5.49279C18.4496 5.52639 18.4384 5.56639 18.4128 5.59679C18.3936 5.59679 18.3824 5.60639 18.3872 5.62719C18.344 5.68959 18.3008 5.75199 18.2576 5.81439C18.2384 5.81439 18.2272 5.82399 18.232 5.84479C18.0336 6.09599 17.8416 6.35359 17.6368 6.59839C17.4832 6.78239 17.328 6.96799 17.1648 7.14399C17.008 7.31199 16.8688 7.49599 16.72 7.67039C16.5904 7.82239 16.4464 7.96319 16.3248 8.11999C16.2464 8.22239 16.1504 8.31039 16.0816 8.42079C16.032 8.50079 15.9664 8.57119 15.9056 8.64319C15.7328 8.84159 15.5856 9.06079 15.4032 9.25119C15.3936 9.26079 15.3952 9.27999 15.392 9.29599C15.3696 9.31679 15.3488 9.33919 15.3264 9.35999C15.336 9.35679 15.336 9.36319 15.3312 9.36159C15.312 9.35679 15.3344 9.37439 15.328 9.35359C15.3792 9.36799 15.4128 9.34559 15.432 9.29919C15.5392 9.27039 15.6208 9.19679 15.7152 9.14559C15.952 9.01439 16.1792 8.86559 16.4192 8.74559C16.5232 8.69439 16.584 8.60639 16.6352 8.52799C16.7056 8.42079 16.8064 8.32959 16.8416 8.19359C16.8624 8.11359 16.9424 8.04959 16.9792 7.97119C17.0784 7.76159 17.192 7.56159 17.3072 7.36319C17.32 7.34079 17.328 7.31519 17.3456 7.29759C17.3696 7.27359 17.3952 7.23999 17.4368 7.25279C17.4848 7.26719 17.4736 7.30719 17.472 7.34239C17.4656 7.42399 17.4592 7.50719 17.4528 7.58879C17.3984 7.60319 17.4208 7.64639 17.4208 7.67999C17.4192 7.73119 17.416 7.78399 17.4144 7.83519C17.3776 7.84479 17.384 7.87199 17.3888 7.89759C17.384 7.97279 17.3792 8.04799 17.3744 8.12319C17.3248 8.14879 17.3152 8.18879 17.3264 8.23999C17.3376 8.37919 17.2624 8.50079 17.2512 8.63519C17.2416 8.75199 17.1632 8.84319 17.1328 8.95359C17.1136 8.95679 17.1008 8.96319 17.1088 8.98559C17.096 9.02719 17.0832 9.06719 17.0704 9.10879C17.0624 9.11199 17.0496 9.11519 17.048 9.11999C17.0432 9.13759 17.0576 9.14079 17.0704 9.14399C16.9392 9.35999 16.8288 9.58719 16.7264 9.81759C16.6864 9.82399 16.6624 9.84479 16.672 9.88799C16.6096 9.99519 16.5504 10.1056 16.5104 10.224C16.4736 10.232 16.4416 10.2432 16.4608 10.2912C16.248 10.6608 16.0288 11.0288 15.8464 11.4144C15.8384 11.432 15.8336 11.4528 15.8288 11.472C15.8096 11.4736 15.7968 11.4816 15.8048 11.504C15.792 11.544 15.7792 11.5856 15.7664 11.6256C15.7472 11.6288 15.7344 11.6368 15.7424 11.6592C15.72 11.72 15.696 11.7824 15.6736 11.8432C15.6544 11.8464 15.6416 11.8544 15.6496 11.8768C15.6336 11.9632 15.5856 12.0384 15.544 12.112C15.4016 12.36 15.3072 12.6336 15.152 12.8736C15.1472 12.8816 15.152 12.8944 15.152 12.904C15.1088 12.9328 15.088 12.9744 15.0896 13.0272C15.0368 13.1808 14.9456 13.3168 14.8832 13.4656C14.8752 13.4832 14.872 13.504 14.8656 13.5232C14.8464 13.5248 14.8336 13.5344 14.84 13.5552C14.744 13.7792 14.632 13.9936 14.5232 14.2096C14.4624 14.3328 14.3696 14.4384 14.3344 14.576C14.2976 14.584 14.2656 14.5968 14.2848 14.6448C14.2464 14.7152 14.2048 14.7824 14.1696 14.8544C14.136 14.9248 14.0864 14.9808 14.024 15.0256C14.0016 15.0176 13.9968 15.0288 14 15.048C13.9568 15.1216 13.9376 15.1296 13.904 15.0784C13.8816 15.0448 13.8592 15.0112 13.8464 14.9728C13.7488 14.6864 13.624 14.4096 13.5248 14.1248C13.4704 13.9696 13.4256 13.8096 13.3968 13.6448C13.3632 13.44 13.3088 13.24 13.2672 13.0352C13.248 12.9424 13.2176 12.8512 13.2208 12.7536C13.224 12.6192 13.1632 12.496 13.1504 12.3616C13.1312 12.16 13.088 11.9616 13.0544 11.7616C13.0496 11.736 13.0384 11.712 13.0304 11.688C13.0336 11.6512 13.0448 11.6128 13 11.592C13.0112 11.3968 12.9376 11.2144 12.896 11.0288C12.8432 10.8032 12.8576 10.5968 12.9648 10.392C13.024 10.28 13.0784 10.1632 13.064 10.0304C13.0432 9.84159 12.9984 9.65919 12.9232 9.48319C12.8192 9.23679 12.7184 8.99039 12.6144 8.74399C12.5168 8.51359 12.4144 8.28319 12.3168 8.05279C12.232 7.85119 12.1584 7.64479 12.064 7.44799C12.0416 7.39999 12.064 7.33119 12.0016 7.30239C11.9984 7.29439 11.9936 7.28159 11.9904 7.28159C11.9792 7.28159 11.9776 7.29119 11.9824 7.30239C11.9536 7.33439 11.9392 7.36799 11.9376 7.41279C11.9088 8.02239 11.9168 8.63039 11.9248 9.23999C11.9296 9.65279 11.9824 10.0624 12.0112 10.4752C12.0064 10.5008 11.9968 10.528 12.0352 10.5376C12.04 10.5888 12.0448 10.64 12.048 10.6928C12.032 10.72 12.0288 10.744 12.0656 10.7568C12.0912 10.976 12.112 11.1952 12.144 11.4128C12.1568 11.5056 12.1552 11.5968 12.1664 11.6896C12.1616 11.7152 12.152 11.7424 12.1904 11.752C12.1936 11.7936 12.1952 11.8336 12.1984 11.8752C12.1936 11.9008 12.184 11.928 12.2224 11.9376C12.224 11.9792 12.2272 12.0208 12.2288 12.0608C12.224 12.088 12.2176 12.1152 12.2544 12.1232C12.2688 12.2688 12.3168 12.4112 12.3216 12.5584C12.3168 12.5856 12.3088 12.6128 12.3472 12.6208C12.3536 12.6528 12.3536 12.6864 12.376 12.7136C12.3696 12.7344 12.3712 12.7552 12.384 12.7744C12.3664 12.888 12.4048 12.992 12.432 13.0992C12.48 13.2928 12.5264 13.4864 12.5728 13.68C12.5616 13.7024 12.576 13.7088 12.5936 13.7136C12.5968 13.744 12.6016 13.7744 12.6048 13.8048C12.592 13.8272 12.608 13.8336 12.6256 13.8384C12.6704 14.0032 12.7152 14.1696 12.76 14.3344C12.7488 14.3584 12.7632 14.3632 12.7808 14.3648C12.784 14.3856 12.7856 14.4064 12.7888 14.4272C12.7776 14.4496 12.7936 14.456 12.8096 14.4608C12.8224 14.512 12.8368 14.5632 12.8496 14.6128C12.84 14.6352 12.8544 14.6416 12.872 14.6464C12.8944 14.7184 12.9184 14.7888 12.9408 14.8608C12.9328 14.8832 12.9456 14.8912 12.9648 14.8944L13.0032 15.016C12.9952 15.0384 13.008 15.0464 13.0272 15.048C13.04 15.0896 13.0528 15.1296 13.0656 15.1712C13.0576 15.1936 13.0704 15.2016 13.0896 15.2032C13.1168 15.2768 13.1328 15.3552 13.1728 15.4208C13.2048 15.472 13.2032 15.5232 13.2176 15.5744C13.2192 15.5952 13.2208 15.616 13.224 15.6368C13.2208 15.6464 13.2176 15.6576 13.2144 15.6672C13.1952 15.6704 13.1824 15.6768 13.192 15.6992L13.184 15.7312C13.1648 15.7312 13.152 15.7392 13.1568 15.7616C12.9344 16.2048 12.712 16.6496 12.488 17.0928C12.3968 17.272 12.304 17.4512 12.2048 17.6256C12.1696 17.6864 12.208 17.7488 12.1744 17.808C12.1152 17.808 12.0896 17.7664 12.0624 17.7216C11.9408 17.5168 11.8288 17.3056 11.7424 17.0816C11.6864 16.9376 11.6208 16.7952 11.5584 16.6528C11.5024 16.5248 11.4608 16.3904 11.416 16.2592C11.336 16.0192 11.2368 15.7888 11.1344 15.5568C11.0576 15.3824 11.0048 15.2 10.9408 15.0208C10.9024 14.912 10.8592 14.8064 10.8256 14.696C10.7232 14.3728 10.6512 14.0432 10.5744 13.7136C10.5152 13.4592 10.4368 13.2096 10.4 12.952C10.376 12.7808 10.3216 12.6128 10.3216 12.4384C10.3216 12.2832 10.2544 12.1408 10.248 11.9856C10.24 11.7984 10.1856 11.616 10.1712 11.4272C10.1328 10.8688 10.0896 10.312 10.0528 9.75359C10.04 9.57279 10.0352 9.39199 10.0304 9.20959C10.0192 8.68159 10.0208 8.15199 9.99523 7.62399C9.96643 7.02399 9.97603 6.42239 9.94563 5.82239C9.93603 5.61279 9.92323 5.40159 9.86243 5.19519C9.83683 5.11039 9.84483 5.01439 9.82403 4.92479C9.80643 4.84959 9.77603 4.77599 9.69123 4.75039C9.59043 4.71999 9.49763 4.66719 9.39203 4.65439C9.37443 4.62399 9.35683 4.60479 9.34243 4.65599C9.31363 4.77439 9.32963 4.89279 9.33603 5.01119C9.36323 5.54239 9.38883 6.07519 9.42723 6.60639C9.48003 7.32799 9.54723 8.04799 9.59843 8.77119C9.62243 9.10559 9.62723 9.44319 9.63203 9.77919C9.63843 10.2352 9.68803 10.688 9.73603 11.1392C9.77763 11.52 9.81443 11.9008 9.85123 12.28C9.86563 12.424 9.87683 12.568 9.88963 12.712C9.88483 12.7376 9.87523 12.7648 9.91363 12.776C9.91683 12.8272 9.91843 12.8784 9.92163 12.9312C9.91683 12.9584 9.90883 12.9872 9.94883 12.9936C9.98403 13.1616 10.0192 13.3296 10.0528 13.4976C10.1104 13.7856 10.16 14.0752 10.2288 14.36C10.2816 14.5744 10.3104 14.7936 10.384 15.0048C10.4352 15.152 10.472 15.304 10.5152 15.4528C10.5024 15.4752 10.52 15.48 10.536 15.4848C10.528 15.5424 10.5888 15.5808 10.576 15.64C10.5648 15.6624 10.5792 15.6688 10.5984 15.672C10.6016 15.6928 10.6048 15.7136 10.6064 15.7344C10.5952 15.7568 10.6112 15.7632 10.6272 15.768C10.6272 15.832 10.6768 15.8848 10.6688 15.952C10.6576 15.9744 10.672 15.9808 10.6896 15.9872C10.6896 16.0512 10.7376 16.104 10.7296 16.1712C10.7184 16.1936 10.7328 16.2016 10.752 16.2048C10.7712 16.3568 10.8432 16.4928 10.8848 16.6384C10.8752 16.6608 10.8896 16.6672 10.9072 16.672C10.8976 16.72 10.9472 16.7488 10.9456 16.7936C10.9376 16.816 10.9504 16.824 10.9696 16.8272C10.9936 16.8992 11.016 16.9712 11.04 17.0432C11.032 17.0656 11.0448 17.0736 11.064 17.0752C11.088 17.1472 11.1104 17.2192 11.1344 17.2912C11.1264 17.3136 11.1392 17.32 11.1568 17.3248C11.1568 17.3952 11.2192 17.4416 11.2272 17.5088C11.2208 17.5312 11.232 17.5392 11.2512 17.5408C11.3856 17.8096 11.52 18.0768 11.656 18.3456C11.6784 18.392 11.7008 18.44 11.7248 18.4848C11.8048 18.6304 11.7856 18.7632 11.6912 18.896C11.5856 19.0448 11.4832 19.1968 11.3888 19.3536C11.088 19.8464 10.784 20.3376 10.496 20.8368C10.2528 21.2608 10.0352 21.6992 9.82723 22.1408C9.78723 22.2256 9.70403 22.2912 9.70563 22.3952C9.66403 22.4016 9.67203 22.4288 9.68003 22.456C9.53443 22.7536 9.39203 23.0512 9.26243 23.3568C9.24323 23.3584 9.23043 23.3664 9.23683 23.3888C9.21443 23.5008 9.12803 23.5856 9.10563 23.6976C9.08643 23.7008 9.07363 23.7088 9.08003 23.7312L9.09923 23.7376Z" fill="black"/>
<path d="M19.0816 13.4704C19.0016 13.68 18.8784 13.8688 18.7712 14.0656C18.6288 14.3232 18.4752 14.5744 18.3264 14.8288C18.1648 15.104 18.0064 15.3808 17.8384 15.6528C17.7936 15.7264 17.752 15.8016 17.7168 15.8784C17.448 16.4768 17.1296 17.0496 16.8496 17.6416C16.8416 17.6592 16.8368 17.68 16.8304 17.6992C16.7968 17.7088 16.7616 17.7168 16.776 17.7664C16.672 18.024 16.5296 18.2624 16.4144 18.5136C16.3968 18.5536 16.36 18.5856 16.3664 18.6352C16.3264 18.6384 16.2992 18.6544 16.3104 18.7008C16.2128 18.8224 16.1568 18.968 16.0944 19.1072C15.9552 19.4224 15.792 19.7248 15.6384 20.032C15.3648 20.5856 15.0912 21.1424 14.8064 21.6912C14.48 22.3184 14.1664 22.952 13.8464 23.584C13.704 23.8656 13.528 24.1328 13.4112 24.424C13.224 24.8912 12.936 25.2976 12.6992 25.7328C12.5168 26.0688 12.3264 26.4016 12.1392 26.736C12.1184 26.7296 12.1104 26.736 12.1184 26.7568C12.0608 26.9088 11.976 27.0464 11.9024 27.1904C11.8928 27.2096 11.888 27.2272 11.888 27.248C11.848 27.256 11.824 27.2736 11.8336 27.3184C11.664 27.6256 11.4992 27.936 11.3216 28.24C11.1504 28.5328 10.96 28.816 10.7568 29.0896C10.696 29.1712 10.6416 29.2576 10.5856 29.3408C10.5664 29.3408 10.5552 29.3488 10.56 29.3712C10.4976 29.4576 10.424 29.5392 10.376 29.6336C10.3024 29.7824 10.1728 29.8192 10.0288 29.8384C9.7536 29.8768 9.4768 29.9104 9.2016 29.9504C8.8 30.008 8.4016 30.088 7.9968 30.1168C7.9712 30.1184 7.9456 30.12 7.92 30.1216C7.7744 30.1248 7.7872 30.1264 7.8 29.976C7.8224 29.704 7.9264 29.4576 8.0032 29.2016C8.1024 28.8688 8.208 28.5376 8.3776 28.232C8.4768 28.0544 8.5712 27.8736 8.6688 27.6944C8.8192 27.4192 8.9008 27.1136 9.0368 26.8336C9.096 26.712 9.16 26.5936 9.2176 26.472C9.4384 26.0016 9.664 25.536 9.8512 25.0512C9.9136 24.888 9.9872 24.728 10.0464 24.5616C10.096 24.424 10.16 24.2832 10.2272 24.1488C10.4048 23.7968 10.5408 23.4272 10.7072 23.0704C10.8448 22.7728 10.9552 22.464 11.0928 22.168C11.2224 21.8896 11.3376 21.6048 11.4672 21.3264C11.6176 21 11.7648 20.672 11.9136 20.3456C12.072 19.9984 12.2512 19.6608 12.4192 19.3184C12.6496 18.8496 12.8688 18.376 13.112 17.9152C13.3024 17.5552 13.4896 17.1952 13.648 16.8208C13.8176 16.4192 13.9888 16.016 14.2 15.6352C14.5376 15.0272 14.8896 14.4272 15.2656 13.8416C15.4768 13.5136 15.6752 13.176 15.8688 12.8368C16.1648 12.32 16.448 11.7968 16.7424 11.28C16.9088 10.9872 17.0896 10.7056 17.256 10.4128C17.4208 10.12 17.576 9.82239 17.7344 9.52639C18.0032 9.02399 18.2768 8.52479 18.5344 8.01599C18.6784 7.73119 18.8112 7.43839 18.952 7.15359C19.1408 6.77279 19.296 6.38239 19.4176 5.97759C19.5184 5.64159 19.6016 5.30079 19.6912 4.96159C19.696 4.94239 19.696 4.91999 19.696 4.89919C19.696 4.48479 19.6864 4.07039 19.64 3.65759C19.6048 3.34879 19.5744 3.03999 19.5424 2.73119C19.5392 2.70559 19.5488 2.67199 19.536 2.65439C19.4704 2.57279 19.5296 2.51199 19.5616 2.44479C19.592 2.38079 19.648 2.35519 19.7136 2.33439C19.848 2.29279 19.9872 2.28479 20.1264 2.28479C20.2192 2.28479 20.312 2.29919 20.4048 2.30719C20.4192 2.34239 20.4416 2.33919 20.4688 2.32319C20.584 2.31199 20.6912 2.36799 20.8064 2.36799C20.8112 2.38719 20.8192 2.39999 20.8416 2.38879C20.872 2.39199 20.9024 2.39519 20.9328 2.39839C20.9376 2.41599 20.944 2.43039 20.9664 2.41919C21.0336 2.40959 21.0864 2.45919 21.1504 2.46079C21.1568 2.47679 21.1616 2.49439 21.184 2.47999C21.2816 2.48159 21.368 2.52639 21.4544 2.56479C21.4896 2.58079 21.5216 2.58079 21.5552 2.58559C21.5584 2.60479 21.5664 2.61599 21.5888 2.61119C21.6832 2.63839 21.7664 2.69759 21.8656 2.71039C21.8688 2.72959 21.8752 2.74239 21.8992 2.73279C21.9568 2.81759 22.0656 2.79039 22.1392 2.84639C22.2512 2.93119 22.376 2.99679 22.488 3.08159C22.568 3.14239 22.6256 3.21599 22.6816 3.29439C22.72 3.35039 22.7168 3.40159 22.6464 3.43039C22.624 3.42399 22.6144 3.43199 22.6208 3.45599C22.6224 3.53919 22.6256 3.62239 22.6272 3.70399C22.6112 3.73119 22.6096 3.75519 22.6464 3.76639C22.72 4.19519 22.6192 4.61759 22.6032 5.04159C22.5968 5.21919 22.5456 5.39199 22.5216 5.56799C22.5024 5.57119 22.4912 5.57919 22.4976 5.60159C22.4976 5.67519 22.4496 5.74079 22.4608 5.81599C22.4416 5.81919 22.4288 5.82719 22.4384 5.84959C22.3824 6.07199 22.2976 6.28639 22.2256 6.50399C22.2192 6.52319 22.216 6.54239 22.2112 6.56159C22.1744 6.59679 22.152 6.63679 22.1584 6.68959C22.1664 6.74559 22.1136 6.78559 22.1184 6.84159C22.1008 6.84639 22.0864 6.85439 22.096 6.87679C22.0928 6.89599 22.0912 6.91679 22.088 6.93599C22.0688 6.93919 22.056 6.94719 22.064 6.96959C22.0304 7.07359 21.9968 7.17599 21.9632 7.27999C21.944 7.28319 21.9312 7.28959 21.9392 7.31199C21.9152 7.38399 21.8928 7.45599 21.8688 7.52799C21.8496 7.53119 21.8368 7.53759 21.8448 7.55999C21.8224 7.63199 21.7984 7.70399 21.776 7.77599C21.7568 7.77919 21.744 7.78719 21.752 7.80959C21.6768 8.00639 21.6016 8.20159 21.5264 8.39839C21.5088 8.40319 21.4944 8.40959 21.504 8.43199C21.4912 8.47359 21.4784 8.51359 21.4656 8.55519C21.4464 8.55839 21.4336 8.56639 21.4416 8.58719C21.4192 8.64959 21.3952 8.71039 21.3728 8.77279C21.3536 8.77439 21.3408 8.78239 21.3488 8.80479C21.3152 8.88799 21.2816 8.96959 21.2496 9.05279C21.2304 9.05439 21.2176 9.06239 21.224 9.08479C21.1536 9.26559 21.0592 9.43359 20.9712 9.60479C20.8768 9.78879 20.7728 9.96799 20.672 10.1504C20.6368 10.216 20.608 10.2832 20.5952 10.3584C20.5776 10.3632 20.5632 10.3696 20.5728 10.392C20.456 10.7376 20.2912 11.0608 20.12 11.3824C20.0656 11.4848 20.0032 11.5824 19.9728 11.696C19.9552 11.7008 19.9408 11.7072 19.9504 11.7296C19.9376 11.7712 19.9248 11.8112 19.912 11.8528C19.8928 11.856 19.88 11.8624 19.888 11.8848C19.8656 11.9472 19.8416 12.008 19.8192 12.0704C19.8 12.072 19.7872 12.08 19.7936 12.1024C19.7184 12.2912 19.6192 12.4672 19.5296 12.648C19.5184 12.6704 19.5024 12.6912 19.5056 12.7184C19.44 12.7392 19.4272 12.792 19.4208 12.8512C19.3264 12.984 19.2816 13.1408 19.1984 13.28C19.1648 13.336 19.1456 13.4 19.1024 13.4512C19.0816 13.4448 19.0752 13.4512 19.0832 13.472L19.0816 13.4704Z" fill="black"/>
<path d="M29.8544 8.27999C29.9024 8.51199 29.9536 8.74079 30.016 8.96959C30.0512 9.09919 30.0416 9.23679 30.032 9.37119C30.0144 9.62879 30 9.88639 29.9856 10.1456C29.9728 10.176 29.9728 10.2064 29.9808 10.2384C29.9552 10.2864 29.96 10.3424 29.9488 10.3936C29.9104 10.4016 29.92 10.4304 29.9232 10.456C29.9312 10.5616 29.8832 10.6608 29.8864 10.7664C29.848 10.776 29.8528 10.8016 29.864 10.8288C29.872 10.9056 29.8176 10.968 29.8224 11.0432C29.8032 11.0464 29.7904 11.0528 29.8016 11.0768L29.7936 11.1408C29.776 11.1424 29.76 11.1472 29.7728 11.1712C29.7056 11.4336 29.5856 11.672 29.4528 11.9056C29.1872 12.3728 28.8736 12.8064 28.5376 13.2256C28.4736 13.304 28.4208 13.392 28.3632 13.4752C28.344 13.4752 28.3328 13.4848 28.3376 13.5056C28.1904 13.648 28.1504 13.8496 28.0656 14.024C28.016 14.1264 27.9536 14.2272 27.928 14.3424C27.9088 14.3456 27.896 14.3536 27.904 14.376C27.84 14.5408 27.7744 14.7056 27.7104 14.872C27.6912 14.8752 27.6784 14.8832 27.6864 14.9056C27.664 14.9664 27.64 15.0288 27.6176 15.0896C27.5984 15.0928 27.5856 15.1008 27.5936 15.1232C27.5456 15.2704 27.4672 15.4048 27.432 15.5568C27.4128 15.56 27.4 15.568 27.408 15.5904C27.408 15.6352 27.36 15.664 27.3696 15.712C27.352 15.7168 27.3376 15.7232 27.3472 15.7456C27.3136 15.8496 27.28 15.952 27.2464 16.056C27.2272 16.0592 27.2144 16.0656 27.224 16.088C27.2208 16.1072 27.2192 16.128 27.216 16.1472C27.1968 16.1504 27.184 16.1584 27.192 16.1808C27.1728 16.2976 27.1024 16.4 27.0912 16.5216C27.0752 16.5264 27.0592 16.5312 27.0688 16.5552L27.0608 16.6176C27.0432 16.6208 27.0272 16.6256 27.04 16.648C27.048 16.7136 26.9856 16.7648 26.9984 16.832C26.9792 16.8352 26.9664 16.8416 26.9776 16.8656C26.9616 16.9952 26.896 17.112 26.8848 17.2432C26.8816 17.2736 26.8784 17.3024 26.8752 17.3328C26.8368 17.3408 26.8448 17.3696 26.8496 17.3952C26.8608 17.4912 26.8144 17.5808 26.8144 17.6752C26.776 17.6832 26.7824 17.7104 26.7888 17.7376C26.7872 17.7792 26.784 17.8208 26.7824 17.8608C26.744 17.8704 26.7536 17.8976 26.7584 17.9232C26.7472 18.1568 26.696 18.384 26.6848 18.6176C26.664 19.016 26.6464 19.4144 26.6896 19.8128C26.6896 19.8224 26.6944 19.8336 26.6928 19.8432C26.6912 19.8896 26.7312 19.9504 26.6576 19.9744C26.5824 20 26.488 19.9696 26.4576 19.904C26.408 19.7984 26.3648 19.6896 26.3184 19.5824C26.2016 19.3136 26.1136 19.0368 26.0384 18.7536C26.0016 18.6144 25.9664 18.4736 25.9456 18.3296C25.8736 17.8384 25.8128 17.3456 25.8144 16.8512C25.8176 16.2 25.784 15.5456 25.8704 14.896C25.8864 14.7712 25.888 14.6448 25.9056 14.5184C25.9248 14.3824 25.9568 14.2496 25.984 14.1168C26.0528 13.768 26.136 13.4208 26.2384 13.0816C26.3136 12.832 26.3872 12.5824 26.4688 12.3344C26.6848 11.6816 26.9696 11.064 27.368 10.5024C27.5824 10.1984 27.8064 9.90239 28.0448 9.61599C28.2832 9.32799 28.5136 9.03199 28.7584 8.75039C28.9088 8.57599 29.048 8.39839 29.16 8.19679C29.2096 8.10719 29.2592 8.01919 29.2704 7.91519C29.2752 7.87359 29.3024 7.85279 29.3328 7.83359C29.3744 7.84639 29.416 7.84639 29.4576 7.83999C29.488 7.85279 29.5104 7.88479 29.5488 7.87679C29.568 7.91679 29.6016 7.93599 29.6432 7.94079C29.6496 7.97759 29.6992 7.96799 29.7104 8.00159C29.7056 8.02239 29.7168 8.03199 29.736 8.03199C29.768 8.10559 29.8176 8.16959 29.8352 8.24959C29.8272 8.27199 29.8416 8.27999 29.8592 8.28479L29.8544 8.27999Z" fill="black"/>
<path d="M21.8144 21.0496C21.7984 21.0704 21.784 21.0912 21.768 21.1104C21.7376 21.144 21.7056 21.1776 21.672 21.2144C21.6448 21.1648 21.6544 21.128 21.6752 21.088C21.7552 20.9312 21.832 20.7744 21.9088 20.6176C21.92 20.5936 21.944 20.5984 21.96 20.5888C21.9536 20.6848 21.8928 20.76 21.8528 20.8416C21.8208 20.9088 21.8 20.9744 21.8144 21.0496Z" fill="#F8F8F8"/>
<path d="M15.7744 29.2736C15.8544 29.2032 15.9552 29.1792 16.0512 29.1456C15.976 29.2928 15.9024 29.3264 15.7744 29.2736Z" fill="#F8F8F8"/>
<path d="M11.5439 4.728C11.5855 4.808 11.6127 4.8928 11.6127 5.0032C11.5455 4.9104 11.5023 4.8256 11.4847 4.7296C11.5039 4.7296 11.5231 4.7296 11.5439 4.7296V4.728Z" fill="#F8F8F8"/>
<path d="M25.5232 20.3472C25.5072 20.2848 25.504 20.2224 25.5184 20.16C25.5856 20.2272 25.5872 20.2704 25.5232 20.3472Z" fill="#F8F8F8"/>
<path d="M25.4673 21.528C25.4833 21.584 25.4417 21.6208 25.4193 21.6896C25.4129 21.5984 25.4129 21.5344 25.4273 21.4688C25.4401 21.488 25.4529 21.5072 25.4673 21.528Z" fill="#F8F8F8"/>
<path d="M15.0976 13.0352C15.0944 12.9824 15.1152 12.9408 15.16 12.912C15.2 12.984 15.16 13.0144 15.0976 13.0352Z" fill="#F8F8F8"/>
<path d="M29.4512 7.8352C29.4096 7.8416 29.368 7.8416 29.3264 7.8288C29.384 7.7568 29.4016 7.7568 29.4512 7.8352Z" fill="#F8F8F8"/>
<path d="M27.0272 5.43681C26.968 5.43361 26.9136 5.42081 26.8944 5.35361C26.9536 5.35681 27.0096 5.36481 27.0272 5.43681Z" fill="#F8F8F8"/>
<path d="M19.4448 28.1872C19.4928 28.1472 19.5488 28.1648 19.6064 28.1552C19.592 28.1952 19.5696 28.2096 19.536 28.2112C19.5104 28.1824 19.4768 28.1904 19.4448 28.1872Z" fill="#F8F8F8"/>
<path d="M19.4176 12.8512C19.424 12.792 19.4368 12.7392 19.5024 12.7184C19.4976 12.7776 19.488 12.8336 19.4176 12.8512Z" fill="#F8F8F8"/>
<path d="M17.4288 7.6848C17.4288 7.6512 17.4064 7.608 17.4608 7.5936C17.5008 7.6416 17.4928 7.6736 17.4288 7.6848Z" fill="#F8F8F8"/>
<path d="M7.98078 26.4752C7.97598 26.4224 7.99678 26.3824 8.03518 26.3488C8.03038 26.3968 8.05918 26.4592 7.98078 26.4752Z" fill="#F8F8F8"/>
<path d="M17.336 8.24479C17.3248 8.19519 17.336 8.15359 17.384 8.12799C17.392 8.17599 17.4096 8.22879 17.336 8.24479Z" fill="#F8F8F8"/>
<path d="M29.9808 10.2368C29.9728 10.2048 29.9728 10.1744 29.9856 10.144C30.0208 10.1776 30.0208 10.208 29.9808 10.2368Z" fill="#F8F8F8"/>
<path d="M18.0768 2.38721C18.0464 2.39681 18.0144 2.39681 17.9824 2.39041C17.9872 2.36001 17.9968 2.33441 18.0352 2.33761C18.0656 2.34081 18.072 2.36321 18.0768 2.38721Z" fill="#F8F8F8"/>
<path d="M22.1551 6.68958C22.1487 6.63678 22.1711 6.59678 22.2079 6.56158C22.2031 6.60958 22.2335 6.67198 22.1551 6.68958Z" fill="#F8F8F8"/>
<path d="M15.3296 9.36319C15.352 9.34239 15.3728 9.31999 15.3952 9.29919C15.408 9.29919 15.4224 9.30239 15.4352 9.30239C15.416 9.34879 15.3824 9.37119 15.3312 9.35679V9.36319H15.3296Z" fill="#F8F8F8"/>
<path d="M29.6368 7.93599C29.5936 7.93119 29.5616 7.91199 29.5424 7.87199C29.5904 7.86879 29.6352 7.87039 29.6368 7.93599Z" fill="#F8F8F8"/>
<path d="M4.34404 8.0272C4.33124 7.9776 4.36804 7.9568 4.40004 7.9328C4.40164 7.976 4.40644 8.0208 4.34404 8.0272Z" fill="#F8F8F8"/>
<path d="M13.0113 11.6016C13.0561 11.6224 13.0449 11.6608 13.0417 11.6976C13.0001 11.6752 13.0113 11.6368 13.0113 11.6016Z" fill="#F8F8F8"/>
<path d="M4.65436 7.2496C4.63836 7.1984 4.67516 7.17599 4.71036 7.15359C4.71196 7.19679 4.71676 7.2432 4.65436 7.2496Z" fill="#F8F8F8"/>
<path d="M4.7472 7.03199C4.7328 6.98079 4.768 6.95999 4.8032 6.93759C4.8032 6.98079 4.808 7.02559 4.7472 7.03199Z" fill="#F8F8F8"/>
<path d="M5.58234 17.4816C5.61274 17.4928 5.62394 17.5152 5.61274 17.5456C5.59034 17.5568 5.58234 17.5744 5.58714 17.5984L5.57754 17.6112C5.54714 17.5888 5.53914 17.5552 5.52954 17.5216C5.54714 17.5088 5.56314 17.4944 5.58074 17.4816H5.58234Z" fill="#F8F8F8"/>
<path d="M5.92481 22.1792C5.97121 22.2 5.95681 22.24 5.95361 22.2752C5.91361 22.2512 5.92641 22.2128 5.92481 22.1792Z" fill="#F8F8F8"/>
<path d="M4.1888 8.68001C4.184 8.65441 4.176 8.62721 4.2128 8.61761C4.2608 8.66081 4.2288 8.67201 4.1888 8.68001Z" fill="#F8F8F8"/>
<path d="M11.8337 27.3168C11.8241 27.272 11.8481 27.2528 11.8881 27.2464C11.8929 27.2864 11.8753 27.312 11.8337 27.3168Z" fill="#F8F8F8"/>
<path d="M14.2944 14.6544C14.2752 14.6064 14.3073 14.5936 14.3441 14.5856C14.3473 14.6224 14.336 14.6496 14.2944 14.6544Z" fill="#F8F8F8"/>
<path d="M9.96643 13.0032C9.92643 12.9968 9.93443 12.968 9.93923 12.9408C9.97763 12.9488 10.0128 12.9568 9.96643 13.0032Z" fill="#F8F8F8"/>
<path d="M26.8464 17.392C26.8416 17.3664 26.8336 17.3376 26.872 17.3296C26.92 17.3728 26.8864 17.384 26.8464 17.392Z" fill="#F8F8F8"/>
<path d="M4.11835 12.8192C4.07515 12.7984 4.07675 12.7776 4.11835 12.7552C4.15195 12.776 4.15355 12.7968 4.11835 12.8192Z" fill="#F8F8F8"/>
<path d="M4.1568 8.86721C4.152 8.84161 4.1424 8.81281 4.1824 8.80481C4.2304 8.84801 4.1984 8.85921 4.1568 8.86721Z" fill="#F8F8F8"/>
<path d="M12.3936 12.7856C12.3808 12.7664 12.3792 12.7456 12.3856 12.7248C12.4176 12.7408 12.4272 12.76 12.3936 12.7856Z" fill="#F8F8F8"/>
<path d="M9.9296 12.7872C9.8928 12.7776 9.9008 12.7504 9.9056 12.7232C9.9472 12.7312 9.9792 12.744 9.9296 12.7872Z" fill="#F8F8F8"/>
<path d="M20.4688 2.31999C20.4416 2.33759 20.4192 2.34079 20.4048 2.30399C20.4384 2.25599 20.456 2.27519 20.4688 2.31999Z" fill="#F8F8F8"/>
<path d="M26.784 17.7328C26.7792 17.7056 26.7728 17.6784 26.8096 17.6704C26.856 17.7152 26.824 17.7248 26.784 17.7328Z" fill="#F8F8F8"/>
<path d="M12.3568 12.6304C12.3168 12.6224 12.3264 12.5952 12.3312 12.568C12.3712 12.576 12.4048 12.5856 12.3568 12.6304Z" fill="#F8F8F8"/>
<path d="M16.776 17.7648C16.7616 17.7152 16.7968 17.7072 16.8304 17.6976C16.8336 17.7376 16.816 17.76 16.776 17.7648Z" fill="#F8F8F8"/>
<path d="M26.752 17.92C26.7472 17.8944 26.7376 17.8672 26.776 17.8576C26.8256 17.9008 26.7936 17.912 26.752 17.92Z" fill="#F8F8F8"/>
<path d="M16.3088 18.6992C16.2992 18.6528 16.3264 18.6384 16.3648 18.6336C16.3648 18.672 16.3488 18.696 16.3088 18.6992Z" fill="#F8F8F8"/>
<path d="M16.6816 9.8944C16.6736 9.8496 16.6976 9.83041 16.736 9.82401C16.7408 9.86561 16.7248 9.8896 16.6816 9.8944Z" fill="#F8F8F8"/>
<path d="M12.264 12.1328C12.2256 12.1248 12.2336 12.0976 12.2384 12.0704C12.2784 12.0784 12.312 12.088 12.264 12.1328Z" fill="#F8F8F8"/>
<path d="M12.2303 11.9472C12.1919 11.9376 12.2015 11.9104 12.2063 11.8848C12.2479 11.8928 12.2799 11.904 12.2303 11.9472Z" fill="#F8F8F8"/>
<path d="M12.2 11.76C12.1616 11.7504 12.1712 11.7232 12.176 11.6976C12.2176 11.7056 12.2496 11.7184 12.2 11.76Z" fill="#F8F8F8"/>
<path d="M16.4689 10.2976C16.4497 10.2496 16.4833 10.2384 16.5185 10.2304C16.5217 10.2688 16.5089 10.2928 16.4689 10.2976Z" fill="#F8F8F8"/>
<path d="M29.8655 10.8272C29.8543 10.8 29.8479 10.7744 29.8879 10.7648C29.9343 10.8048 29.9071 10.8176 29.8655 10.8272Z" fill="#F8F8F8"/>
<path d="M9.696 22.4624C9.688 22.4352 9.68 22.408 9.7216 22.4016C9.76 22.4416 9.7328 22.4544 9.696 22.4624Z" fill="#F8F8F8"/>
<path d="M12.0752 10.7648C12.0384 10.752 12.0416 10.728 12.0576 10.7008C12.1008 10.712 12.1216 10.728 12.0752 10.7648Z" fill="#F8F8F8"/>
<path d="M12.0448 10.5472C12.0064 10.5376 12.016 10.5104 12.0208 10.4848C12.0624 10.4928 12.0944 10.5056 12.0448 10.5472Z" fill="#F8F8F8"/>
<path d="M22.6448 3.76479C22.608 3.75359 22.6096 3.72959 22.6256 3.70239C22.6672 3.71199 22.6896 3.72799 22.6448 3.76479Z" fill="#F8F8F8"/>
<path d="M17.3968 7.9024C17.392 7.8768 17.384 7.8496 17.4224 7.84C17.4704 7.8832 17.4384 7.8944 17.3968 7.9024Z" fill="#F8F8F8"/>
<path d="M10.1504 3.31519C10.1232 3.33279 10.1008 3.33599 10.088 3.29919C10.1232 3.25279 10.1392 3.27359 10.1504 3.31519Z" fill="#F8F8F8"/>
<path d="M9.93275 3.26561C9.91195 3.27361 9.89115 3.27201 9.87195 3.26081C9.89435 3.22721 9.91515 3.23361 9.93275 3.26561Z" fill="#F8F8F8"/>
<path d="M15.4336 27.1552C15.4464 27.1376 15.4624 27.1296 15.4832 27.1408C15.5072 27.1536 15.4976 27.176 15.4928 27.192C15.4864 27.216 15.4688 27.2336 15.4464 27.2464C15.4416 27.216 15.4384 27.1856 15.4336 27.1536V27.1552Z" fill="#F8F8F8"/>
<path d="M29.9232 10.4528C29.9184 10.4272 29.9088 10.3984 29.9488 10.3904C29.9968 10.4336 29.9648 10.4448 29.9232 10.4528Z" fill="#F8F8F8"/>
<path d="M13.2367 15.6496C13.2351 15.6288 13.2335 15.608 13.2303 15.5872C13.2495 15.5904 13.2735 15.592 13.2767 15.616C13.2799 15.6416 13.2575 15.6464 13.2367 15.6496Z" fill="#F8F8F8"/>
<path d="M24.5808 6.1296C24.5744 6.1424 24.568 6.1648 24.56 6.1648C24.5344 6.1648 24.5344 6.144 24.536 6.1248C24.5392 6.1056 24.544 6.0864 24.5472 6.0672C24.5584 6.088 24.5696 6.1088 24.5808 6.1296Z" fill="#F8F8F8"/>
<path d="M5.63516 20.1904C5.63516 20.2016 5.63676 20.2112 5.63836 20.2224C5.62556 20.2176 5.60156 20.2112 5.60156 20.208C5.60476 20.1904 5.62076 20.192 5.63516 20.1904Z" fill="#F8F8F8"/>
<path d="M9.3584 4.6672C9.3728 4.6144 9.3904 4.6352 9.408 4.6656C9.392 4.6656 9.376 4.6656 9.3584 4.6672Z" fill="#F8F8F8"/>
<path d="M25.8848 12.1024C25.8752 12.08 25.8896 12.0736 25.9072 12.0688C25.8992 12.08 25.8928 12.0912 25.8848 12.1024Z" fill="#F8F8F8"/>
<path d="M13.4736 30.3632C13.4768 30.344 13.4848 30.3312 13.5072 30.3376L13.4736 30.3632Z" fill="#F8F8F8"/>
<path d="M21.4385 8.58721C21.4321 8.56481 21.4433 8.55681 21.4625 8.55521C21.4545 8.56641 21.4465 8.57761 21.4385 8.58721Z" fill="#F8F8F8"/>
<path d="M17.1184 8.9904C17.1104 8.968 17.1232 8.96 17.1424 8.9584C17.1344 8.9696 17.1264 8.9808 17.1184 8.9904Z" fill="#F8F8F8"/>
<path d="M21.2208 9.08479C21.2144 9.06239 21.2256 9.0544 21.2464 9.0528C21.2384 9.064 21.2304 9.07359 21.2208 9.08479Z" fill="#F8F8F8"/>
<path d="M17.08 9.1504C17.0672 9.1456 17.0528 9.1424 17.0576 9.1264C17.0592 9.12 17.072 9.1184 17.08 9.1152C17.08 9.128 17.08 9.1392 17.08 9.152V9.1504Z" fill="#F8F8F8"/>
<path d="M28.12 8.46241C28.1152 8.44161 28.1264 8.43201 28.1456 8.43201C28.1376 8.44161 28.128 8.45281 28.12 8.46241Z" fill="#F8F8F8"/>
<path d="M27.3744 9.45759C27.3696 9.43679 27.3808 9.42719 27.4 9.42719C27.392 9.43679 27.3824 9.44799 27.3744 9.45759Z" fill="#F8F8F8"/>
<path d="M27.2816 9.5824C27.2768 9.5616 27.288 9.552 27.3072 9.552C27.2992 9.5616 27.2896 9.5728 27.2816 9.5824Z" fill="#F8F8F8"/>
<path d="M21.5008 8.43039C21.4928 8.40799 21.5072 8.40159 21.5232 8.39679C21.5152 8.40799 21.5072 8.41919 21.5008 8.43039Z" fill="#F8F8F8"/>
<path d="M29.8544 8.28001C29.8368 8.27521 29.8224 8.26721 29.8304 8.24481C29.8384 8.25601 29.8464 8.26721 29.8544 8.28001Z" fill="#F8F8F8"/>
<path d="M4.28478 8.24319C4.27198 8.22079 4.28798 8.21439 4.30558 8.20959C4.29918 8.22079 4.29278 8.23199 4.28478 8.24319Z" fill="#F8F8F8"/>
<path d="M20.5696 10.3904C20.56 10.368 20.5744 10.3616 20.592 10.3568C20.584 10.368 20.5776 10.3792 20.5696 10.3904Z" fill="#F8F8F8"/>
<path d="M29.7312 8.0272C29.712 8.0272 29.7008 8.0176 29.7056 7.9968C29.7136 8.0064 29.7232 8.0176 29.7312 8.0272Z" fill="#F8F8F8"/>
<path d="M21.7503 7.80801C21.7423 7.78561 21.7551 7.77761 21.7743 7.77441C21.7663 7.78561 21.7583 7.79681 21.7503 7.80801Z" fill="#F8F8F8"/>
<path d="M4.43838 7.77759C4.42878 7.75519 4.44318 7.74879 4.46078 7.74399C4.45278 7.75519 4.44638 7.76639 4.43838 7.77759Z" fill="#F8F8F8"/>
<path d="M4.49925 7.62241C4.49125 7.60001 4.50405 7.59201 4.52325 7.58881C4.51525 7.60001 4.50725 7.61121 4.49925 7.62241Z" fill="#F8F8F8"/>
<path d="M29.8016 11.0752C29.7904 11.0528 29.8048 11.0464 29.8224 11.0416C29.816 11.0528 29.808 11.064 29.8016 11.0752Z" fill="#F8F8F8"/>
<path d="M29.7728 11.168C29.7616 11.144 29.776 11.1408 29.7936 11.1376C29.7872 11.1472 29.7792 11.1568 29.7728 11.168Z" fill="#F8F8F8"/>
<path d="M26.2559 11.2C26.2495 11.1776 26.2607 11.1696 26.2815 11.1664C26.2735 11.1776 26.2655 11.1888 26.2559 11.2Z" fill="#F8F8F8"/>
<path d="M26.1328 11.48C26.1248 11.4576 26.1392 11.4512 26.1552 11.4448C26.1472 11.456 26.1392 11.4672 26.1328 11.48Z" fill="#F8F8F8"/>
<path d="M15.8128 11.5104C15.8048 11.488 15.8176 11.48 15.8368 11.4784C15.8288 11.4896 15.8208 11.4992 15.8128 11.5104Z" fill="#F8F8F8"/>
<path d="M21.8432 7.56002C21.8352 7.53762 21.848 7.52962 21.8672 7.52802C21.8592 7.53922 21.8512 7.55042 21.8432 7.56002Z" fill="#F8F8F8"/>
<path d="M26.0704 11.6352C26.0624 11.6128 26.0752 11.6048 26.0944 11.6032C26.0864 11.6144 26.0784 11.6256 26.0704 11.6352Z" fill="#F8F8F8"/>
<path d="M15.7503 11.6672C15.7439 11.6448 15.7551 11.6368 15.7743 11.6336C15.7663 11.6448 15.7583 11.656 15.7503 11.6672Z" fill="#F8F8F8"/>
<path d="M4.56163 7.46721C4.55363 7.44481 4.56643 7.43681 4.58563 7.43521C4.57763 7.44641 4.56963 7.45601 4.56163 7.46721Z" fill="#F8F8F8"/>
<path d="M19.9473 11.728C19.9393 11.7056 19.9521 11.6992 19.9697 11.6944C19.9617 11.7056 19.9537 11.7168 19.9473 11.728Z" fill="#F8F8F8"/>
<path d="M26.008 11.7904C26 11.768 26.0128 11.76 26.032 11.7568C26.024 11.768 26.016 11.7792 26.008 11.7904Z" fill="#F8F8F8"/>
<path d="M15.6576 11.8848C15.6512 11.8624 15.6624 11.8544 15.6816 11.8512C15.6736 11.8624 15.6656 11.8736 15.6576 11.8848Z" fill="#F8F8F8"/>
<path d="M19.8847 11.8848C19.8767 11.8624 19.8895 11.8544 19.9087 11.8528C19.9007 11.864 19.8927 11.8752 19.8847 11.8848Z" fill="#F8F8F8"/>
<path d="M21.936 7.31041C21.928 7.28801 21.9408 7.28001 21.96 7.27841C21.952 7.28961 21.944 7.30081 21.936 7.31041Z" fill="#F8F8F8"/>
<path d="M25.9457 11.9472C25.9377 11.9248 25.9505 11.9168 25.9697 11.9152C25.9617 11.9264 25.9537 11.936 25.9457 11.9472Z" fill="#F8F8F8"/>
<path d="M11.9936 7.312C11.9888 7.3024 11.9904 7.2928 12.0016 7.2912C12.0048 7.2912 12.0096 7.304 12.0128 7.312H12.0032H11.9936Z" fill="#F8F8F8"/>
<path d="M19.7904 12.1024C19.784 12.08 19.7952 12.072 19.816 12.0704C19.808 12.0816 19.8 12.0912 19.7904 12.1024Z" fill="#F8F8F8"/>
<path d="M22.0608 6.96799C22.0528 6.94559 22.0656 6.93759 22.0848 6.93439C22.0768 6.94559 22.0688 6.95679 22.0608 6.96799Z" fill="#F8F8F8"/>
<path d="M25.8528 12.1952C25.8448 12.1728 25.8576 12.1648 25.8768 12.1632C25.8688 12.1744 25.8608 12.1856 25.8528 12.1952Z" fill="#F8F8F8"/>
<path d="M25.8208 12.288C25.8128 12.2656 25.8256 12.2576 25.8448 12.2544C25.8368 12.2656 25.8288 12.2768 25.8208 12.288Z" fill="#F8F8F8"/>
<path d="M22.0928 6.8752C22.0832 6.8528 22.0976 6.8464 22.1152 6.84C22.1072 6.8512 22.1008 6.8624 22.0928 6.8752Z" fill="#F8F8F8"/>
<path d="M27.8032 5.90401C27.7808 5.91201 27.7728 5.8992 27.7728 5.88C27.7824 5.888 27.7936 5.89601 27.8032 5.90401Z" fill="#F8F8F8"/>
<path d="M27.7103 5.8432C27.6879 5.8496 27.6799 5.8384 27.6783 5.8176L27.7103 5.8432Z" fill="#F8F8F8"/>
<path d="M22.4352 5.84799C22.424 5.82559 22.4384 5.81759 22.4576 5.81439C22.4496 5.82559 22.4432 5.83679 22.4352 5.84799Z" fill="#F8F8F8"/>
<path d="M25.6688 12.7552C25.656 12.7328 25.672 12.728 25.6896 12.7232C25.6832 12.7344 25.6768 12.7456 25.6688 12.7552Z" fill="#F8F8F8"/>
<path d="M18.2368 5.848C18.232 5.8272 18.2432 5.8176 18.2624 5.8176C18.2544 5.8272 18.2448 5.8384 18.2368 5.848Z" fill="#F8F8F8"/>
<path d="M27.4624 5.68641C27.44 5.69441 27.432 5.68161 27.4304 5.66241C27.4416 5.67041 27.4512 5.67841 27.4624 5.68641Z" fill="#F8F8F8"/>
<path d="M18.392 5.63041C18.3872 5.60961 18.3984 5.60001 18.4176 5.60001C18.4096 5.60961 18.4 5.62081 18.392 5.63041Z" fill="#F8F8F8"/>
<path d="M25.6064 12.9728C25.5952 12.9504 25.6096 12.944 25.6272 12.9392C25.6208 12.9504 25.6128 12.9616 25.6064 12.9728Z" fill="#F8F8F8"/>
<path d="M25.5136 13.2832C25.5024 13.2608 25.5168 13.2544 25.5344 13.2496C25.528 13.2608 25.52 13.272 25.5136 13.2832Z" fill="#F8F8F8"/>
<path d="M19.0816 13.4704C19.0736 13.4496 19.0816 13.4432 19.1008 13.4496C19.0976 13.4608 19.0912 13.4672 19.0816 13.4704Z" fill="#F8F8F8"/>
<path d="M25.4512 13.5024C25.44 13.48 25.4544 13.4736 25.472 13.4704C25.4656 13.4816 25.4576 13.4912 25.4512 13.5024Z" fill="#F8F8F8"/>
<path d="M28.3377 13.5024C28.3329 13.4816 28.3441 13.472 28.3633 13.472C28.3553 13.4816 28.3457 13.4928 28.3377 13.5024Z" fill="#F8F8F8"/>
<path d="M14.8496 13.5648C14.8432 13.5424 14.8544 13.5344 14.8752 13.5328C14.8672 13.544 14.8592 13.5552 14.8496 13.5648Z" fill="#F8F8F8"/>
<path d="M12.6048 13.7232C12.5856 13.72 12.5728 13.712 12.584 13.6896C12.5904 13.7008 12.5984 13.712 12.6048 13.7232Z" fill="#F8F8F8"/>
<path d="M12.6352 13.8464C12.6192 13.8416 12.6016 13.8368 12.6144 13.8128C12.6208 13.824 12.6272 13.8352 12.6352 13.8464Z" fill="#F8F8F8"/>
<path d="M25.328 13.968C25.3152 13.9456 25.3312 13.9392 25.3488 13.9344C25.3424 13.9456 25.336 13.9568 25.328 13.968Z" fill="#F8F8F8"/>
<path d="M25.2959 14.0928C25.2847 14.0704 25.2991 14.064 25.3167 14.0592C25.3103 14.0704 25.3023 14.0816 25.2959 14.0928Z" fill="#F8F8F8"/>
<path d="M25.2656 14.2176C25.2528 14.1952 25.2688 14.1888 25.2864 14.184C25.28 14.1952 25.272 14.2064 25.2656 14.2176Z" fill="#F8F8F8"/>
<path d="M12.792 14.3744C12.7744 14.3712 12.7584 14.3664 12.7712 14.344C12.7776 14.3536 12.7856 14.3648 12.792 14.3744Z" fill="#F8F8F8"/>
<path d="M27.904 14.3728C27.896 14.3504 27.9088 14.3424 27.928 14.3392C27.92 14.3504 27.912 14.3616 27.904 14.3728Z" fill="#F8F8F8"/>
<path d="M12.8224 14.4704C12.8048 14.4656 12.7904 14.4592 12.8016 14.4368C12.808 14.448 12.816 14.4592 12.8224 14.4704Z" fill="#F8F8F8"/>
<path d="M22.4943 5.60001C22.4879 5.57761 22.5008 5.56961 22.5184 5.56641C22.5104 5.57761 22.5023 5.58881 22.4943 5.60001Z" fill="#F8F8F8"/>
<path d="M25.1712 14.6224C25.16 14.6 25.1728 14.592 25.192 14.5872C25.1856 14.5984 25.1776 14.6096 25.1712 14.6224Z" fill="#F8F8F8"/>
<path d="M12.8831 14.6576C12.8655 14.6528 12.8511 14.6464 12.8607 14.624C12.8687 14.6352 12.8751 14.6464 12.8831 14.6576Z" fill="#F8F8F8"/>
<path d="M12.9776 14.9056C12.9584 14.9024 12.9456 14.8944 12.9536 14.872C12.9616 14.8832 12.9696 14.8944 12.9776 14.9056Z" fill="#F8F8F8"/>
<path d="M27.6848 14.9024C27.6784 14.88 27.6896 14.872 27.7088 14.8688C27.7008 14.88 27.6928 14.8912 27.6848 14.9024Z" fill="#F8F8F8"/>
<path d="M13.04 15.0592C13.0208 15.056 13.008 15.0496 13.016 15.0272C13.024 15.0384 13.032 15.0496 13.04 15.0592Z" fill="#F8F8F8"/>
<path d="M14.0111 15.0576C14.0079 15.0384 14.0127 15.0272 14.0351 15.0352C14.0271 15.0432 14.0191 15.0496 14.0111 15.0576Z" fill="#F8F8F8"/>
<path d="M27.592 15.12C27.5856 15.0976 27.5968 15.0896 27.616 15.0864C27.608 15.0976 27.6 15.1088 27.592 15.12Z" fill="#F8F8F8"/>
<path d="M13.1023 15.2144C13.0831 15.2112 13.0703 15.2048 13.0783 15.1824C13.0863 15.1936 13.0943 15.2048 13.1023 15.2144Z" fill="#F8F8F8"/>
<path d="M21.3456 8.8048C21.3392 8.7824 21.3504 8.7744 21.3696 8.7728C21.3616 8.784 21.3536 8.7952 21.3456 8.8048Z" fill="#F8F8F8"/>
<path d="M27.4064 15.5872C27.3984 15.5648 27.4112 15.5568 27.4304 15.5536C27.4224 15.5648 27.4144 15.576 27.4064 15.5872Z" fill="#F8F8F8"/>
<path d="M27.0896 5.46879C27.0672 5.47839 27.0592 5.46399 27.0576 5.44479C27.0688 5.45279 27.0784 5.46079 27.0896 5.46879Z" fill="#F8F8F8"/>
<path d="M10.616 15.68C10.5968 15.6768 10.584 15.672 10.5936 15.648C10.6016 15.6592 10.608 15.6688 10.616 15.68Z" fill="#F8F8F8"/>
<path d="M13.2048 15.7104C13.1968 15.688 13.2096 15.6816 13.2272 15.6784L13.2048 15.7104Z" fill="#F8F8F8"/>
<path d="M27.3456 15.7424C27.336 15.72 27.3504 15.7136 27.368 15.7088C27.36 15.72 27.3536 15.7312 27.3456 15.7424Z" fill="#F8F8F8"/>
<path d="M10.6465 15.7776C10.6289 15.7728 10.6145 15.7664 10.6257 15.744C10.6321 15.7552 10.6401 15.7664 10.6465 15.7776Z" fill="#F8F8F8"/>
<path d="M13.1696 15.7728C13.1648 15.7504 13.1776 15.744 13.1968 15.7424C13.1872 15.752 13.1792 15.7632 13.1696 15.7728Z" fill="#F8F8F8"/>
<path d="M10.7088 15.9952C10.6912 15.9904 10.6768 15.984 10.688 15.96C10.6944 15.9712 10.7024 15.9824 10.7088 15.9952Z" fill="#F8F8F8"/>
<path d="M25.0064 16.0832C25.0064 16.0832 24.9856 16.0784 24.984 16.0736C24.9792 16.0576 24.9936 16.056 25.0064 16.0528C25.0064 16.0624 25.0064 16.0736 25.0064 16.0832Z" fill="#F8F8F8"/>
<path d="M27.2208 16.0848C27.2128 16.0624 27.2256 16.0544 27.2432 16.0528L27.2208 16.0848Z" fill="#F8F8F8"/>
<path d="M27.1888 16.1776C27.1808 16.1552 27.1936 16.1472 27.2128 16.144L27.1888 16.1776Z" fill="#F8F8F8"/>
<path d="M10.7711 16.2112C10.7519 16.208 10.7391 16.2 10.7487 16.1776C10.7567 16.1888 10.7631 16.2 10.7711 16.2112Z" fill="#F8F8F8"/>
<path d="M27.0672 16.5504C27.056 16.528 27.072 16.5216 27.0896 16.5168C27.0816 16.528 27.0752 16.5392 27.0672 16.5504Z" fill="#F8F8F8"/>
<path d="M27.0368 16.6432C27.0256 16.6192 27.04 16.6144 27.0576 16.6128C27.0512 16.6224 27.0432 16.6336 27.0368 16.6432Z" fill="#F8F8F8"/>
<path d="M10.9264 16.6784C10.9088 16.6736 10.8944 16.6672 10.904 16.6448C10.912 16.656 10.9184 16.6672 10.9264 16.6784Z" fill="#F8F8F8"/>
<path d="M10.9888 16.8336C10.9696 16.8304 10.9568 16.8224 10.9648 16.8C10.9728 16.8112 10.9808 16.8224 10.9888 16.8336Z" fill="#F8F8F8"/>
<path d="M26.9728 16.8624C26.9616 16.84 26.976 16.8336 26.9936 16.8288C26.9872 16.84 26.9792 16.8512 26.9728 16.8624Z" fill="#F8F8F8"/>
<path d="M24.8176 16.9232C24.8224 16.9056 24.8288 16.8912 24.8512 16.8992L24.8176 16.9232Z" fill="#F8F8F8"/>
<path d="M11.0816 17.0816C11.0624 17.0784 11.0496 17.072 11.0576 17.0496C11.0656 17.0608 11.0736 17.0704 11.0816 17.0816Z" fill="#F8F8F8"/>
<path d="M11.1744 17.3328C11.1568 17.328 11.1424 17.3216 11.152 17.2992C11.16 17.3104 11.168 17.3216 11.1744 17.3328Z" fill="#F8F8F8"/>
<path d="M13.7551 5.34561C13.7327 5.35201 13.7247 5.34081 13.7231 5.32001C13.7343 5.32801 13.7439 5.33761 13.7551 5.34561Z" fill="#F8F8F8"/>
<path d="M26.6223 5.2528C26.5999 5.2592 26.5919 5.2464 26.5887 5.2272C26.5999 5.2352 26.6111 5.2448 26.6223 5.2528Z" fill="#F8F8F8"/>
<path d="M11.2689 17.5472C11.2497 17.5472 11.2369 17.5376 11.2449 17.5152C11.2529 17.5264 11.2609 17.536 11.2689 17.5472Z" fill="#F8F8F8"/>
<path d="M26.2495 5.1248C26.2271 5.136 26.2207 5.1216 26.2159 5.104C26.2271 5.1104 26.2383 5.1184 26.2495 5.1248Z" fill="#F8F8F8"/>
<path d="M26.1248 5.09279C26.1024 5.10559 26.096 5.08959 26.0912 5.07199C26.1024 5.07839 26.1136 5.08639 26.1248 5.09279Z" fill="#F8F8F8"/>
<path d="M26 5.0608C25.9776 5.0736 25.9712 5.0576 25.9664 5.0416C25.9776 5.048 25.9888 5.0544 26 5.0608Z" fill="#F8F8F8"/>
<path d="M18.8592 4.82239C18.8512 4.79999 18.864 4.79199 18.8832 4.78879C18.8752 4.79999 18.8672 4.81119 18.8592 4.82239Z" fill="#F8F8F8"/>
<path d="M18.8913 4.72801C18.8817 4.70561 18.8961 4.69921 18.9137 4.69601C18.9057 4.70721 18.8977 4.71681 18.8913 4.72801Z" fill="#F8F8F8"/>
<path d="M11.4544 4.66881C11.4352 4.66721 11.4224 4.65921 11.4304 4.63681C11.4384 4.64801 11.4464 4.65921 11.4544 4.66881Z" fill="#F8F8F8"/>
<path d="M6.07839 19.2528C6.05599 19.2592 6.04799 19.2464 6.04639 19.2272C6.05759 19.2352 6.06719 19.2448 6.07839 19.2528Z" fill="#F8F8F8"/>
<path d="M25.4417 19.8816C25.4257 19.8768 25.4097 19.872 25.4209 19.8496C25.4273 19.8608 25.4353 19.8704 25.4417 19.8816Z" fill="#F8F8F8"/>
<path d="M18.9233 4.63521C18.9137 4.61281 18.9281 4.60641 18.9441 4.60001C18.9377 4.61121 18.9297 4.62241 18.9233 4.63521Z" fill="#F8F8F8"/>
<path d="M18.952 4.51039C18.9456 4.48799 18.9584 4.47999 18.9776 4.47839C18.9696 4.48959 18.9616 4.50079 18.952 4.51039Z" fill="#F8F8F8"/>
<path d="M24.3537 4.04C24.3313 4.0464 24.3233 4.0336 24.3217 4.0144C24.3329 4.0224 24.3425 4.032 24.3537 4.04Z" fill="#F8F8F8"/>
<path d="M24.2608 3.9776C24.2384 3.984 24.2304 3.9712 24.2288 3.952L24.2608 3.9776Z" fill="#F8F8F8"/>
<path d="M12.5424 3.84801C12.5216 3.85441 12.5152 3.84801 12.5232 3.82721C12.5344 3.83041 12.5408 3.83681 12.5424 3.84801Z" fill="#F8F8F8"/>
<path d="M24.0112 3.82081C23.9888 3.82881 23.9808 3.81601 23.9792 3.79681C23.9904 3.80481 24 3.81281 24.0112 3.82081Z" fill="#F8F8F8"/>
<path d="M23.856 3.72639C23.8336 3.73439 23.8256 3.72159 23.824 3.70239C23.8352 3.71039 23.8448 3.71839 23.856 3.72639Z" fill="#F8F8F8"/>
<path d="M9.25436 23.3952C9.24796 23.3728 9.25916 23.3648 9.27996 23.3632L9.25436 23.3952Z" fill="#F8F8F8"/>
<path d="M9.09921 23.7376C9.09281 23.7152 9.10401 23.7072 9.12481 23.704C9.11681 23.7152 9.10881 23.7264 9.09921 23.7376Z" fill="#F8F8F8"/>
<path d="M8.97444 24.0176C8.96804 23.9952 8.98084 23.9872 9.00004 23.984C8.99204 23.9952 8.98244 24.0064 8.97444 24.0176Z" fill="#F8F8F8"/>
<path d="M8.75679 24.5152C8.75039 24.4928 8.76319 24.4848 8.78239 24.4832C8.77439 24.4944 8.76479 24.5056 8.75679 24.5152Z" fill="#F8F8F8"/>
<path d="M8.57115 24.9504C8.56315 24.928 8.57595 24.92 8.59515 24.9168C8.58715 24.928 8.57915 24.9392 8.57115 24.9504Z" fill="#F8F8F8"/>
<path d="M8.416 25.3248C8.408 25.3024 8.4208 25.2944 8.44 25.2928L8.416 25.3248Z" fill="#F8F8F8"/>
<path d="M8.35362 25.48C8.34562 25.4576 8.35842 25.4496 8.37762 25.448C8.36962 25.4592 8.36162 25.4688 8.35362 25.48Z" fill="#F8F8F8"/>
<path d="M8.13755 26.04C8.12955 26.0176 8.14235 26.0112 8.16155 26.008L8.13755 26.04Z" fill="#F8F8F8"/>
<path d="M22.6192 3.4528C22.6128 3.4288 22.6208 3.4208 22.6448 3.4272C22.6368 3.4352 22.6288 3.4448 22.6192 3.4528Z" fill="#F8F8F8"/>
<path d="M12.1184 26.7552C12.1104 26.7344 12.1184 26.728 12.1392 26.7344C12.1328 26.7408 12.1248 26.7488 12.1184 26.7552Z" fill="#F8F8F8"/>
<path d="M18.448 2.7696C18.4288 2.7696 18.4176 2.76 18.4224 2.7392C18.4304 2.7488 18.44 2.76 18.448 2.7696Z" fill="#F8F8F8"/>
<path d="M7.73604 27.1904C7.72484 27.168 7.74084 27.1632 7.75684 27.1584C7.75044 27.1696 7.74244 27.1792 7.73604 27.1904Z" fill="#F8F8F8"/>
<path d="M21.8976 2.72961C21.8752 2.73921 21.8672 2.72641 21.864 2.70721C21.8752 2.71521 21.8864 2.72161 21.8976 2.72961Z" fill="#F8F8F8"/>
<path d="M18.3552 2.64481C18.3344 2.64481 18.3248 2.63521 18.328 2.61441C18.3376 2.62401 18.3456 2.63521 18.3552 2.64481Z" fill="#F8F8F8"/>
<path d="M21.5872 2.608C21.5648 2.6144 21.5568 2.6016 21.5536 2.5824C21.5648 2.5904 21.576 2.5984 21.5872 2.608Z" fill="#F8F8F8"/>
<path d="M7.5168 27.8752C7.5056 27.8528 7.5216 27.8464 7.5376 27.8416C7.5312 27.8528 7.5232 27.864 7.5168 27.8752Z" fill="#F8F8F8"/>
<path d="M7.424 28.1856C7.4128 28.1632 7.4272 28.1568 7.4448 28.152C7.4384 28.1632 7.4304 28.1744 7.424 28.1856Z" fill="#F8F8F8"/>
<path d="M21.1824 2.4784C21.16 2.4912 21.1552 2.4752 21.1488 2.4592C21.16 2.4656 21.1712 2.472 21.1824 2.4784Z" fill="#F8F8F8"/>
<path d="M13.5376 28.7152C13.5376 28.6944 13.5472 28.6832 13.5696 28.688C13.5584 28.6976 13.5488 28.7056 13.5376 28.7152Z" fill="#F8F8F8"/>
<path d="M20.9665 2.41759C20.9441 2.42879 20.9377 2.41439 20.9329 2.39679C20.9441 2.40319 20.9553 2.41119 20.9665 2.41759Z" fill="#F8F8F8"/>
<path d="M7.20641 28.9952C7.19361 28.9728 7.20961 28.9664 7.22721 28.9616C7.22081 28.9728 7.21281 28.984 7.20641 28.9952Z" fill="#F8F8F8"/>
<path d="M13.1024 29.0576C13.1024 29.0368 13.112 29.0256 13.1344 29.0304C13.1232 29.04 13.1136 29.048 13.1024 29.0576Z" fill="#F8F8F8"/>
<path d="M16.0511 29.1472C16.0559 29.128 16.0671 29.1184 16.0863 29.1248C16.0751 29.1328 16.0623 29.1392 16.0511 29.1472Z" fill="#F8F8F8"/>
<path d="M20.8416 2.38719C20.8192 2.39839 20.8112 2.38399 20.8064 2.36639C20.8176 2.37279 20.8304 2.38079 20.8416 2.38719Z" fill="#F8F8F8"/>
<path d="M7.14562 29.2128C7.13282 29.1904 7.14882 29.1856 7.16642 29.1808C7.16002 29.192 7.15362 29.2016 7.14562 29.2128Z" fill="#F8F8F8"/>
<path d="M7.11196 29.3376C7.10076 29.3152 7.11516 29.3088 7.13436 29.304C7.12636 29.3152 7.11996 29.3264 7.11196 29.3376Z" fill="#F8F8F8"/>
<path d="M10.5599 29.368C10.5551 29.3456 10.5663 29.3392 10.5855 29.3376C10.5775 29.3472 10.5679 29.3584 10.5599 29.368Z" fill="#F8F8F8"/>
<path d="M7.08318 29.4304C7.07198 29.4064 7.08638 29.4016 7.10398 29.4C7.09758 29.4096 7.08958 29.4208 7.08318 29.4304Z" fill="#F8F8F8"/>
<path d="M10.5536 15.4944C10.5376 15.4896 10.5216 15.4864 10.5328 15.4624L10.5536 15.4944Z" fill="#F8F8F8"/>
<path d="M15.7024 26.9568C15.6272 26.9952 15.608 27.088 15.5392 27.1312C15.528 27.1392 15.5072 27.1456 15.4976 27.1392C15.4768 27.128 15.4784 27.104 15.4928 27.088C15.5504 27.0272 15.5904 26.936 15.7008 26.9568H15.7024Z" fill="#F8F8F8"/>
<path d="M24.6976 28.7168C24.6864 28.696 24.7024 28.6928 24.7152 28.6928C24.7184 28.6928 24.7264 28.7072 24.7264 28.7088C24.7168 28.7168 24.7072 28.7328 24.696 28.712L24.6992 28.7152L24.6976 28.7168Z" fill="#F8F8F8"/>
<path d="M15.7008 26.9584C15.7008 26.9584 15.6992 26.9456 15.6976 26.9376C15.688 26.9456 15.6896 26.952 15.7008 26.9568V26.9584Z" fill="#F8F8F8"/>
<path d="M5.61604 17.568C5.68804 17.728 5.77124 17.8832 5.81604 18.0544C5.72804 17.9104 5.63044 17.7728 5.57764 17.6096L5.58724 17.5968C5.59684 17.5872 5.60644 17.576 5.61604 17.5664V17.568Z" fill="#F8F8F8"/>
<path d="M5.61596 17.568C5.60636 17.5776 5.59676 17.5888 5.58716 17.5984C5.58236 17.5744 5.59036 17.5568 5.61276 17.5456C5.62076 17.552 5.62076 17.56 5.61596 17.568Z" fill="white"/>
<path d="M15.3328 9.3584C15.3376 9.3792 15.3152 9.3616 15.336 9.3664C15.3408 9.3664 15.3408 9.36 15.3312 9.3648L15.3328 9.3584Z" fill="#F8F8F8"/>
</svg>
