<svg width="32" height="32" viewBox="0 0 32 32" fill="none" xmlns="http://www.w3.org/2000/svg">
<path d="M11.9568 17.3904C11.9392 17.384 11.92 17.3712 11.9024 17.3712C11.8256 17.3712 11.8096 17.3296 11.8224 17.264C11.8288 17.2304 11.832 17.1952 11.8384 17.1616C12.104 17.1344 12.368 17.1312 12.6352 17.168C12.9168 17.2048 13.192 17.2688 13.472 17.3104C13.4832 17.3424 13.5136 17.3312 13.536 17.336C13.5408 17.36 13.5504 17.3696 13.5728 17.352C13.608 17.3504 13.6624 17.3808 13.6704 17.3232C13.68 17.2624 13.6224 17.2768 13.5856 17.272C13.5712 17.272 13.5568 17.2768 13.5424 17.28H13.5392C13.5328 17.2384 13.504 17.2416 13.4752 17.2464C13.432 17.2224 13.3824 17.2496 13.3392 17.2352C13.1136 17.16 12.8752 17.1584 12.6448 17.1088C12.3888 17.0528 12.1232 17.0864 11.864 17.0528C11.864 17.0224 11.864 16.9904 11.864 16.96C11.8672 16.9152 11.8464 16.864 11.8784 16.8256C11.9072 16.7904 11.9552 16.8096 11.9952 16.8016C12.024 16.7952 12.0416 16.7824 12.0384 16.7504C12.0352 16.7264 12.0192 16.7152 11.9984 16.7104C11.984 16.7072 11.968 16.7072 11.952 16.7072C11.8576 16.7104 11.8272 16.6512 11.8 16.5712C11.7232 16.3424 11.5904 16.1648 11.3616 16.0544C11.2304 15.992 11.0944 15.9472 10.9616 15.896C10.8672 15.8608 10.7552 15.8704 10.656 15.9008C10.4544 15.9616 10.2432 16 10.0688 16.1328C9.98717 16.1936 9.90717 16.2528 9.84957 16.3392C9.82877 16.3424 9.80797 16.3456 9.78717 16.3472C9.74877 16.3344 9.71037 16.3232 9.67357 16.3104C9.65597 16.2912 9.64157 16.2688 9.62077 16.2544C9.47037 16.152 9.31517 16.056 9.17117 15.9472C8.92637 15.7632 8.70557 15.5504 8.48797 15.336C8.46877 15.312 8.44477 15.2912 8.43037 15.264C8.35357 15.1312 8.35837 15.1344 8.46717 15.0176C8.74877 14.7152 9.08157 14.48 9.45277 14.3072C10.016 14.0448 10.6096 13.9136 11.2352 13.9824C11.5392 14.016 11.832 14.1024 12.1152 14.216C12.1328 14.224 12.1536 14.2256 12.1728 14.2304C12.176 14.2496 12.1824 14.2624 12.2064 14.2528C12.2576 14.2768 12.3088 14.2992 12.36 14.3232C12.3616 14.3424 12.3696 14.3552 12.392 14.3472C12.5024 14.4 12.6 14.4752 12.7024 14.5408C12.7024 14.5616 12.712 14.5712 12.7328 14.568C12.9424 14.7328 13.1296 14.9216 13.296 15.1312C13.2912 15.152 13.3024 15.1616 13.3216 15.1616C13.4528 15.3712 13.5856 15.5792 13.6688 15.8128C13.6608 15.8352 13.6736 15.8432 13.6928 15.8448C13.696 15.8656 13.6992 15.8848 13.7024 15.9056C13.6928 15.928 13.7056 15.9344 13.7248 15.936C13.728 15.9568 13.7312 15.9776 13.7344 15.9984C13.7248 16.0208 13.7376 16.0272 13.7568 16.0288C13.76 16.0496 13.7632 16.0704 13.7648 16.0912C13.7552 16.1136 13.768 16.12 13.7872 16.1248C13.768 16.2032 13.832 16.264 13.8288 16.3392C13.816 16.3664 13.8128 16.3904 13.848 16.4016C13.8736 16.5472 13.8992 16.6944 13.8992 16.8512C13.744 16.8848 13.5856 16.8576 13.4368 16.824C13.2944 16.792 13.1568 16.776 13.0128 16.7824C12.8384 16.7552 12.6624 16.7376 12.4864 16.744C12.392 16.7152 12.296 16.7136 12.2 16.712C12.1696 16.712 12.1536 16.7344 12.1552 16.7616C12.1568 16.784 12.1776 16.7936 12.2 16.792C12.2912 16.7888 12.3824 16.8144 12.4736 16.7984C12.6528 16.8208 12.832 16.84 13.0144 16.8304C13.2608 16.872 13.5088 16.9136 13.7552 16.9584C13.8144 16.9696 13.888 16.9792 13.904 17.0464C13.9216 17.12 13.9104 17.1984 13.8672 17.2656C13.8352 17.3136 13.784 17.2896 13.7408 17.2928C13.7264 17.2928 13.7104 17.2928 13.704 17.312C13.6976 17.3344 13.704 17.352 13.7248 17.36C13.7344 17.3632 13.7456 17.3648 13.7536 17.3696C13.888 17.4432 13.9008 17.5328 13.792 17.648C13.7824 17.6592 13.768 17.6656 13.7568 17.6752C13.6368 17.6016 13.4976 17.5984 13.3664 17.5744C13.1168 17.528 12.8704 17.4688 12.6144 17.4416C12.3968 17.4176 12.1792 17.3936 11.96 17.3872L11.9568 17.3904Z" fill="#010101"/>
<path d="M26.3009 7.41122C26.4161 7.36642 26.5377 7.36642 26.6577 7.35682C26.7825 7.34562 26.9105 7.35362 27.0369 7.35202C27.0433 7.39042 27.0625 7.41442 27.1057 7.41442C27.1057 7.42402 27.1089 7.43362 27.1121 7.44322C27.1057 7.46562 27.1185 7.47202 27.1377 7.47362C27.1393 7.48482 27.1425 7.49442 27.1441 7.50562C27.1361 7.52802 27.1489 7.53602 27.1665 7.53922C27.2049 7.67522 27.1329 7.80322 27.1361 7.93762C27.1169 7.94082 27.1057 7.94882 27.1121 7.97122C27.1105 8.03362 27.0513 8.06402 27.0305 8.11522C27.0161 8.15042 26.9777 8.15362 26.9377 8.15202C26.6481 8.13922 26.4097 8.26722 26.1921 8.44162C25.9217 8.65922 25.7809 9.16002 25.9025 9.48482C26.0177 9.79362 26.2401 9.95842 26.5713 9.99202C26.9681 10.0336 27.4481 9.79202 27.6321 9.38722C27.7505 9.12802 27.7841 8.85122 27.6433 8.58242C27.5873 8.47522 27.5153 8.36322 27.4017 8.31362C27.2721 8.25762 27.2705 8.15522 27.2993 8.06242C27.3521 7.88962 27.3697 7.70882 27.4177 7.53762C27.5217 7.17282 27.6097 6.80002 27.8465 6.48802C27.9265 6.38242 28.0049 6.27682 28.0993 6.18242C28.3921 5.88962 28.6721 5.58402 29.0337 5.37122C29.0865 5.34082 29.1361 5.30402 29.1905 5.28002C29.2945 5.23362 29.3905 5.16962 29.5105 5.27202C29.6001 5.34882 29.6849 5.40962 29.7105 5.54082C29.7841 5.90882 29.6513 6.22562 29.4881 6.53762C29.3937 6.71682 29.2241 6.82882 29.0945 6.97762C29.0161 7.06722 28.9409 7.16482 28.8401 7.23362C28.8177 7.22722 28.8113 7.23682 28.8145 7.25762C28.6433 7.44802 28.5041 7.66082 28.3761 7.88002C28.2993 8.01122 28.2993 8.01282 28.3953 8.12802C28.5297 8.29122 28.6049 8.48322 28.6641 8.68322C28.6545 8.70562 28.6673 8.71202 28.6865 8.71682C28.6913 8.80802 28.7105 8.89762 28.7281 8.98402C28.7617 9.14082 28.7393 9.28962 28.7169 9.44002C28.7041 9.52802 28.6753 9.61442 28.6545 9.70242C28.6369 9.70722 28.6241 9.71522 28.6321 9.73762C28.5297 10.0608 28.3233 10.3072 28.0673 10.5184C28.0449 10.5136 28.0369 10.5248 28.0369 10.544C28.0161 10.5568 27.9953 10.5696 27.9745 10.5808C27.9521 10.5744 27.9457 10.5856 27.9441 10.6048C27.9025 10.6272 27.8609 10.6512 27.8193 10.6736C27.7969 10.6656 27.7889 10.6784 27.7857 10.6976C27.7761 10.6992 27.7665 10.7024 27.7569 10.7056C27.7345 10.696 27.7265 10.7088 27.7233 10.728C27.6497 10.7552 27.5761 10.7872 27.4993 10.8096C27.2577 10.88 27.0145 10.9104 26.7601 10.8992C26.3121 10.8816 25.9233 10.7152 25.5921 10.4304C25.2993 10.1808 25.0929 9.86562 25.0001 9.48162C24.9409 9.23682 24.9441 8.99042 24.9745 8.74882C25.0049 8.50882 25.1233 8.29282 25.2625 8.09442C25.3889 7.91522 25.5457 7.76162 25.7361 7.65442C25.9025 7.56162 26.0593 7.43202 26.2689 7.43522C26.2913 7.44162 26.2977 7.42882 26.3009 7.40962V7.41122Z" fill="#010101"/>
<path d="M5.29603 4.3648C5.39043 4.4304 5.51203 4.4272 5.60483 4.496C5.60643 4.5152 5.61443 4.528 5.63683 4.5216C5.87843 4.6992 6.00003 4.944 6.03523 5.2368C6.04643 5.3296 6.02883 5.4208 5.99843 5.5056C5.98083 5.5504 5.98243 5.5936 5.97603 5.6384C5.95843 5.6432 5.94563 5.6512 5.95363 5.6736C5.87203 5.9136 5.71043 6.0896 5.51363 6.2384C5.49123 6.232 5.48483 6.2432 5.48323 6.264C5.33603 6.3488 5.17603 6.4 5.01763 6.4576C5.00963 6.4592 4.99363 6.4576 4.99203 6.4624C4.98723 6.48 5.00323 6.4816 5.01443 6.4864C5.02563 6.5408 4.99683 6.5824 4.95683 6.6304C5.11683 6.664 5.26723 6.696 5.41763 6.7296C5.41923 6.7488 5.42723 6.76 5.44963 6.7552C5.80643 6.904 6.04963 7.1536 6.14083 7.536C6.12963 7.5584 6.14403 7.5648 6.16163 7.5696C6.15203 7.6432 6.19683 7.7056 6.19523 7.7792C6.19203 8.1472 6.09603 8.472 5.83043 8.7456C5.72323 8.8576 5.60803 8.9504 5.48003 9.0304C5.45763 9.0224 5.45123 9.0352 5.44803 9.0544C5.43843 9.0576 5.42723 9.0592 5.41763 9.0624C5.39523 9.0528 5.38883 9.0656 5.38563 9.0848C5.33923 9.0784 5.30723 9.1216 5.26403 9.1216C5.24163 9.1152 5.23363 9.1264 5.23043 9.1456C5.14403 9.152 5.06403 9.176 4.98563 9.2112C4.96323 9.2032 4.94083 9.2032 4.91843 9.2144C4.85123 9.2144 4.78403 9.2112 4.71843 9.2112C4.17603 9.2176 3.71843 8.824 3.57763 8.336C3.53763 8.1984 3.55043 8.0528 3.55203 7.9088C3.55683 7.648 3.67523 7.4368 3.81603 7.2288C3.95843 7.0208 4.16803 6.8992 4.36963 6.7664C4.46083 6.7072 4.58243 6.72 4.67523 6.6576C4.69443 6.6576 4.71363 6.6544 4.73123 6.6528C4.72803 6.6144 4.69923 6.6112 4.67043 6.608C4.61283 6.5728 4.65923 6.544 4.67683 6.5136C4.71203 6.496 4.74563 6.4768 4.79523 6.4512H4.67363C4.29123 6.448 3.91043 6.0624 3.84803 5.7408C3.78563 5.4256 3.83843 5.1136 4.05603 4.8544C4.18403 4.7024 4.32483 4.5648 4.50883 4.48C4.62883 4.424 4.75523 4.3952 4.88163 4.3744C4.94723 4.3632 5.01123 4.3488 5.07683 4.3328C5.08963 4.3344 5.10723 4.3392 5.11203 4.3232C5.12003 4.3008 5.09763 4.2944 5.08483 4.2848C5.07683 4.2112 5.05123 4.1328 5.13923 4.0848C5.21283 4.0848 5.29283 4.0592 5.35203 4.1296C5.35843 4.1968 5.32643 4.2496 5.29283 4.3024C5.26563 4.3072 5.22243 4.3008 5.23043 4.344C5.23523 4.3728 5.27043 4.3632 5.29443 4.36L5.29603 4.3648Z" fill="#010101"/>
<path d="M20.7888 16.0928C20.6816 16.2352 20.5264 16.3152 20.3824 16.4096C20.36 16.4016 20.3536 16.4144 20.352 16.4336C20.1792 16.5264 20.0096 16.6256 19.8336 16.712C19.7072 16.7744 19.5712 16.8208 19.4384 16.8704C19.28 16.9296 19.1328 17.0096 18.9872 17.0928C18.9648 17.0832 18.9584 17.0976 18.9552 17.1168C18.7824 17.1872 18.6304 17.2992 18.4624 17.3808C18.2 17.5088 17.928 17.5856 17.6384 17.6192C17.5008 17.6352 17.3632 17.624 17.2256 17.6432C17.1456 17.6544 17.0816 17.6032 17.0128 17.5792C16.6368 17.4512 16.4784 17.176 16.4736 16.8112C16.4704 16.5216 16.5984 16.2832 16.7536 16.0528C16.8672 15.8832 17.0384 15.7776 17.1888 15.6512C17.3472 15.52 17.512 15.3936 17.688 15.2848C17.8912 15.1584 18.1088 15.0592 18.328 14.9664C18.6256 14.84 18.9312 14.7456 19.2528 14.7136C19.6016 14.6784 19.952 14.6704 20.2976 14.7376C20.4768 14.7728 20.664 14.8192 20.7936 14.9728C20.9104 15.112 21.0176 15.2576 21.0416 15.4448C21.0288 15.4672 21.0432 15.4736 21.0624 15.4768C21.0912 15.6 21.048 15.7088 20.984 15.8096C20.9296 15.896 20.8704 15.9776 20.8144 16.0624C20.7936 16.0624 20.784 16.072 20.7872 16.0944L20.7888 16.0928Z" fill="#010101"/>
<path d="M4.61606 11.6992C4.60966 11.424 4.64006 11.1552 4.73606 10.8944C4.87206 10.52 5.26406 10.3536 5.61446 10.536C5.73126 10.5968 5.84646 10.6576 5.95846 10.7248C6.20646 10.8768 6.37606 11.1088 6.53926 11.3408C6.68806 11.552 6.83206 11.7664 6.95526 11.9952C7.08486 12.2352 7.17766 12.4912 7.23846 12.752C7.30726 13.0464 7.34566 13.3472 7.25766 13.656C7.22406 13.7744 7.22246 13.904 7.15686 14.016C7.05606 14.1888 6.93286 14.336 6.73926 14.4112C6.70566 14.424 6.67206 14.4384 6.63686 14.4416C6.26086 14.464 5.92806 14.3808 5.64326 14.1088C5.37286 13.8496 5.15686 13.5552 4.99526 13.224C4.81926 12.864 4.69126 12.4832 4.61926 12.088C4.59686 11.9632 4.61606 11.8304 4.61606 11.7024V11.6992Z" fill="#010101"/>
<path d="M9.66401 17.6432C9.72161 17.7776 9.81281 17.888 9.92321 17.9808C9.98241 18.0288 9.98561 18.0672 9.93921 18.136C9.77281 18.3824 9.61921 18.6368 9.50881 18.9136C9.48961 18.9152 9.47841 18.9232 9.48321 18.9456C9.44001 19.048 9.39681 19.152 9.35361 19.2544C9.33441 19.256 9.32161 19.264 9.32961 19.2864C9.30721 19.3488 9.28321 19.4096 9.26081 19.472C9.24161 19.4736 9.22881 19.4816 9.23681 19.504C9.22401 19.544 9.21121 19.5856 9.19841 19.6256C9.17921 19.6288 9.16801 19.6368 9.17441 19.6592C9.16961 19.6688 9.16801 19.6784 9.16801 19.688C9.15041 19.6928 9.13761 19.6992 9.14561 19.7216C9.14721 19.7664 9.09601 19.7952 9.10561 19.8432C9.08801 19.848 9.07521 19.8544 9.08321 19.8768C9.08481 19.9232 9.03361 19.9504 9.04481 19.9984C9.02721 20.0032 9.01281 20.008 9.02241 20.0304C8.97121 20.136 8.96961 20.1392 8.88481 20.0928C8.79361 20.0432 8.69921 19.9904 8.61921 19.9248C8.29441 19.6592 8.01761 19.3536 7.80641 18.984C7.64001 18.6912 7.53761 18.3776 7.47521 18.056C7.42561 17.7952 7.42081 17.5232 7.44001 17.256C7.46401 16.9184 7.53281 16.5888 7.64961 16.2704C7.68161 16.1824 7.75361 16.1056 7.74561 16.0032C7.78721 15.9936 7.81921 16.0096 7.85761 16.0288C8.11361 16.1584 8.33441 16.3408 8.57121 16.4992C8.71521 16.5952 8.84961 16.7072 9.01121 16.776C9.01441 16.7952 9.02241 16.8064 9.04481 16.8C9.05441 16.8032 9.06401 16.8064 9.07521 16.8096C9.10881 16.8432 9.14881 16.8656 9.19841 16.8704C9.20001 16.8896 9.20801 16.9024 9.23041 16.8928C9.26881 16.8032 9.20641 16.7872 9.14241 16.7728C9.13281 16.7392 9.10561 16.7248 9.07841 16.712C8.93441 16.64 8.79841 16.5536 8.66401 16.4624C8.45761 16.32 8.24321 16.1872 8.04961 16.0272C7.81441 15.832 7.81921 15.9296 7.96001 15.6496C7.99361 15.6432 8.02561 15.6384 8.05761 15.6576C8.05761 15.6784 8.06561 15.688 8.08641 15.688C8.09281 15.7232 8.12321 15.7184 8.14721 15.7232C8.36801 15.96 8.63201 16.136 8.91361 16.288C8.91521 16.288 8.92161 16.2816 8.92481 16.2784L8.92161 16.2752C8.95361 16.3632 9.02241 16.4 9.11201 16.4032L9.10721 16.4C9.11841 16.4544 9.15841 16.4624 9.20481 16.4656L9.20001 16.4624C9.20961 16.4992 9.22881 16.5168 9.26721 16.496L9.26241 16.4928C9.24641 16.5216 9.27201 16.5248 9.28801 16.5344C9.38241 16.5952 9.47841 16.6544 9.57281 16.7152C9.59041 16.7456 9.60801 16.7744 9.60641 16.8128C9.60321 16.8976 9.59041 16.9104 9.50561 16.9056C9.48001 16.904 9.45281 16.904 9.43041 16.8928C9.39841 16.8768 9.37281 16.8736 9.35841 16.9104C9.34561 16.9472 9.36961 16.9696 9.39841 16.9808C9.53281 17.0352 9.57281 17.144 9.56801 17.2752C9.56321 17.3952 9.59041 17.5056 9.64161 17.6112C9.63521 17.6336 9.64641 17.6416 9.66561 17.6432H9.66401ZM9.32001 16.9328C9.32321 16.9536 9.33121 16.9648 9.35361 16.9536C9.36641 16.8832 9.32001 16.824 9.26721 16.8448C9.25281 16.8512 9.23361 16.8656 9.24641 16.8912C9.26241 16.9216 9.28961 16.9296 9.32001 16.9328Z" fill="#010101"/>
<path d="M10.8752 20.4736C10.7312 20.4816 10.5872 20.4896 10.4432 20.4992C10.3776 20.504 10.3536 20.4816 10.3584 20.4096C10.3824 20.0704 10.4096 19.7312 10.4512 19.392C10.48 19.1648 10.5008 18.936 10.5344 18.7088C10.5568 18.56 10.5968 18.4144 10.6256 18.2672C10.6384 18.2016 10.688 18.2096 10.7328 18.2032C11.0144 18.1584 11.256 18.0304 11.4688 17.8416C11.5536 17.7664 11.624 17.6736 11.6752 17.576C11.7248 17.48 11.7872 17.4544 11.8832 17.4672C11.8976 17.4688 11.912 17.4608 11.928 17.456C12.112 17.4672 12.296 17.4752 12.48 17.4912C12.5968 17.5008 12.712 17.5232 12.8288 17.5408C13.0128 17.5664 13.1872 17.632 13.376 17.6464C13.5056 17.6576 13.64 17.6896 13.7552 17.768C13.776 17.8048 13.7984 17.8416 13.7856 17.888C13.7664 17.8912 13.7536 17.8992 13.7632 17.9216C13.7504 17.9728 13.7376 18.0224 13.7232 18.0736C13.7056 18.0784 13.6928 18.0864 13.7008 18.1088C13.6976 18.128 13.696 18.1488 13.6928 18.168C13.6736 18.1712 13.6624 18.1792 13.6688 18.2016C13.656 18.2416 13.6432 18.2832 13.6304 18.3232C13.6112 18.3264 13.6 18.3344 13.6064 18.3568C13.4832 18.6528 13.312 18.9168 13.1168 19.1712C12.9024 19.4496 12.64 19.6736 12.3616 19.8816C12.3392 19.8768 12.3312 19.888 12.3296 19.9072C12.1744 19.9904 12.0304 20.096 11.8656 20.16C11.8432 20.1552 11.8352 20.1664 11.8336 20.1856C11.824 20.1888 11.8128 20.1904 11.8032 20.1936C11.7808 20.184 11.7728 20.1968 11.7696 20.216C11.7232 20.208 11.6928 20.2528 11.648 20.2528C11.6256 20.2464 11.6176 20.2576 11.6144 20.2784C11.4032 20.3568 11.184 20.4096 10.9664 20.464C10.9344 20.4576 10.904 20.4592 10.8752 20.4736Z" fill="#010101"/>
<path d="M24.0064 14.5424C23.5616 14.7904 23.1008 14.8 22.6448 14.6C22.2752 14.4384 22.0096 14.1552 21.8656 13.7744C21.7696 13.5216 21.7712 13.2544 21.8192 12.9872C21.8608 12.7456 21.9968 12.552 22.1584 12.3888C22.3008 12.2448 22.4736 12.1344 22.6864 12.0816C22.8832 12.0336 23.072 11.9936 23.272 12.0224C23.3504 12.0336 23.4272 12.0656 23.5088 12.0624C23.512 12.0816 23.52 12.0928 23.5408 12.088C23.6672 12.1216 23.792 12.1616 23.912 12.2176C23.9136 12.2368 23.9216 12.2496 23.944 12.2432C23.9648 12.256 23.9856 12.2672 24.0064 12.28C24.0064 12.3008 24.016 12.3104 24.0368 12.3056C24.088 12.3488 24.1376 12.392 24.1888 12.4352C24.2176 12.4624 24.2272 12.52 24.288 12.496L24.2848 12.4912C24.296 12.5552 24.3376 12.6032 24.3792 12.6496C24.4128 12.712 24.4448 12.7744 24.4784 12.8368C24.472 12.8592 24.4848 12.8672 24.504 12.8688C24.5168 12.9104 24.5296 12.9504 24.5424 12.992C24.5344 13.0144 24.5472 13.0208 24.5648 13.0256C24.696 13.448 24.6192 13.8368 24.3808 14.2016C24.3616 14.2016 24.3504 14.2096 24.3552 14.232C24.2912 14.3152 24.216 14.3888 24.1328 14.4528C24.1104 14.448 24.1024 14.4592 24.1008 14.48C24.08 14.4928 24.0592 14.504 24.04 14.5168C24.0176 14.5104 24.0096 14.5216 24.008 14.5424H24.0064Z" fill="#010101"/>
<path d="M10.0352 20.6432C10.0448 20.648 10.0544 20.6496 10.064 20.6512C10.0656 20.672 10.0752 20.6816 10.0976 20.6752C10.1184 20.688 10.1392 20.6992 10.16 20.712C10.16 20.7328 10.1696 20.7424 10.192 20.7376C10.3696 20.8368 10.4896 20.9888 10.5968 21.1552C10.6144 21.184 10.6176 21.224 10.6544 21.2384C10.6816 21.312 10.6848 21.3968 10.744 21.456C10.7472 21.4768 10.752 21.496 10.7552 21.5168C10.736 21.5584 10.7664 21.5824 10.7904 21.6064C10.7856 21.6304 10.7904 21.6528 10.8064 21.6704C10.7968 21.6928 10.8016 21.712 10.8144 21.7312C10.8192 21.9088 10.824 22.0864 10.7888 22.2624C10.744 22.3152 10.7344 22.3792 10.7312 22.4448C10.7264 22.4544 10.7232 22.4656 10.7184 22.4752C10.68 22.5072 10.656 22.5456 10.664 22.5984C10.5952 22.656 10.5776 22.7456 10.5232 22.8128C10.4512 22.904 10.376 22.9904 10.2832 23.0608C10.2416 23.0928 10.2 23.1232 10.16 23.1552C10.0752 23.1648 10.0272 23.2496 9.94396 23.2592C9.92156 23.248 9.91516 23.2624 9.91196 23.2816C9.75516 23.3248 9.59676 23.3488 9.43196 23.3488C9.16476 23.3488 8.93436 23.2576 8.72636 23.0976C8.70076 23.0784 8.67676 23.0624 8.64476 23.0608C8.62236 23.0224 8.59196 22.992 8.55356 22.9712C8.36476 22.7424 8.19836 22.5008 8.15356 22.1984C8.15996 22.1568 8.15356 22.1152 8.13916 22.0768C8.13916 21.9616 8.13916 21.8464 8.13916 21.7296C8.15516 21.6896 8.15996 21.6496 8.15516 21.608C8.20316 21.5296 8.19836 21.4352 8.23036 21.3488C8.35836 21.0128 8.57596 20.76 8.89116 20.6112C9.16316 20.4832 9.45916 20.432 9.76316 20.536C9.84316 20.5632 9.91996 20.6016 10.0048 20.6176C10.0096 20.6352 10.0176 20.648 10.04 20.6384L10.0352 20.6432Z" fill="#010101"/>
<path d="M6.06879 3.93603C6.05279 3.93603 6.03679 3.93123 6.02399 3.93603C5.81119 4.02723 5.58559 4.04163 5.35999 4.06243C5.28799 4.05923 5.21599 4.05763 5.14399 4.05443C5.11999 4.04803 5.09599 4.03683 5.07039 4.03523C4.68959 4.01283 4.37759 3.83683 4.11519 3.57443C3.87839 3.33763 3.78399 3.04483 3.79679 2.70723C3.80959 2.35043 3.98559 2.07683 4.20799 1.82243C4.35359 1.65603 4.53919 1.64483 4.73599 1.70563C4.73919 1.72483 4.74879 1.73603 4.77119 1.72963C5.03519 1.92003 5.08159 2.18883 5.04159 2.48803C5.00959 2.50723 4.97759 2.52643 4.99359 2.57283C4.97439 2.68643 4.97439 2.80003 4.99679 2.91363C4.98719 2.93603 4.99999 2.94243 5.01919 2.94563C5.03039 2.96643 5.04319 2.98723 5.05439 3.00643C5.04959 3.02723 5.06079 3.03683 5.07999 3.03683C5.09599 3.06083 5.10559 3.09123 5.13759 3.09923C5.14239 3.11683 5.15039 3.12963 5.17279 3.12163C5.18079 3.12643 5.19039 3.12963 5.19999 3.12963C5.20319 3.15043 5.21279 3.16003 5.23519 3.15523C5.58719 3.26083 5.98399 2.93123 6.04479 2.56003C6.04959 2.53443 6.05599 2.50723 6.04799 2.48323C5.99999 2.32003 6.08639 2.20323 6.17439 2.08163C6.27679 1.93923 6.38879 1.81603 6.54879 1.73443C6.61599 1.70083 6.69119 1.71683 6.75199 1.67523C6.77279 1.67523 6.79359 1.67683 6.81439 1.67843C6.87519 1.73123 6.96479 1.74883 7.00479 1.82723C6.99999 1.84803 7.01119 1.85763 7.03039 1.85763C7.09919 1.99683 7.17279 2.13443 7.19039 2.29283C7.19039 2.32643 7.16639 2.36643 7.21759 2.38563C7.21759 2.46883 7.21759 2.55203 7.21759 2.63523C7.16639 2.65443 7.19039 2.69443 7.19039 2.72803C7.20479 2.82883 7.11679 2.90563 7.12159 3.00483C7.10239 3.00643 7.09119 3.01603 7.09759 3.03843C6.97119 3.31043 6.78079 3.52643 6.53439 3.69443C6.51199 3.68963 6.50399 3.69923 6.50239 3.72003C6.46079 3.74243 6.42079 3.76643 6.37919 3.78883C6.35679 3.78243 6.34879 3.79203 6.34559 3.81283C6.33599 3.81283 6.32639 3.81603 6.31679 3.82083C6.29439 3.81283 6.28639 3.82403 6.28319 3.84323C6.27359 3.84323 6.26399 3.84643 6.25439 3.85123C6.23199 3.84323 6.22399 3.85443 6.21919 3.87363C6.17119 3.86403 6.14399 3.91683 6.09919 3.91523C6.07679 3.90403 6.07039 3.92003 6.06559 3.93763L6.06879 3.93603Z" fill="#010101"/>
<path d="M10.8368 25.5536C10.8624 25.6064 10.9088 25.5792 10.9424 25.576C11.0704 25.568 11.1904 25.5904 11.3056 25.6432C11.3072 25.6624 11.3152 25.6752 11.3376 25.6672C11.4448 25.7424 11.52 25.84 11.5552 25.968C11.6272 26.2272 11.4816 26.5616 11.2384 26.6976C11.1696 26.736 11.1008 26.7776 11.024 26.8016C11.0016 26.808 10.9904 26.8256 10.9936 26.848C10.9968 26.872 11.016 26.8816 11.0384 26.8768C11.0944 26.8672 11.152 26.8512 11.1824 26.9216C11.2096 26.9856 11.2032 27.0448 11.1504 27.096C11.1072 27.104 11.0656 27.1136 11.0224 27.1184C10.9952 27.1216 11.0128 27.1392 11.008 27.1504C11.0208 27.1776 11.04 27.1712 11.0592 27.16C11.0912 27.168 11.1216 27.1632 11.152 27.152C11.5008 27.1584 11.728 27.4128 11.8368 27.7072C11.9792 28.096 11.9456 28.4784 11.7936 28.8496C11.696 29.0848 11.5376 29.2736 11.28 29.3664C11 29.4656 10.7456 29.3296 10.6 29.1232C10.448 28.9088 10.3792 28.6656 10.3776 28.4C10.376 28.1328 10.4096 27.8784 10.5408 27.6432C10.6416 27.4608 10.7744 27.3072 10.9536 27.1968C11.0208 27.1552 11.0224 27.1392 10.968 27.0896C10.9146 27.0405 10.9146 26.9893 10.968 26.936C10.9824 26.9216 10.9984 26.9056 11.008 26.888C11.0272 26.8544 11.0176 26.8256 10.9776 26.824C10.9264 26.8224 10.8752 26.8256 10.824 26.832C10.576 26.8576 10.4384 26.6928 10.3024 26.528C10.2736 26.4944 10.2976 26.448 10.2912 26.408C10.232 26.1088 10.3824 25.8976 10.5984 25.7248C10.648 25.6848 10.696 25.6384 10.7536 25.6048C10.8448 25.608 10.856 25.6016 10.848 25.5456L10.8416 25.552L10.8368 25.5536Z" fill="#010101"/>
<path d="M9.26082 29.8608C9.07842 29.96 8.89442 30.0448 8.67522 30.0192C8.44002 29.992 8.25602 29.8816 8.12642 29.6928C7.91362 29.3824 7.89122 29.04 8.02242 28.6928C8.12162 28.4288 8.30082 28.2384 8.56642 28.1216C8.67842 28.072 8.78562 28.0576 8.90242 28.0576C8.92322 28.0576 8.94242 28.056 8.95362 28.0336V28.0304C8.92162 28.08 8.96162 28.0864 8.99202 28.088C9.03042 28.0912 9.06882 28.08 9.10562 28.0944C9.10882 28.112 9.11682 28.1248 9.13762 28.1184C9.34242 28.192 9.49122 28.3248 9.57762 28.528C9.57122 28.5504 9.58402 28.5584 9.60322 28.56C9.62402 28.632 9.64802 28.704 9.66402 28.7776C9.72802 29.0656 9.66882 29.3296 9.51202 29.576C9.49922 29.5968 9.48962 29.6208 9.47842 29.6448C9.45922 29.6448 9.44802 29.6544 9.45282 29.6752C9.40482 29.7344 9.35202 29.7872 9.29282 29.8352C9.27042 29.8304 9.26242 29.8416 9.26082 29.8624V29.8608Z" fill="#010101"/>
<path d="M7.55676 27.7232C7.58876 27.8512 7.60156 27.9808 7.58396 28.1104C7.57116 28.1968 7.54556 28.2832 7.52636 28.368C7.50716 28.3712 7.49436 28.3792 7.50236 28.4016C7.42716 28.6192 7.28956 28.7856 7.09276 28.904C7.07036 28.896 7.06236 28.9088 7.06076 28.928C6.90076 28.9952 6.73756 29.0432 6.55836 29.024C6.33596 29 6.17276 28.8848 6.04156 28.7152C5.89916 28.5296 5.87196 28.312 5.87036 28.0848C5.87036 27.7392 6.03196 27.4752 6.28956 27.2768C6.45276 27.152 6.65596 27.0832 6.87516 27.1008C6.89596 27.1488 6.93436 27.1264 6.96796 27.1264C7.27356 27.1968 7.45436 27.3936 7.53436 27.6912C7.52316 27.7136 7.53916 27.72 7.55516 27.7232H7.55676Z" fill="#010101"/>
<path d="M24.4416 12.2128C24.3632 12.0784 24.2752 11.9472 24.2288 11.7984C24.1776 11.6368 24.1616 11.4656 24.2224 11.3088C24.3488 10.976 24.64 10.9264 24.9248 10.9904C25.0112 11.0096 25.0944 11.0448 25.1792 11.072C25.184 11.0912 25.192 11.1024 25.2144 11.096C25.3248 11.1072 25.3968 11.192 25.4704 11.2544C25.68 11.4336 25.856 11.64 25.9312 11.9184C25.9696 12.0608 25.9808 12.1952 25.9568 12.3376C25.9392 12.3424 25.9248 12.3488 25.936 12.3712C25.92 12.48 25.8544 12.5568 25.7728 12.624C25.7504 12.6192 25.7424 12.6304 25.7408 12.6496C25.6192 12.6992 25.496 12.7344 25.3632 12.7392C25.1936 12.7456 25.0448 12.68 24.904 12.6C24.8048 12.544 24.7168 12.4672 24.6224 12.4C24.6112 12.3712 24.5888 12.352 24.5632 12.3376L24.5664 12.3408C24.5552 12.3296 24.5424 12.3168 24.5312 12.3056L24.536 12.3104C24.5104 12.2704 24.4896 12.2288 24.4416 12.2112V12.2128Z" fill="#010101"/>
<path d="M16.2016 16.9296C16.2096 17.0048 16.2512 17.0736 16.2816 17.1328C16.3376 17.24 16.328 17.344 16.3168 17.4464C16.296 17.6224 16.2112 17.6832 16.0288 17.704C15.5072 17.7632 14.984 17.8144 14.4592 17.848C14.3776 17.8528 14.2944 17.8576 14.2128 17.8528C14.0656 17.8448 14.0208 17.7968 13.9904 17.6528C13.9568 17.5008 14.0144 17.3552 14.0128 17.2064C14.0128 17.12 14.0272 17.032 14.0368 16.944C14.0512 16.8016 14.1088 16.7424 14.2464 16.7408C14.6688 16.7328 15.0912 16.7216 15.5136 16.7648C15.672 16.7808 15.832 16.7968 15.9904 16.7968C16.0816 16.7968 16.1344 16.8336 16.1792 16.8992C16.1728 16.9216 16.1856 16.928 16.2048 16.9296H16.2016Z" fill="#010101"/>
<path d="M8.98245 27.8016C8.83045 27.7808 8.69125 27.7392 8.57125 27.632C8.41765 27.496 8.32805 27.3328 8.31365 27.1312C8.28965 26.8096 8.39365 26.5504 8.65605 26.344C8.80485 26.2272 8.96325 26.1984 9.13445 26.1792C9.18085 26.2032 9.24165 26.1792 9.28005 26.2256C9.51045 26.264 9.66085 26.408 9.75365 26.6096C9.89125 26.9104 9.83845 27.2 9.66405 27.472C9.64485 27.472 9.63365 27.4816 9.63685 27.5024C9.50245 27.6544 9.33125 27.7456 9.13765 27.7952C9.08485 27.7904 9.03365 27.784 8.98245 27.8016Z" fill="#010101"/>
<path d="M7.55519 24.9616C7.60799 25.1504 7.58079 25.2064 7.37919 25.32C7.43039 25.3456 7.47839 25.3712 7.52639 25.3968C7.52639 25.416 7.53439 25.4288 7.55679 25.4224C7.77119 25.5776 7.85119 25.8048 7.89119 26.0528C7.90239 26.1264 7.85599 26.1904 7.86559 26.2624C7.84799 26.2672 7.83359 26.2736 7.84479 26.296C7.81119 26.4576 7.72319 26.5808 7.58719 26.6736C7.56479 26.6672 7.55679 26.68 7.55519 26.6992C7.41759 26.7616 7.27839 26.816 7.11999 26.792C7.06239 26.7824 7.03679 26.8048 7.05279 26.872C7.07199 26.9488 7.07679 27.0288 6.96639 27.0464C6.94719 27.0432 6.92799 27.0416 6.90879 27.0384C6.88959 27.0064 6.82239 27.008 6.84319 26.9504C6.86079 26.9008 6.88799 26.8592 6.94879 26.8544C6.96959 26.8544 6.99039 26.8544 7.01119 26.8544C7.02559 26.8544 7.04159 26.8544 7.04799 26.8352C7.05439 26.8112 7.04479 26.8 7.02079 26.7904C6.95199 26.76 6.87999 26.7328 6.81759 26.6912C6.58399 26.5328 6.43999 26.3232 6.43519 26.0288C6.43199 25.8304 6.48639 25.6608 6.61279 25.5088C6.74559 25.3488 7.07839 25.2176 7.27679 25.3008C7.29759 25.304 7.30719 25.2992 7.30079 25.2768C7.30079 25.1536 7.31999 25.0384 7.43199 24.96C7.47359 24.9632 7.51519 24.9648 7.55679 24.968H7.55199L7.55519 24.9616Z" fill="#010101"/>
<path d="M7.992 24.8672C7.864 24.9232 7.7344 24.9776 7.5888 24.9376C7.568 24.9312 7.5664 24.952 7.5552 24.9616L7.56 24.9632C7.5632 24.9024 7.5024 24.952 7.488 24.9216C7.3392 24.8416 7.2144 24.736 7.1616 24.5696C7.064 24.2672 7.088 23.944 7.3616 23.752C7.48 23.6688 7.6176 23.5936 7.7792 23.6208C7.8128 23.6816 7.8864 23.6544 7.9312 23.6912C7.944 23.728 7.9808 23.7264 8.0064 23.7312C8.064 23.744 8.0944 23.7216 8.0688 23.6592C8.0512 23.6192 8.0448 23.5744 8.0704 23.544C8.1904 23.4032 8.2448 23.2176 8.3856 23.0928C8.424 23.0576 8.4592 23.0208 8.5184 23.04C8.5216 23.0576 8.5296 23.0688 8.5504 23.064C8.5696 23.0768 8.5888 23.0896 8.6096 23.1008C8.6256 23.1824 8.6064 23.248 8.5424 23.3088C8.4688 23.3792 8.4064 23.4608 8.3408 23.5392C8.2848 23.6048 8.2336 23.6816 8.1248 23.6944C8.0608 23.7024 8.0512 23.768 8.1168 23.8144C8.12 23.8576 8.144 23.8848 8.1824 23.9024C8.1824 23.9872 8.256 24.0416 8.2768 24.1184C8.3088 24.2352 8.2896 24.3472 8.2736 24.4624C8.256 24.4672 8.2416 24.472 8.2528 24.496C8.2224 24.6416 8.1504 24.76 8.0256 24.8432C8.0032 24.8368 7.9952 24.848 7.9952 24.8688L7.992 24.8672Z" fill="#010101"/>
<path d="M9.07518 25.6048C8.90558 25.5824 8.75678 25.5232 8.64478 25.3824C8.56958 25.288 8.51838 25.1872 8.51358 25.0672C8.51038 24.9664 8.49918 24.8624 8.51998 24.7664C8.55198 24.616 8.64798 24.4944 8.76158 24.3936C8.88478 24.2848 9.02718 24.2128 9.19678 24.2112C9.22878 24.2112 9.26078 24.2144 9.29278 24.216C9.32798 24.2352 9.36158 24.2576 9.39998 24.272C9.69918 24.3872 9.86078 24.7072 9.77758 25.0128C9.70078 25.2912 9.52958 25.4768 9.26078 25.5776C9.20158 25.6 9.13438 25.576 9.07518 25.6048Z" fill="#010101"/>
<path d="M10.9648 24.2816C10.9872 24.352 11.0048 24.4224 11.0016 24.496C10.9968 24.5216 10.9888 24.5504 11.0288 24.5584C11.0416 24.6816 11.048 24.8048 11.0224 24.9248C10.992 25.0704 10.92 25.1968 10.8112 25.3008C10.7632 25.3072 10.7216 25.328 10.6864 25.36C10.4496 25.432 10.2672 25.2608 10.1968 25.0304C10.1664 24.9312 10.1648 24.832 10.1664 24.7328C10.168 24.5552 10.1888 24.3776 10.2336 24.2064C10.2672 24.08 10.3616 23.992 10.4512 23.904C10.4576 23.896 10.4656 23.888 10.472 23.88C10.5568 23.8352 10.632 23.8416 10.7056 23.9104C10.8096 24.008 10.9184 24.0992 10.944 24.2496C10.9344 24.272 10.9488 24.2784 10.9664 24.2832L10.9648 24.2816Z" fill="#010101"/>
<path d="M7.74237 15.9344C7.63037 15.9648 7.54237 15.9456 7.45117 15.8576C7.33597 15.7456 7.18397 15.6768 7.09917 15.528C7.03037 15.4096 7.01757 15.28 7.05277 15.1632C7.08797 15.0496 7.07357 14.9632 7.00797 14.8768C6.98557 14.848 6.97117 14.816 6.95197 14.7872C6.91997 14.7392 6.86557 14.7072 6.89117 14.6304C6.91997 14.544 6.96797 14.4768 7.04477 14.4304C7.13917 14.3744 7.20797 14.392 7.26877 14.488C7.30717 14.5472 7.33757 14.6112 7.37597 14.6688C7.40957 14.7184 7.44637 14.776 7.52157 14.7584C7.65597 14.7264 7.73917 14.8096 7.80637 14.8944C7.90237 15.016 8.00317 15.1392 8.00637 15.3088C8.00637 15.4128 7.96637 15.5088 7.95677 15.6096C7.88637 15.7168 7.81437 15.824 7.74397 15.9328L7.74237 15.9344Z" fill="#010101"/>
<path d="M10.3519 19.008C10.3295 19.1264 10.3135 19.2464 10.2831 19.3616C10.2479 19.4928 10.2591 19.6288 10.2303 19.7632C10.1807 19.9952 10.1423 20.232 10.1647 20.464C10.1231 20.5056 10.0879 20.4816 10.0559 20.4752C9.96794 20.4576 9.84794 20.5008 9.79834 20.416C9.75354 20.3392 9.80634 20.2368 9.81434 20.1456C9.84474 19.8368 9.90874 19.536 9.97914 19.2352C10.0287 19.0208 10.1183 18.8192 10.1903 18.6128C10.2303 18.4992 10.2943 18.3968 10.3247 18.2784C10.3423 18.208 10.4511 18.176 10.5103 18.2144C10.5439 18.2368 10.5295 18.2688 10.5231 18.2976C10.4751 18.5136 10.4271 18.7296 10.3807 18.944C10.3439 18.9536 10.3503 18.9792 10.3551 19.0064L10.3519 19.008Z" fill="#010101"/>
<path d="M21.9263 14.728C21.7839 14.8224 21.6415 14.9184 21.4975 15.0128C21.4751 15.0064 21.4671 15.0176 21.4671 15.0368C21.3135 15.1248 21.3103 15.12 21.2015 14.9712C21.1519 14.9024 21.1055 14.8272 21.0223 14.7872C20.9823 14.768 20.9503 14.7296 20.9231 14.6928C20.8959 14.6576 20.8959 14.616 20.9407 14.5872C21.1519 14.4496 21.3455 14.288 21.5727 14.176C21.7343 14.096 21.8479 14.1184 21.9599 14.2576C21.9759 14.2768 21.9887 14.2992 22.0047 14.3184C22.1375 14.48 22.1279 14.5632 21.9615 14.7008C21.9391 14.6944 21.9311 14.7104 21.9247 14.7264L21.9263 14.728Z" fill="#010101"/>
<path d="M8.21282 15.688C8.20482 15.6752 8.19682 15.6624 8.18722 15.6512C8.14722 15.6016 8.06722 15.5664 8.08642 15.4912C8.10882 15.4032 8.17282 15.3328 8.24162 15.2704C8.26722 15.248 8.28482 15.2592 8.30722 15.2768C8.34402 15.304 8.38242 15.3264 8.42082 15.3504C8.58402 15.5328 8.76322 15.6992 8.94722 15.8608C9.17442 16.0592 9.39842 16.2592 9.66242 16.4064C9.67522 16.4352 9.69442 16.456 9.72322 16.4672C9.72642 16.488 9.72962 16.5088 9.73122 16.5296C9.68482 16.5344 9.68482 16.5824 9.67522 16.6064C9.64642 16.6784 9.61122 16.6464 9.57282 16.6256C9.45442 16.6144 9.36802 16.5232 9.25762 16.4944L9.26242 16.4976C9.24962 16.4688 9.21922 16.472 9.19522 16.464L9.20002 16.4672C9.17602 16.432 9.14082 16.4144 9.10242 16.4016L9.10722 16.4048C9.05122 16.3504 8.98722 16.3104 8.91682 16.2768L8.92002 16.28C8.68002 16.0864 8.42562 15.9104 8.20802 15.6896L8.21282 15.688Z" fill="#010101"/>
<path d="M9.95045 18.8208C9.95045 18.8656 9.90245 18.896 9.91205 18.944C9.89445 18.9488 9.88005 18.9536 9.88965 18.976C9.88645 18.9968 9.88325 19.0176 9.88005 19.0368C9.86085 19.04 9.84805 19.0464 9.85765 19.0688C9.85445 19.0896 9.85125 19.1088 9.84965 19.1296C9.83045 19.1328 9.81765 19.1392 9.82725 19.1616C9.80325 19.2432 9.78085 19.3248 9.75685 19.4064C9.73925 19.4112 9.72485 19.4176 9.73605 19.44C9.74245 19.5056 9.68325 19.5568 9.69445 19.6224C9.67525 19.6272 9.66245 19.6336 9.67205 19.656C9.66885 19.6768 9.66725 19.696 9.66405 19.7168C9.64485 19.72 9.63205 19.7264 9.64165 19.7488C9.63845 19.7696 9.63525 19.7904 9.63365 19.8112C9.61605 19.8128 9.60165 19.8176 9.61285 19.8416C9.60965 19.872 9.60485 19.9024 9.60165 19.9328C9.58245 19.936 9.56965 19.944 9.57925 19.9664C9.57605 19.9872 9.57445 20.008 9.57125 20.0288C9.55365 20.032 9.53925 20.0368 9.55045 20.0592C9.55845 20.1248 9.50885 20.1776 9.50885 20.2432C9.49125 20.248 9.47685 20.2544 9.48805 20.2768C9.48325 20.3008 9.48805 20.3328 9.45605 20.3392C9.43205 20.344 9.39845 20.3488 9.38085 20.336C9.31045 20.2864 9.20165 20.2976 9.15525 20.2272C9.10565 20.152 9.18885 20.0784 9.21445 20.008C9.35045 19.6528 9.48805 19.2992 9.64645 18.9536C9.76645 18.6928 9.89605 18.4352 10.0513 18.192C10.0897 18.1328 10.1265 18.1264 10.1729 18.1424C10.2081 18.1536 10.2417 18.1808 10.2081 18.2368C10.1745 18.2912 10.1393 18.3488 10.1297 18.4144C10.1105 18.416 10.0993 18.424 10.1057 18.4464C10.0833 18.5072 10.0593 18.5696 10.0369 18.6304C10.0177 18.6336 10.0049 18.6416 10.0129 18.6624C10.0001 18.704 9.98725 18.744 9.97445 18.7856C9.95525 18.7888 9.94245 18.7952 9.95045 18.8176V18.8208Z" fill="#010101"/>
<path d="M4.99205 9.25762C5.31045 9.21282 5.40005 9.43522 5.40485 9.68002C5.40805 9.87842 5.36005 10.0832 5.23525 10.2544C5.14085 10.3856 4.99525 10.3968 4.88965 10.28C4.81765 10.2 4.77285 10.1088 4.77285 9.99362C4.77285 9.85442 4.77285 9.71522 4.76965 9.57602C4.76965 9.44002 4.81445 9.34082 4.92485 9.26722C4.94885 9.28002 4.97125 9.27682 4.99205 9.25762Z" fill="#010101"/>
<path d="M9.20003 24.1536C9.09283 24.0784 9.14083 23.96 9.14883 23.872C9.15683 23.7824 9.17283 23.6864 9.19683 23.5952C9.21603 23.52 9.26243 23.48 9.31683 23.4496C9.40003 23.4032 9.48163 23.456 9.48323 23.5552C9.48643 23.6832 9.46563 23.8112 9.44643 23.9376C9.43043 24.048 9.34723 24.1024 9.26243 24.1536C9.24163 24.1536 9.22083 24.1536 9.20003 24.1536Z" fill="#010101"/>
<path d="M25.9584 10.8864C25.9808 10.9936 25.9296 11.056 25.8384 11.1024C25.7328 11.1568 25.624 11.1712 25.52 11.1104C25.4352 11.0608 25.4176 10.9488 25.464 10.8496C25.512 10.7472 25.64 10.68 25.744 10.7072C25.8272 10.7296 25.8864 10.7824 25.9328 10.8528C25.9264 10.8752 25.9376 10.8832 25.9568 10.8864H25.9584Z" fill="#010101"/>
<path d="M7.74244 15.9344C7.81284 15.8272 7.88484 15.72 7.95524 15.6112C7.95524 15.624 7.95844 15.6368 7.95844 15.6512C7.81764 15.9312 7.81124 15.8336 8.04804 16.0288C8.24164 16.1872 8.45604 16.3216 8.66244 16.464C8.79524 16.5552 8.93124 16.6416 9.07684 16.7136C9.10404 16.728 9.13124 16.7424 9.14084 16.7744C9.11204 16.776 9.08804 16.7824 9.07364 16.8112C9.06404 16.808 9.05444 16.8048 9.04324 16.8016C9.03204 16.7936 9.02084 16.7856 9.00964 16.7776C8.84804 16.7088 8.71364 16.5984 8.56964 16.5008C8.33284 16.3408 8.11204 16.16 7.85604 16.0304C7.81764 16.0112 7.78564 15.9952 7.74404 16.0048C7.74404 15.9824 7.74244 15.9584 7.74084 15.936L7.74244 15.9344Z" fill="#FBFBFB"/>
<path d="M10.2848 23.1584C10.4096 23.1776 10.4144 23.1824 10.448 23.3184C10.4384 23.3408 10.4528 23.3456 10.4688 23.3504C10.456 23.4592 10.512 23.5536 10.5376 23.6544C10.5536 23.72 10.552 23.7488 10.496 23.776C10.4848 23.7824 10.4784 23.8 10.4688 23.8128L10.4096 23.8096C10.3328 23.728 10.2912 23.64 10.28 23.5184C10.2704 23.4128 10.2064 23.3104 10.2224 23.1952C10.2432 23.184 10.2624 23.1712 10.2832 23.16L10.2848 23.1584Z" fill="#010101"/>
<path d="M13.7536 17.7696C13.6384 17.6928 13.504 17.6592 13.3744 17.648C13.1872 17.6336 13.0112 17.568 12.8272 17.5424C12.7104 17.5264 12.5952 17.504 12.4784 17.4928C12.2944 17.4768 12.1104 17.4688 11.9264 17.4576C11.9376 17.4352 11.9472 17.4128 11.9584 17.3904C12.1776 17.3952 12.3936 17.4208 12.6128 17.4448C12.8672 17.4736 13.1152 17.5328 13.3648 17.5776C13.496 17.6016 13.6352 17.6064 13.7552 17.6784C13.7552 17.7088 13.7552 17.7392 13.7552 17.768L13.7536 17.7696Z" fill="#FBFBFB"/>
<path d="M9.66396 16.4048C9.39836 16.2576 9.17436 16.0576 8.94876 15.8592C8.76476 15.6976 8.58556 15.5312 8.42236 15.3488C8.44476 15.3456 8.46556 15.3408 8.48796 15.3376C8.70556 15.552 8.92636 15.7648 9.17116 15.9488C9.31676 16.0576 9.47196 16.1536 9.62076 16.256C9.64156 16.2704 9.65596 16.2928 9.67356 16.312C9.67036 16.3424 9.66716 16.3744 9.66396 16.4048Z" fill="#FBFBFB"/>
<path d="M9.26086 25.6176C9.33926 25.776 9.35366 25.9392 9.29286 26.1072C9.24806 26.1504 9.19366 26.1472 9.13926 26.1392C9.05926 26.072 9.04006 25.984 9.05286 25.8864C9.06406 25.8032 9.02246 25.7168 9.07686 25.6384C9.14086 25.6576 9.19526 25.584 9.26086 25.6176Z" fill="#010101"/>
<path d="M11.864 17.0528C12.1232 17.0864 12.3872 17.0528 12.6448 17.1088C12.8752 17.1584 13.1136 17.16 13.3392 17.2352C13.3808 17.2496 13.4304 17.2224 13.4752 17.2464L13.472 17.3088C13.192 17.2672 12.9168 17.2032 12.6352 17.1664C12.368 17.1312 12.104 17.1344 11.8384 17.16C11.8352 17.1216 11.8256 17.08 11.8656 17.0528H11.864Z" fill="#FBFBFB"/>
<path d="M8.21282 15.688C8.42882 15.9104 8.68482 16.0864 8.92482 16.2784C8.92162 16.2816 8.91522 16.288 8.91362 16.288C8.63202 16.136 8.36802 15.96 8.14722 15.7232C8.16002 15.6944 8.18562 15.6896 8.21442 15.688H8.21282Z" fill="#FBFBFB"/>
<path d="M24.568 12.4336C24.5376 12.5232 24.4927 12.592 24.3823 12.5808C24.3423 12.56 24.3055 12.536 24.2863 12.4928L24.2895 12.4976C24.2863 12.4768 24.2831 12.456 24.2799 12.4352C24.2751 12.3424 24.3312 12.2976 24.4112 12.2752C24.4528 12.288 24.4959 12.3008 24.5375 12.3136L24.5327 12.3088C24.5375 12.328 24.528 12.3616 24.568 12.344L24.5647 12.3408C24.5231 12.3744 24.5712 12.4048 24.568 12.4368V12.4336Z" fill="#010101"/>
<path d="M12.4831 16.7456C12.6607 16.7392 12.8351 16.7584 13.0095 16.784C13.0095 16.8 13.0095 16.8176 13.0095 16.8336C12.8287 16.8432 12.6479 16.824 12.4688 16.8016C12.4735 16.7824 12.4784 16.7632 12.4816 16.7456H12.4831Z" fill="#FBFBFB"/>
<path d="M8.95363 28.0336C8.97603 27.9744 8.92803 27.904 8.98563 27.8512C9.03523 27.8336 9.08483 27.8336 9.13603 27.8512C9.13923 27.9136 9.15363 27.9776 9.10723 28.0304C9.05603 28.0576 9.00323 28.0032 8.95203 28.0304V28.0336H8.95363Z" fill="#010101"/>
<path d="M10.7504 25.576C10.7136 25.528 10.6816 25.4784 10.6928 25.4128C10.7312 25.392 10.76 25.3504 10.8112 25.3536C10.896 25.4368 10.896 25.4416 10.8368 25.5536L10.8432 25.5472C10.8112 25.5536 10.7888 25.5904 10.752 25.576H10.7504Z" fill="#010101"/>
<path d="M10.744 21.4592C10.6848 21.3984 10.6816 21.3152 10.6544 21.2416C10.7632 21.208 10.7744 21.2096 10.8032 21.296C10.8208 21.3488 10.848 21.4 10.8416 21.4576C10.8096 21.4576 10.776 21.4576 10.744 21.4576V21.4592Z" fill="#FBFBFB"/>
<path d="M9.26085 16.4928C9.37125 16.5216 9.45765 16.6128 9.57605 16.624C9.57445 16.6544 9.57285 16.6848 9.57125 16.7152C9.47685 16.6544 9.38085 16.5952 9.28645 16.5344C9.27205 16.5248 9.24645 16.5216 9.26085 16.4928Z" fill="#FBFBFB"/>
<path d="M9.13919 26.1376C9.19519 26.1472 9.24799 26.1488 9.29279 26.1056C9.28959 26.1456 9.28479 26.1856 9.28159 26.2256C9.24319 26.1808 9.18239 26.2032 9.13599 26.1792L9.13919 26.1376Z" fill="#FBFBFB"/>
<path d="M10.2848 23.1584C10.264 23.1696 10.2448 23.1824 10.224 23.1936C10.1968 23.1936 10.1728 23.1872 10.16 23.16C10.2016 23.128 10.2432 23.0976 10.2832 23.0656C10.2832 23.096 10.2832 23.1264 10.2832 23.1568L10.2848 23.1584Z" fill="#FBFBFB"/>
<path d="M9.13602 27.8512C9.08642 27.8352 9.03522 27.8352 8.98562 27.8512C8.98562 27.8352 8.98402 27.8176 8.98242 27.8016C9.03362 27.784 9.08642 27.7904 9.13762 27.7952C9.13762 27.8128 9.13602 27.832 9.13442 27.8496L9.13602 27.8512Z" fill="#FBFBFB"/>
<path d="M8.95201 28.0304C9.00321 28.0032 9.05601 28.0576 9.10721 28.0304V28.0944C9.06881 28.08 9.03041 28.0912 8.99201 28.088C8.96161 28.0848 8.92161 28.0784 8.95201 28.0304Z" fill="#FBFBFB"/>
<path d="M8.60805 23.1024C8.58885 23.0896 8.56965 23.0768 8.54885 23.0656C8.53765 23.0576 8.52645 23.0496 8.51685 23.0416C8.51845 23.016 8.52485 22.9904 8.55205 22.9776C8.59045 22.9984 8.62085 23.0288 8.64325 23.0672C8.63045 23.08 8.61925 23.0912 8.60645 23.104L8.60805 23.1024Z" fill="#FBFBFB"/>
<path d="M9.26078 25.6176C9.19518 25.584 9.14078 25.6576 9.07678 25.6384C9.07678 25.6272 9.07678 25.616 9.07678 25.6064C9.13598 25.5776 9.20318 25.6016 9.26238 25.5792V25.6192L9.26078 25.6176Z" fill="#FBFBFB"/>
<path d="M24.2848 12.4912C24.304 12.536 24.3408 12.5584 24.3808 12.5792C24.3808 12.6032 24.3808 12.6256 24.3792 12.6496C24.3376 12.6032 24.296 12.5552 24.2848 12.4912Z" fill="#FBFBFB"/>
<path d="M10.7312 22.4496C10.7344 22.384 10.7456 22.32 10.7888 22.2672C10.8144 22.3424 10.8 22.4048 10.7312 22.4496Z" fill="#FBFBFB"/>
<path d="M7.92959 23.6912C7.88479 23.6544 7.81119 23.6816 7.77759 23.6208C7.84639 23.6064 7.90879 23.6048 7.92959 23.6912Z" fill="#FBFBFB"/>
<path d="M6.91203 27.0368C6.93123 27.04 6.95043 27.0416 6.96963 27.0448C6.96963 27.072 6.96963 27.0992 6.96963 27.128C6.93603 27.128 6.89763 27.1504 6.87683 27.1024C6.87683 27.0736 6.88483 27.0496 6.91363 27.0368H6.91203Z" fill="#FBFBFB"/>
<path d="M24.5377 12.312C24.4961 12.2992 24.4529 12.2864 24.4113 12.2736C24.4225 12.2528 24.4321 12.2336 24.4433 12.2128C24.4913 12.2304 24.5137 12.272 24.5377 12.312Z" fill="#FBFBFB"/>
<path d="M8.15205 21.6112C8.15685 21.6528 8.15205 21.6944 8.13605 21.7328C8.10565 21.688 8.09765 21.6448 8.15205 21.6112Z" fill="#FBFBFB"/>
<path d="M8.13598 22.08C8.15198 22.1184 8.15678 22.16 8.15038 22.2016C8.09758 22.1664 8.10558 22.1248 8.13598 22.08Z" fill="#FBFBFB"/>
<path d="M10.8112 25.3552C10.76 25.352 10.7312 25.3936 10.6928 25.4144C10.6896 25.3968 10.688 25.3792 10.6848 25.36C10.7216 25.328 10.7616 25.3072 10.8096 25.3008C10.8096 25.3184 10.8096 25.336 10.8096 25.3536L10.8112 25.3552Z" fill="#FBFBFB"/>
<path d="M5.14246 4.05603L5.35846 4.06403C5.35846 4.08643 5.35526 4.11043 5.35526 4.13283C5.29606 4.06083 5.21606 4.08803 5.14246 4.08803C5.14246 4.07683 5.14246 4.06723 5.14246 4.05603Z" fill="#FBFBFB"/>
<path d="M11.152 27.1536C11.1216 27.1648 11.0912 27.1696 11.0592 27.1616C11.0448 27.144 11.0304 27.1312 11.008 27.152C11.0128 27.1424 10.9952 27.1232 11.0224 27.12C11.0656 27.1152 11.1072 27.1056 11.1504 27.0976C11.1504 27.1168 11.1504 27.136 11.152 27.1552V27.1536Z" fill="#FBFBFB"/>
<path d="M4.67676 6.45599H4.79836C4.74876 6.48159 4.71356 6.49919 4.67996 6.51839C4.67996 6.49759 4.67836 6.47679 4.67676 6.45599Z" fill="#FBFBFB"/>
<path d="M10.7904 21.6096C10.7664 21.584 10.736 21.5616 10.7552 21.52C10.816 21.5312 10.8224 21.5632 10.7904 21.6096Z" fill="#FBFBFB"/>
<path d="M7.21922 2.38559C7.16802 2.36639 7.19202 2.32639 7.19202 2.29279C7.25762 2.30719 7.26402 2.33759 7.21922 2.38559Z" fill="#FBFBFB"/>
<path d="M10.8752 20.4736C10.904 20.4592 10.9344 20.4576 10.9664 20.464C10.9408 20.504 10.9088 20.5056 10.8752 20.4736Z" fill="#FBFBFB"/>
<path d="M10.664 22.6048C10.656 22.552 10.68 22.5136 10.7184 22.4816C10.712 22.528 10.7408 22.5904 10.664 22.6048Z" fill="#FBFBFB"/>
<path d="M7.19202 2.72799C7.19202 2.69439 7.16802 2.65439 7.21922 2.63519C7.26402 2.68159 7.25602 2.71359 7.19202 2.72799Z" fill="#FBFBFB"/>
<path d="M24.2784 12.4336C24.2816 12.4544 24.2848 12.4752 24.288 12.496C24.2272 12.52 24.2176 12.4624 24.1888 12.4352C24.2192 12.4352 24.248 12.4352 24.2784 12.4352V12.4336Z" fill="#FBFBFB"/>
<path d="M8.17925 23.9024C8.14085 23.8848 8.11845 23.8576 8.11365 23.8144C8.17445 23.8144 8.17925 23.856 8.17925 23.9024Z" fill="#FBFBFB"/>
<path d="M9.19998 24.1536C9.22078 24.1536 9.24158 24.1536 9.26238 24.1536C9.27198 24.1744 9.28318 24.1968 9.29278 24.2176C9.26078 24.2176 9.22878 24.2144 9.19678 24.2128C9.19678 24.1936 9.19998 24.1744 9.19998 24.1552V24.1536Z" fill="#FBFBFB"/>
<path d="M10.352 19.008C10.3472 18.9824 10.3408 18.9552 10.3776 18.9456C10.4256 18.9888 10.392 19 10.352 19.008Z" fill="#FBFBFB"/>
<path d="M10.8145 21.7344C10.8017 21.7152 10.7969 21.6944 10.8065 21.6736C10.8417 21.6896 10.8513 21.7088 10.8145 21.7344Z" fill="#FBFBFB"/>
<path d="M4.99204 9.2576C4.97124 9.2752 4.94884 9.2784 4.92484 9.2672C4.92484 9.2496 4.92164 9.2336 4.92004 9.216C4.94244 9.2048 4.96324 9.2048 4.98724 9.2128C4.98884 9.2288 4.99044 9.2432 4.99204 9.2592V9.2576Z" fill="#FBFBFB"/>
<path d="M10.4095 23.808L10.4687 23.8112C10.4687 23.8336 10.4687 23.856 10.4687 23.8784C10.4623 23.8864 10.4543 23.8944 10.4479 23.9024C10.4175 23.8784 10.4095 23.8448 10.4095 23.808Z" fill="#FBFBFB"/>
<path d="M27.104 7.41282C27.0624 7.41282 27.0432 7.38882 27.0352 7.35042C27.08 7.34722 27.1024 7.36802 27.104 7.41282Z" fill="#FBFBFB"/>
<path d="M11.0288 24.5568C10.9904 24.5488 10.9984 24.5216 11.0016 24.4944C11.0416 24.5024 11.0736 24.512 11.0288 24.5568Z" fill="#FBFBFB"/>
<path d="M7.48639 24.9216C7.50079 24.952 7.56159 24.9024 7.55839 24.9632C7.51679 24.96 7.47519 24.9584 7.43359 24.9552C7.45119 24.944 7.46879 24.9328 7.48639 24.9216Z" fill="#FBFBFB"/>
<path d="M10.7504 25.576C10.7888 25.5904 10.8112 25.5536 10.8416 25.5472C10.8496 25.6032 10.8384 25.6096 10.7472 25.6064C10.7472 25.5968 10.7472 25.5856 10.7488 25.576H10.7504Z" fill="#FBFBFB"/>
<path d="M5.29605 4.36479C5.27205 4.36799 5.23685 4.37759 5.23205 4.34879C5.22405 4.30559 5.26725 4.31199 5.29445 4.30719C5.29445 4.32639 5.29445 4.34719 5.29445 4.36639L5.29605 4.36479Z" fill="#FBFBFB"/>
<path d="M4.99205 2.57278C4.97605 2.52638 5.00805 2.50718 5.04005 2.48798C5.04965 2.53118 5.04325 2.56478 4.99205 2.57278Z" fill="#FBFBFB"/>
<path d="M9.73285 16.528C9.72965 16.5072 9.72645 16.4864 9.72485 16.4656C9.74725 16.4688 9.77765 16.4656 9.77605 16.4992C9.77605 16.52 9.75205 16.5248 9.73445 16.528H9.73285Z" fill="#FBFBFB"/>
<path d="M6.81435 1.68002C6.79355 1.68002 6.77275 1.67842 6.75195 1.67682C6.77435 1.63682 6.79515 1.64002 6.81435 1.68002Z" fill="#FBFBFB"/>
<path d="M9.78882 16.3488C9.80962 16.3456 9.83042 16.3424 9.85122 16.3408C9.84962 16.3616 9.84802 16.3856 9.82402 16.3888C9.79682 16.3936 9.79202 16.3696 9.78882 16.3488Z" fill="#FBFBFB"/>
<path d="M13.8448 16.4032C13.808 16.392 13.8128 16.3664 13.8256 16.3408C13.8688 16.3504 13.8928 16.3664 13.8448 16.4032Z" fill="#FBFBFB"/>
<path d="M24.568 12.4336C24.5712 12.4016 24.5232 12.3712 24.5648 12.3376C24.5904 12.352 24.6128 12.3712 24.624 12.4C24.6048 12.4112 24.5872 12.4224 24.568 12.4336Z" fill="#FBFBFB"/>
<path d="M4.67358 6.61121C4.70238 6.61441 4.73118 6.61761 4.73438 6.65601C4.71518 6.65601 4.69598 6.65921 4.67838 6.66081C4.67838 6.64481 4.67518 6.62721 4.67518 6.61121H4.67358Z" fill="#FBFBFB"/>
<path d="M9.26074 29.8608C9.26074 29.84 9.27034 29.8304 9.29274 29.8336C9.28154 29.8432 9.27194 29.8512 9.26074 29.8608Z" fill="#FBFBFB"/>
<path d="M13.784 16.1264C13.7648 16.1232 13.752 16.1168 13.7616 16.0928C13.7696 16.104 13.776 16.1152 13.784 16.1264Z" fill="#FBFBFB"/>
<path d="M20.7888 16.0928C20.7856 16.072 20.7968 16.0624 20.816 16.0608C20.8064 16.072 20.7968 16.0816 20.7888 16.0928Z" fill="#FBFBFB"/>
<path d="M13.7536 16.0304C13.7344 16.0288 13.7216 16.0224 13.7312 16C13.7392 16.0096 13.7456 16.0208 13.7536 16.0304Z" fill="#FBFBFB"/>
<path d="M13.7232 15.9376C13.704 15.936 13.6912 15.9296 13.7008 15.9072C13.7088 15.9168 13.7152 15.928 13.7232 15.9376Z" fill="#FBFBFB"/>
<path d="M13.6912 15.8464C13.672 15.8432 13.6592 15.8368 13.6672 15.8144C13.6752 15.8256 13.6832 15.8368 13.6912 15.8464Z" fill="#FBFBFB"/>
<path d="M8.08476 15.688C8.06396 15.688 8.05436 15.6784 8.05596 15.6576C8.06556 15.6672 8.07516 15.6768 8.08476 15.688Z" fill="#FBFBFB"/>
<path d="M21.0641 15.4752C21.0465 15.472 21.0321 15.4656 21.0433 15.4432L21.0641 15.4752Z" fill="#FBFBFB"/>
<path d="M13.32 15.1616C13.3008 15.1616 13.2896 15.152 13.2944 15.1312C13.3024 15.1408 13.312 15.152 13.32 15.1616Z" fill="#FBFBFB"/>
<path d="M21.4672 15.0384C21.4672 15.0192 21.4752 15.0064 21.4976 15.0144C21.488 15.0224 21.4768 15.0304 21.4672 15.0384Z" fill="#FBFBFB"/>
<path d="M21.9264 14.728C21.9328 14.712 21.9408 14.696 21.9632 14.7024C21.9504 14.7104 21.9392 14.72 21.9264 14.728Z" fill="#FBFBFB"/>
<path d="M4.76957 1.72963C4.74717 1.73603 4.73918 1.72483 4.73438 1.70563C4.74558 1.71363 4.75677 1.72163 4.76957 1.72963Z" fill="#FBFBFB"/>
<path d="M16.2016 16.9296C16.1824 16.9296 16.1696 16.9216 16.176 16.8992C16.184 16.9088 16.192 16.92 16.2016 16.9296Z" fill="#FBFBFB"/>
<path d="M12.7312 14.568C12.7088 14.5728 12.7008 14.5616 12.7008 14.5408C12.7104 14.5504 12.7216 14.5584 12.7312 14.568Z" fill="#FBFBFB"/>
<path d="M18.9568 17.1152C18.96 17.0976 18.9648 17.0832 18.9888 17.0912C18.9776 17.0992 18.968 17.1072 18.9568 17.1152Z" fill="#FBFBFB"/>
<path d="M24.0063 14.5424C24.0079 14.5232 24.0159 14.5104 24.0383 14.5168C24.0271 14.5248 24.0175 14.5328 24.0063 14.5424Z" fill="#FBFBFB"/>
<path d="M24.0992 14.48C24.0992 14.4592 24.1088 14.4496 24.1312 14.4528C24.12 14.4624 24.1104 14.4704 24.0992 14.48Z" fill="#FBFBFB"/>
<path d="M12.3904 14.3488C12.368 14.3568 12.3616 14.344 12.3584 14.3248C12.3696 14.3328 12.3792 14.3408 12.3904 14.3488Z" fill="#FBFBFB"/>
<path d="M12.2047 14.256C12.1823 14.2656 12.1759 14.2528 12.1711 14.2336C12.1823 14.2416 12.1935 14.248 12.2047 14.256Z" fill="#FBFBFB"/>
<path d="M24.3536 14.232C24.3488 14.2112 24.36 14.2016 24.3792 14.2016C24.3712 14.2112 24.3616 14.2224 24.3536 14.232Z" fill="#FBFBFB"/>
<path d="M9.664 17.6432C9.6448 17.6416 9.632 17.6336 9.64 17.6112C9.648 17.6224 9.656 17.632 9.664 17.6432Z" fill="#FBFBFB"/>
<path d="M13.76 17.9216C13.752 17.8992 13.7648 17.8912 13.7824 17.888C13.7744 17.8992 13.7664 17.9104 13.76 17.9216Z" fill="#FBFBFB"/>
<path d="M13.6992 18.1072C13.6896 18.0848 13.704 18.0784 13.7216 18.072C13.7136 18.0832 13.7072 18.0944 13.6992 18.1072Z" fill="#FBFBFB"/>
<path d="M24.5632 13.0256C24.5456 13.0208 24.5328 13.0128 24.5408 12.992C24.5488 13.0032 24.5552 13.0144 24.5632 13.0256Z" fill="#FBFBFB"/>
<path d="M13.6672 18.2016C13.6592 18.1792 13.672 18.1712 13.6912 18.168C13.6832 18.1792 13.6752 18.1904 13.6672 18.2016Z" fill="#FBFBFB"/>
<path d="M24.5024 12.8688C24.4832 12.8672 24.472 12.8592 24.4768 12.8368C24.4848 12.848 24.4928 12.8576 24.5024 12.8688Z" fill="#FBFBFB"/>
<path d="M13.6048 18.3552C13.5984 18.3328 13.6096 18.3248 13.6288 18.3216C13.6208 18.3328 13.6128 18.344 13.6048 18.3552Z" fill="#FBFBFB"/>
<path d="M10.104 18.4496C10.0976 18.4272 10.1088 18.4192 10.128 18.4176C10.12 18.4288 10.112 18.4384 10.104 18.4496Z" fill="#FBFBFB"/>
<path d="M10.0112 18.6656C10.0048 18.6432 10.016 18.6352 10.0352 18.6336C10.0272 18.6448 10.0192 18.656 10.0112 18.6656Z" fill="#FBFBFB"/>
<path d="M9.95042 18.8208C9.94242 18.7984 9.95522 18.7904 9.97442 18.7888C9.96642 18.8 9.95842 18.8112 9.95042 18.8208Z" fill="#FBFBFB"/>
<path d="M9.48483 18.9456C9.47843 18.9232 9.48963 18.9152 9.51043 18.9136L9.48483 18.9456Z" fill="#FBFBFB"/>
<path d="M9.88955 18.976C9.87995 18.9536 9.89435 18.9472 9.91195 18.944C9.90395 18.9552 9.89755 18.9648 9.88955 18.976Z" fill="#FBFBFB"/>
<path d="M25.7408 12.6496C25.7408 12.6304 25.7504 12.6192 25.7728 12.624C25.7616 12.632 25.752 12.6416 25.7408 12.6496Z" fill="#FBFBFB"/>
<path d="M9.85763 19.0688C9.84803 19.0464 9.86083 19.04 9.88003 19.0368C9.87203 19.048 9.86403 19.0576 9.85763 19.0688Z" fill="#FBFBFB"/>
<path d="M9.82724 19.1616C9.81764 19.1392 9.83044 19.1328 9.84964 19.1296C9.84164 19.1408 9.83524 19.152 9.82724 19.1616Z" fill="#FBFBFB"/>
<path d="M9.32957 19.2864C9.32317 19.264 9.33437 19.256 9.35357 19.2544C9.34557 19.2656 9.33757 19.2752 9.32957 19.2864Z" fill="#FBFBFB"/>
<path d="M9.73601 19.4416C9.72481 19.4192 9.73921 19.4128 9.75681 19.408C9.75041 19.4192 9.74241 19.4304 9.73601 19.4416Z" fill="#FBFBFB"/>
<path d="M9.23679 19.5024C9.23039 19.48 9.24159 19.472 9.26079 19.4704C9.25279 19.4816 9.24479 19.4912 9.23679 19.5024Z" fill="#FBFBFB"/>
<path d="M9.17442 19.6576C9.16802 19.6352 9.17922 19.6272 9.19842 19.624C9.19042 19.6352 9.18242 19.6464 9.17442 19.6576Z" fill="#FBFBFB"/>
<path d="M9.67197 19.6576C9.66237 19.6352 9.67517 19.6272 9.69437 19.624C9.68637 19.6352 9.67997 19.6464 9.67197 19.6576Z" fill="#FBFBFB"/>
<path d="M9.14562 19.72C9.13762 19.6976 9.15042 19.6912 9.16802 19.6864C9.16002 19.6976 9.15362 19.7088 9.14562 19.72Z" fill="#FBFBFB"/>
<path d="M9.64157 19.7504C9.63197 19.728 9.64477 19.7216 9.66397 19.7184C9.65597 19.7296 9.64957 19.7392 9.64157 19.7504Z" fill="#FBFBFB"/>
<path d="M9.61278 19.8432C9.59998 19.8208 9.61598 19.816 9.63358 19.8128C9.62718 19.8224 9.61918 19.8336 9.61278 19.8432Z" fill="#FBFBFB"/>
<path d="M9.08325 19.8752C9.07525 19.8528 9.08805 19.8464 9.10565 19.8416C9.09765 19.8528 9.09125 19.864 9.08325 19.8752Z" fill="#FBFBFB"/>
<path d="M12.328 19.9056C12.328 19.8848 12.3376 19.8752 12.36 19.88C12.3488 19.888 12.3392 19.8976 12.328 19.9056Z" fill="#FBFBFB"/>
<path d="M9.57919 19.968C9.56959 19.9456 9.58239 19.9376 9.60159 19.9344C9.59359 19.9456 9.58719 19.9568 9.57919 19.968Z" fill="#FBFBFB"/>
<path d="M9.02236 20.0304C9.01276 20.008 9.02716 20.0016 9.04476 19.9984C9.03676 20.0096 9.03036 20.0208 9.02236 20.0304Z" fill="#FBFBFB"/>
<path d="M9.55046 20.0608C9.53926 20.0384 9.55366 20.032 9.57126 20.0304C9.56486 20.04 9.55686 20.0512 9.55046 20.0608Z" fill="#FBFBFB"/>
<path d="M11.832 20.1856C11.8336 20.1664 11.8416 20.1552 11.864 20.16C11.8528 20.168 11.8432 20.1776 11.832 20.1856Z" fill="#FBFBFB"/>
<path d="M11.7679 20.216C11.7711 20.1968 11.7791 20.184 11.8015 20.1936C11.7903 20.2016 11.7791 20.208 11.7679 20.216Z" fill="#FBFBFB"/>
<path d="M9.48796 20.2784C9.47676 20.256 9.49116 20.2496 9.50876 20.2448C9.50236 20.256 9.49436 20.2672 9.48796 20.2784Z" fill="#FBFBFB"/>
<path d="M11.6144 20.2784C11.6176 20.2592 11.6256 20.248 11.648 20.2528C11.6368 20.2608 11.6256 20.2688 11.6144 20.2784Z" fill="#FBFBFB"/>
<path d="M25.936 12.3712C25.9264 12.3488 25.9408 12.3424 25.9568 12.3376C25.9504 12.3488 25.9424 12.36 25.936 12.3712Z" fill="#FBFBFB"/>
<path d="M10.0352 20.6432C10.0128 20.6528 10.0064 20.6384 10 20.6224C10.0112 20.6288 10.024 20.6368 10.0352 20.6432Z" fill="#FBFBFB"/>
<path d="M10.0976 20.6768C10.0752 20.6832 10.0672 20.672 10.064 20.6528C10.0752 20.6608 10.0864 20.6688 10.0976 20.6768Z" fill="#FBFBFB"/>
<path d="M10.1904 20.7392C10.168 20.744 10.16 20.7328 10.1584 20.7136C10.1696 20.7216 10.1792 20.7312 10.1904 20.7392Z" fill="#FBFBFB"/>
<path d="M24.0385 12.304C24.0161 12.3088 24.0081 12.2976 24.0081 12.2784L24.0385 12.304Z" fill="#FBFBFB"/>
<path d="M10.8416 21.456C10.8416 21.456 10.8544 21.4624 10.8544 21.464C10.8528 21.4752 10.8464 21.472 10.8416 21.4576V21.456Z" fill="#FBFBFB"/>
<path d="M23.9456 12.2416C23.9232 12.248 23.9152 12.2368 23.9136 12.216C23.9248 12.224 23.9344 12.232 23.9456 12.2416Z" fill="#FBFBFB"/>
<path d="M23.5424 12.0864C23.52 12.0928 23.512 12.08 23.5104 12.0608C23.5216 12.0688 23.5328 12.0768 23.5424 12.0864Z" fill="#FBFBFB"/>
<path d="M25.216 11.0944C25.1952 11.1008 25.1856 11.0896 25.1808 11.0704C25.192 11.0784 25.2048 11.0864 25.216 11.0944Z" fill="#FBFBFB"/>
<path d="M25.9584 10.8864C25.9392 10.8832 25.928 10.8752 25.9344 10.8528C25.9424 10.864 25.9504 10.8752 25.9584 10.8864Z" fill="#FBFBFB"/>
<path d="M27.7216 10.7264C27.7248 10.7072 27.7328 10.6944 27.7552 10.704C27.744 10.712 27.7328 10.72 27.7216 10.7264Z" fill="#FBFBFB"/>
<path d="M27.7841 10.696C27.7873 10.6768 27.7953 10.664 27.8177 10.672C27.8065 10.68 27.7953 10.688 27.7841 10.696Z" fill="#FBFBFB"/>
<path d="M27.9424 10.6048C27.9424 10.5856 27.9504 10.5728 27.9728 10.5808C27.9632 10.5888 27.952 10.5968 27.9424 10.6048Z" fill="#FBFBFB"/>
<path d="M28.0352 10.5424C28.0352 10.5216 28.0448 10.512 28.0656 10.5168C28.056 10.5248 28.0448 10.5344 28.0352 10.5424Z" fill="#FBFBFB"/>
<path d="M28.6304 9.73601C28.6224 9.71361 28.6352 9.70721 28.6528 9.70081C28.6448 9.71201 28.6384 9.72321 28.6304 9.73601Z" fill="#FBFBFB"/>
<path d="M5.23206 9.14562C5.23526 9.12642 5.24326 9.11522 5.26566 9.12162C5.25446 9.12962 5.24326 9.13762 5.23206 9.14562Z" fill="#FBFBFB"/>
<path d="M5.38721 9.08322C5.39041 9.06402 5.39681 9.05122 5.41921 9.06082C5.40801 9.06882 5.39681 9.07522 5.38721 9.08322Z" fill="#FBFBFB"/>
<path d="M9.9104 23.2864C9.9136 23.2688 9.92 23.2544 9.9424 23.264C9.9312 23.272 9.92 23.2784 9.9104 23.2864Z" fill="#FBFBFB"/>
<path d="M10.4688 23.3504C10.4512 23.3456 10.4368 23.3408 10.448 23.3184C10.4544 23.3296 10.4624 23.3392 10.4688 23.3504Z" fill="#FBFBFB"/>
<path d="M5.45117 9.05282C5.45437 9.03522 5.45917 9.02082 5.48317 9.02882C5.47197 9.03682 5.46237 9.04482 5.45117 9.05282Z" fill="#FBFBFB"/>
<path d="M28.6848 8.71518C28.6672 8.71198 28.6528 8.70398 28.6624 8.68158C28.6704 8.69278 28.6768 8.70398 28.6848 8.71518Z" fill="#FBFBFB"/>
<path d="M27.1104 7.96799C27.104 7.94559 27.1168 7.93759 27.1344 7.93439C27.1264 7.94559 27.1184 7.95679 27.1104 7.96799Z" fill="#FBFBFB"/>
<path d="M6.16321 7.56802C6.14721 7.56322 6.13121 7.55682 6.14241 7.53442L6.16321 7.56802Z" fill="#FBFBFB"/>
<path d="M27.1664 7.53598C27.1472 7.53278 27.1344 7.52478 27.144 7.50238C27.152 7.51358 27.1584 7.52478 27.1664 7.53598Z" fill="#FBFBFB"/>
<path d="M27.136 7.47199C27.1168 7.47199 27.104 7.46399 27.1104 7.44159C27.1184 7.45119 27.1264 7.46239 27.136 7.47199Z" fill="#FBFBFB"/>
<path d="M26.3008 7.41119C26.2976 7.42879 26.2912 7.44319 26.2688 7.43679L26.3008 7.41119Z" fill="#FBFBFB"/>
<path d="M10.9648 24.2816C10.9472 24.2768 10.9328 24.2704 10.9424 24.248C10.9504 24.2592 10.9568 24.2704 10.9648 24.2816Z" fill="#FBFBFB"/>
<path d="M8.24956 24.496C8.23836 24.4736 8.25276 24.4672 8.27036 24.4624C8.26396 24.4736 8.25596 24.4848 8.24956 24.496Z" fill="#FBFBFB"/>
<path d="M28.8144 7.25442C28.8112 7.23362 28.8176 7.22401 28.84 7.23041C28.832 7.23841 28.8224 7.24642 28.8144 7.25442Z" fill="#FBFBFB"/>
<path d="M7.99194 24.8672C7.99194 24.848 7.99994 24.8352 8.02234 24.8416C8.01274 24.8496 8.00154 24.8576 7.99194 24.8672Z" fill="#FBFBFB"/>
<path d="M5.45119 6.75363C5.42879 6.76003 5.42079 6.74723 5.41919 6.72803L5.45119 6.75363Z" fill="#FBFBFB"/>
<path d="M7.30403 25.272C7.31043 25.2944 7.29923 25.3008 7.28003 25.296C7.28803 25.288 7.29603 25.28 7.30403 25.272Z" fill="#FBFBFB"/>
<path d="M5.01595 6.48638C5.00475 6.48158 4.98875 6.47998 4.99355 6.46238C4.99355 6.45918 5.00955 6.45918 5.01915 6.45758C5.01915 6.46718 5.01915 6.47678 5.01595 6.48638Z" fill="#FBFBFB"/>
<path d="M5.48315 6.26237C5.48315 6.24317 5.49115 6.23037 5.51355 6.23677L5.48315 6.26237Z" fill="#FBFBFB"/>
<path d="M5.95361 5.67363C5.94561 5.65123 5.95841 5.64323 5.97601 5.63843C5.96801 5.64963 5.96001 5.66243 5.95361 5.67363Z" fill="#FBFBFB"/>
<path d="M7.55835 25.4208C7.53595 25.4256 7.52795 25.4144 7.52795 25.3952C7.53755 25.4032 7.54875 25.4128 7.55835 25.4208Z" fill="#FBFBFB"/>
<path d="M5.63686 4.52157C5.61446 4.52797 5.60646 4.51677 5.60486 4.49597C5.61606 4.50397 5.62566 4.51357 5.63686 4.52157Z" fill="#FBFBFB"/>
<path d="M5.08796 4.28798C5.10076 4.29918 5.12316 4.30558 5.11516 4.32638C5.11036 4.34238 5.09276 4.33758 5.07996 4.33598C5.08316 4.31998 5.08476 4.30398 5.08796 4.28638V4.28798Z" fill="#FBFBFB"/>
<path d="M6.06885 3.936C6.07365 3.9184 6.07845 3.904 6.10245 3.9136C6.09125 3.9216 6.08005 3.928 6.06885 3.936Z" fill="#FBFBFB"/>
<path d="M6.22241 3.87358C6.22561 3.85438 6.23521 3.84318 6.25761 3.85118C6.24641 3.85918 6.23521 3.86558 6.22241 3.87358Z" fill="#FBFBFB"/>
<path d="M11.3375 25.6672C11.3151 25.6752 11.3087 25.6624 11.3055 25.6432L11.3375 25.6672Z" fill="#FBFBFB"/>
<path d="M6.28479 3.84319C6.28799 3.82399 6.29599 3.81279 6.31839 3.82079C6.30719 3.82879 6.29599 3.83679 6.28479 3.84319Z" fill="#FBFBFB"/>
<path d="M6.34717 3.8128C6.35037 3.7936 6.35837 3.7824 6.38077 3.7888C6.36957 3.7968 6.35837 3.8048 6.34717 3.8128Z" fill="#FBFBFB"/>
<path d="M7.84636 26.2944C7.83516 26.272 7.84956 26.2656 7.86716 26.2608C7.86076 26.272 7.85276 26.2832 7.84636 26.2944Z" fill="#FBFBFB"/>
<path d="M7.55676 26.6976C7.55836 26.6784 7.56636 26.6656 7.58876 26.672C7.57756 26.68 7.56796 26.6896 7.55676 26.6976Z" fill="#FBFBFB"/>
<path d="M6.50244 3.71999C6.50244 3.69919 6.51364 3.68959 6.53444 3.69439C6.52324 3.70239 6.51204 3.71199 6.50244 3.71999Z" fill="#FBFBFB"/>
<path d="M5.23515 3.15683C5.21435 3.16163 5.20315 3.15203 5.19995 3.13123C5.21115 3.13923 5.22235 3.14723 5.23515 3.15683Z" fill="#FBFBFB"/>
<path d="M5.17277 3.12482C5.15037 3.13282 5.14397 3.12002 5.13757 3.10242C5.14877 3.11042 5.15997 3.11682 5.17277 3.12482Z" fill="#FBFBFB"/>
<path d="M9.63842 27.504C9.63522 27.4832 9.64482 27.4736 9.66562 27.4736C9.65602 27.4832 9.64802 27.4944 9.63842 27.504Z" fill="#FBFBFB"/>
<path d="M7.55686 27.7232C7.53926 27.7184 7.52486 27.7136 7.53606 27.6912C7.54246 27.7024 7.55046 27.7136 7.55686 27.7232Z" fill="#FBFBFB"/>
<path d="M7.09922 3.03842C7.09282 3.01762 7.10402 3.00802 7.12322 3.00482C7.11522 3.01602 7.10722 3.02722 7.09922 3.03842Z" fill="#FBFBFB"/>
<path d="M5.08004 3.0384C5.05924 3.0384 5.04964 3.0288 5.05444 3.008C5.06244 3.0176 5.07204 3.0288 5.08004 3.0384Z" fill="#FBFBFB"/>
<path d="M5.01761 2.94557C4.99841 2.94397 4.98561 2.93597 4.99521 2.91357C5.00321 2.92477 5.00961 2.93437 5.01761 2.94557Z" fill="#FBFBFB"/>
<path d="M7.03196 1.8592C7.01276 1.8592 7.00156 1.8512 7.00636 1.8288C7.01436 1.8384 7.02396 1.8496 7.03196 1.8592Z" fill="#FBFBFB"/>
<path d="M9.13759 28.1184C9.11519 28.1248 9.10719 28.112 9.10559 28.0944C9.11679 28.1024 9.12639 28.1104 9.13759 28.1184Z" fill="#FBFBFB"/>
<path d="M7.50242 28.4032C7.49442 28.3808 7.50722 28.3728 7.52642 28.3696C7.51842 28.3808 7.51042 28.392 7.50242 28.4032Z" fill="#FBFBFB"/>
<path d="M9.60166 28.5584C9.58246 28.5568 9.57126 28.5488 9.57606 28.5264C9.58406 28.5376 9.59206 28.5472 9.60166 28.5584Z" fill="#FBFBFB"/>
<path d="M7.06079 28.9296C7.06399 28.9104 7.07039 28.8976 7.09279 28.9056C7.08159 28.9136 7.07199 28.9216 7.06079 28.9296Z" fill="#FBFBFB"/>
<path d="M9.45277 29.6736C9.44797 29.6528 9.45917 29.6432 9.47837 29.6432C9.47037 29.6528 9.46077 29.664 9.45277 29.6736Z" fill="#FBFBFB"/>
<path d="M20.3521 16.4336C20.3521 16.4144 20.3601 16.4016 20.3825 16.4096C20.3729 16.4176 20.3617 16.4256 20.3521 16.4336Z" fill="#FBFBFB"/>
<path d="M12.4832 16.7456C12.4784 16.7648 12.4736 16.784 12.4704 16.8016C12.3792 16.816 12.288 16.7904 12.1968 16.7952C12.1744 16.7952 12.1552 16.7856 12.152 16.7648C12.1488 16.7376 12.1648 16.7152 12.1968 16.7152C12.2928 16.7152 12.3904 16.7168 12.4832 16.7472V16.7456Z" fill="white"/>
<path d="M13.472 17.3088L13.4752 17.2464C13.5056 17.2416 13.5344 17.24 13.5392 17.28C13.5392 17.2976 13.5376 17.3168 13.536 17.3344C13.5136 17.328 13.4832 17.3408 13.472 17.3088Z" fill="white"/>
<path d="M13.5424 17.28C13.5568 17.2768 13.5728 17.2704 13.5856 17.272C13.6208 17.2752 13.6784 17.2608 13.6704 17.3232C13.6624 17.3808 13.608 17.3504 13.5728 17.352C13.5632 17.328 13.552 17.304 13.5424 17.28Z" fill="white"/>
<path d="M13.5424 17.28C13.552 17.304 13.5632 17.328 13.5728 17.352C13.5504 17.3696 13.5408 17.3584 13.536 17.336C13.536 17.3184 13.5376 17.2992 13.5392 17.2816H13.5424V17.28Z" fill="#FBFBFB"/>
<path d="M8.92004 16.2768C8.98884 16.3104 9.05444 16.3504 9.11044 16.4048C9.02084 16.4016 8.95364 16.3648 8.92004 16.2768Z" fill="#FBFBFB"/>
<path d="M9.07361 16.8112C9.08641 16.7824 9.11201 16.776 9.14081 16.7744C9.20481 16.7888 9.26721 16.8048 9.22881 16.8944C9.21761 16.8864 9.20801 16.8784 9.19681 16.872C9.14721 16.8672 9.10881 16.8448 9.07361 16.8112Z" fill="white"/>
<path d="M9.10559 16.4C9.14399 16.4144 9.17919 16.432 9.20319 16.4656C9.15839 16.4624 9.11679 16.4544 9.10559 16.4Z" fill="#FBFBFB"/>
<path d="M9.31999 16.9328C9.28959 16.9296 9.26239 16.9216 9.24639 16.8912C9.23359 16.8656 9.25279 16.8512 9.26719 16.8448C9.31999 16.824 9.36639 16.8832 9.35359 16.9536C9.34239 16.9472 9.33119 16.9392 9.31999 16.9328Z" fill="white"/>
<path d="M9.19836 16.4624C9.22236 16.4704 9.25116 16.4672 9.26556 16.496C9.22716 16.5152 9.20796 16.4992 9.19836 16.4624Z" fill="#FBFBFB"/>
<path d="M9.22878 16.8944C9.20638 16.9024 9.19838 16.8912 9.19678 16.872C9.20798 16.88 9.21758 16.888 9.22878 16.8944Z" fill="white"/>
<path d="M9.01123 16.776C9.02243 16.784 9.03363 16.792 9.04483 16.8C9.02243 16.8064 9.01443 16.7952 9.01123 16.776Z" fill="white"/>
<path d="M9.35355 16.9552C9.33115 16.9648 9.32315 16.9552 9.31995 16.9344C9.33115 16.9408 9.34235 16.9488 9.35355 16.9552Z" fill="white"/>
<path d="M11.0063 27.1504C11.0287 27.1296 11.0431 27.144 11.0575 27.16C11.0383 27.1696 11.0191 27.1776 11.0063 27.1504Z" fill="white"/>
<path d="M24.568 12.3424C24.5264 12.36 24.536 12.3264 24.5328 12.3072C24.544 12.3184 24.5568 12.3312 24.568 12.3424Z" fill="#FBFBFB"/>
<path d="M8.51526 23.04C8.52646 23.048 8.53766 23.056 8.54726 23.064C8.52646 23.0704 8.51686 23.0576 8.51526 23.04Z" fill="white"/>
</svg>
