<svg width="32" height="32" viewBox="0 0 32 32" fill="none" xmlns="http://www.w3.org/2000/svg">
<path d="M27.6571 22.5802L18.2879 6.30929C18.0538 5.91066 17.7196 5.58013 17.3183 5.35047C16.9171 5.12082 16.4628 5 16.0005 5C15.5382 5 15.084 5.12082 14.6827 5.35047C14.2815 5.58013 13.9473 5.91066 13.7132 6.30929L4.34399 22.5802C4.11872 22.9658 4 23.4043 4 23.8509C4 24.2974 4.11872 24.736 4.34399 25.1215C4.57512 25.5226 4.90878 25.8549 5.31075 26.0844C5.71272 26.3139 6.16852 26.4324 6.63137 26.4275H25.3697C25.8322 26.432 26.2875 26.3134 26.6891 26.0839C27.0907 25.8544 27.424 25.5223 27.6549 25.1215C27.8805 24.7362 27.9996 24.2977 28 23.8512C28.0004 23.4046 27.882 22.966 27.6571 22.5802ZM15.1434 13.5711C15.1434 13.3437 15.2337 13.1257 15.3945 12.965C15.5552 12.8043 15.7732 12.714 16.0005 12.714C16.2279 12.714 16.4459 12.8043 16.6066 12.965C16.7673 13.1257 16.8576 13.3437 16.8576 13.5711V17.8566C16.8576 18.0839 16.7673 18.3019 16.6066 18.4626C16.4459 18.6234 16.2279 18.7137 16.0005 18.7137C15.7732 18.7137 15.5552 18.6234 15.3945 18.4626C15.2337 18.3019 15.1434 18.0839 15.1434 17.8566V13.5711ZM16.0005 22.9991C15.7463 22.9991 15.4977 22.9237 15.2863 22.7825C15.0748 22.6412 14.9101 22.4404 14.8127 22.2055C14.7154 21.9706 14.69 21.7121 14.7396 21.4627C14.7892 21.2133 14.9116 20.9842 15.0914 20.8044C15.2712 20.6246 15.5003 20.5022 15.7497 20.4526C15.9991 20.4029 16.2576 20.4284 16.4925 20.5257C16.7275 20.623 16.9282 20.7878 17.0695 20.9992C17.2108 21.2107 17.2862 21.4592 17.2862 21.7135C17.2862 22.0545 17.1507 22.3815 16.9096 22.6226C16.6685 22.8637 16.3415 22.9991 16.0005 22.9991Z" fill="#1C1C1C"/>
</svg>
