<svg width="32" height="32" viewBox="0 0 32 32" fill="none" xmlns="http://www.w3.org/2000/svg">
<path d="M27.6128 22.1819L18.5669 6.47228C18.3049 6.02419 17.9301 5.6525 17.4799 5.39421C17.0296 5.13591 16.5196 5 16.0005 5C15.4814 5 14.9714 5.13591 14.5212 5.39421C14.0709 5.6525 13.6962 6.02419 13.4341 6.47228L4.38823 22.1819C4.13399 22.6167 4 23.1113 4 23.615C4 24.1187 4.13399 24.6134 4.38823 25.0482C4.64734 25.4985 5.02159 25.8718 5.47258 26.1298C5.92358 26.3877 6.43507 26.521 6.9546 26.516H25.0464C25.5656 26.5207 26.0767 26.3872 26.5273 26.1293C26.9779 25.8713 27.3518 25.4982 27.6107 25.0482C27.8653 24.6136 27.9996 24.119 28 23.6153C28.0004 23.1116 27.8667 22.6169 27.6128 22.1819ZM25.4612 23.8059C25.4192 23.8776 25.3585 23.9366 25.2857 23.9766C25.2128 24.0167 25.1305 24.0363 25.0475 24.0335H6.9546C6.87153 24.0363 6.78923 24.0167 6.71639 23.9766C6.64356 23.9366 6.58291 23.8776 6.54084 23.8059C6.50515 23.7479 6.48626 23.6811 6.48626 23.613C6.48626 23.5449 6.50515 23.4781 6.54084 23.4201L15.5868 7.71047C15.6315 7.64152 15.6929 7.58486 15.7651 7.54563C15.8374 7.50641 15.9183 7.48586 16.0005 7.48586C16.0827 7.48586 16.1637 7.50641 16.2359 7.54563C16.3082 7.58486 16.3695 7.64152 16.4143 7.71047L25.4592 23.4201C25.4952 23.4779 25.5144 23.5446 25.5148 23.6127C25.5151 23.6808 25.4966 23.7477 25.4612 23.8059ZM14.7592 16.9995V13.6894C14.7592 13.3602 14.89 13.0444 15.1228 12.8116C15.3556 12.5788 15.6713 12.4481 16.0005 12.4481C16.3297 12.4481 16.6455 12.5788 16.8782 12.8116C17.111 13.0444 17.2418 13.3602 17.2418 13.6894V16.9995C17.2418 17.3287 17.111 17.6444 16.8782 17.8772C16.6455 18.11 16.3297 18.2408 16.0005 18.2408C15.6713 18.2408 15.3556 18.11 15.1228 17.8772C14.89 17.6444 14.7592 17.3287 14.7592 16.9995ZM17.6556 21.1371C17.6556 21.4645 17.5585 21.7844 17.3766 22.0566C17.1948 22.3288 16.9363 22.5409 16.6339 22.6662C16.3315 22.7915 15.9987 22.8242 15.6776 22.7604C15.3566 22.6965 15.0617 22.5389 14.8302 22.3074C14.5988 22.076 14.4411 21.781 14.3773 21.46C14.3134 21.139 14.3462 20.8062 14.4714 20.5038C14.5967 20.2013 14.8088 19.9428 15.081 19.761C15.3532 19.5791 15.6732 19.4821 16.0005 19.4821C16.4395 19.4821 16.8604 19.6564 17.1708 19.9668C17.4812 20.2772 17.6556 20.6982 17.6556 21.1371Z" fill="#1C1C1C"/>
</svg>
