<svg id="图层_1_复制" data-name="图层 1_复制" xmlns="http://www.w3.org/2000/svg" viewBox="0 0 1920 1080"><defs><style>.cls-1{fill:#010101;}</style></defs><path class="cls-1" d="M1025,524.9a29.1,29.1,0,0,0-16.2-7.1c-6.4-.7-12.5.7-18.6,2.6-1.3.4-2.2.4-3-1.1a40.4,40.4,0,0,1,1.4-5.5,29.5,29.5,0,0,0,1.3-15.8c-1.4-8.2-4.9-15.2-13.1-19.2s-22.4-.3-27,8.3a33,33,0,0,0-2.6,26.4c.5,1.6.8,3.2,1.3,4.8s-.2,1.9-1.2,2.4l-1.4-.3c-5.9-1.6-11.8-3.4-18.1-2.7-9,1.1-16.6,4.5-20.8,13.1s-2,18.3,4.1,24.4a25.8,25.8,0,0,0,17.2,7.1c5.9.4,11.5-1,17.1-2.6,1.2-.3,2.2-.8,3.3.9s-.1.7-.2,1.1c-2,6.3-3.8,12.8-2.7,19.5,1.3,8.3,4.6,15.4,12.6,19.7,9.5,5,23.2.6,27.8-8.2a33.8,33.8,0,0,0,2.6-26,29,29,0,0,1-1.6-6.9c2.4-1,4.6,0,6.3.7a31.7,31.7,0,0,0,15.8,1.6c8.5-1.3,15.8-4.7,19.7-13.2S1031.2,530.3,1025,524.9Zm-33.9,15.8c-.4,6.7-4.6,10-11,11.3-1.6,6.8-5.2,11.6-12.9,11.1s-10-4.5-11.3-10.9c-8.4-2.9-11.3-6.1-11.2-12.4s2.9-9.2,11.1-12c1.5-6.6,5.2-11.3,12.9-10.9s9.9,4.5,11.2,10.9C986.7,529.4,991.5,533,991.1,540.7Z"/><path class="cls-1" d="M971.9,543.8A21.1,21.1,0,0,1,973,552c-.2,2.9-1.6,4-5.1,4s-4.9-1.1-5.1-4.1a26.8,26.8,0,0,1,.2-4,30.1,30.1,0,0,1,.8-3.9,21.2,21.2,0,0,1-7.6,1.1c-3.2-.2-4.3-1.6-4.2-5.4s1.1-4.7,4.3-4.8a17.1,17.1,0,0,1,7.2,1.1,69.8,69.8,0,0,1-.7-7.5c0-3.3,1.5-4.5,5.2-4.5s5,1.2,5,4.6a15.5,15.5,0,0,1-1.4,7.5,22.7,22.7,0,0,1,8.1-1.2c3.2.2,4.3,1.6,4.2,5.4s-1.2,4.7-4.3,4.8A17.3,17.3,0,0,1,971.9,543.8Z"/></svg>