<svg id="图层_1_复制" data-name="图层 1_复制" xmlns="http://www.w3.org/2000/svg" viewBox="0 0 126.35 125.98"><defs><style>.cls-1{fill:#010101;}</style></defs><path class="cls-1" d="M1025,524.87a29,29,0,0,0-16.17-7.12c-6.44-.65-12.55.76-18.6,2.63-1.3.4-2.24.46-3-1.12a43.3,43.3,0,0,1,1.43-5.49A28.89,28.89,0,0,0,989.94,498c-1.41-8.24-4.93-15.23-13.17-19.25-9-4.39-22.33-.24-26.95,8.28a33.08,33.08,0,0,0-2.64,26.45c.48,1.58.84,3.2,1.35,4.77.4,1.24-.2,1.88-1.27,2.45-.39-.09-.87-.16-1.33-.29-5.92-1.67-11.82-3.44-18.09-2.7-9,1.06-16.66,4.43-20.87,13.09-4.56,9.38-2,18.3,4.16,24.36a26,26,0,0,0,17.15,7.14c6,.32,11.53-1,17.12-2.63,1.17-.33,2.22-.81,3.27.93a6.09,6.09,0,0,1-.15,1c-2,6.36-3.78,12.83-2.72,19.55,1.32,8.31,4.57,15.41,12.61,19.67,9.49,5,23.18.58,27.77-8.16a33.45,33.45,0,0,0,2.58-26,32.05,32.05,0,0,1-1.52-6.92c2.38-1,4.53,0,6.31.69a30.19,30.19,0,0,0,15.72,1.59c8.49-1.25,15.82-4.69,19.78-13.15C1032.66,541.23,1031.25,530.28,1025,524.87Zm-33.91,15.85c-.36,6.65-4.57,10-11,11.3-1.6,6.76-5.22,11.53-12.93,11.11-6.65-.35-10-4.54-11.25-10.89-8.47-2.9-11.3-6.14-11.21-12.48.09-6.07,2.91-9.18,11-11.94,1.56-6.62,5.19-11.37,12.89-11,6.66.35,10,4.56,11.28,10.94C986.73,529.4,991.49,533,991.08,540.72Z" transform="translate(-904.66 -477.01)"/><path class="cls-1" d="M971.85,543.83A21.87,21.87,0,0,1,973,552c-.2,2.91-1.66,4-5.15,4s-4.86-1.1-5-4.05a23.19,23.19,0,0,1,.19-4c.12-1.1.42-2.19.76-3.87a22.5,22.5,0,0,1-7.59,1.08c-3.19-.19-4.29-1.65-4.21-5.42.08-3.39,1.17-4.68,4.3-4.81a18.19,18.19,0,0,1,7.21,1.07c-.25-2.67-.65-5.06-.65-7.46,0-3.34,1.45-4.47,5.14-4.45s5,1.19,5.07,4.57a15.75,15.75,0,0,1-1.44,7.47,24,24,0,0,1,8.06-1.21c3.19.2,4.3,1.66,4.21,5.43-.08,3.39-1.18,4.68-4.31,4.81A18.45,18.45,0,0,1,971.85,543.83Z" transform="translate(-904.66 -477.01)"/></svg>