<svg width="18" height="20" viewBox="0 0 18 20" fill="none" xmlns="http://www.w3.org/2000/svg">
<path d="M14.5 10.9167H13.8767L12.0433 12.75H13.7942L15.4167 14.5833H2.58333L4.215 12.75H6.09417L4.26083 10.9167H3.5L0.75 13.6667V17.3333C0.75 17.8196 0.943154 18.2859 1.28697 18.6297C1.63079 18.9735 2.0971 19.1667 2.58333 19.1667H15.4167C15.9029 19.1667 16.3692 18.9735 16.713 18.6297C17.0568 18.2859 17.25 17.8196 17.25 17.3333V13.6667L14.5 10.9167ZM13.5833 6.28749L9.04583 10.825L5.79167 7.57999L10.3383 3.04249L13.5833 6.28749ZM9.69667 1.09916L3.8575 6.93832C3.77252 7.02313 3.7051 7.12386 3.6591 7.23475C3.6131 7.34564 3.58943 7.46452 3.58943 7.58457C3.58943 7.70463 3.6131 7.8235 3.6591 7.93439C3.7051 8.04529 3.77252 8.14602 3.8575 8.23082L8.395 12.75C8.7525 13.1258 9.33 13.1258 9.6875 12.75L15.5175 6.93832C15.6025 6.85352 15.6699 6.75279 15.7159 6.64189C15.7619 6.531 15.7856 6.41213 15.7856 6.29207C15.7856 6.17202 15.7619 6.05314 15.7159 5.94225C15.6699 5.83136 15.6025 5.73063 15.5175 5.64582L10.98 1.10832C10.8973 1.02179 10.7981 0.952753 10.6882 0.905306C10.5783 0.857859 10.46 0.83297 10.3403 0.832115C10.2206 0.83126 10.1019 0.854457 9.99137 0.900329C9.88081 0.946201 9.7806 1.01381 9.69667 1.09916Z" fill="#554236"/>
</svg>
