<svg width="32" height="32" viewBox="0 0 32 32" fill="none" xmlns="http://www.w3.org/2000/svg">
<path d="M16 4C9.31429 4 4 9.31429 4 16C4 22.6857 9.31429 28 16 28C22.6857 28 28 22.6857 28 16C28 9.31429 22.6857 4 16 4ZM16 26.2857C10.3429 26.2857 5.71429 21.6571 5.71429 16C5.71429 10.3429 10.3429 5.71429 16 5.71429C21.6571 5.71429 26.2857 10.3429 26.2857 16C26.2857 21.6571 21.6571 26.2857 16 26.2857Z" fill="#1C1C1C"/>
<path d="M20.6286 22L16 17.3714L11.3714 22L10 20.6286L14.6286 16L10 11.3714L11.3714 10L16 14.6286L20.6286 10L22 11.3714L17.3714 16L22 20.6286L20.6286 22Z" fill="#1C1C1C"/>
</svg>
