<svg width="32" height="32" viewBox="0 0 32 32" fill="none" xmlns="http://www.w3.org/2000/svg">
<path d="M10 7.5L5 12M5 12V6M5 12H11" stroke="#1C1C1C" stroke-linecap="round" stroke-linejoin="round"/>
<mask id="mask0_95_2922" style="mask-type:alpha" maskUnits="userSpaceOnUse" x="5" y="4" width="24" height="24">
<circle cx="11" cy="11" r="11" transform="matrix(-1 0 0 1 28 5)" stroke="black"/>
</mask>
<g mask="url(#mask0_95_2922)">
<path d="M11 10L8 6C8 5.33333 8.1 4 8.5 4C8.9 4 10.3333 2.66667 11 2C12.1667 2 14.8 2.1 16 2.5C17.5 3 22 3 23.5 3C24.7 3 27.3333 3.66667 28.5 4L31 9C31.5 10 31.5 12 31.5 13C31.5 14 29 21 29 21.5C29 21.9 26.6667 26.6667 25.5 29L12.5 28L9 26L11 24.5L13 17L11 10Z" fill="#1C1C1C"/>
</g>
</svg>
